%
M48
M72
T01C0.0120
T02C0.0236
T03C0.0315
T04C0.0320
T05C0.0400
T06C0.0440
T07C0.0730
%
T01
X10174Y8861
X3649Y19786
T02
X2838Y20824
X3838Y20824
X5412Y20180
X7525Y20430
X8956Y20967
X10924Y20967
X12355Y20430
X13286Y18999
X14074Y21755
X14074Y22861
X15074Y22861
X15074Y21755
X16649Y22149
X16649Y20967
X18617Y20967
X18617Y22149
X13881Y12412
X13381Y9412
X9743Y12412
X8562Y11912
X7381Y11912
X5412Y13881
X4338Y15381
X2656Y15456
X3838Y17424
X8562Y18211
X10031Y18211
X9743Y15456
X8452Y9030
X4952Y8530
X2908Y10030
X16574Y4861
X16574Y3861
X18542Y3680
X18542Y4861
T03
X4200Y10562
X4987Y10562
X5775Y10562
X6562Y10562
X7349Y10562
X8137Y10562
X8924Y10562
X9712Y10562
X10499Y10562
X11286Y10562
X11286Y19223
X10499Y19223
X9712Y19223
X8924Y19223
X8137Y19223
X7349Y19223
X6562Y19223
X5775Y19223
X4987Y19223
X4200Y19223
T04
X4723Y12385
X5723Y12385
X3074Y11861
X3149Y6873
X4149Y6873
X9759Y6719
X10603Y6605
X11353Y6105
X11353Y7105
X11916Y8341
X11916Y9341
X9759Y9719
X14637Y8373
X14708Y10176
X14308Y20172
X13808Y20922
X13308Y20172
T05
X3074Y22861
X3074Y21861
X4074Y21861
X4074Y22861
X5074Y22861
X5074Y21861
X6074Y21861
X6074Y22861
X7074Y22861
X7074Y21861
X8074Y21861
X9074Y21861
X9074Y22861
X8074Y22861
X10074Y22861
X10074Y21861
X11074Y21861
X11074Y22861
X12074Y22861
X12074Y21861
X13074Y21861
X13074Y22861
X12772Y16786
X12772Y15786
X12772Y14786
X12772Y13786
X12772Y12786
X12772Y11786
X12772Y10786
X13491Y6404
X13491Y5404
X13491Y4404
X13491Y3404
X11574Y4861
X10574Y4861
X9574Y4861
T06
X3074Y4877
X4074Y4877
X5074Y4877
X6074Y4877
X7074Y4877
X8074Y4877
T07
X17574Y2961
X17574Y5861
X17574Y19861
X17574Y22761
M30
