G75*
%MOIN*%
%OFA0B0*%
%FSLAX24Y24*%
%IPPOS*%
%LPD*%
%AMOC8*
5,1,8,0,0,1.08239X$1,22.5*
%
%ADD10C,0.0000*%
%ADD11C,0.0600*%
%ADD12C,0.0740*%
%ADD13C,0.0740*%
%ADD14OC8,0.0520*%
%ADD15C,0.1095*%
%ADD16OC8,0.1000*%
%ADD17OC8,0.0620*%
%ADD18C,0.0620*%
%ADD19OC8,0.0600*%
%ADD20C,0.0160*%
%ADD21R,0.0356X0.0356*%
%ADD22C,0.0157*%
%ADD23C,0.0079*%
%ADD24C,0.0240*%
D10*
X002074Y001361D02*
X002074Y023857D01*
X019743Y023857D01*
X019743Y001361D01*
X002074Y001361D01*
D11*
X004200Y010562D03*
X004987Y010562D03*
X005775Y010562D03*
X006562Y010562D03*
X007349Y010562D03*
X008137Y010562D03*
X008924Y010562D03*
X009712Y010562D03*
X010499Y010562D03*
X011286Y010562D03*
X011286Y019223D03*
X010499Y019223D03*
X009712Y019223D03*
X008924Y019223D03*
X008137Y019223D03*
X007349Y019223D03*
X006562Y019223D03*
X005775Y019223D03*
X004987Y019223D03*
X004200Y019223D03*
D12*
X012402Y016786D02*
X013142Y016786D01*
X013142Y015786D02*
X012402Y015786D01*
X012402Y014786D02*
X013142Y014786D01*
X013142Y013786D02*
X012402Y013786D01*
X012402Y012786D02*
X013142Y012786D01*
X013142Y011786D02*
X012402Y011786D01*
X012402Y010786D02*
X013142Y010786D01*
X008074Y005247D02*
X008074Y004507D01*
X007074Y004507D02*
X007074Y005247D01*
X006074Y005247D02*
X006074Y004507D01*
X005074Y004507D02*
X005074Y005247D01*
X004074Y005247D02*
X004074Y004507D01*
X003074Y004507D02*
X003074Y005247D01*
D13*
X009574Y004861D03*
X010574Y004861D03*
X011574Y004861D03*
X013491Y004404D03*
X013491Y003404D03*
X013491Y005404D03*
X013491Y006404D03*
X013308Y020172D03*
X013808Y020922D03*
X014308Y020172D03*
D14*
X009759Y009719D03*
X011353Y007105D03*
X010603Y006605D03*
X011353Y006105D03*
X009759Y006719D03*
X005723Y012385D03*
X004723Y012385D03*
X004149Y006873D03*
X003149Y006873D03*
D15*
X017574Y005861D03*
X017574Y002961D03*
X017574Y019861D03*
X017574Y022761D03*
D16*
X014708Y010176D03*
X014637Y008373D03*
X003074Y011861D03*
D17*
X011916Y008341D03*
D18*
X011916Y009341D03*
D19*
X012074Y021861D03*
X012074Y022861D03*
X013074Y022861D03*
X013074Y021861D03*
X011074Y021861D03*
X011074Y022861D03*
X010074Y022861D03*
X010074Y021861D03*
X009074Y021861D03*
X009074Y022861D03*
X008074Y022861D03*
X008074Y021861D03*
X007074Y021861D03*
X007074Y022861D03*
X006074Y022861D03*
X006074Y021861D03*
X005074Y021861D03*
X005074Y022861D03*
X004074Y022861D03*
X004074Y021861D03*
X003074Y021861D03*
X003074Y022861D03*
D20*
X002817Y022442D02*
X002254Y022442D01*
X002254Y022600D02*
X002658Y022600D01*
X002595Y022663D02*
X002876Y022383D01*
X003272Y022383D01*
X003552Y022663D01*
X003552Y023059D01*
X003272Y023340D01*
X002876Y023340D01*
X002595Y023059D01*
X002595Y022663D01*
X002595Y022759D02*
X002254Y022759D01*
X002254Y022917D02*
X002595Y022917D01*
X002612Y023076D02*
X002254Y023076D01*
X002254Y023234D02*
X002770Y023234D01*
X002254Y023393D02*
X017213Y023393D01*
X017251Y023415D02*
X017169Y023367D01*
X017093Y023309D01*
X017026Y023242D01*
X016968Y023166D01*
X016920Y023084D01*
X016883Y022995D01*
X016859Y022903D01*
X016851Y022841D01*
X017494Y022841D01*
X017494Y023484D01*
X017432Y023476D01*
X017339Y023451D01*
X017251Y023415D01*
X017494Y023393D02*
X017654Y023393D01*
X017654Y023484D02*
X017654Y022841D01*
X018297Y022841D01*
X018289Y022903D01*
X018264Y022995D01*
X018228Y023084D01*
X018180Y023166D01*
X018122Y023242D01*
X018055Y023309D01*
X017979Y023367D01*
X017896Y023415D01*
X017808Y023451D01*
X017716Y023476D01*
X017654Y023484D01*
X017654Y023234D02*
X017494Y023234D01*
X017494Y023076D02*
X017654Y023076D01*
X017654Y022917D02*
X017494Y022917D01*
X017494Y022841D02*
X017654Y022841D01*
X017654Y022681D01*
X018297Y022681D01*
X018289Y022619D01*
X018264Y022527D01*
X018228Y022439D01*
X018180Y022356D01*
X018122Y022280D01*
X018055Y022213D01*
X017979Y022155D01*
X017896Y022107D01*
X017808Y022071D01*
X017716Y022046D01*
X017654Y022038D01*
X017654Y022681D01*
X017494Y022681D01*
X017494Y022038D01*
X017432Y022046D01*
X017339Y022071D01*
X017251Y022107D01*
X017169Y022155D01*
X017093Y022213D01*
X017026Y022280D01*
X016968Y022356D01*
X016920Y022439D01*
X016883Y022527D01*
X016859Y022619D01*
X016851Y022681D01*
X017494Y022681D01*
X017494Y022841D01*
X017494Y022759D02*
X013554Y022759D01*
X013554Y022841D02*
X013094Y022841D01*
X013094Y022881D01*
X013554Y022881D01*
X013554Y023060D01*
X013273Y023341D01*
X013094Y023341D01*
X013094Y022881D01*
X013054Y022881D01*
X013054Y023341D01*
X012875Y023341D01*
X012594Y023060D01*
X012594Y022881D01*
X013054Y022881D01*
X013054Y022841D01*
X013094Y022841D01*
X013094Y022381D01*
X013273Y022381D01*
X013554Y022662D01*
X013554Y022841D01*
X013554Y022917D02*
X016862Y022917D01*
X016917Y023076D02*
X013538Y023076D01*
X013380Y023234D02*
X017020Y023234D01*
X016864Y022600D02*
X013492Y022600D01*
X013333Y022442D02*
X016919Y022442D01*
X017024Y022283D02*
X013303Y022283D01*
X013265Y022322D02*
X012883Y022322D01*
X012613Y022052D01*
X012613Y021790D01*
X012535Y021711D01*
X012535Y022052D01*
X012265Y022322D01*
X011883Y022322D01*
X011613Y022052D01*
X011613Y021670D01*
X011795Y021488D01*
X011795Y021444D01*
X010378Y020027D01*
X010378Y019672D01*
X010238Y019614D01*
X010108Y019484D01*
X010105Y019477D01*
X010102Y019484D01*
X009990Y019596D01*
X009990Y020018D01*
X010661Y020689D01*
X010778Y020806D01*
X010778Y021278D01*
X010900Y021400D01*
X011265Y021400D01*
X011535Y021670D01*
X011535Y022052D01*
X011265Y022322D01*
X010883Y022322D01*
X010613Y022052D01*
X010613Y021679D01*
X010378Y021444D01*
X010378Y020972D01*
X010148Y020742D01*
X010148Y021400D01*
X010265Y021400D01*
X010535Y021670D01*
X010535Y022052D01*
X010265Y022322D01*
X009883Y022322D01*
X009613Y022052D01*
X009613Y021670D01*
X009748Y021536D01*
X009748Y020657D01*
X008803Y019712D01*
X008803Y019672D01*
X008663Y019614D01*
X008534Y019484D01*
X008531Y019477D01*
X008527Y019484D01*
X008416Y019596D01*
X008416Y020963D01*
X008868Y021416D01*
X008883Y021400D01*
X009265Y021400D01*
X009535Y021670D01*
X009535Y022052D01*
X009265Y022322D01*
X008883Y022322D01*
X008613Y022052D01*
X008613Y021727D01*
X008015Y021129D01*
X008015Y019672D01*
X007876Y019614D01*
X007746Y019484D01*
X007743Y019477D01*
X007740Y019484D01*
X007610Y019614D01*
X007441Y019684D01*
X007258Y019684D01*
X007205Y019662D01*
X006881Y019986D01*
X006566Y019986D01*
X005152Y021400D01*
X005265Y021400D01*
X005535Y021670D01*
X005535Y022052D01*
X005425Y022161D01*
X005558Y022161D01*
X005640Y022079D01*
X005613Y022052D01*
X005613Y021670D01*
X005883Y021400D01*
X006265Y021400D01*
X006535Y021670D01*
X006535Y022052D01*
X006265Y022322D01*
X005996Y022322D01*
X005937Y022381D01*
X006054Y022381D01*
X006054Y022841D01*
X006094Y022841D01*
X006094Y022881D01*
X006554Y022881D01*
X006554Y023060D01*
X006273Y023341D01*
X006094Y023341D01*
X006094Y022881D01*
X006054Y022881D01*
X006054Y023341D01*
X005875Y023341D01*
X005594Y023060D01*
X005594Y022881D01*
X006054Y022881D01*
X006054Y022841D01*
X005594Y022841D01*
X005594Y022662D01*
X005695Y022561D01*
X005453Y022561D01*
X005554Y022662D01*
X005554Y022841D01*
X005094Y022841D01*
X005094Y022881D01*
X005554Y022881D01*
X005554Y023060D01*
X005273Y023341D01*
X005094Y023341D01*
X005094Y022881D01*
X005054Y022881D01*
X005054Y023341D01*
X004875Y023341D01*
X004594Y023060D01*
X004594Y022881D01*
X005054Y022881D01*
X005054Y022841D01*
X004594Y022841D01*
X004594Y022662D01*
X004695Y022561D01*
X004453Y022561D01*
X004554Y022662D01*
X004554Y022841D01*
X004094Y022841D01*
X004094Y022881D01*
X004554Y022881D01*
X004554Y023060D01*
X004273Y023341D01*
X004094Y023341D01*
X004094Y022881D01*
X004054Y022881D01*
X004054Y023341D01*
X003875Y023341D01*
X003594Y023060D01*
X003594Y022881D01*
X004054Y022881D01*
X004054Y022841D01*
X003594Y022841D01*
X003594Y022662D01*
X003743Y022513D01*
X003674Y022444D01*
X003421Y022191D01*
X003272Y022340D01*
X002876Y022340D01*
X002595Y022059D01*
X002595Y021663D01*
X002876Y021383D01*
X003212Y021383D01*
X003074Y021244D01*
X003074Y018978D01*
X003191Y018861D01*
X007874Y014178D01*
X007874Y010950D01*
X007746Y010823D01*
X007743Y010815D01*
X007740Y010823D01*
X007610Y010952D01*
X007441Y011023D01*
X007258Y011023D01*
X007088Y010952D01*
X006959Y010823D01*
X006956Y010815D01*
X006953Y010823D01*
X006823Y010952D01*
X006654Y011023D01*
X006470Y011023D01*
X006301Y010952D01*
X006171Y010823D01*
X006168Y010815D01*
X006165Y010823D01*
X006036Y010952D01*
X005866Y011023D01*
X005695Y011023D01*
X005474Y011244D01*
X005357Y011361D01*
X003991Y011361D01*
X003591Y010961D01*
X003474Y010844D01*
X003474Y007143D01*
X003323Y007294D01*
X002974Y007294D01*
X002728Y007047D01*
X002728Y006699D01*
X002974Y006452D01*
X003323Y006452D01*
X003474Y006603D01*
X003474Y006278D01*
X003974Y005778D01*
X003968Y005778D01*
X003773Y005697D01*
X003624Y005547D01*
X003574Y005427D01*
X003524Y005547D01*
X003374Y005697D01*
X003179Y005778D01*
X002968Y005778D01*
X002773Y005697D01*
X002624Y005547D01*
X002543Y005352D01*
X002543Y004401D01*
X002624Y004206D01*
X002773Y004057D01*
X002968Y003976D01*
X003179Y003976D01*
X003374Y004057D01*
X003524Y004206D01*
X003574Y004327D01*
X003624Y004206D01*
X003773Y004057D01*
X003968Y003976D01*
X004179Y003976D01*
X004374Y004057D01*
X004524Y004206D01*
X004574Y004327D01*
X004624Y004206D01*
X004773Y004057D01*
X004968Y003976D01*
X005179Y003976D01*
X005374Y004057D01*
X005524Y004206D01*
X005574Y004327D01*
X005624Y004206D01*
X005773Y004057D01*
X005968Y003976D01*
X006179Y003976D01*
X006374Y004057D01*
X006524Y004206D01*
X006574Y004327D01*
X006624Y004206D01*
X006773Y004057D01*
X006968Y003976D01*
X007179Y003976D01*
X007374Y004057D01*
X007524Y004206D01*
X007563Y004300D01*
X007564Y004296D01*
X007603Y004219D01*
X007654Y004149D01*
X007716Y004087D01*
X007786Y004036D01*
X007863Y003997D01*
X007945Y003970D01*
X008031Y003957D01*
X008044Y003957D01*
X008044Y004847D01*
X008104Y004847D01*
X008104Y004907D01*
X008624Y004907D01*
X008624Y005290D01*
X008610Y005376D01*
X008584Y005458D01*
X008544Y005535D01*
X008493Y005605D01*
X008432Y005666D01*
X008362Y005717D01*
X008285Y005757D01*
X008203Y005783D01*
X008117Y005797D01*
X008104Y005797D01*
X008104Y004907D01*
X008044Y004907D01*
X008044Y005797D01*
X008031Y005797D01*
X007945Y005783D01*
X007863Y005757D01*
X007786Y005717D01*
X007716Y005666D01*
X007654Y005605D01*
X007603Y005535D01*
X007564Y005458D01*
X007563Y005453D01*
X007524Y005547D01*
X007374Y005697D01*
X007179Y005778D01*
X006968Y005778D01*
X006773Y005697D01*
X006624Y005547D01*
X006574Y005427D01*
X006524Y005547D01*
X006374Y005697D01*
X006179Y005778D01*
X005968Y005778D01*
X005773Y005697D01*
X005624Y005547D01*
X005574Y005427D01*
X005524Y005547D01*
X005374Y005697D01*
X005179Y005778D01*
X004968Y005778D01*
X004773Y005697D01*
X004697Y005621D01*
X003874Y006444D01*
X003874Y006553D01*
X003974Y006452D01*
X004323Y006452D01*
X004569Y006699D01*
X004569Y007047D01*
X004323Y007294D01*
X003974Y007294D01*
X003874Y007193D01*
X003874Y010211D01*
X003929Y010156D01*
X004105Y010083D01*
X004295Y010083D01*
X004361Y010111D01*
X004928Y009543D01*
X005023Y009504D01*
X009354Y009504D01*
X009577Y009281D01*
X009940Y009281D01*
X010197Y009538D01*
X010197Y009901D01*
X009940Y010158D01*
X009973Y010171D01*
X010102Y010301D01*
X010105Y010308D01*
X010108Y010301D01*
X010238Y010171D01*
X010274Y010157D01*
X010274Y009244D01*
X010172Y009142D01*
X010118Y009142D01*
X010015Y009099D01*
X009936Y009020D01*
X009893Y008917D01*
X009893Y008805D01*
X009936Y008702D01*
X010015Y008623D01*
X010118Y008580D01*
X010230Y008580D01*
X010333Y008623D01*
X010412Y008702D01*
X010455Y008805D01*
X010455Y008859D01*
X010674Y009078D01*
X010674Y010136D01*
X010760Y010171D01*
X010886Y010297D01*
X010920Y010249D01*
X010974Y010196D01*
X011035Y010151D01*
X011102Y010117D01*
X011174Y010094D01*
X011249Y010082D01*
X011286Y010082D01*
X011286Y010562D01*
X010960Y010562D01*
X010960Y010562D01*
X011286Y010562D01*
X011286Y010562D01*
X011286Y011042D01*
X011249Y011042D01*
X011174Y011030D01*
X011102Y011007D01*
X011035Y010972D01*
X010974Y010928D01*
X010920Y010875D01*
X010886Y010827D01*
X010760Y010952D01*
X010591Y011023D01*
X010407Y011023D01*
X010238Y010952D01*
X010108Y010823D01*
X010105Y010815D01*
X010102Y010823D01*
X009973Y010952D01*
X009833Y011010D01*
X009833Y011523D01*
X008573Y012783D01*
X008573Y014179D01*
X010874Y011878D01*
X010874Y011478D01*
X011310Y011042D01*
X011286Y011042D01*
X011286Y010562D01*
X011286Y010562D01*
X011286Y010562D01*
X011286Y010082D01*
X011324Y010082D01*
X011399Y010094D01*
X011471Y010117D01*
X011538Y010151D01*
X011599Y010196D01*
X011653Y010249D01*
X011674Y010278D01*
X011674Y010044D01*
X010591Y008961D01*
X010474Y008844D01*
X010474Y007026D01*
X010429Y007026D01*
X010183Y006779D01*
X010183Y006431D01*
X010429Y006184D01*
X010778Y006184D01*
X011024Y006431D01*
X011024Y006779D01*
X010874Y006930D01*
X010874Y008678D01*
X011431Y009236D01*
X011502Y009065D01*
X011640Y008927D01*
X011819Y008853D01*
X012013Y008853D01*
X012016Y008854D01*
X012038Y008831D01*
X011916Y008831D01*
X011713Y008831D01*
X011426Y008544D01*
X011426Y008341D01*
X011426Y008138D01*
X011713Y007851D01*
X011916Y007851D01*
X011916Y008341D01*
X011916Y008341D01*
X011426Y008341D01*
X011916Y008341D01*
X011916Y008341D01*
X011916Y007851D01*
X012119Y007851D01*
X012406Y008138D01*
X012406Y008341D01*
X011916Y008341D01*
X011916Y008341D01*
X011916Y008831D01*
X011916Y008341D01*
X011916Y008341D01*
X012406Y008341D01*
X012406Y008463D01*
X013517Y007353D01*
X013517Y007310D01*
X013556Y007215D01*
X013628Y007143D01*
X013723Y007104D01*
X013766Y007104D01*
X015013Y005857D01*
X015013Y004620D01*
X013984Y004648D01*
X013956Y004715D01*
X013802Y004869D01*
X013719Y004903D01*
X013779Y004934D01*
X013849Y004985D01*
X013911Y005046D01*
X013962Y005116D01*
X014001Y005193D01*
X014028Y005276D01*
X014041Y005361D01*
X014041Y005384D01*
X013511Y005384D01*
X013511Y005424D01*
X014041Y005424D01*
X014041Y005448D01*
X014028Y005533D01*
X014001Y005616D01*
X013962Y005693D01*
X013911Y005763D01*
X013849Y005824D01*
X013779Y005875D01*
X013719Y005905D01*
X013802Y005939D01*
X013956Y006094D01*
X014040Y006295D01*
X014040Y006513D01*
X013956Y006715D01*
X013802Y006869D01*
X013600Y006953D01*
X013382Y006953D01*
X013180Y006869D01*
X013026Y006715D01*
X012943Y006513D01*
X012943Y006295D01*
X013026Y006094D01*
X013180Y005939D01*
X013263Y005905D01*
X013203Y005875D01*
X013133Y005824D01*
X013072Y005763D01*
X013021Y005693D01*
X012981Y005616D01*
X012955Y005533D01*
X012941Y005448D01*
X012941Y005424D01*
X013471Y005424D01*
X013471Y005384D01*
X012941Y005384D01*
X012941Y005361D01*
X012955Y005276D01*
X012981Y005193D01*
X013021Y005116D01*
X013072Y005046D01*
X013133Y004985D01*
X013203Y004934D01*
X013263Y004903D01*
X013180Y004869D01*
X013026Y004715D01*
X012943Y004513D01*
X012943Y004295D01*
X013026Y004094D01*
X013180Y003939D01*
X013288Y003895D01*
X013191Y003854D01*
X013041Y003705D01*
X012960Y003510D01*
X012960Y003299D01*
X013041Y003104D01*
X013191Y002954D01*
X013386Y002874D01*
X013597Y002874D01*
X013792Y002954D01*
X013941Y003104D01*
X014022Y003299D01*
X014022Y003510D01*
X013941Y003705D01*
X013792Y003854D01*
X013694Y003895D01*
X013802Y003939D01*
X013956Y004094D01*
X013973Y004134D01*
X015013Y004106D01*
X015013Y001541D01*
X002254Y001541D01*
X002254Y023677D01*
X019365Y023677D01*
X019365Y019684D01*
X018267Y019684D01*
X018282Y019720D01*
X018282Y020002D01*
X018174Y020262D01*
X017975Y020461D01*
X017715Y020569D01*
X017433Y020569D01*
X017173Y020461D01*
X016973Y020262D01*
X016866Y020002D01*
X016866Y019720D01*
X016881Y019684D01*
X015013Y019684D01*
X015013Y010833D01*
X014989Y010856D01*
X014708Y010856D01*
X014708Y010176D01*
X014708Y009496D01*
X014989Y009496D01*
X015013Y009520D01*
X015013Y008956D01*
X014918Y009051D01*
X014356Y009051D01*
X014031Y008727D01*
X014031Y009891D01*
X014426Y009496D01*
X014708Y009496D01*
X014708Y010176D01*
X014708Y010176D01*
X014708Y010176D01*
X014708Y010856D01*
X014426Y010856D01*
X014031Y010461D01*
X014031Y011012D01*
X013992Y011107D01*
X013919Y011179D01*
X013612Y011487D01*
X013691Y011677D01*
X013691Y011895D01*
X013607Y012097D01*
X013453Y012251D01*
X013345Y012296D01*
X013443Y012336D01*
X013592Y012485D01*
X013673Y012681D01*
X013673Y012892D01*
X013592Y013087D01*
X013443Y013236D01*
X013322Y013286D01*
X013443Y013336D01*
X013592Y013485D01*
X013673Y013681D01*
X013673Y013892D01*
X013592Y014087D01*
X013443Y014236D01*
X013322Y014286D01*
X013443Y014336D01*
X013592Y014485D01*
X013673Y014681D01*
X013673Y014892D01*
X013592Y015087D01*
X013443Y015236D01*
X013322Y015286D01*
X013443Y015336D01*
X013592Y015485D01*
X013673Y015681D01*
X013673Y015892D01*
X013592Y016087D01*
X013443Y016236D01*
X013322Y016286D01*
X013443Y016336D01*
X013592Y016485D01*
X013673Y016681D01*
X013673Y016892D01*
X013592Y017087D01*
X013443Y017236D01*
X013248Y017317D01*
X012297Y017317D01*
X012102Y017236D01*
X011952Y017087D01*
X011872Y016892D01*
X011872Y016681D01*
X011952Y016485D01*
X012102Y016336D01*
X012223Y016286D01*
X012102Y016236D01*
X011952Y016087D01*
X011872Y015892D01*
X011872Y015681D01*
X011952Y015485D01*
X012102Y015336D01*
X012223Y015286D01*
X012102Y015236D01*
X011952Y015087D01*
X011872Y014892D01*
X011872Y014681D01*
X011952Y014485D01*
X012102Y014336D01*
X012223Y014286D01*
X012102Y014236D01*
X011952Y014087D01*
X011872Y013892D01*
X011872Y013681D01*
X011952Y013485D01*
X012102Y013336D01*
X012223Y013286D01*
X012102Y013236D01*
X011952Y013087D01*
X011872Y012892D01*
X011872Y012681D01*
X011952Y012485D01*
X012102Y012336D01*
X012199Y012296D01*
X012092Y012251D01*
X011937Y012097D01*
X011854Y011895D01*
X011854Y011677D01*
X011937Y011475D01*
X012092Y011321D01*
X012199Y011277D01*
X012102Y011236D01*
X011952Y011087D01*
X011917Y011001D01*
X011274Y011644D01*
X011274Y012044D01*
X011157Y012161D01*
X006074Y017244D01*
X006074Y018871D01*
X006165Y018962D01*
X006168Y018970D01*
X006171Y018962D01*
X006301Y018833D01*
X006470Y018763D01*
X006654Y018763D01*
X006823Y018833D01*
X006953Y018962D01*
X006956Y018970D01*
X006959Y018962D01*
X007088Y018833D01*
X007258Y018763D01*
X007441Y018763D01*
X007610Y018833D01*
X007740Y018962D01*
X007743Y018970D01*
X007746Y018962D01*
X007876Y018833D01*
X008045Y018763D01*
X008228Y018763D01*
X008398Y018833D01*
X008527Y018962D01*
X008531Y018970D01*
X008534Y018962D01*
X008663Y018833D01*
X008833Y018763D01*
X009016Y018763D01*
X009185Y018833D01*
X009315Y018962D01*
X009318Y018970D01*
X009321Y018962D01*
X009451Y018833D01*
X009620Y018763D01*
X009803Y018763D01*
X009973Y018833D01*
X010102Y018962D01*
X010105Y018970D01*
X010108Y018962D01*
X010238Y018833D01*
X010407Y018763D01*
X010591Y018763D01*
X010760Y018833D01*
X010890Y018962D01*
X010893Y018970D01*
X010896Y018962D01*
X011025Y018833D01*
X011195Y018763D01*
X011378Y018763D01*
X011547Y018833D01*
X011677Y018962D01*
X011747Y019132D01*
X011747Y019315D01*
X011677Y019484D01*
X011565Y019596D01*
X011565Y020176D01*
X012836Y021447D01*
X012883Y021400D01*
X013265Y021400D01*
X013535Y021670D01*
X013535Y022052D01*
X013265Y022322D01*
X013094Y022442D02*
X013054Y022442D01*
X013054Y022381D02*
X012875Y022381D01*
X012594Y022662D01*
X012594Y022841D01*
X013054Y022841D01*
X013054Y022381D01*
X013054Y022600D02*
X013094Y022600D01*
X013094Y022759D02*
X013054Y022759D01*
X013054Y022917D02*
X013094Y022917D01*
X013094Y023076D02*
X013054Y023076D01*
X013054Y023234D02*
X013094Y023234D01*
X012768Y023234D02*
X012380Y023234D01*
X012273Y023341D02*
X012094Y023341D01*
X012094Y022881D01*
X012554Y022881D01*
X012554Y023060D01*
X012273Y023341D01*
X012094Y023234D02*
X012054Y023234D01*
X012054Y023341D02*
X011875Y023341D01*
X011594Y023060D01*
X011594Y022881D01*
X012054Y022881D01*
X012054Y023341D01*
X012054Y023076D02*
X012094Y023076D01*
X012094Y022917D02*
X012054Y022917D01*
X012054Y022881D02*
X012094Y022881D01*
X012094Y022841D01*
X012554Y022841D01*
X012554Y022662D01*
X012273Y022381D01*
X012094Y022381D01*
X012094Y022841D01*
X012054Y022841D01*
X012054Y022381D01*
X011875Y022381D01*
X011594Y022662D01*
X011594Y022841D01*
X012054Y022841D01*
X012054Y022881D01*
X012054Y022759D02*
X012094Y022759D01*
X012094Y022600D02*
X012054Y022600D01*
X012054Y022442D02*
X012094Y022442D01*
X012333Y022442D02*
X012814Y022442D01*
X012844Y022283D02*
X012303Y022283D01*
X012462Y022125D02*
X012686Y022125D01*
X012613Y021966D02*
X012535Y021966D01*
X012535Y021808D02*
X012613Y021808D01*
X012722Y021332D02*
X013468Y021332D01*
X013507Y021372D02*
X013358Y021223D01*
X013277Y021028D01*
X013277Y020817D01*
X013316Y020722D01*
X013308Y020722D01*
X013265Y020722D01*
X013179Y020709D01*
X013097Y020682D01*
X013020Y020643D01*
X012950Y020592D01*
X012889Y020530D01*
X012838Y020460D01*
X012798Y020383D01*
X012772Y020301D01*
X012758Y020215D01*
X012758Y020172D01*
X012758Y020129D01*
X012772Y020043D01*
X012798Y019961D01*
X012838Y019884D01*
X012889Y019814D01*
X012950Y019753D01*
X013020Y019702D01*
X013097Y019662D01*
X013179Y019636D01*
X013265Y019622D01*
X013308Y019622D01*
X013308Y020172D01*
X013308Y020172D01*
X012758Y020172D01*
X013308Y020172D01*
X013308Y020172D01*
X013308Y019622D01*
X013351Y019622D01*
X013437Y019636D01*
X013519Y019662D01*
X013596Y019702D01*
X013666Y019753D01*
X013728Y019814D01*
X013778Y019884D01*
X013818Y019961D01*
X013819Y019965D01*
X013858Y019872D01*
X014007Y019722D01*
X014203Y019641D01*
X014414Y019641D01*
X014609Y019722D01*
X014758Y019872D01*
X014839Y020067D01*
X014839Y020278D01*
X014758Y020473D01*
X014609Y020622D01*
X014414Y020703D01*
X014292Y020703D01*
X014339Y020817D01*
X014339Y021028D01*
X014258Y021223D01*
X014109Y021372D01*
X013914Y021453D01*
X013703Y021453D01*
X013507Y021372D01*
X013355Y021491D02*
X019365Y021491D01*
X019365Y021649D02*
X013513Y021649D01*
X013535Y021808D02*
X019365Y021808D01*
X019365Y021966D02*
X013535Y021966D01*
X013462Y022125D02*
X017221Y022125D01*
X017494Y022125D02*
X017654Y022125D01*
X017654Y022283D02*
X017494Y022283D01*
X017494Y022442D02*
X017654Y022442D01*
X017654Y022600D02*
X017494Y022600D01*
X017654Y022759D02*
X019365Y022759D01*
X019365Y022917D02*
X018285Y022917D01*
X018231Y023076D02*
X019365Y023076D01*
X019365Y023234D02*
X018128Y023234D01*
X017935Y023393D02*
X019365Y023393D01*
X019365Y023551D02*
X002254Y023551D01*
X002254Y022283D02*
X002819Y022283D01*
X002661Y022125D02*
X002254Y022125D01*
X002254Y021966D02*
X002595Y021966D01*
X002595Y021808D02*
X002254Y021808D01*
X002254Y021649D02*
X002609Y021649D01*
X002768Y021491D02*
X002254Y021491D01*
X002254Y021332D02*
X003162Y021332D01*
X003074Y021174D02*
X002254Y021174D01*
X002254Y021015D02*
X003074Y021015D01*
X003074Y020857D02*
X002254Y020857D01*
X002254Y020698D02*
X003074Y020698D01*
X003074Y020540D02*
X002254Y020540D01*
X002254Y020381D02*
X003074Y020381D01*
X003074Y020223D02*
X002254Y020223D01*
X002254Y020064D02*
X003074Y020064D01*
X003074Y019906D02*
X002254Y019906D01*
X002254Y019747D02*
X003074Y019747D01*
X003074Y019589D02*
X002254Y019589D01*
X002254Y019430D02*
X003074Y019430D01*
X003074Y019272D02*
X002254Y019272D01*
X002254Y019113D02*
X003074Y019113D01*
X003097Y018955D02*
X002254Y018955D01*
X002254Y018796D02*
X003256Y018796D01*
X003414Y018638D02*
X002254Y018638D01*
X002254Y018479D02*
X003573Y018479D01*
X003731Y018321D02*
X002254Y018321D01*
X002254Y018162D02*
X003890Y018162D01*
X004048Y018004D02*
X002254Y018004D01*
X002254Y017845D02*
X004207Y017845D01*
X004365Y017687D02*
X002254Y017687D01*
X002254Y017528D02*
X004524Y017528D01*
X004682Y017370D02*
X002254Y017370D01*
X002254Y017211D02*
X004841Y017211D01*
X004999Y017053D02*
X002254Y017053D01*
X002254Y016894D02*
X005158Y016894D01*
X005316Y016736D02*
X002254Y016736D01*
X002254Y016577D02*
X005475Y016577D01*
X005633Y016419D02*
X002254Y016419D01*
X002254Y016260D02*
X005792Y016260D01*
X005950Y016102D02*
X002254Y016102D01*
X002254Y015943D02*
X006109Y015943D01*
X006267Y015785D02*
X002254Y015785D01*
X002254Y015626D02*
X006426Y015626D01*
X006584Y015468D02*
X002254Y015468D01*
X002254Y015309D02*
X006743Y015309D01*
X006901Y015151D02*
X002254Y015151D01*
X002254Y014992D02*
X007060Y014992D01*
X007218Y014834D02*
X002254Y014834D01*
X002254Y014675D02*
X007377Y014675D01*
X007535Y014517D02*
X002254Y014517D01*
X002254Y014358D02*
X007694Y014358D01*
X007852Y014200D02*
X002254Y014200D01*
X002254Y014041D02*
X007874Y014041D01*
X007874Y013883D02*
X002254Y013883D01*
X002254Y013724D02*
X007874Y013724D01*
X007874Y013566D02*
X002254Y013566D01*
X002254Y013407D02*
X007874Y013407D01*
X007874Y013249D02*
X002254Y013249D01*
X002254Y013090D02*
X007874Y013090D01*
X007874Y012932D02*
X002254Y012932D01*
X002254Y012773D02*
X004492Y012773D01*
X004542Y012823D02*
X004285Y012566D01*
X004285Y012203D01*
X004542Y011946D01*
X004905Y011946D01*
X005162Y012203D01*
X005162Y012566D01*
X004905Y012823D01*
X004542Y012823D01*
X004333Y012615D02*
X002254Y012615D01*
X002254Y012456D02*
X002734Y012456D01*
X002800Y012522D02*
X002413Y012135D01*
X002413Y011587D01*
X002800Y011200D01*
X003347Y011200D01*
X003735Y011587D01*
X003735Y012135D01*
X003347Y012522D01*
X002800Y012522D01*
X002576Y012298D02*
X002254Y012298D01*
X002254Y012139D02*
X002417Y012139D01*
X002413Y011981D02*
X002254Y011981D01*
X002254Y011822D02*
X002413Y011822D01*
X002413Y011664D02*
X002254Y011664D01*
X002254Y011505D02*
X002495Y011505D01*
X002654Y011347D02*
X002254Y011347D01*
X002254Y011188D02*
X003818Y011188D01*
X003976Y011347D02*
X003494Y011347D01*
X003652Y011505D02*
X007874Y011505D01*
X007874Y011347D02*
X005371Y011347D01*
X005530Y011188D02*
X007874Y011188D01*
X007874Y011030D02*
X005688Y011030D01*
X006117Y010871D02*
X006220Y010871D01*
X006904Y010871D02*
X007007Y010871D01*
X007692Y010871D02*
X007794Y010871D01*
X008274Y011004D02*
X008274Y012516D01*
X009433Y011357D01*
X009433Y010935D01*
X009321Y010823D01*
X009318Y010815D01*
X009315Y010823D01*
X009185Y010952D01*
X009016Y011023D01*
X008833Y011023D01*
X008663Y010952D01*
X008534Y010823D01*
X008531Y010815D01*
X008527Y010823D01*
X008398Y010952D01*
X008274Y011004D01*
X008274Y011030D02*
X009433Y011030D01*
X009433Y011188D02*
X008274Y011188D01*
X008274Y011347D02*
X009433Y011347D01*
X009285Y011505D02*
X008274Y011505D01*
X008274Y011664D02*
X009126Y011664D01*
X008968Y011822D02*
X008274Y011822D01*
X008274Y011981D02*
X008809Y011981D01*
X008651Y012139D02*
X008274Y012139D01*
X008274Y012298D02*
X008492Y012298D01*
X008334Y012456D02*
X008274Y012456D01*
X007874Y012456D02*
X006163Y012456D01*
X006163Y012385D02*
X006163Y012567D01*
X005906Y012825D01*
X005723Y012825D01*
X005541Y012825D01*
X005283Y012567D01*
X005283Y012385D01*
X005723Y012385D01*
X005723Y012385D01*
X005723Y012825D01*
X005723Y012385D01*
X005723Y012385D01*
X005283Y012385D01*
X005283Y012202D01*
X005541Y011945D01*
X005723Y011945D01*
X005723Y012385D01*
X005723Y012385D01*
X006163Y012385D01*
X005723Y012385D01*
X005723Y012385D01*
X005723Y011945D01*
X005906Y011945D01*
X006163Y012202D01*
X006163Y012385D01*
X006163Y012298D02*
X007874Y012298D01*
X007874Y012139D02*
X006100Y012139D01*
X005942Y011981D02*
X007874Y011981D01*
X007874Y011822D02*
X003735Y011822D01*
X003735Y011664D02*
X007874Y011664D01*
X008479Y010871D02*
X008582Y010871D01*
X009267Y010871D02*
X009369Y010871D01*
X009833Y011030D02*
X011173Y011030D01*
X011286Y011030D02*
X011286Y011030D01*
X011286Y010871D02*
X011286Y010871D01*
X011286Y010713D02*
X011286Y010713D01*
X011286Y010562D02*
X011674Y010562D01*
X011674Y010562D01*
X011286Y010562D01*
X011286Y010562D01*
X011286Y010554D02*
X011286Y010554D01*
X011286Y010396D02*
X011286Y010396D01*
X011286Y010237D02*
X011286Y010237D01*
X011550Y009920D02*
X010674Y009920D01*
X010674Y009762D02*
X011391Y009762D01*
X011233Y009603D02*
X010674Y009603D01*
X010674Y009445D02*
X011074Y009445D01*
X010916Y009286D02*
X010674Y009286D01*
X010674Y009128D02*
X010757Y009128D01*
X010599Y008969D02*
X010565Y008969D01*
X010474Y008811D02*
X010455Y008811D01*
X010474Y008652D02*
X010362Y008652D01*
X010474Y008494D02*
X003874Y008494D01*
X003874Y008652D02*
X009986Y008652D01*
X009893Y008811D02*
X003874Y008811D01*
X003874Y008969D02*
X009915Y008969D01*
X010084Y009128D02*
X003874Y009128D01*
X003874Y009286D02*
X009572Y009286D01*
X009414Y009445D02*
X003874Y009445D01*
X003874Y009603D02*
X004868Y009603D01*
X004710Y009762D02*
X003874Y009762D01*
X003874Y009920D02*
X004551Y009920D01*
X004393Y010079D02*
X003874Y010079D01*
X003474Y010079D02*
X002254Y010079D01*
X002254Y010237D02*
X003474Y010237D01*
X003474Y010396D02*
X002254Y010396D01*
X002254Y010554D02*
X003474Y010554D01*
X003474Y010713D02*
X002254Y010713D01*
X002254Y010871D02*
X003501Y010871D01*
X003659Y011030D02*
X002254Y011030D01*
X002254Y009920D02*
X003474Y009920D01*
X003474Y009762D02*
X002254Y009762D01*
X002254Y009603D02*
X003474Y009603D01*
X003474Y009445D02*
X002254Y009445D01*
X002254Y009286D02*
X003474Y009286D01*
X003474Y009128D02*
X002254Y009128D01*
X002254Y008969D02*
X003474Y008969D01*
X003474Y008811D02*
X002254Y008811D01*
X002254Y008652D02*
X003474Y008652D01*
X003474Y008494D02*
X002254Y008494D01*
X002254Y008335D02*
X003474Y008335D01*
X003474Y008177D02*
X002254Y008177D01*
X002254Y008018D02*
X003474Y008018D01*
X003474Y007860D02*
X002254Y007860D01*
X002254Y007701D02*
X003474Y007701D01*
X003474Y007543D02*
X002254Y007543D01*
X002254Y007384D02*
X003474Y007384D01*
X003474Y007226D02*
X003391Y007226D01*
X003874Y007226D02*
X003906Y007226D01*
X003874Y007384D02*
X010474Y007384D01*
X010474Y007226D02*
X004391Y007226D01*
X004549Y007067D02*
X009512Y007067D01*
X009585Y007140D02*
X009338Y006894D01*
X009338Y006545D01*
X009585Y006299D01*
X009933Y006299D01*
X010180Y006545D01*
X010180Y006894D01*
X009933Y007140D01*
X009585Y007140D01*
X009353Y006909D02*
X004569Y006909D01*
X004569Y006750D02*
X009338Y006750D01*
X009338Y006592D02*
X004462Y006592D01*
X004043Y006275D02*
X010339Y006275D01*
X010183Y006433D02*
X010068Y006433D01*
X010180Y006592D02*
X010183Y006592D01*
X010180Y006750D02*
X010183Y006750D01*
X010165Y006909D02*
X010312Y006909D01*
X010474Y007067D02*
X010006Y007067D01*
X010474Y007543D02*
X003874Y007543D01*
X003874Y007701D02*
X010474Y007701D01*
X010474Y007860D02*
X003874Y007860D01*
X003874Y008018D02*
X010474Y008018D01*
X010474Y008177D02*
X003874Y008177D01*
X003874Y008335D02*
X010474Y008335D01*
X010874Y008335D02*
X011426Y008335D01*
X011426Y008177D02*
X010874Y008177D01*
X010874Y008018D02*
X011547Y008018D01*
X011705Y007860D02*
X010874Y007860D01*
X010874Y007701D02*
X013168Y007701D01*
X013010Y007860D02*
X012127Y007860D01*
X011916Y007860D02*
X011916Y007860D01*
X011916Y008018D02*
X011916Y008018D01*
X011916Y008177D02*
X011916Y008177D01*
X011916Y008335D02*
X011916Y008335D01*
X011916Y008494D02*
X011916Y008494D01*
X011916Y008652D02*
X011916Y008652D01*
X011916Y008811D02*
X011916Y008811D01*
X011693Y008811D02*
X011006Y008811D01*
X010874Y008652D02*
X011534Y008652D01*
X011426Y008494D02*
X010874Y008494D01*
X011165Y008969D02*
X011598Y008969D01*
X011476Y009128D02*
X011323Y009128D01*
X011674Y010079D02*
X010674Y010079D01*
X010826Y010237D02*
X010932Y010237D01*
X010918Y010871D02*
X010841Y010871D01*
X011164Y011188D02*
X009833Y011188D01*
X009833Y011347D02*
X011005Y011347D01*
X010874Y011505D02*
X009833Y011505D01*
X009692Y011664D02*
X010874Y011664D01*
X010874Y011822D02*
X009534Y011822D01*
X009375Y011981D02*
X010771Y011981D01*
X010613Y012139D02*
X009217Y012139D01*
X009058Y012298D02*
X010454Y012298D01*
X010296Y012456D02*
X008900Y012456D01*
X008741Y012615D02*
X010137Y012615D01*
X009979Y012773D02*
X008583Y012773D01*
X008573Y012932D02*
X009820Y012932D01*
X009662Y013090D02*
X008573Y013090D01*
X008573Y013249D02*
X009503Y013249D01*
X009345Y013407D02*
X008573Y013407D01*
X008573Y013566D02*
X009186Y013566D01*
X009028Y013724D02*
X008573Y013724D01*
X008573Y013883D02*
X008869Y013883D01*
X008711Y014041D02*
X008573Y014041D01*
X008960Y014358D02*
X012080Y014358D01*
X012065Y014200D02*
X009118Y014200D01*
X009277Y014041D02*
X011934Y014041D01*
X011872Y013883D02*
X009435Y013883D01*
X009594Y013724D02*
X011872Y013724D01*
X011919Y013566D02*
X009752Y013566D01*
X009911Y013407D02*
X012031Y013407D01*
X012132Y013249D02*
X010069Y013249D01*
X010228Y013090D02*
X011956Y013090D01*
X011888Y012932D02*
X010386Y012932D01*
X010545Y012773D02*
X011872Y012773D01*
X011899Y012615D02*
X010703Y012615D01*
X010862Y012456D02*
X011982Y012456D01*
X012195Y012298D02*
X011020Y012298D01*
X011179Y012139D02*
X011980Y012139D01*
X011889Y011981D02*
X011274Y011981D01*
X011274Y011822D02*
X011854Y011822D01*
X011859Y011664D02*
X011274Y011664D01*
X011413Y011505D02*
X011925Y011505D01*
X012066Y011347D02*
X011571Y011347D01*
X011730Y011188D02*
X012054Y011188D01*
X011929Y011030D02*
X011888Y011030D01*
X012074Y010364D02*
X012102Y010336D01*
X012297Y010255D01*
X013248Y010255D01*
X013443Y010336D01*
X013517Y010410D01*
X013517Y008084D01*
X012391Y009210D01*
X012405Y009244D01*
X012405Y009439D01*
X012330Y009618D01*
X012193Y009755D01*
X012022Y009826D01*
X012074Y009878D01*
X012074Y010364D01*
X012074Y010237D02*
X013517Y010237D01*
X013517Y010079D02*
X012074Y010079D01*
X012074Y009920D02*
X013517Y009920D01*
X013517Y009762D02*
X012178Y009762D01*
X012337Y009603D02*
X013517Y009603D01*
X013517Y009445D02*
X012402Y009445D01*
X012405Y009286D02*
X013517Y009286D01*
X013517Y009128D02*
X012473Y009128D01*
X012631Y008969D02*
X013517Y008969D01*
X013517Y008811D02*
X012790Y008811D01*
X012948Y008652D02*
X013517Y008652D01*
X013517Y008494D02*
X013107Y008494D01*
X013265Y008335D02*
X013517Y008335D01*
X013517Y008177D02*
X013424Y008177D01*
X012851Y008018D02*
X012286Y008018D01*
X012406Y008177D02*
X012693Y008177D01*
X012534Y008335D02*
X012406Y008335D01*
X012074Y009161D02*
X013824Y007411D01*
X015474Y005761D01*
X015574Y005799D02*
X016848Y005799D01*
X016848Y005717D02*
X016958Y005450D01*
X017163Y005246D01*
X017429Y005135D01*
X017718Y005135D01*
X017985Y005246D01*
X018189Y005450D01*
X018300Y005717D01*
X018300Y006005D01*
X018189Y006272D01*
X018100Y006361D01*
X019563Y006361D01*
X019563Y001861D01*
X015574Y001861D01*
X015574Y006361D01*
X017047Y006361D01*
X016958Y006272D01*
X016848Y006005D01*
X016848Y005717D01*
X016879Y005641D02*
X015574Y005641D01*
X015574Y005482D02*
X016945Y005482D01*
X017085Y005324D02*
X015574Y005324D01*
X015574Y005165D02*
X017357Y005165D01*
X017790Y005165D02*
X019563Y005165D01*
X019563Y005007D02*
X015574Y005007D01*
X015574Y004848D02*
X019563Y004848D01*
X019563Y004690D02*
X015574Y004690D01*
X015574Y004531D02*
X019563Y004531D01*
X019563Y004373D02*
X015574Y004373D01*
X015574Y004214D02*
X019563Y004214D01*
X019563Y004056D02*
X015574Y004056D01*
X015574Y003897D02*
X019563Y003897D01*
X019563Y003739D02*
X015574Y003739D01*
X015574Y003580D02*
X017191Y003580D01*
X017169Y003567D02*
X017251Y003615D01*
X017339Y003651D01*
X017432Y003676D01*
X017494Y003684D01*
X017494Y003041D01*
X017654Y003041D01*
X018297Y003041D01*
X018289Y003103D01*
X018264Y003195D01*
X018228Y003284D01*
X018180Y003366D01*
X018122Y003442D01*
X018055Y003509D01*
X017979Y003567D01*
X017896Y003615D01*
X017808Y003651D01*
X017716Y003676D01*
X017654Y003684D01*
X017654Y003041D01*
X017654Y002881D01*
X018297Y002881D01*
X018289Y002819D01*
X018264Y002727D01*
X018228Y002639D01*
X018180Y002556D01*
X018122Y002480D01*
X018055Y002413D01*
X017979Y002355D01*
X017896Y002307D01*
X017808Y002271D01*
X017716Y002246D01*
X017654Y002238D01*
X017654Y002881D01*
X017494Y002881D01*
X017494Y002238D01*
X017432Y002246D01*
X017339Y002271D01*
X017251Y002307D01*
X017169Y002355D01*
X017093Y002413D01*
X017026Y002480D01*
X016968Y002556D01*
X016920Y002639D01*
X016883Y002727D01*
X016859Y002819D01*
X016851Y002881D01*
X017494Y002881D01*
X017494Y003041D01*
X016851Y003041D01*
X016859Y003103D01*
X016883Y003195D01*
X016920Y003284D01*
X016968Y003366D01*
X017026Y003442D01*
X017093Y003509D01*
X017169Y003567D01*
X017010Y003422D02*
X015574Y003422D01*
X015574Y003263D02*
X016911Y003263D01*
X016859Y003105D02*
X015574Y003105D01*
X015574Y002946D02*
X017494Y002946D01*
X017494Y002788D02*
X017654Y002788D01*
X017654Y002946D02*
X019563Y002946D01*
X019563Y002788D02*
X018280Y002788D01*
X018222Y002629D02*
X019563Y002629D01*
X019563Y002471D02*
X018112Y002471D01*
X017905Y002312D02*
X019563Y002312D01*
X019563Y002154D02*
X015574Y002154D01*
X015574Y002312D02*
X017243Y002312D01*
X017494Y002312D02*
X017654Y002312D01*
X017654Y002471D02*
X017494Y002471D01*
X017494Y002629D02*
X017654Y002629D01*
X017654Y003105D02*
X017494Y003105D01*
X017494Y003263D02*
X017654Y003263D01*
X017654Y003422D02*
X017494Y003422D01*
X017494Y003580D02*
X017654Y003580D01*
X017957Y003580D02*
X019563Y003580D01*
X019563Y003422D02*
X018137Y003422D01*
X018236Y003263D02*
X019563Y003263D01*
X019563Y003105D02*
X018289Y003105D01*
X017035Y002471D02*
X015574Y002471D01*
X015574Y002629D02*
X016925Y002629D01*
X016867Y002788D02*
X015574Y002788D01*
X015013Y002788D02*
X002254Y002788D01*
X002254Y002946D02*
X013211Y002946D01*
X013041Y003105D02*
X002254Y003105D01*
X002254Y003263D02*
X012975Y003263D01*
X012960Y003422D02*
X002254Y003422D01*
X002254Y003580D02*
X012989Y003580D01*
X013075Y003739D02*
X002254Y003739D01*
X002254Y003897D02*
X013283Y003897D01*
X013064Y004056D02*
X008388Y004056D01*
X008362Y004036D02*
X008432Y004087D01*
X008493Y004149D01*
X008544Y004219D01*
X008584Y004296D01*
X008610Y004378D01*
X008624Y004464D01*
X008624Y004847D01*
X008104Y004847D01*
X008104Y003957D01*
X008117Y003957D01*
X008203Y003970D01*
X008285Y003997D01*
X008362Y004036D01*
X008541Y004214D02*
X012976Y004214D01*
X012943Y004373D02*
X011827Y004373D01*
X011862Y004391D02*
X011932Y004442D01*
X011993Y004503D01*
X012044Y004573D01*
X012084Y004650D01*
X012110Y004732D01*
X012124Y004818D01*
X012124Y004841D01*
X011594Y004841D01*
X011594Y004881D01*
X012124Y004881D01*
X012124Y004904D01*
X012110Y004990D01*
X012084Y005072D01*
X012044Y005149D01*
X011993Y005219D01*
X011932Y005281D01*
X011862Y005332D01*
X011785Y005371D01*
X011703Y005398D01*
X011617Y005411D01*
X011594Y005411D01*
X011594Y004881D01*
X011554Y004881D01*
X011554Y005411D01*
X011531Y005411D01*
X011445Y005398D01*
X011363Y005371D01*
X011286Y005332D01*
X011216Y005281D01*
X011154Y005219D01*
X011103Y005149D01*
X011064Y005072D01*
X011063Y005068D01*
X011024Y005162D01*
X010874Y005311D01*
X010679Y005392D01*
X010468Y005392D01*
X010273Y005311D01*
X010124Y005162D01*
X010085Y005068D01*
X010084Y005072D01*
X010044Y005149D01*
X009993Y005219D01*
X009932Y005281D01*
X009862Y005332D01*
X009785Y005371D01*
X009703Y005398D01*
X009617Y005411D01*
X009594Y005411D01*
X009594Y004881D01*
X009554Y004881D01*
X009554Y005411D01*
X009531Y005411D01*
X009445Y005398D01*
X009363Y005371D01*
X009286Y005332D01*
X009216Y005281D01*
X009154Y005219D01*
X009103Y005149D01*
X009064Y005072D01*
X009037Y004990D01*
X009024Y004904D01*
X009024Y004881D01*
X009554Y004881D01*
X009554Y004841D01*
X009594Y004841D01*
X009594Y004311D01*
X009617Y004311D01*
X009703Y004325D01*
X009785Y004351D01*
X009862Y004391D01*
X009932Y004442D01*
X009993Y004503D01*
X010044Y004573D01*
X010084Y004650D01*
X010085Y004654D01*
X010124Y004560D01*
X010273Y004411D01*
X010468Y004330D01*
X010679Y004330D01*
X010874Y004411D01*
X011024Y004560D01*
X011063Y004654D01*
X011064Y004650D01*
X011103Y004573D01*
X011154Y004503D01*
X011216Y004442D01*
X011286Y004391D01*
X011363Y004351D01*
X011445Y004325D01*
X011531Y004311D01*
X011554Y004311D01*
X011554Y004841D01*
X011594Y004841D01*
X011594Y004311D01*
X011617Y004311D01*
X011703Y004325D01*
X011785Y004351D01*
X011862Y004391D01*
X012014Y004531D02*
X012950Y004531D01*
X013016Y004690D02*
X012096Y004690D01*
X012105Y005007D02*
X013111Y005007D01*
X013159Y004848D02*
X011594Y004848D01*
X011594Y004690D02*
X011554Y004690D01*
X011554Y004531D02*
X011594Y004531D01*
X011594Y004373D02*
X011554Y004373D01*
X011321Y004373D02*
X010781Y004373D01*
X010994Y004531D02*
X011134Y004531D01*
X011554Y005007D02*
X011594Y005007D01*
X011594Y005165D02*
X011554Y005165D01*
X011554Y005324D02*
X011594Y005324D01*
X011873Y005324D02*
X012947Y005324D01*
X012947Y005482D02*
X008571Y005482D01*
X008619Y005324D02*
X009275Y005324D01*
X009115Y005165D02*
X008624Y005165D01*
X008624Y005007D02*
X009043Y005007D01*
X009024Y004841D02*
X009024Y004818D01*
X009037Y004732D01*
X009064Y004650D01*
X009103Y004573D01*
X009154Y004503D01*
X009216Y004442D01*
X009286Y004391D01*
X009363Y004351D01*
X009445Y004325D01*
X009531Y004311D01*
X009554Y004311D01*
X009554Y004841D01*
X009024Y004841D01*
X009051Y004690D02*
X008624Y004690D01*
X008624Y004531D02*
X009134Y004531D01*
X009321Y004373D02*
X008609Y004373D01*
X008104Y004373D02*
X008044Y004373D01*
X008044Y004531D02*
X008104Y004531D01*
X008104Y004690D02*
X008044Y004690D01*
X008104Y004848D02*
X009554Y004848D01*
X009554Y004690D02*
X009594Y004690D01*
X009594Y004531D02*
X009554Y004531D01*
X009554Y004373D02*
X009594Y004373D01*
X009827Y004373D02*
X010366Y004373D01*
X010153Y004531D02*
X010014Y004531D01*
X010033Y005165D02*
X010127Y005165D01*
X010304Y005324D02*
X009873Y005324D01*
X009594Y005324D02*
X009554Y005324D01*
X009554Y005165D02*
X009594Y005165D01*
X009594Y005007D02*
X009554Y005007D01*
X008458Y005641D02*
X012994Y005641D01*
X013108Y005799D02*
X011670Y005799D01*
X011793Y005923D02*
X011536Y005665D01*
X011353Y005665D01*
X011353Y006105D01*
X010913Y006105D01*
X010913Y005923D01*
X011171Y005665D01*
X011353Y005665D01*
X011353Y006105D01*
X011353Y006105D01*
X011353Y006105D01*
X010913Y006105D01*
X010913Y006287D01*
X011171Y006545D01*
X011353Y006545D01*
X011353Y006105D01*
X011353Y006105D01*
X011353Y006105D01*
X011793Y006105D01*
X011793Y005923D01*
X011793Y005958D02*
X013162Y005958D01*
X013017Y006116D02*
X011793Y006116D01*
X011793Y006105D02*
X011793Y006287D01*
X011536Y006545D01*
X011353Y006545D01*
X011353Y006105D01*
X011793Y006105D01*
X011793Y006275D02*
X012951Y006275D01*
X012943Y006433D02*
X011648Y006433D01*
X011536Y006665D02*
X011793Y006923D01*
X011793Y007105D01*
X011353Y007105D01*
X010913Y007105D01*
X010913Y006923D01*
X011171Y006665D01*
X011353Y006665D01*
X011353Y007105D01*
X011353Y007105D01*
X011353Y007105D01*
X010913Y007105D01*
X010913Y007287D01*
X011171Y007545D01*
X011353Y007545D01*
X011353Y007105D01*
X011353Y006665D01*
X011536Y006665D01*
X011621Y006750D02*
X013061Y006750D01*
X012975Y006592D02*
X011024Y006592D01*
X011024Y006750D02*
X011086Y006750D01*
X010928Y006909D02*
X010895Y006909D01*
X010874Y007067D02*
X010913Y007067D01*
X010913Y007226D02*
X010874Y007226D01*
X010874Y007384D02*
X011010Y007384D01*
X010874Y007543D02*
X011169Y007543D01*
X011353Y007543D02*
X011353Y007543D01*
X011353Y007545D02*
X011353Y007105D01*
X011353Y007105D01*
X011353Y007105D01*
X011793Y007105D01*
X011793Y007287D01*
X011536Y007545D01*
X011353Y007545D01*
X011353Y007384D02*
X011353Y007384D01*
X011353Y007226D02*
X011353Y007226D01*
X011353Y007067D02*
X011353Y007067D01*
X011353Y006909D02*
X011353Y006909D01*
X011353Y006750D02*
X011353Y006750D01*
X011353Y006433D02*
X011353Y006433D01*
X011353Y006275D02*
X011353Y006275D01*
X011353Y006116D02*
X011353Y006116D01*
X011353Y005958D02*
X011353Y005958D01*
X011353Y005799D02*
X011353Y005799D01*
X011037Y005799D02*
X004519Y005799D01*
X004677Y005641D02*
X004717Y005641D01*
X004360Y005958D02*
X010913Y005958D01*
X010913Y006116D02*
X004202Y006116D01*
X003953Y005799D02*
X002254Y005799D01*
X002254Y005641D02*
X002717Y005641D01*
X002597Y005482D02*
X002254Y005482D01*
X002254Y005324D02*
X002543Y005324D01*
X002543Y005165D02*
X002254Y005165D01*
X002254Y005007D02*
X002543Y005007D01*
X002543Y004848D02*
X002254Y004848D01*
X002254Y004690D02*
X002543Y004690D01*
X002543Y004531D02*
X002254Y004531D01*
X002254Y004373D02*
X002555Y004373D01*
X002621Y004214D02*
X002254Y004214D01*
X002254Y004056D02*
X002776Y004056D01*
X003371Y004056D02*
X003776Y004056D01*
X003621Y004214D02*
X003527Y004214D01*
X004371Y004056D02*
X004776Y004056D01*
X004621Y004214D02*
X004527Y004214D01*
X005371Y004056D02*
X005776Y004056D01*
X005621Y004214D02*
X005527Y004214D01*
X006371Y004056D02*
X006776Y004056D01*
X006621Y004214D02*
X006527Y004214D01*
X007371Y004056D02*
X007759Y004056D01*
X007607Y004214D02*
X007527Y004214D01*
X008044Y004214D02*
X008104Y004214D01*
X008104Y004056D02*
X008044Y004056D01*
X008044Y005007D02*
X008104Y005007D01*
X008104Y005165D02*
X008044Y005165D01*
X008044Y005324D02*
X008104Y005324D01*
X008104Y005482D02*
X008044Y005482D01*
X008044Y005641D02*
X008104Y005641D01*
X007690Y005641D02*
X007431Y005641D01*
X007551Y005482D02*
X007576Y005482D01*
X006717Y005641D02*
X006431Y005641D01*
X006551Y005482D02*
X006597Y005482D01*
X005717Y005641D02*
X005431Y005641D01*
X005551Y005482D02*
X005597Y005482D01*
X003794Y005958D02*
X002254Y005958D01*
X002254Y006116D02*
X003636Y006116D01*
X003477Y006275D02*
X002254Y006275D01*
X002254Y006433D02*
X003474Y006433D01*
X003462Y006592D02*
X003474Y006592D01*
X003885Y006433D02*
X009450Y006433D01*
X010868Y006275D02*
X010913Y006275D01*
X011024Y006433D02*
X011059Y006433D01*
X011779Y006909D02*
X013275Y006909D01*
X013552Y007226D02*
X011793Y007226D01*
X011793Y007067D02*
X013802Y007067D01*
X013707Y006909D02*
X013961Y006909D01*
X013921Y006750D02*
X014119Y006750D01*
X014007Y006592D02*
X014278Y006592D01*
X014436Y006433D02*
X014040Y006433D01*
X014031Y006275D02*
X014595Y006275D01*
X014753Y006116D02*
X013965Y006116D01*
X013820Y005958D02*
X014912Y005958D01*
X015013Y005799D02*
X013874Y005799D01*
X013988Y005641D02*
X015013Y005641D01*
X015013Y005482D02*
X014036Y005482D01*
X014035Y005324D02*
X015013Y005324D01*
X015013Y005165D02*
X013986Y005165D01*
X013871Y005007D02*
X015013Y005007D01*
X015013Y004848D02*
X013823Y004848D01*
X013967Y004690D02*
X015013Y004690D01*
X015013Y004056D02*
X013918Y004056D01*
X013700Y003897D02*
X015013Y003897D01*
X015013Y003739D02*
X013907Y003739D01*
X013993Y003580D02*
X015013Y003580D01*
X015013Y003422D02*
X014022Y003422D01*
X014007Y003263D02*
X015013Y003263D01*
X015013Y003105D02*
X013941Y003105D01*
X013772Y002946D02*
X015013Y002946D01*
X015013Y002629D02*
X002254Y002629D01*
X002254Y002471D02*
X015013Y002471D01*
X015013Y002312D02*
X002254Y002312D01*
X002254Y002154D02*
X015013Y002154D01*
X015013Y001995D02*
X002254Y001995D01*
X002254Y001837D02*
X015013Y001837D01*
X015013Y001678D02*
X002254Y001678D01*
X003551Y005482D02*
X003597Y005482D01*
X003717Y005641D02*
X003431Y005641D01*
X002835Y006592D02*
X002254Y006592D01*
X002254Y006750D02*
X002728Y006750D01*
X002728Y006909D02*
X002254Y006909D01*
X002254Y007067D02*
X002748Y007067D01*
X002906Y007226D02*
X002254Y007226D01*
X003735Y011981D02*
X004508Y011981D01*
X004349Y012139D02*
X003730Y012139D01*
X003572Y012298D02*
X004285Y012298D01*
X004285Y012456D02*
X003413Y012456D01*
X004955Y012773D02*
X005490Y012773D01*
X005331Y012615D02*
X005114Y012615D01*
X005162Y012456D02*
X005283Y012456D01*
X005283Y012298D02*
X005162Y012298D01*
X005098Y012139D02*
X005347Y012139D01*
X005505Y011981D02*
X004939Y011981D01*
X005723Y011981D02*
X005723Y011981D01*
X005723Y012139D02*
X005723Y012139D01*
X005723Y012298D02*
X005723Y012298D01*
X005723Y012456D02*
X005723Y012456D01*
X005723Y012615D02*
X005723Y012615D01*
X005723Y012773D02*
X005723Y012773D01*
X005957Y012773D02*
X007874Y012773D01*
X007874Y012615D02*
X006116Y012615D01*
X008167Y015151D02*
X012016Y015151D01*
X011913Y014992D02*
X008326Y014992D01*
X008484Y014834D02*
X011872Y014834D01*
X011874Y014675D02*
X008643Y014675D01*
X008801Y014517D02*
X011940Y014517D01*
X012167Y015309D02*
X008009Y015309D01*
X007850Y015468D02*
X011970Y015468D01*
X011894Y015626D02*
X007692Y015626D01*
X007533Y015785D02*
X011872Y015785D01*
X011893Y015943D02*
X007375Y015943D01*
X007216Y016102D02*
X011967Y016102D01*
X012160Y016260D02*
X007058Y016260D01*
X006899Y016419D02*
X012019Y016419D01*
X011914Y016577D02*
X006741Y016577D01*
X006582Y016736D02*
X011872Y016736D01*
X011873Y016894D02*
X006424Y016894D01*
X006265Y017053D02*
X011938Y017053D01*
X012077Y017211D02*
X006107Y017211D01*
X006074Y017370D02*
X015013Y017370D01*
X015013Y017528D02*
X006074Y017528D01*
X006074Y017687D02*
X015013Y017687D01*
X015013Y017845D02*
X006074Y017845D01*
X006074Y018004D02*
X015013Y018004D01*
X015013Y018162D02*
X006074Y018162D01*
X006074Y018321D02*
X015013Y018321D01*
X015013Y018479D02*
X006074Y018479D01*
X006074Y018638D02*
X015013Y018638D01*
X015013Y018796D02*
X011459Y018796D01*
X011669Y018955D02*
X015013Y018955D01*
X015013Y019113D02*
X011739Y019113D01*
X011747Y019272D02*
X015013Y019272D01*
X015013Y019430D02*
X011699Y019430D01*
X011573Y019589D02*
X015013Y019589D01*
X014772Y019906D02*
X016866Y019906D01*
X016866Y019747D02*
X014634Y019747D01*
X014838Y020064D02*
X016891Y020064D01*
X016957Y020223D02*
X014839Y020223D01*
X014796Y020381D02*
X017092Y020381D01*
X017361Y020540D02*
X014691Y020540D01*
X014425Y020698D02*
X019365Y020698D01*
X019365Y020540D02*
X017786Y020540D01*
X018055Y020381D02*
X019365Y020381D01*
X019365Y020223D02*
X018191Y020223D01*
X018256Y020064D02*
X019365Y020064D01*
X019365Y019906D02*
X018282Y019906D01*
X018282Y019747D02*
X019365Y019747D01*
X019365Y020857D02*
X014339Y020857D01*
X014339Y021015D02*
X019365Y021015D01*
X019365Y021174D02*
X014278Y021174D01*
X014149Y021332D02*
X019365Y021332D01*
X019365Y022125D02*
X017926Y022125D01*
X018124Y022283D02*
X019365Y022283D01*
X019365Y022442D02*
X018229Y022442D01*
X018284Y022600D02*
X019365Y022600D01*
X015013Y017211D02*
X013468Y017211D01*
X013606Y017053D02*
X015013Y017053D01*
X015013Y016894D02*
X013672Y016894D01*
X013673Y016736D02*
X015013Y016736D01*
X015013Y016577D02*
X013630Y016577D01*
X013525Y016419D02*
X015013Y016419D01*
X015013Y016260D02*
X013385Y016260D01*
X013577Y016102D02*
X015013Y016102D01*
X015013Y015943D02*
X013652Y015943D01*
X013673Y015785D02*
X015013Y015785D01*
X015013Y015626D02*
X013650Y015626D01*
X013574Y015468D02*
X015013Y015468D01*
X015013Y015309D02*
X013378Y015309D01*
X013528Y015151D02*
X015013Y015151D01*
X015013Y014992D02*
X013631Y014992D01*
X013673Y014834D02*
X015013Y014834D01*
X015013Y014675D02*
X013671Y014675D01*
X013605Y014517D02*
X015013Y014517D01*
X015013Y014358D02*
X013465Y014358D01*
X013479Y014200D02*
X015013Y014200D01*
X015013Y014041D02*
X013611Y014041D01*
X013673Y013883D02*
X015013Y013883D01*
X015013Y013724D02*
X013673Y013724D01*
X013625Y013566D02*
X015013Y013566D01*
X015013Y013407D02*
X013514Y013407D01*
X013413Y013249D02*
X015013Y013249D01*
X015013Y013090D02*
X013589Y013090D01*
X013656Y012932D02*
X015013Y012932D01*
X015013Y012773D02*
X013673Y012773D01*
X013646Y012615D02*
X015013Y012615D01*
X015013Y012456D02*
X013563Y012456D01*
X013350Y012298D02*
X015013Y012298D01*
X015013Y012139D02*
X013565Y012139D01*
X013655Y011981D02*
X015013Y011981D01*
X015013Y011822D02*
X013691Y011822D01*
X013685Y011664D02*
X015013Y011664D01*
X015013Y011505D02*
X013620Y011505D01*
X013752Y011347D02*
X015013Y011347D01*
X015013Y011188D02*
X013910Y011188D01*
X014024Y011030D02*
X015013Y011030D01*
X015013Y010871D02*
X014031Y010871D01*
X014031Y010713D02*
X014283Y010713D01*
X014124Y010554D02*
X014031Y010554D01*
X013517Y010396D02*
X013502Y010396D01*
X014031Y009762D02*
X014160Y009762D01*
X014031Y009603D02*
X014319Y009603D01*
X014031Y009445D02*
X015013Y009445D01*
X015013Y009286D02*
X014031Y009286D01*
X014031Y009128D02*
X015013Y009128D01*
X015000Y008969D02*
X015013Y008969D01*
X014708Y009603D02*
X014708Y009603D01*
X014708Y009762D02*
X014708Y009762D01*
X014708Y009920D02*
X014708Y009920D01*
X014708Y010079D02*
X014708Y010079D01*
X014708Y010237D02*
X014708Y010237D01*
X014708Y010396D02*
X014708Y010396D01*
X014708Y010554D02*
X014708Y010554D01*
X014708Y010713D02*
X014708Y010713D01*
X014274Y008969D02*
X014031Y008969D01*
X014031Y008811D02*
X014115Y008811D01*
X013327Y007543D02*
X011538Y007543D01*
X011697Y007384D02*
X013485Y007384D01*
X012996Y005165D02*
X012033Y005165D01*
X011275Y005324D02*
X010844Y005324D01*
X011020Y005165D02*
X011115Y005165D01*
X010274Y009286D02*
X009946Y009286D01*
X010104Y009445D02*
X010274Y009445D01*
X010274Y009603D02*
X010197Y009603D01*
X010197Y009762D02*
X010274Y009762D01*
X010274Y009920D02*
X010178Y009920D01*
X010274Y010079D02*
X010020Y010079D01*
X009940Y010158D02*
X009940Y010158D01*
X010038Y010237D02*
X010172Y010237D01*
X010157Y010871D02*
X010054Y010871D01*
X011640Y010237D02*
X011674Y010237D01*
X015574Y006275D02*
X016961Y006275D01*
X016894Y006116D02*
X015574Y006116D01*
X015574Y005958D02*
X016848Y005958D01*
X018063Y005324D02*
X019563Y005324D01*
X019563Y005482D02*
X018203Y005482D01*
X018268Y005641D02*
X019563Y005641D01*
X019563Y005799D02*
X018300Y005799D01*
X018300Y005958D02*
X019563Y005958D01*
X019563Y006116D02*
X018254Y006116D01*
X018187Y006275D02*
X019563Y006275D01*
X019563Y001995D02*
X015574Y001995D01*
X011114Y018796D02*
X010672Y018796D01*
X010882Y018955D02*
X010904Y018955D01*
X010326Y018796D02*
X009884Y018796D01*
X010094Y018955D02*
X010116Y018955D01*
X009539Y018796D02*
X009097Y018796D01*
X009307Y018955D02*
X009329Y018955D01*
X008752Y018796D02*
X008309Y018796D01*
X008520Y018955D02*
X008541Y018955D01*
X007964Y018796D02*
X007522Y018796D01*
X007732Y018955D02*
X007754Y018955D01*
X007177Y018796D02*
X006735Y018796D01*
X006945Y018955D02*
X006967Y018955D01*
X006389Y018796D02*
X006074Y018796D01*
X006157Y018955D02*
X006179Y018955D01*
X006168Y019477D02*
X006165Y019484D01*
X006036Y019614D01*
X005866Y019684D01*
X005683Y019684D01*
X005514Y019614D01*
X005384Y019484D01*
X005381Y019477D01*
X005378Y019484D01*
X005248Y019614D01*
X005079Y019684D01*
X004896Y019684D01*
X004726Y019614D01*
X004597Y019484D01*
X004594Y019477D01*
X004590Y019484D01*
X004461Y019614D01*
X004291Y019684D01*
X004108Y019684D01*
X003939Y019614D01*
X003849Y019524D01*
X003849Y019589D01*
X003914Y019589D01*
X003887Y019627D02*
X003929Y019730D01*
X003929Y019842D01*
X003887Y019945D01*
X003808Y020024D01*
X003704Y020067D01*
X003593Y020067D01*
X003490Y020024D01*
X003474Y020009D01*
X003474Y021078D01*
X003657Y021261D01*
X003774Y021378D01*
X003774Y021509D01*
X003883Y021400D01*
X004265Y021400D01*
X004425Y021561D01*
X006283Y019703D01*
X006352Y019635D01*
X006301Y019614D01*
X006171Y019484D01*
X006168Y019477D01*
X006061Y019589D02*
X006276Y019589D01*
X006239Y019747D02*
X003929Y019747D01*
X003887Y019627D02*
X003849Y019589D01*
X003903Y019906D02*
X006081Y019906D01*
X005922Y020064D02*
X003711Y020064D01*
X003586Y020064D02*
X003474Y020064D01*
X003474Y020223D02*
X005764Y020223D01*
X005605Y020381D02*
X003474Y020381D01*
X003474Y020540D02*
X005447Y020540D01*
X005288Y020698D02*
X003474Y020698D01*
X003474Y020857D02*
X005130Y020857D01*
X004971Y021015D02*
X003474Y021015D01*
X003569Y021174D02*
X004813Y021174D01*
X004654Y021332D02*
X003728Y021332D01*
X003774Y021491D02*
X003793Y021491D01*
X004355Y021491D02*
X004496Y021491D01*
X005220Y021332D02*
X008219Y021332D01*
X008265Y021400D02*
X008535Y021670D01*
X008535Y022052D01*
X008265Y022322D01*
X007883Y022322D01*
X007613Y022052D01*
X007613Y021670D01*
X007883Y021400D01*
X008265Y021400D01*
X008355Y021491D02*
X008377Y021491D01*
X008513Y021649D02*
X008536Y021649D01*
X008535Y021808D02*
X008613Y021808D01*
X008613Y021966D02*
X008535Y021966D01*
X008462Y022125D02*
X008686Y022125D01*
X008844Y022283D02*
X008303Y022283D01*
X008273Y022381D02*
X008554Y022662D01*
X008554Y022841D01*
X008094Y022841D01*
X008094Y022881D01*
X008554Y022881D01*
X008554Y023060D01*
X008273Y023341D01*
X008094Y023341D01*
X008094Y022881D01*
X008054Y022881D01*
X008054Y023341D01*
X007875Y023341D01*
X007594Y023060D01*
X007594Y022881D01*
X008054Y022881D01*
X008054Y022841D01*
X008094Y022841D01*
X008094Y022381D01*
X008273Y022381D01*
X008333Y022442D02*
X008814Y022442D01*
X008875Y022381D02*
X009054Y022381D01*
X009054Y022841D01*
X009094Y022841D01*
X009094Y022881D01*
X009554Y022881D01*
X009554Y023060D01*
X009273Y023341D01*
X009094Y023341D01*
X009094Y022881D01*
X009054Y022881D01*
X009054Y023341D01*
X008875Y023341D01*
X008594Y023060D01*
X008594Y022881D01*
X009054Y022881D01*
X009054Y022841D01*
X008594Y022841D01*
X008594Y022662D01*
X008875Y022381D01*
X009054Y022442D02*
X009094Y022442D01*
X009094Y022381D02*
X009273Y022381D01*
X009554Y022662D01*
X009554Y022841D01*
X009094Y022841D01*
X009094Y022381D01*
X009094Y022600D02*
X009054Y022600D01*
X009054Y022759D02*
X009094Y022759D01*
X009094Y022917D02*
X009054Y022917D01*
X009054Y023076D02*
X009094Y023076D01*
X009094Y023234D02*
X009054Y023234D01*
X008768Y023234D02*
X008380Y023234D01*
X008538Y023076D02*
X008610Y023076D01*
X008594Y022917D02*
X008554Y022917D01*
X008554Y022759D02*
X008594Y022759D01*
X008656Y022600D02*
X008492Y022600D01*
X008094Y022600D02*
X008054Y022600D01*
X008054Y022442D02*
X008094Y022442D01*
X008054Y022381D02*
X008054Y022841D01*
X007594Y022841D01*
X007594Y022662D01*
X007875Y022381D01*
X008054Y022381D01*
X007844Y022283D02*
X007303Y022283D01*
X007265Y022322D02*
X006883Y022322D01*
X006613Y022052D01*
X006613Y021670D01*
X006883Y021400D01*
X007265Y021400D01*
X007535Y021670D01*
X007535Y022052D01*
X007265Y022322D01*
X007273Y022381D02*
X007554Y022662D01*
X007554Y022841D01*
X007094Y022841D01*
X007094Y022881D01*
X007554Y022881D01*
X007554Y023060D01*
X007273Y023341D01*
X007094Y023341D01*
X007094Y022881D01*
X007054Y022881D01*
X007054Y023341D01*
X006875Y023341D01*
X006594Y023060D01*
X006594Y022881D01*
X007054Y022881D01*
X007054Y022841D01*
X007094Y022841D01*
X007094Y022381D01*
X007273Y022381D01*
X007333Y022442D02*
X007814Y022442D01*
X007656Y022600D02*
X007492Y022600D01*
X007554Y022759D02*
X007594Y022759D01*
X007594Y022917D02*
X007554Y022917D01*
X007538Y023076D02*
X007610Y023076D01*
X007768Y023234D02*
X007380Y023234D01*
X007094Y023234D02*
X007054Y023234D01*
X007054Y023076D02*
X007094Y023076D01*
X007094Y022917D02*
X007054Y022917D01*
X007054Y022841D02*
X006594Y022841D01*
X006594Y022662D01*
X006875Y022381D01*
X007054Y022381D01*
X007054Y022841D01*
X007054Y022759D02*
X007094Y022759D01*
X007094Y022600D02*
X007054Y022600D01*
X007054Y022442D02*
X007094Y022442D01*
X006844Y022283D02*
X006303Y022283D01*
X006273Y022381D02*
X006554Y022662D01*
X006554Y022841D01*
X006094Y022841D01*
X006094Y022381D01*
X006273Y022381D01*
X006333Y022442D02*
X006814Y022442D01*
X006656Y022600D02*
X006492Y022600D01*
X006554Y022759D02*
X006594Y022759D01*
X006594Y022917D02*
X006554Y022917D01*
X006538Y023076D02*
X006610Y023076D01*
X006768Y023234D02*
X006380Y023234D01*
X006094Y023234D02*
X006054Y023234D01*
X006054Y023076D02*
X006094Y023076D01*
X006094Y022917D02*
X006054Y022917D01*
X006054Y022759D02*
X006094Y022759D01*
X006094Y022600D02*
X006054Y022600D01*
X006054Y022442D02*
X006094Y022442D01*
X005656Y022600D02*
X005492Y022600D01*
X005554Y022759D02*
X005594Y022759D01*
X005594Y022917D02*
X005554Y022917D01*
X005538Y023076D02*
X005610Y023076D01*
X005768Y023234D02*
X005380Y023234D01*
X005094Y023234D02*
X005054Y023234D01*
X005054Y023076D02*
X005094Y023076D01*
X005094Y022917D02*
X005054Y022917D01*
X004768Y023234D02*
X004380Y023234D01*
X004538Y023076D02*
X004610Y023076D01*
X004594Y022917D02*
X004554Y022917D01*
X004554Y022759D02*
X004594Y022759D01*
X004656Y022600D02*
X004492Y022600D01*
X004094Y022917D02*
X004054Y022917D01*
X004054Y023076D02*
X004094Y023076D01*
X004094Y023234D02*
X004054Y023234D01*
X003768Y023234D02*
X003377Y023234D01*
X003536Y023076D02*
X003610Y023076D01*
X003594Y022917D02*
X003552Y022917D01*
X003552Y022759D02*
X003594Y022759D01*
X003656Y022600D02*
X003489Y022600D01*
X003331Y022442D02*
X003671Y022442D01*
X003513Y022283D02*
X003328Y022283D01*
X005355Y021491D02*
X005793Y021491D01*
X005634Y021649D02*
X005513Y021649D01*
X005535Y021808D02*
X005613Y021808D01*
X005613Y021966D02*
X005535Y021966D01*
X005594Y022125D02*
X005462Y022125D01*
X005379Y021174D02*
X008060Y021174D01*
X008015Y021015D02*
X005537Y021015D01*
X005696Y020857D02*
X008015Y020857D01*
X008015Y020698D02*
X005854Y020698D01*
X006013Y020540D02*
X008015Y020540D01*
X008015Y020381D02*
X006171Y020381D01*
X006330Y020223D02*
X008015Y020223D01*
X008015Y020064D02*
X006488Y020064D01*
X006962Y019906D02*
X008015Y019906D01*
X008015Y019747D02*
X007120Y019747D01*
X007636Y019589D02*
X007851Y019589D01*
X008423Y019589D02*
X008638Y019589D01*
X008838Y019747D02*
X008416Y019747D01*
X008416Y019906D02*
X008997Y019906D01*
X009155Y020064D02*
X008416Y020064D01*
X008416Y020223D02*
X009314Y020223D01*
X009472Y020381D02*
X008416Y020381D01*
X008416Y020540D02*
X009631Y020540D01*
X009748Y020698D02*
X008416Y020698D01*
X008416Y020857D02*
X009748Y020857D01*
X009748Y021015D02*
X008467Y021015D01*
X008626Y021174D02*
X009748Y021174D01*
X009748Y021332D02*
X008784Y021332D01*
X009355Y021491D02*
X009748Y021491D01*
X009634Y021649D02*
X009513Y021649D01*
X009535Y021808D02*
X009613Y021808D01*
X009613Y021966D02*
X009535Y021966D01*
X009462Y022125D02*
X009686Y022125D01*
X009844Y022283D02*
X009303Y022283D01*
X009333Y022442D02*
X009814Y022442D01*
X009875Y022381D02*
X010054Y022381D01*
X010054Y022841D01*
X010094Y022841D01*
X010094Y022881D01*
X010554Y022881D01*
X010554Y023060D01*
X010273Y023341D01*
X010094Y023341D01*
X010094Y022881D01*
X010054Y022881D01*
X010054Y023341D01*
X009875Y023341D01*
X009594Y023060D01*
X009594Y022881D01*
X010054Y022881D01*
X010054Y022841D01*
X009594Y022841D01*
X009594Y022662D01*
X009875Y022381D01*
X010054Y022442D02*
X010094Y022442D01*
X010094Y022381D02*
X010273Y022381D01*
X010554Y022662D01*
X010554Y022841D01*
X010094Y022841D01*
X010094Y022381D01*
X010094Y022600D02*
X010054Y022600D01*
X010054Y022759D02*
X010094Y022759D01*
X010094Y022917D02*
X010054Y022917D01*
X010054Y023076D02*
X010094Y023076D01*
X010094Y023234D02*
X010054Y023234D01*
X009768Y023234D02*
X009380Y023234D01*
X009538Y023076D02*
X009610Y023076D01*
X009594Y022917D02*
X009554Y022917D01*
X009554Y022759D02*
X009594Y022759D01*
X009656Y022600D02*
X009492Y022600D01*
X010333Y022442D02*
X010814Y022442D01*
X010875Y022381D02*
X011054Y022381D01*
X011054Y022841D01*
X011094Y022841D01*
X011094Y022881D01*
X011554Y022881D01*
X011554Y023060D01*
X011273Y023341D01*
X011094Y023341D01*
X011094Y022881D01*
X011054Y022881D01*
X011054Y023341D01*
X010875Y023341D01*
X010594Y023060D01*
X010594Y022881D01*
X011054Y022881D01*
X011054Y022841D01*
X010594Y022841D01*
X010594Y022662D01*
X010875Y022381D01*
X010844Y022283D02*
X010303Y022283D01*
X010462Y022125D02*
X010686Y022125D01*
X010613Y021966D02*
X010535Y021966D01*
X010535Y021808D02*
X010613Y021808D01*
X010583Y021649D02*
X010513Y021649D01*
X010424Y021491D02*
X010355Y021491D01*
X010378Y021332D02*
X010148Y021332D01*
X010148Y021174D02*
X010378Y021174D01*
X010378Y021015D02*
X010148Y021015D01*
X010148Y020857D02*
X010263Y020857D01*
X010512Y020540D02*
X010891Y020540D01*
X011049Y020698D02*
X010670Y020698D01*
X010778Y020857D02*
X011208Y020857D01*
X011366Y021015D02*
X010778Y021015D01*
X010778Y021174D02*
X011525Y021174D01*
X011683Y021332D02*
X010832Y021332D01*
X011355Y021491D02*
X011793Y021491D01*
X011634Y021649D02*
X011513Y021649D01*
X011535Y021808D02*
X011613Y021808D01*
X011613Y021966D02*
X011535Y021966D01*
X011462Y022125D02*
X011686Y022125D01*
X011844Y022283D02*
X011303Y022283D01*
X011273Y022381D02*
X011554Y022662D01*
X011554Y022841D01*
X011094Y022841D01*
X011094Y022381D01*
X011273Y022381D01*
X011333Y022442D02*
X011814Y022442D01*
X011656Y022600D02*
X011492Y022600D01*
X011554Y022759D02*
X011594Y022759D01*
X011594Y022917D02*
X011554Y022917D01*
X011538Y023076D02*
X011610Y023076D01*
X011768Y023234D02*
X011380Y023234D01*
X011094Y023234D02*
X011054Y023234D01*
X011054Y023076D02*
X011094Y023076D01*
X011094Y022917D02*
X011054Y022917D01*
X011054Y022759D02*
X011094Y022759D01*
X011094Y022600D02*
X011054Y022600D01*
X011054Y022442D02*
X011094Y022442D01*
X010656Y022600D02*
X010492Y022600D01*
X010554Y022759D02*
X010594Y022759D01*
X010594Y022917D02*
X010554Y022917D01*
X010538Y023076D02*
X010610Y023076D01*
X010768Y023234D02*
X010380Y023234D01*
X012405Y021015D02*
X013277Y021015D01*
X013277Y020857D02*
X012246Y020857D01*
X012088Y020698D02*
X013147Y020698D01*
X013308Y020698D02*
X013308Y020698D01*
X013308Y020722D02*
X013308Y020172D01*
X013308Y020172D01*
X013308Y020722D01*
X013308Y020540D02*
X013308Y020540D01*
X013308Y020381D02*
X013308Y020381D01*
X013308Y020223D02*
X013308Y020223D01*
X013308Y020064D02*
X013308Y020064D01*
X013308Y019906D02*
X013308Y019906D01*
X013308Y019747D02*
X013308Y019747D01*
X013659Y019747D02*
X013983Y019747D01*
X013844Y019906D02*
X013790Y019906D01*
X012957Y019747D02*
X011565Y019747D01*
X011565Y019906D02*
X012827Y019906D01*
X012768Y020064D02*
X011565Y020064D01*
X011612Y020223D02*
X012759Y020223D01*
X012798Y020381D02*
X011771Y020381D01*
X011929Y020540D02*
X012898Y020540D01*
X012563Y021174D02*
X013338Y021174D01*
X012656Y022600D02*
X012492Y022600D01*
X012554Y022759D02*
X012594Y022759D01*
X012594Y022917D02*
X012554Y022917D01*
X012538Y023076D02*
X012610Y023076D01*
X010732Y020381D02*
X010353Y020381D01*
X010195Y020223D02*
X010574Y020223D01*
X010415Y020064D02*
X010036Y020064D01*
X009990Y019906D02*
X010378Y019906D01*
X010378Y019747D02*
X009990Y019747D01*
X009998Y019589D02*
X010213Y019589D01*
X007793Y021491D02*
X007355Y021491D01*
X007513Y021649D02*
X007634Y021649D01*
X007613Y021808D02*
X007535Y021808D01*
X007535Y021966D02*
X007613Y021966D01*
X007686Y022125D02*
X007462Y022125D01*
X008054Y022759D02*
X008094Y022759D01*
X008094Y022917D02*
X008054Y022917D01*
X008054Y023076D02*
X008094Y023076D01*
X008094Y023234D02*
X008054Y023234D01*
X006686Y022125D02*
X006462Y022125D01*
X006535Y021966D02*
X006613Y021966D01*
X006613Y021808D02*
X006535Y021808D01*
X006513Y021649D02*
X006634Y021649D01*
X006793Y021491D02*
X006355Y021491D01*
X005488Y019589D02*
X005273Y019589D01*
X004701Y019589D02*
X004486Y019589D01*
D21*
X005412Y020180D03*
X003838Y020824D03*
X002838Y020824D03*
X003838Y017424D03*
X004338Y015381D03*
X005412Y013881D03*
X007381Y011912D03*
X008562Y011912D03*
X009743Y012412D03*
X009743Y015456D03*
X010031Y018211D03*
X008562Y018211D03*
X007525Y020430D03*
X008956Y020967D03*
X010924Y020967D03*
X012355Y020430D03*
X013286Y018999D03*
X014074Y021755D03*
X014074Y022861D03*
X015074Y022861D03*
X015074Y021755D03*
X016649Y022149D03*
X016649Y020967D03*
X018617Y020967D03*
X018617Y022149D03*
X013881Y012412D03*
X013381Y009412D03*
X016574Y004861D03*
X016574Y003861D03*
X018542Y003680D03*
X018542Y004861D03*
X008452Y009030D03*
X004952Y008530D03*
X002908Y010030D03*
X002656Y015456D03*
D22*
X004200Y010562D02*
X004274Y010561D01*
X005074Y009761D01*
X009674Y009761D01*
X009759Y009719D01*
X011916Y009341D02*
X012074Y009161D01*
X013824Y007411D02*
X013774Y007361D01*
X013774Y010961D01*
X013174Y011561D01*
X012874Y011561D01*
X012772Y011786D01*
X015474Y005761D02*
X015574Y005761D01*
X015574Y004384D02*
X015474Y004361D01*
X015074Y004361D01*
X013491Y004404D01*
D23*
X010603Y006605D02*
X010674Y006761D01*
X010674Y008761D01*
X011874Y009961D01*
X011874Y010761D01*
X011074Y011561D01*
X011074Y011961D01*
X005874Y017161D01*
X005874Y019161D01*
X005775Y019223D01*
X006483Y019786D02*
X006798Y019786D01*
X007271Y019314D01*
X007349Y019223D01*
X008137Y019223D02*
X008216Y019314D01*
X008216Y021046D01*
X009003Y021834D01*
X009074Y021861D01*
X009948Y021834D02*
X009948Y020574D01*
X009003Y019629D01*
X009003Y019314D01*
X008924Y019223D01*
X009712Y019223D02*
X009790Y019314D01*
X009790Y020101D01*
X010578Y020889D01*
X010578Y021361D01*
X011050Y021834D01*
X011074Y021861D01*
X011995Y021834D02*
X011995Y021361D01*
X010578Y019944D01*
X010578Y019314D01*
X010499Y019223D01*
X011286Y019223D02*
X011365Y019314D01*
X011365Y020259D01*
X012940Y021834D01*
X013074Y021861D01*
X012074Y021861D02*
X011995Y021834D01*
X010074Y021861D02*
X009948Y021834D01*
X006483Y019786D02*
X004436Y021834D01*
X004121Y021834D01*
X004074Y021861D01*
X003874Y022361D02*
X005674Y022361D01*
X005974Y022061D01*
X006074Y021861D01*
X006011Y021991D01*
X005696Y022306D01*
X003874Y022361D02*
X003574Y022061D01*
X003574Y021461D01*
X003274Y021161D01*
X003274Y019061D01*
X008074Y014261D01*
X008074Y010661D01*
X008137Y010562D01*
X009633Y010652D02*
X009712Y010562D01*
X009633Y010652D02*
X009633Y011440D01*
X008373Y012700D01*
X008373Y014432D01*
X003649Y019156D01*
X003649Y019786D01*
X004074Y011161D02*
X003674Y010761D01*
X003674Y006361D01*
X005074Y004961D01*
X005074Y004877D01*
X005775Y010562D02*
X005674Y010761D01*
X005274Y011161D01*
X004074Y011161D01*
X010174Y008861D02*
X010474Y009161D01*
X010474Y010361D01*
X010499Y010562D01*
D24*
X010174Y008861D03*
X003649Y019786D03*
M02*
