G75*
%MOIN*%
%OFA0B0*%
%FSLAX24Y24*%
%IPPOS*%
%LPD*%
%AMOC8*
5,1,8,0,0,1.08239X$1,22.5*
%
%ADD10C,0.0000*%
%ADD11C,0.0040*%
%ADD12C,0.0160*%
%ADD13R,0.0005X0.0010*%
%ADD14R,0.0005X0.0130*%
%ADD15R,0.0005X0.0120*%
%ADD16R,0.0005X0.0080*%
%ADD17R,0.0005X0.0190*%
%ADD18R,0.0005X0.0110*%
%ADD19R,0.0005X0.0240*%
%ADD20R,0.0005X0.0250*%
%ADD21R,0.0005X0.0140*%
%ADD22R,0.0005X0.0290*%
%ADD23R,0.0005X0.0150*%
%ADD24R,0.0005X0.0340*%
%ADD25R,0.0005X0.0330*%
%ADD26R,0.0005X0.0170*%
%ADD27R,0.0005X0.0380*%
%ADD28R,0.0005X0.0390*%
%ADD29R,0.0005X0.0160*%
%ADD30R,0.0005X0.0440*%
%ADD31R,0.0005X0.0450*%
%ADD32R,0.0005X0.0430*%
%ADD33R,0.0005X0.0230*%
%ADD34R,0.0005X0.0530*%
%ADD35R,0.0005X0.0550*%
%ADD36R,0.0005X0.0520*%
%ADD37R,0.0005X0.0220*%
%ADD38R,0.0005X0.2350*%
%ADD39R,0.0005X0.0500*%
%ADD40R,0.0005X0.0460*%
%ADD41R,0.0005X0.0490*%
%ADD42R,0.0005X0.0370*%
%ADD43R,0.0005X0.0320*%
%ADD44R,0.0005X0.0300*%
%ADD45R,0.0005X0.0280*%
%ADD46R,0.0005X0.0310*%
%ADD47R,0.0005X0.0260*%
%ADD48R,0.0005X0.0210*%
%ADD49R,0.0005X0.0180*%
%ADD50R,0.0005X0.0090*%
%ADD51R,0.0005X0.0030*%
%ADD52R,0.0005X0.0020*%
%ADD53R,0.0005X0.0040*%
%ADD54R,0.0005X0.0270*%
%ADD55R,0.0005X0.0060*%
%ADD56R,0.0005X0.0350*%
%ADD57R,0.0005X0.0400*%
%ADD58R,0.0005X0.0410*%
%ADD59R,0.0005X0.0480*%
%ADD60R,0.0005X0.0070*%
%ADD61R,0.0005X0.0050*%
%ADD62R,0.0005X0.1130*%
%ADD63R,0.0005X0.1240*%
%ADD64R,0.0005X0.0560*%
%ADD65R,0.0005X0.0540*%
%ADD66R,0.0005X0.0420*%
%ADD67R,0.0005X0.0360*%
%ADD68R,0.0005X0.0100*%
%ADD69R,0.0005X0.0200*%
%ADD70R,0.0005X0.1480*%
%ADD71R,0.0005X0.1460*%
%ADD72R,0.0005X0.1440*%
%ADD73R,0.0005X0.1420*%
%ADD74R,0.0005X0.1390*%
%ADD75R,0.0005X0.1370*%
%ADD76R,0.0005X0.1350*%
%ADD77R,0.0005X0.1320*%
%ADD78R,0.0005X0.1300*%
%ADD79R,0.0005X0.1280*%
%ADD80R,0.0005X0.1260*%
%ADD81R,0.0005X0.1210*%
%ADD82R,0.0005X0.1190*%
%ADD83R,0.0005X0.1160*%
%ADD84R,0.0005X0.1140*%
%ADD85R,0.0005X0.1120*%
%ADD86R,0.0005X0.1100*%
%ADD87R,0.0005X0.1070*%
%ADD88R,0.0005X0.1050*%
%ADD89R,0.0005X0.1040*%
%ADD90R,0.0005X0.1030*%
%ADD91R,0.0005X0.1010*%
%ADD92R,0.0005X0.1000*%
%ADD93R,0.0005X0.0990*%
%ADD94R,0.0005X0.0980*%
%ADD95R,0.0005X0.0970*%
%ADD96R,0.0005X0.0960*%
%ADD97R,0.0005X0.0940*%
%ADD98R,0.0005X0.0930*%
%ADD99R,0.0005X0.0920*%
%ADD100R,0.0005X0.0910*%
%ADD101R,0.0005X0.0900*%
%ADD102R,0.0005X0.0890*%
%ADD103R,0.0005X0.0880*%
%ADD104R,0.0005X0.0870*%
%ADD105R,0.0005X0.0860*%
%ADD106R,0.0005X0.0840*%
%ADD107R,0.0005X0.0830*%
%ADD108R,0.0005X0.0820*%
%ADD109R,0.0005X0.0810*%
%ADD110R,0.0005X0.0800*%
%ADD111R,0.0005X0.0790*%
%ADD112R,0.0005X0.0510*%
%ADD113C,0.0030*%
%ADD114C,0.0060*%
%ADD115C,0.0080*%
%ADD116C,0.0050*%
%ADD117C,0.0059*%
%ADD118C,0.0100*%
%ADD119C,0.0120*%
%ADD120R,0.0200X0.1000*%
%ADD121R,0.0200X0.0200*%
%ADD122C,0.0098*%
%ADD123C,0.0180*%
%ADD124R,0.0005X0.0145*%
%ADD125R,0.0005X0.0025*%
%ADD126R,0.0005X0.0045*%
%ADD127R,0.0005X0.0055*%
%ADD128R,0.0005X0.0065*%
%ADD129R,0.0005X0.0075*%
%ADD130R,0.0005X0.0085*%
%ADD131R,0.0005X0.0095*%
%ADD132R,0.0005X0.0105*%
%ADD133R,0.0005X0.0115*%
%ADD134R,0.0005X0.0125*%
%ADD135R,0.0005X0.0135*%
%ADD136R,0.0005X0.0005*%
%ADD137R,0.0005X0.0035*%
%ADD138R,0.0005X0.0155*%
%ADD139R,0.0005X0.0165*%
%ADD140R,0.0005X0.0175*%
%ADD141R,0.0005X0.0185*%
%ADD142R,0.0005X0.0195*%
%ADD143R,0.0005X0.0205*%
%ADD144R,0.0005X0.0215*%
%ADD145R,0.0005X0.0225*%
%ADD146R,0.0005X0.0275*%
%ADD147R,0.0005X0.0235*%
%ADD148R,0.0005X0.0295*%
%ADD149R,0.0005X0.0245*%
%ADD150R,0.0005X0.0255*%
%ADD151R,0.0005X0.0265*%
%ADD152R,0.0005X0.0335*%
%ADD153R,0.0005X0.0355*%
%ADD154R,0.0005X0.0285*%
%ADD155R,0.0005X0.0305*%
%ADD156R,0.0005X0.0375*%
%ADD157R,0.0005X0.0315*%
%ADD158R,0.0005X0.0325*%
%ADD159R,0.0005X0.0385*%
%ADD160R,0.0005X0.0345*%
%ADD161R,0.0005X0.0395*%
%ADD162R,0.0005X0.0365*%
%ADD163R,0.0005X0.0015*%
%ADD164R,0.0400X0.0140*%
%ADD165C,0.0240*%
%ADD166R,0.0100X0.0240*%
%ADD167R,0.0240X0.0100*%
D10*
X003547Y002773D02*
X003545Y002819D01*
X003539Y002865D01*
X003530Y002910D01*
X003517Y002954D01*
X003500Y002997D01*
X003480Y003038D01*
X003456Y003078D01*
X003430Y003115D01*
X003400Y003150D01*
X003367Y003183D01*
X003332Y003213D01*
X003295Y003239D01*
X003255Y003263D01*
X003214Y003283D01*
X003171Y003300D01*
X003127Y003313D01*
X003082Y003322D01*
X003036Y003328D01*
X002990Y003330D01*
X000954Y003330D01*
X000954Y003329D02*
X000908Y003331D01*
X000862Y003337D01*
X000817Y003346D01*
X000773Y003359D01*
X000730Y003376D01*
X000689Y003396D01*
X000649Y003420D01*
X000612Y003446D01*
X000577Y003476D01*
X000544Y003509D01*
X000514Y003544D01*
X000488Y003581D01*
X000464Y003621D01*
X000444Y003662D01*
X000427Y003705D01*
X000414Y003749D01*
X000405Y003794D01*
X000399Y003840D01*
X000397Y003886D01*
X000397Y018907D01*
X000398Y018907D02*
X000400Y018952D01*
X000405Y018996D01*
X000415Y019040D01*
X000427Y019082D01*
X000443Y019124D01*
X000463Y019164D01*
X000486Y019202D01*
X000512Y019239D01*
X000541Y019273D01*
X000572Y019304D01*
X000606Y019333D01*
X000643Y019359D01*
X000681Y019382D01*
X000721Y019402D01*
X000763Y019418D01*
X000805Y019430D01*
X000849Y019440D01*
X000893Y019445D01*
X000938Y019447D01*
X000938Y019448D02*
X002973Y019448D01*
X002973Y019447D02*
X003018Y019449D01*
X003063Y019454D01*
X003107Y019463D01*
X003150Y019475D01*
X003193Y019491D01*
X003234Y019510D01*
X003273Y019532D01*
X003310Y019557D01*
X003346Y019585D01*
X003379Y019615D01*
X003409Y019648D01*
X003437Y019684D01*
X003462Y019721D01*
X003484Y019760D01*
X003503Y019801D01*
X003519Y019844D01*
X003531Y019887D01*
X003540Y019931D01*
X003545Y019976D01*
X003547Y020021D01*
X003547Y022064D01*
X003549Y022110D01*
X003555Y022156D01*
X003564Y022201D01*
X003577Y022245D01*
X003594Y022288D01*
X003614Y022329D01*
X003638Y022369D01*
X003664Y022406D01*
X003694Y022441D01*
X003727Y022474D01*
X003762Y022504D01*
X003799Y022530D01*
X003839Y022554D01*
X003880Y022574D01*
X003923Y022591D01*
X003967Y022604D01*
X004012Y022613D01*
X004058Y022619D01*
X004104Y022621D01*
X017164Y022621D01*
X017210Y022619D01*
X017256Y022613D01*
X017301Y022604D01*
X017345Y022591D01*
X017388Y022574D01*
X017429Y022554D01*
X017469Y022530D01*
X017506Y022504D01*
X017541Y022474D01*
X017574Y022441D01*
X017604Y022406D01*
X017630Y022369D01*
X017654Y022329D01*
X017674Y022288D01*
X017691Y022245D01*
X017704Y022201D01*
X017713Y022156D01*
X017719Y022110D01*
X017721Y022064D01*
X017720Y022064D02*
X017720Y020033D01*
X017722Y019988D01*
X017727Y019943D01*
X017737Y019899D01*
X017750Y019856D01*
X017766Y019814D01*
X017786Y019773D01*
X017809Y019734D01*
X017835Y019698D01*
X017864Y019663D01*
X017896Y019631D01*
X017931Y019602D01*
X017967Y019576D01*
X018006Y019553D01*
X018047Y019533D01*
X018089Y019517D01*
X018132Y019504D01*
X018176Y019494D01*
X018221Y019489D01*
X018266Y019487D01*
X020300Y019487D01*
X020299Y019487D02*
X020346Y019485D01*
X020392Y019479D01*
X020437Y019470D01*
X020482Y019456D01*
X020525Y019439D01*
X020567Y019419D01*
X020607Y019395D01*
X020645Y019368D01*
X020680Y019338D01*
X020713Y019305D01*
X020743Y019270D01*
X020770Y019232D01*
X020794Y019192D01*
X020815Y019150D01*
X020832Y019107D01*
X020845Y019062D01*
X020854Y019017D01*
X020860Y018970D01*
X020862Y018924D01*
X020870Y003888D01*
X020870Y003887D02*
X020868Y003841D01*
X020863Y003795D01*
X020853Y003750D01*
X020840Y003706D01*
X020823Y003663D01*
X020803Y003622D01*
X020780Y003582D01*
X020753Y003544D01*
X020723Y003509D01*
X020691Y003477D01*
X020656Y003447D01*
X020618Y003420D01*
X020578Y003396D01*
X020537Y003376D01*
X020494Y003359D01*
X020450Y003346D01*
X020405Y003337D01*
X020359Y003331D01*
X020313Y003329D01*
X020313Y003330D02*
X018277Y003330D01*
X018231Y003328D01*
X018185Y003322D01*
X018140Y003313D01*
X018096Y003300D01*
X018053Y003283D01*
X018012Y003263D01*
X017972Y003239D01*
X017935Y003213D01*
X017900Y003183D01*
X017867Y003150D01*
X017837Y003115D01*
X017811Y003078D01*
X017787Y003038D01*
X017767Y002997D01*
X017750Y002954D01*
X017737Y002910D01*
X017728Y002865D01*
X017722Y002819D01*
X017720Y002773D01*
X017720Y000737D01*
X017721Y000737D02*
X017719Y000691D01*
X017713Y000645D01*
X017704Y000600D01*
X017691Y000556D01*
X017674Y000513D01*
X017654Y000472D01*
X017630Y000432D01*
X017604Y000395D01*
X017574Y000360D01*
X017541Y000327D01*
X017506Y000297D01*
X017469Y000271D01*
X017429Y000247D01*
X017388Y000227D01*
X017345Y000210D01*
X017301Y000197D01*
X017256Y000188D01*
X017210Y000182D01*
X017164Y000180D01*
X004104Y000180D01*
X004058Y000182D01*
X004012Y000188D01*
X003967Y000197D01*
X003923Y000210D01*
X003880Y000227D01*
X003839Y000247D01*
X003799Y000271D01*
X003762Y000297D01*
X003727Y000327D01*
X003694Y000360D01*
X003664Y000395D01*
X003638Y000432D01*
X003614Y000472D01*
X003594Y000513D01*
X003577Y000556D01*
X003564Y000600D01*
X003555Y000645D01*
X003549Y000691D01*
X003547Y000737D01*
X003547Y002773D01*
X009925Y003920D02*
X009927Y003973D01*
X009933Y004026D01*
X009943Y004078D01*
X009956Y004129D01*
X009974Y004179D01*
X009995Y004228D01*
X010020Y004275D01*
X010048Y004319D01*
X010080Y004362D01*
X010114Y004402D01*
X010152Y004440D01*
X010192Y004474D01*
X010235Y004506D01*
X010280Y004534D01*
X010326Y004559D01*
X010375Y004580D01*
X010425Y004598D01*
X010476Y004611D01*
X010528Y004621D01*
X010581Y004627D01*
X010634Y004629D01*
X010687Y004627D01*
X010740Y004621D01*
X010792Y004611D01*
X010843Y004598D01*
X010893Y004580D01*
X010942Y004559D01*
X010989Y004534D01*
X011033Y004506D01*
X011076Y004474D01*
X011116Y004440D01*
X011154Y004402D01*
X011188Y004362D01*
X011220Y004319D01*
X011248Y004274D01*
X011273Y004228D01*
X011294Y004179D01*
X011312Y004129D01*
X011325Y004078D01*
X011335Y004026D01*
X011341Y003973D01*
X011343Y003920D01*
X011341Y003867D01*
X011335Y003814D01*
X011325Y003762D01*
X011312Y003711D01*
X011294Y003661D01*
X011273Y003612D01*
X011248Y003565D01*
X011220Y003521D01*
X011188Y003478D01*
X011154Y003438D01*
X011116Y003400D01*
X011076Y003366D01*
X011033Y003334D01*
X010988Y003306D01*
X010942Y003281D01*
X010893Y003260D01*
X010843Y003242D01*
X010792Y003229D01*
X010740Y003219D01*
X010687Y003213D01*
X010634Y003211D01*
X010581Y003213D01*
X010528Y003219D01*
X010476Y003229D01*
X010425Y003242D01*
X010375Y003260D01*
X010326Y003281D01*
X010279Y003306D01*
X010235Y003334D01*
X010192Y003366D01*
X010152Y003400D01*
X010114Y003438D01*
X010080Y003478D01*
X010048Y003521D01*
X010020Y003566D01*
X009995Y003612D01*
X009974Y003661D01*
X009956Y003711D01*
X009943Y003762D01*
X009933Y003814D01*
X009927Y003867D01*
X009925Y003920D01*
X009925Y018881D02*
X009927Y018934D01*
X009933Y018987D01*
X009943Y019039D01*
X009956Y019090D01*
X009974Y019140D01*
X009995Y019189D01*
X010020Y019236D01*
X010048Y019280D01*
X010080Y019323D01*
X010114Y019363D01*
X010152Y019401D01*
X010192Y019435D01*
X010235Y019467D01*
X010280Y019495D01*
X010326Y019520D01*
X010375Y019541D01*
X010425Y019559D01*
X010476Y019572D01*
X010528Y019582D01*
X010581Y019588D01*
X010634Y019590D01*
X010687Y019588D01*
X010740Y019582D01*
X010792Y019572D01*
X010843Y019559D01*
X010893Y019541D01*
X010942Y019520D01*
X010989Y019495D01*
X011033Y019467D01*
X011076Y019435D01*
X011116Y019401D01*
X011154Y019363D01*
X011188Y019323D01*
X011220Y019280D01*
X011248Y019235D01*
X011273Y019189D01*
X011294Y019140D01*
X011312Y019090D01*
X011325Y019039D01*
X011335Y018987D01*
X011341Y018934D01*
X011343Y018881D01*
X011341Y018828D01*
X011335Y018775D01*
X011325Y018723D01*
X011312Y018672D01*
X011294Y018622D01*
X011273Y018573D01*
X011248Y018526D01*
X011220Y018482D01*
X011188Y018439D01*
X011154Y018399D01*
X011116Y018361D01*
X011076Y018327D01*
X011033Y018295D01*
X010988Y018267D01*
X010942Y018242D01*
X010893Y018221D01*
X010843Y018203D01*
X010792Y018190D01*
X010740Y018180D01*
X010687Y018174D01*
X010634Y018172D01*
X010581Y018174D01*
X010528Y018180D01*
X010476Y018190D01*
X010425Y018203D01*
X010375Y018221D01*
X010326Y018242D01*
X010279Y018267D01*
X010235Y018295D01*
X010192Y018327D01*
X010152Y018361D01*
X010114Y018399D01*
X010080Y018439D01*
X010048Y018482D01*
X010020Y018527D01*
X009995Y018573D01*
X009974Y018622D01*
X009956Y018672D01*
X009943Y018723D01*
X009933Y018775D01*
X009927Y018828D01*
X009925Y018881D01*
D11*
X010899Y016270D02*
X010823Y016194D01*
X010823Y015963D01*
X011283Y015963D01*
X011283Y016194D01*
X011206Y016270D01*
X010899Y016270D01*
X010823Y015810D02*
X011283Y015810D01*
X010823Y015503D01*
X011283Y015503D01*
X011206Y015349D02*
X011283Y015273D01*
X011283Y015119D01*
X011206Y015043D01*
X010899Y015043D01*
X010823Y015119D01*
X010823Y015273D01*
X010899Y015349D01*
X011053Y015349D02*
X011053Y015196D01*
X011053Y015349D02*
X011206Y015349D01*
X008774Y012508D02*
X008851Y012431D01*
X008851Y012278D01*
X008774Y012201D01*
X008698Y012201D01*
X008621Y012278D01*
X008621Y012431D01*
X008698Y012508D01*
X008774Y012508D01*
X008621Y012431D02*
X008544Y012508D01*
X008468Y012508D01*
X008391Y012431D01*
X008391Y012278D01*
X008468Y012201D01*
X008544Y012201D01*
X008621Y012278D01*
X008544Y012048D02*
X008468Y012048D01*
X008391Y011971D01*
X008391Y011817D01*
X008468Y011741D01*
X008468Y011587D02*
X008391Y011510D01*
X008391Y011357D01*
X008468Y011280D01*
X008621Y011127D02*
X008621Y010820D01*
X008544Y010666D02*
X008851Y010666D01*
X008851Y010436D01*
X008774Y010359D01*
X008544Y010359D01*
X008391Y010206D02*
X008391Y009899D01*
X008851Y009899D01*
X008851Y009746D02*
X008698Y009592D01*
X008698Y009669D02*
X008698Y009439D01*
X008851Y009439D02*
X008391Y009439D01*
X008391Y009669D01*
X008468Y009746D01*
X008621Y009746D01*
X008698Y009669D01*
X008621Y009899D02*
X008621Y010053D01*
X008774Y011280D02*
X008851Y011357D01*
X008851Y011510D01*
X008774Y011587D01*
X008698Y011587D01*
X008621Y011510D01*
X008621Y011434D01*
X008621Y011510D02*
X008544Y011587D01*
X008468Y011587D01*
X008851Y011741D02*
X008544Y012048D01*
X008851Y012048D02*
X008851Y011741D01*
X007864Y007018D02*
X007710Y007018D01*
X007634Y006942D01*
X007634Y006711D01*
X008094Y006711D01*
X008094Y006558D02*
X007941Y006404D01*
X007941Y006481D02*
X007941Y006251D01*
X008094Y006251D02*
X007634Y006251D01*
X007634Y006481D01*
X007710Y006558D01*
X007864Y006558D01*
X007941Y006481D01*
X007941Y006711D02*
X007941Y006942D01*
X007864Y007018D01*
X008017Y006097D02*
X008094Y006021D01*
X008094Y005867D01*
X008017Y005791D01*
X007710Y005791D01*
X007634Y005867D01*
X007634Y006021D01*
X007710Y006097D01*
X005181Y003772D02*
X005181Y003541D01*
X005104Y003465D01*
X004950Y003465D01*
X004874Y003541D01*
X004874Y003772D01*
X004720Y003772D02*
X005181Y003772D01*
X004874Y003311D02*
X004874Y003234D01*
X005027Y003081D01*
X004874Y003081D02*
X005181Y003081D01*
X005104Y002928D02*
X004950Y002928D01*
X004874Y002851D01*
X004874Y002697D01*
X004950Y002621D01*
X005104Y002621D01*
X005181Y002697D01*
X005181Y002851D01*
X005104Y002928D01*
X004950Y002467D02*
X004950Y002314D01*
X004797Y002390D02*
X004720Y002467D01*
X004797Y002390D02*
X005181Y002390D01*
X005181Y002160D02*
X004874Y001853D01*
X004797Y001700D02*
X004720Y001623D01*
X004720Y001470D01*
X004797Y001393D01*
X005104Y001393D01*
X005181Y001470D01*
X005181Y001623D01*
X005104Y001700D01*
X004797Y001700D01*
X005181Y001853D02*
X004874Y002160D01*
X014521Y007090D02*
X014521Y007397D01*
X014521Y007243D02*
X014982Y007243D01*
X015271Y007320D02*
X015271Y007166D01*
X015348Y007090D01*
X015655Y007090D01*
X015732Y007166D01*
X015732Y007320D01*
X015655Y007397D01*
X015348Y007397D01*
X015271Y007320D01*
X015271Y007550D02*
X015732Y007550D01*
X015732Y007780D01*
X015655Y007857D01*
X015502Y007857D01*
X015425Y007780D01*
X015425Y007550D01*
X014982Y007627D02*
X014905Y007550D01*
X014828Y007627D01*
X014828Y007857D01*
X014752Y007857D02*
X014982Y007857D01*
X014982Y007627D01*
X014675Y007627D02*
X014675Y007780D01*
X014752Y007857D01*
X014752Y008011D02*
X014675Y008087D01*
X014675Y008317D01*
X014521Y008317D02*
X014982Y008317D01*
X014982Y008087D01*
X014905Y008011D01*
X014752Y008011D01*
X014675Y008471D02*
X014675Y008548D01*
X014982Y008548D01*
X014982Y008624D02*
X014982Y008471D01*
X014982Y008778D02*
X014675Y008778D01*
X014828Y008778D02*
X014675Y008931D01*
X014675Y009008D01*
X014675Y009238D02*
X014675Y009392D01*
X014752Y009468D01*
X014982Y009468D01*
X014982Y009238D01*
X014905Y009162D01*
X014828Y009238D01*
X014828Y009468D01*
X014675Y009622D02*
X014675Y009852D01*
X014752Y009929D01*
X014982Y009929D01*
X014982Y009622D02*
X014675Y009622D01*
X015425Y009622D02*
X015732Y009468D01*
X015425Y009315D01*
X015425Y009162D02*
X015425Y009085D01*
X015578Y008931D01*
X015578Y008778D02*
X015502Y008778D01*
X015425Y008701D01*
X015425Y008548D01*
X015502Y008471D01*
X015655Y008471D01*
X015732Y008548D01*
X015732Y008701D01*
X015578Y008778D02*
X015578Y008471D01*
X015655Y008317D02*
X015578Y008241D01*
X015578Y008087D01*
X015502Y008011D01*
X015425Y008087D01*
X015425Y008317D01*
X015655Y008317D02*
X015732Y008241D01*
X015732Y008011D01*
X015732Y008931D02*
X015425Y008931D01*
X015502Y009775D02*
X015425Y009852D01*
X015425Y010006D01*
X015502Y010082D01*
X015578Y010082D01*
X015578Y009775D01*
X015502Y009775D02*
X015655Y009775D01*
X015732Y009852D01*
X015732Y010006D01*
X015655Y010696D02*
X015502Y010696D01*
X015425Y010773D01*
X015425Y011003D01*
X015502Y011157D02*
X015655Y011157D01*
X015732Y011233D01*
X015732Y011387D01*
X015655Y011463D01*
X015502Y011463D01*
X015425Y011387D01*
X015425Y011233D01*
X015502Y011157D01*
X015732Y011003D02*
X015732Y010773D01*
X015655Y010696D01*
X014982Y010619D02*
X014905Y010543D01*
X014982Y010619D02*
X014982Y010773D01*
X014905Y010850D01*
X014828Y010850D01*
X014752Y010773D01*
X014752Y010696D01*
X014752Y010773D02*
X014675Y010850D01*
X014598Y010850D01*
X014521Y010773D01*
X014521Y010619D01*
X014598Y010543D01*
X014905Y011003D02*
X014905Y011080D01*
X014982Y011080D01*
X014982Y011003D01*
X014905Y011003D01*
X014905Y011233D02*
X014752Y011233D01*
X014752Y011463D01*
X014828Y011540D01*
X014905Y011540D01*
X014982Y011463D01*
X014982Y011310D01*
X014905Y011233D01*
X014752Y011233D02*
X014598Y011387D01*
X014521Y011540D01*
X014521Y011694D02*
X014828Y011694D01*
X014982Y011847D01*
X014828Y012001D01*
X014521Y012001D01*
X014521Y012614D02*
X014521Y012845D01*
X014598Y012921D01*
X014675Y012921D01*
X014752Y012845D01*
X014752Y012614D01*
X014982Y012614D02*
X014982Y012845D01*
X014905Y012921D01*
X014828Y012921D01*
X014752Y012845D01*
X014905Y013075D02*
X014828Y013152D01*
X014828Y013382D01*
X014752Y013382D02*
X014982Y013382D01*
X014982Y013152D01*
X014905Y013075D01*
X014675Y013152D02*
X014675Y013305D01*
X014752Y013382D01*
X014675Y013535D02*
X014675Y013689D01*
X014598Y013612D02*
X014905Y013612D01*
X014982Y013689D01*
X014905Y013919D02*
X014982Y013996D01*
X014905Y013919D02*
X014598Y013919D01*
X014675Y013842D02*
X014675Y013996D01*
X014752Y014149D02*
X014675Y014226D01*
X014675Y014379D01*
X014752Y014456D01*
X014828Y014456D01*
X014828Y014149D01*
X014752Y014149D02*
X014905Y014149D01*
X014982Y014226D01*
X014982Y014379D01*
X014982Y014610D02*
X014675Y014610D01*
X014675Y014763D02*
X014675Y014840D01*
X014675Y014763D02*
X014828Y014610D01*
X014905Y014993D02*
X014675Y014993D01*
X014905Y014993D02*
X014982Y015070D01*
X014982Y015300D01*
X015059Y015300D02*
X015135Y015223D01*
X015135Y015147D01*
X015271Y015070D02*
X015732Y015070D01*
X015732Y014993D02*
X015732Y015147D01*
X015655Y015300D02*
X015578Y015377D01*
X015578Y015607D01*
X015502Y015607D02*
X015732Y015607D01*
X015732Y015377D01*
X015655Y015300D01*
X015425Y015377D02*
X015425Y015530D01*
X015502Y015607D01*
X015578Y015760D02*
X015425Y015914D01*
X015425Y015991D01*
X015425Y016144D02*
X015425Y016221D01*
X015732Y016221D01*
X015732Y016144D02*
X015732Y016298D01*
X015655Y016528D02*
X015348Y016528D01*
X015425Y016451D02*
X015425Y016605D01*
X015425Y016758D02*
X015655Y016758D01*
X015732Y016835D01*
X015732Y017065D01*
X015809Y017065D02*
X015425Y017065D01*
X015809Y017065D02*
X015885Y016988D01*
X015885Y016911D01*
X015732Y016605D02*
X015655Y016528D01*
X015271Y016221D02*
X015195Y016221D01*
X015425Y015760D02*
X015732Y015760D01*
X015059Y015300D02*
X014675Y015300D01*
X015271Y015070D02*
X015271Y014993D01*
X015425Y014763D02*
X015425Y014610D01*
X015502Y014533D01*
X015655Y014533D01*
X015732Y014610D01*
X015732Y014763D01*
X015655Y014840D01*
X015502Y014840D01*
X015425Y014763D01*
X015502Y014379D02*
X015655Y014379D01*
X015732Y014303D01*
X015732Y014072D01*
X015885Y014072D02*
X015425Y014072D01*
X015425Y014303D01*
X015502Y014379D01*
X015425Y013459D02*
X015425Y013305D01*
X015348Y013382D02*
X015655Y013382D01*
X015732Y013459D01*
X015732Y013152D02*
X015732Y012921D01*
X015655Y012845D01*
X015502Y012845D01*
X015425Y012921D01*
X015425Y013152D01*
X015502Y012691D02*
X015578Y012691D01*
X015578Y012384D01*
X015502Y012384D02*
X015655Y012384D01*
X015732Y012461D01*
X015732Y012614D01*
X015502Y012691D02*
X015425Y012614D01*
X015425Y012461D01*
X015502Y012384D01*
X015425Y012231D02*
X015425Y012154D01*
X015578Y012001D01*
X015425Y012001D02*
X015732Y012001D01*
X015425Y011847D02*
X015425Y011770D01*
X015578Y011617D01*
X015425Y011617D02*
X015732Y011617D01*
X014982Y012614D02*
X014521Y012614D01*
X018063Y016578D02*
X017909Y016731D01*
X018370Y016731D01*
X018370Y016578D02*
X018370Y016885D01*
X018370Y017602D02*
X018063Y017909D01*
X017986Y017909D01*
X017909Y017832D01*
X017909Y017678D01*
X017986Y017602D01*
X018370Y017602D02*
X018370Y017909D01*
X019864Y011223D02*
X019864Y010916D01*
X019864Y011070D02*
X019403Y011070D01*
X019557Y010916D01*
X019480Y010763D02*
X019403Y010686D01*
X019403Y010533D01*
X019480Y010456D01*
X019557Y010456D01*
X019633Y010533D01*
X019633Y010686D01*
X019710Y010763D01*
X019787Y010763D01*
X019864Y010686D01*
X019864Y010533D01*
X019787Y010456D01*
X014521Y008548D02*
X014445Y008548D01*
X005295Y020073D02*
X005142Y020073D01*
X005065Y020149D01*
X005065Y020456D01*
X005142Y020533D01*
X005295Y020533D01*
X005372Y020456D01*
X005372Y020303D02*
X005219Y020303D01*
X005372Y020303D02*
X005372Y020149D01*
X005295Y020073D01*
X004912Y020149D02*
X004835Y020073D01*
X004605Y020073D01*
X004605Y020533D01*
X004835Y020533D01*
X004912Y020456D01*
X004912Y020380D01*
X004835Y020303D01*
X004605Y020303D01*
X004451Y020149D02*
X004451Y020456D01*
X004375Y020533D01*
X004144Y020533D01*
X004144Y020073D01*
X004375Y020073D01*
X004451Y020149D01*
X004835Y020303D02*
X004912Y020226D01*
X004912Y020149D01*
D12*
X013586Y017700D02*
X016736Y017700D01*
X016736Y006479D01*
X015949Y006479D01*
X015949Y005889D01*
X014374Y005889D01*
X014374Y006479D01*
X013586Y006479D01*
X013586Y017700D01*
X014584Y020110D02*
X015811Y020110D01*
X015949Y006479D02*
X014374Y006479D01*
X015198Y003795D02*
X015198Y002567D01*
X015811Y003181D02*
X014584Y003181D01*
D13*
X006895Y003765D03*
X006890Y003765D03*
X005911Y002803D03*
X006694Y001425D03*
X005012Y009762D03*
X005742Y015297D03*
D14*
X005822Y015402D03*
X006032Y009852D03*
X006037Y009847D03*
X006287Y009852D03*
X006292Y009847D03*
X006617Y009772D03*
X005627Y009772D03*
X005542Y009772D03*
X005307Y009772D03*
X005137Y009692D03*
X005132Y009697D03*
X004887Y009692D03*
X004882Y009697D03*
X004552Y009772D03*
X005442Y008567D03*
X005472Y008322D03*
X005477Y008317D03*
X005712Y008322D03*
X005732Y008607D03*
X006860Y003705D03*
X006865Y003705D03*
X006575Y002895D03*
X006570Y002895D03*
X006890Y002005D03*
X006895Y002005D03*
D15*
X006575Y002300D03*
X006570Y002300D03*
X006890Y002600D03*
X006895Y002600D03*
X006895Y003190D03*
X006890Y003190D03*
X005325Y002240D03*
X005320Y002240D03*
X005492Y008307D03*
X005482Y008312D03*
X005692Y008307D03*
X005697Y008312D03*
X005727Y008612D03*
X005302Y009772D03*
X005117Y009707D03*
X004872Y009702D03*
X004867Y009707D03*
X004547Y009772D03*
X006047Y009842D03*
X006052Y009837D03*
X006307Y009837D03*
X006622Y009772D03*
X005582Y015392D03*
X005587Y015402D03*
X005597Y015427D03*
D16*
X005622Y015482D03*
X005562Y015347D03*
X005787Y015317D03*
X005792Y015477D03*
X005787Y015087D03*
X005782Y015087D03*
X005397Y014787D03*
X005397Y014487D03*
X005397Y014267D03*
X005782Y014262D03*
X005782Y014492D03*
X005402Y013282D03*
X005397Y012477D03*
X005397Y012257D03*
X005782Y012252D03*
X005782Y012482D03*
X005782Y011957D03*
X005787Y011957D03*
X005397Y011657D03*
X005787Y011417D03*
X005402Y011117D03*
X005397Y011117D03*
X006097Y009812D03*
X006352Y009812D03*
X006642Y009772D03*
X005517Y009772D03*
X005282Y009772D03*
X005072Y009732D03*
X004822Y009732D03*
X004527Y009772D03*
X005452Y008582D03*
X006340Y003690D03*
X006345Y003690D03*
X006560Y003490D03*
X006565Y003490D03*
X006880Y003730D03*
X006885Y003730D03*
X006335Y003050D03*
X006330Y003050D03*
X006265Y003060D03*
X006260Y003060D03*
X006255Y003070D03*
X006250Y003070D03*
X006015Y003260D03*
X006010Y003260D03*
X005305Y002240D03*
X005300Y002240D03*
X006880Y001460D03*
X006885Y001460D03*
D17*
X006835Y001515D03*
X006830Y001515D03*
X006880Y002005D03*
X006885Y002005D03*
X006885Y002595D03*
X006880Y002595D03*
X006880Y003185D03*
X006885Y003185D03*
X006835Y003675D03*
X006830Y003675D03*
X005355Y002235D03*
X005350Y002235D03*
X005447Y007797D03*
X005722Y008042D03*
X005727Y008042D03*
X005432Y009377D03*
X005337Y009772D03*
X005862Y010297D03*
X006587Y009772D03*
X004582Y009772D03*
X005807Y015402D03*
D18*
X005577Y015377D03*
X005387Y014457D03*
X005387Y014297D03*
X005387Y012447D03*
X005387Y012287D03*
X006062Y009832D03*
X006317Y009832D03*
X006627Y009772D03*
X005297Y009772D03*
X005107Y009712D03*
X005102Y009717D03*
X004857Y009712D03*
X004852Y009717D03*
X004542Y009772D03*
X005512Y008297D03*
X005522Y008292D03*
X005527Y008292D03*
X005537Y008287D03*
X005542Y008287D03*
X005642Y008287D03*
X005657Y008292D03*
X005662Y008292D03*
X005667Y008297D03*
X005672Y008297D03*
X005647Y007957D03*
X005557Y007902D03*
X006870Y003715D03*
X006875Y003715D03*
X006875Y001475D03*
X006870Y001475D03*
D19*
X006870Y002010D03*
X006875Y002010D03*
X006595Y002890D03*
X006590Y002890D03*
X006870Y003180D03*
X006875Y003180D03*
X005375Y002240D03*
X005370Y002240D03*
X005407Y009377D03*
X005542Y009512D03*
X005622Y009512D03*
X005362Y009772D03*
X005547Y010032D03*
X005622Y010032D03*
X005887Y010297D03*
X006562Y009772D03*
X004607Y009772D03*
X005377Y012367D03*
X005377Y014377D03*
D20*
X005802Y014377D03*
X005802Y012367D03*
X005892Y010297D03*
X005632Y010037D03*
X005537Y010037D03*
X005367Y009772D03*
X005537Y009512D03*
X005627Y009512D03*
X005402Y009377D03*
X004612Y009772D03*
X005812Y008492D03*
X006557Y009772D03*
X006035Y003315D03*
X006030Y003315D03*
X005345Y002635D03*
X005340Y002635D03*
X006870Y002595D03*
X006875Y002595D03*
D21*
X006205Y003130D03*
X006200Y003130D03*
X005335Y002240D03*
X005330Y002240D03*
X006860Y001490D03*
X006865Y001490D03*
X005367Y007772D03*
X005362Y007772D03*
X005802Y008067D03*
X005807Y008067D03*
X005722Y008332D03*
X005457Y008337D03*
X005217Y009137D03*
X005212Y009137D03*
X005207Y009137D03*
X005202Y009137D03*
X005197Y009137D03*
X005192Y009142D03*
X005187Y009142D03*
X005182Y009147D03*
X005177Y009152D03*
X005172Y009157D03*
X005167Y009162D03*
X005162Y009167D03*
X005157Y009172D03*
X005152Y009177D03*
X005147Y009182D03*
X005142Y009187D03*
X005137Y009192D03*
X005132Y009197D03*
X005127Y009202D03*
X005122Y009207D03*
X005117Y009212D03*
X005112Y009217D03*
X005107Y009222D03*
X005102Y009227D03*
X005097Y009232D03*
X005092Y009237D03*
X005087Y009242D03*
X005082Y009247D03*
X005077Y009252D03*
X005072Y009257D03*
X005067Y009262D03*
X005062Y009267D03*
X005057Y009272D03*
X005052Y009277D03*
X005047Y009282D03*
X005042Y009287D03*
X005037Y009292D03*
X005032Y009297D03*
X005027Y009302D03*
X005022Y009307D03*
X005017Y009312D03*
X005012Y009317D03*
X005007Y009322D03*
X005002Y009327D03*
X004997Y009332D03*
X004992Y009337D03*
X004987Y009342D03*
X004982Y009347D03*
X004977Y009352D03*
X004972Y009357D03*
X004967Y009362D03*
X004962Y009367D03*
X004957Y009372D03*
X004952Y009377D03*
X004947Y009382D03*
X004942Y009387D03*
X004937Y009392D03*
X004932Y009397D03*
X004927Y009402D03*
X004922Y009407D03*
X004917Y009412D03*
X004912Y009417D03*
X004907Y009422D03*
X004902Y009427D03*
X004897Y009432D03*
X004892Y009437D03*
X004887Y009442D03*
X004882Y009447D03*
X004877Y009452D03*
X004872Y009457D03*
X004867Y009462D03*
X004862Y009467D03*
X004857Y009472D03*
X004852Y009477D03*
X004847Y009482D03*
X004842Y009487D03*
X004837Y009492D03*
X004832Y009497D03*
X004827Y009502D03*
X004822Y009507D03*
X004817Y009512D03*
X004812Y009517D03*
X004807Y009522D03*
X004802Y009527D03*
X004797Y009532D03*
X004792Y009537D03*
X004787Y009542D03*
X004782Y009547D03*
X004777Y009552D03*
X004772Y009557D03*
X004767Y009562D03*
X004762Y009567D03*
X004757Y009572D03*
X004752Y009577D03*
X004747Y009582D03*
X004742Y009587D03*
X004737Y009592D03*
X004732Y009597D03*
X004727Y009602D03*
X004722Y009607D03*
X004717Y009612D03*
X004712Y009617D03*
X004707Y009622D03*
X004702Y009627D03*
X004697Y009632D03*
X004692Y009637D03*
X004687Y009642D03*
X004682Y009647D03*
X004677Y009652D03*
X004672Y009657D03*
X004667Y009662D03*
X004662Y009667D03*
X004657Y009672D03*
X004652Y009677D03*
X004647Y009682D03*
X004642Y009687D03*
X004557Y009772D03*
X004642Y009857D03*
X005152Y009682D03*
X005157Y009677D03*
X005162Y009672D03*
X005167Y009667D03*
X005172Y009662D03*
X005177Y009657D03*
X005182Y009652D03*
X005187Y009647D03*
X005192Y009642D03*
X005197Y009637D03*
X005202Y009632D03*
X005207Y009627D03*
X005212Y009622D03*
X005217Y009617D03*
X005222Y009612D03*
X005227Y009607D03*
X005232Y009602D03*
X005237Y009597D03*
X005242Y009592D03*
X005247Y009587D03*
X005252Y009582D03*
X005257Y009577D03*
X005262Y009572D03*
X005267Y009567D03*
X005272Y009562D03*
X005277Y009557D03*
X005282Y009552D03*
X005287Y009547D03*
X005292Y009542D03*
X005297Y009537D03*
X005302Y009532D03*
X005307Y009527D03*
X005312Y009522D03*
X005317Y009517D03*
X005322Y009512D03*
X005327Y009507D03*
X005332Y009502D03*
X005337Y009497D03*
X005342Y009492D03*
X005347Y009487D03*
X005352Y009482D03*
X005357Y009477D03*
X005362Y009472D03*
X005367Y009467D03*
X005372Y009462D03*
X005377Y009457D03*
X005382Y009452D03*
X005457Y009377D03*
X005347Y009267D03*
X005342Y009262D03*
X005337Y009257D03*
X005332Y009252D03*
X005257Y009177D03*
X005252Y009172D03*
X005247Y009167D03*
X005242Y009162D03*
X005237Y009157D03*
X005232Y009152D03*
X005227Y009147D03*
X005222Y009142D03*
X005657Y009427D03*
X005662Y009422D03*
X005667Y009417D03*
X005672Y009412D03*
X005677Y009407D03*
X005682Y009402D03*
X005687Y009397D03*
X005692Y009392D03*
X005697Y009387D03*
X005702Y009382D03*
X005707Y009377D03*
X005712Y009372D03*
X005717Y009367D03*
X005722Y009362D03*
X005727Y009357D03*
X005732Y009352D03*
X005737Y009347D03*
X005742Y009342D03*
X005747Y009337D03*
X005752Y009332D03*
X005757Y009327D03*
X005762Y009322D03*
X005767Y009317D03*
X005772Y009312D03*
X005777Y009307D03*
X005782Y009302D03*
X005787Y009297D03*
X005792Y009292D03*
X005797Y009287D03*
X005802Y009282D03*
X005807Y009277D03*
X005812Y009272D03*
X005817Y009267D03*
X005822Y009262D03*
X005827Y009257D03*
X005832Y009252D03*
X005837Y009247D03*
X005842Y009242D03*
X005847Y009237D03*
X005852Y009232D03*
X005857Y009227D03*
X005862Y009222D03*
X005867Y009217D03*
X005872Y009212D03*
X005877Y009207D03*
X005882Y009202D03*
X005887Y009197D03*
X005892Y009192D03*
X005897Y009187D03*
X005902Y009182D03*
X005907Y009177D03*
X005912Y009172D03*
X005917Y009167D03*
X005922Y009162D03*
X005927Y009157D03*
X005932Y009152D03*
X005937Y009147D03*
X005942Y009142D03*
X005947Y009142D03*
X005952Y009137D03*
X005957Y009137D03*
X005962Y009137D03*
X005967Y009137D03*
X005972Y009137D03*
X005977Y009142D03*
X005982Y009142D03*
X005987Y009147D03*
X005992Y009152D03*
X005997Y009157D03*
X006002Y009162D03*
X006007Y009167D03*
X006012Y009172D03*
X006017Y009177D03*
X006022Y009182D03*
X006027Y009187D03*
X006032Y009192D03*
X006037Y009197D03*
X006042Y009202D03*
X006047Y009207D03*
X006052Y009212D03*
X006057Y009217D03*
X006062Y009222D03*
X006067Y009227D03*
X006072Y009232D03*
X006077Y009237D03*
X006082Y009242D03*
X006087Y009247D03*
X006092Y009252D03*
X006097Y009257D03*
X006102Y009262D03*
X006107Y009267D03*
X006112Y009272D03*
X006117Y009277D03*
X006122Y009282D03*
X006127Y009287D03*
X006132Y009292D03*
X006137Y009297D03*
X006142Y009302D03*
X006147Y009307D03*
X006152Y009312D03*
X006157Y009317D03*
X006162Y009322D03*
X006167Y009327D03*
X006172Y009332D03*
X006177Y009337D03*
X006182Y009342D03*
X006187Y009347D03*
X006192Y009352D03*
X006197Y009357D03*
X006202Y009362D03*
X006207Y009367D03*
X006212Y009372D03*
X006217Y009377D03*
X006222Y009382D03*
X006227Y009387D03*
X006232Y009392D03*
X006237Y009397D03*
X006242Y009402D03*
X006247Y009407D03*
X006252Y009412D03*
X006257Y009417D03*
X006262Y009422D03*
X006267Y009427D03*
X006272Y009432D03*
X006277Y009437D03*
X006282Y009442D03*
X006287Y009447D03*
X006292Y009452D03*
X006297Y009457D03*
X006302Y009462D03*
X006307Y009467D03*
X006312Y009472D03*
X006317Y009477D03*
X006322Y009482D03*
X006327Y009487D03*
X006332Y009492D03*
X006337Y009497D03*
X006342Y009502D03*
X006347Y009507D03*
X006352Y009512D03*
X006357Y009517D03*
X006362Y009522D03*
X006367Y009527D03*
X006372Y009532D03*
X006377Y009537D03*
X006382Y009542D03*
X006387Y009547D03*
X006392Y009552D03*
X006397Y009557D03*
X006402Y009562D03*
X006407Y009567D03*
X006412Y009572D03*
X006417Y009577D03*
X006422Y009582D03*
X006427Y009587D03*
X006432Y009592D03*
X006437Y009597D03*
X006442Y009602D03*
X006447Y009607D03*
X006452Y009612D03*
X006457Y009617D03*
X006462Y009622D03*
X006467Y009627D03*
X006472Y009632D03*
X006477Y009637D03*
X006482Y009642D03*
X006487Y009647D03*
X006492Y009652D03*
X006497Y009657D03*
X006502Y009662D03*
X006507Y009667D03*
X006512Y009672D03*
X006517Y009677D03*
X006612Y009772D03*
X006522Y009862D03*
X006517Y009867D03*
X006512Y009872D03*
X006507Y009877D03*
X006502Y009882D03*
X006497Y009887D03*
X006492Y009892D03*
X006487Y009897D03*
X006482Y009902D03*
X006477Y009907D03*
X006472Y009912D03*
X006467Y009917D03*
X006462Y009922D03*
X006457Y009927D03*
X006452Y009932D03*
X006447Y009937D03*
X006442Y009942D03*
X006437Y009947D03*
X006432Y009952D03*
X006427Y009957D03*
X006422Y009962D03*
X006417Y009967D03*
X006412Y009972D03*
X006407Y009977D03*
X006402Y009982D03*
X006397Y009987D03*
X006392Y009992D03*
X006387Y009997D03*
X006382Y010002D03*
X006377Y010007D03*
X006372Y010012D03*
X006367Y010017D03*
X006362Y010022D03*
X006357Y010027D03*
X006352Y010032D03*
X006347Y010037D03*
X006342Y010042D03*
X006337Y010047D03*
X006332Y010052D03*
X006327Y010057D03*
X006322Y010062D03*
X006317Y010067D03*
X006312Y010072D03*
X006307Y010077D03*
X006302Y010082D03*
X006297Y010087D03*
X006292Y010092D03*
X006287Y010097D03*
X006282Y010102D03*
X006277Y010107D03*
X006272Y010112D03*
X006267Y010117D03*
X006262Y010122D03*
X006257Y010127D03*
X006252Y010132D03*
X006247Y010137D03*
X006242Y010142D03*
X006237Y010147D03*
X006232Y010152D03*
X006227Y010157D03*
X006222Y010162D03*
X006217Y010167D03*
X006212Y010172D03*
X006207Y010177D03*
X006202Y010182D03*
X006197Y010187D03*
X006192Y010192D03*
X006187Y010197D03*
X006182Y010202D03*
X006177Y010207D03*
X006172Y010212D03*
X006167Y010217D03*
X006162Y010222D03*
X006157Y010227D03*
X006152Y010232D03*
X006147Y010237D03*
X006142Y010242D03*
X006137Y010247D03*
X006132Y010252D03*
X006127Y010257D03*
X006122Y010262D03*
X006117Y010267D03*
X006112Y010272D03*
X006107Y010277D03*
X006102Y010282D03*
X006097Y010287D03*
X006092Y010292D03*
X006087Y010297D03*
X006082Y010302D03*
X006077Y010307D03*
X006072Y010312D03*
X006067Y010317D03*
X006062Y010322D03*
X006057Y010327D03*
X006052Y010332D03*
X006047Y010337D03*
X006042Y010342D03*
X006037Y010347D03*
X006032Y010352D03*
X006027Y010357D03*
X006022Y010362D03*
X006017Y010367D03*
X006012Y010372D03*
X006007Y010377D03*
X006002Y010382D03*
X005997Y010387D03*
X005992Y010392D03*
X005987Y010397D03*
X005982Y010402D03*
X005977Y010407D03*
X005972Y010407D03*
X005967Y010407D03*
X005962Y010407D03*
X005957Y010407D03*
X005952Y010407D03*
X005947Y010407D03*
X005942Y010402D03*
X005937Y010397D03*
X005932Y010392D03*
X005927Y010387D03*
X005922Y010382D03*
X005917Y010377D03*
X005912Y010372D03*
X005837Y010297D03*
X005832Y010292D03*
X005827Y010287D03*
X005822Y010282D03*
X005817Y010277D03*
X005812Y010272D03*
X005807Y010267D03*
X005802Y010262D03*
X005797Y010257D03*
X005792Y010252D03*
X005787Y010247D03*
X005782Y010242D03*
X005707Y010167D03*
X005702Y010162D03*
X005697Y010157D03*
X005692Y010152D03*
X005687Y010147D03*
X005682Y010142D03*
X005677Y010137D03*
X005672Y010132D03*
X005667Y010127D03*
X005662Y010122D03*
X005657Y010117D03*
X005782Y010097D03*
X005787Y010092D03*
X005792Y010087D03*
X005797Y010082D03*
X005802Y010077D03*
X005807Y010072D03*
X005812Y010067D03*
X005817Y010062D03*
X005822Y010057D03*
X005827Y010052D03*
X005832Y010047D03*
X005837Y010042D03*
X005842Y010037D03*
X005847Y010032D03*
X005852Y010027D03*
X005857Y010022D03*
X005862Y010017D03*
X005867Y010012D03*
X005872Y010007D03*
X005877Y010002D03*
X005882Y009997D03*
X005887Y009992D03*
X005892Y009987D03*
X005897Y009982D03*
X005902Y009977D03*
X005907Y009972D03*
X005912Y009967D03*
X005917Y009962D03*
X005922Y009957D03*
X005927Y009952D03*
X005932Y009947D03*
X005937Y009942D03*
X005942Y009937D03*
X005947Y009932D03*
X005952Y009927D03*
X005957Y009922D03*
X005962Y009917D03*
X005967Y009912D03*
X005972Y009907D03*
X005977Y009902D03*
X005982Y009897D03*
X005987Y009892D03*
X005992Y009887D03*
X005997Y009882D03*
X006002Y009877D03*
X006007Y009872D03*
X006012Y009867D03*
X006137Y009997D03*
X006142Y009992D03*
X006147Y009987D03*
X006152Y009982D03*
X006157Y009977D03*
X006162Y009972D03*
X006167Y009967D03*
X006172Y009962D03*
X006177Y009957D03*
X006182Y009952D03*
X006187Y009947D03*
X006192Y009942D03*
X006197Y009937D03*
X006202Y009932D03*
X006207Y009927D03*
X006212Y009922D03*
X006217Y009917D03*
X006222Y009912D03*
X006227Y009907D03*
X006232Y009902D03*
X006237Y009897D03*
X006242Y009892D03*
X006247Y009887D03*
X006252Y009882D03*
X006257Y009877D03*
X006262Y009872D03*
X006267Y009867D03*
X006272Y009862D03*
X006132Y010002D03*
X006127Y010007D03*
X006122Y010012D03*
X006117Y010017D03*
X006112Y010022D03*
X006107Y010027D03*
X006102Y010032D03*
X006097Y010037D03*
X006092Y010042D03*
X006087Y010047D03*
X006082Y010052D03*
X006077Y010057D03*
X006072Y010062D03*
X006067Y010067D03*
X006062Y010072D03*
X006057Y010077D03*
X006052Y010082D03*
X006047Y010087D03*
X006042Y010092D03*
X006037Y010097D03*
X006032Y010102D03*
X006027Y010107D03*
X006022Y010112D03*
X006017Y010117D03*
X006012Y010122D03*
X006007Y010127D03*
X006002Y010132D03*
X005997Y010137D03*
X005992Y010142D03*
X005987Y010147D03*
X005982Y010152D03*
X005977Y010157D03*
X005972Y010162D03*
X005967Y010167D03*
X005962Y010172D03*
X005957Y010177D03*
X005952Y010182D03*
X005947Y010187D03*
X005942Y010192D03*
X005937Y010197D03*
X005932Y010202D03*
X005927Y010207D03*
X005922Y010212D03*
X005917Y010217D03*
X005912Y010222D03*
X005662Y009967D03*
X005667Y009962D03*
X005672Y009957D03*
X005677Y009952D03*
X005692Y009937D03*
X005697Y009932D03*
X005702Y009927D03*
X005707Y009922D03*
X005617Y009772D03*
X005707Y009627D03*
X005667Y009587D03*
X005662Y009582D03*
X005657Y009577D03*
X005502Y009582D03*
X005497Y009587D03*
X005492Y009592D03*
X005487Y009597D03*
X005482Y009602D03*
X005477Y009607D03*
X005472Y009612D03*
X005467Y009617D03*
X005312Y009772D03*
X005462Y009922D03*
X005467Y009927D03*
X005497Y009957D03*
X005502Y009962D03*
X005507Y009967D03*
X005512Y010117D03*
X005507Y010122D03*
X005502Y010127D03*
X005497Y010132D03*
X005492Y010137D03*
X005487Y010142D03*
X005482Y010147D03*
X005477Y010152D03*
X005472Y010157D03*
X005467Y010162D03*
X005462Y010167D03*
X005457Y010172D03*
X005452Y010177D03*
X005447Y010182D03*
X005442Y010187D03*
X005437Y010192D03*
X005432Y010197D03*
X005427Y010202D03*
X005422Y010207D03*
X005417Y010212D03*
X005412Y010217D03*
X005407Y010222D03*
X005402Y010227D03*
X005397Y010232D03*
X005392Y010237D03*
X005387Y010242D03*
X005382Y010247D03*
X005377Y010252D03*
X005372Y010257D03*
X005367Y010262D03*
X005362Y010267D03*
X005357Y010272D03*
X005352Y010277D03*
X005347Y010282D03*
X005342Y010287D03*
X005337Y010292D03*
X005332Y010297D03*
X005327Y010302D03*
X005322Y010307D03*
X005317Y010312D03*
X005312Y010317D03*
X005307Y010322D03*
X005302Y010327D03*
X005297Y010332D03*
X005292Y010337D03*
X005287Y010342D03*
X005282Y010347D03*
X005277Y010352D03*
X005272Y010357D03*
X005267Y010362D03*
X005262Y010367D03*
X005257Y010372D03*
X005252Y010377D03*
X005247Y010382D03*
X005242Y010387D03*
X005237Y010392D03*
X005232Y010397D03*
X005227Y010402D03*
X005222Y010407D03*
X005217Y010407D03*
X005212Y010407D03*
X005207Y010407D03*
X005202Y010407D03*
X005197Y010407D03*
X005192Y010407D03*
X005187Y010402D03*
X005357Y012367D03*
D22*
X005387Y009772D03*
X004632Y009772D03*
X006537Y009772D03*
X006225Y003185D03*
X006220Y003185D03*
X006860Y003185D03*
X006865Y003185D03*
X006865Y002595D03*
X006860Y002595D03*
X006860Y002015D03*
X006865Y002015D03*
D23*
X006435Y002005D03*
X006430Y002005D03*
X006850Y001495D03*
X006855Y001495D03*
X006435Y002595D03*
X006430Y002595D03*
X006430Y003185D03*
X006435Y003185D03*
X006095Y003555D03*
X006090Y003555D03*
X006850Y003695D03*
X006855Y003695D03*
X005382Y007777D03*
X005787Y008062D03*
X005792Y008062D03*
X005452Y008342D03*
X005737Y008597D03*
X005452Y009377D03*
X005452Y009637D03*
X005562Y009772D03*
X005602Y009772D03*
X005607Y009772D03*
X005717Y009642D03*
X005717Y009907D03*
X005452Y009907D03*
X005317Y009772D03*
X005842Y010297D03*
X006527Y009852D03*
X006607Y009772D03*
X006527Y009692D03*
X004562Y009772D03*
D24*
X005412Y009772D03*
X006610Y003480D03*
X006615Y003480D03*
X006850Y002600D03*
X006855Y002600D03*
X006855Y002010D03*
X006850Y002010D03*
X006615Y001710D03*
X006610Y001710D03*
X006395Y002010D03*
X006390Y002010D03*
D25*
X006610Y002305D03*
X006615Y002305D03*
X006850Y003185D03*
X006855Y003185D03*
X005415Y002235D03*
X005410Y002235D03*
X005397Y008487D03*
X005407Y009772D03*
X005692Y013282D03*
X005697Y013282D03*
D26*
X005362Y012367D03*
X005362Y014377D03*
X005852Y010297D03*
X005442Y009887D03*
X005327Y009772D03*
X005442Y009657D03*
X005442Y009377D03*
X004572Y009772D03*
X005737Y008357D03*
X005757Y008052D03*
X005417Y007787D03*
X005412Y007787D03*
X006597Y009772D03*
X006025Y003285D03*
X006020Y003285D03*
X005345Y002235D03*
X005340Y002235D03*
X006840Y001505D03*
X006845Y001505D03*
D27*
X006845Y002010D03*
X006840Y002010D03*
X006625Y002890D03*
X006620Y002890D03*
X006840Y003180D03*
X006845Y003180D03*
X006385Y003190D03*
X006380Y003190D03*
X006055Y003370D03*
X006050Y003370D03*
X005762Y008482D03*
X005432Y009772D03*
D28*
X005437Y009772D03*
X005747Y008477D03*
X006620Y003485D03*
X006625Y003485D03*
X006840Y002595D03*
X006845Y002595D03*
X006625Y001705D03*
X006620Y001705D03*
D29*
X006575Y001700D03*
X006570Y001700D03*
X006570Y003490D03*
X006575Y003490D03*
X006840Y003690D03*
X006845Y003690D03*
X005397Y007782D03*
X005772Y008057D03*
X005777Y008057D03*
X005447Y008352D03*
X005447Y009377D03*
X005447Y009647D03*
X005322Y009772D03*
X005722Y009897D03*
X005847Y010297D03*
X006602Y009772D03*
X004567Y009772D03*
X005817Y015402D03*
D30*
X005465Y002240D03*
X005460Y002240D03*
X006830Y002010D03*
X006835Y002010D03*
D31*
X006835Y002595D03*
X006830Y002595D03*
X006365Y003235D03*
X006360Y003235D03*
D32*
X006245Y003245D03*
X006240Y003245D03*
X006830Y003185D03*
X006835Y003185D03*
D33*
X006595Y002305D03*
X006590Y002305D03*
X006820Y001535D03*
X006825Y001535D03*
X005412Y009377D03*
X005552Y009517D03*
X005612Y009517D03*
X005357Y009772D03*
X005552Y010032D03*
X005882Y010297D03*
X006567Y009772D03*
X004602Y009772D03*
X005807Y012367D03*
X005807Y014377D03*
D34*
X006300Y003445D03*
X006305Y003445D03*
X006310Y003445D03*
X006315Y003445D03*
X006820Y002015D03*
X006825Y002015D03*
D35*
X006825Y002595D03*
X006820Y002595D03*
D36*
X006820Y003180D03*
X006825Y003180D03*
X006295Y003440D03*
X006290Y003440D03*
D37*
X006580Y003490D03*
X006585Y003490D03*
X006820Y003660D03*
X006825Y003660D03*
X006425Y003180D03*
X006420Y003180D03*
X006420Y002010D03*
X006425Y002010D03*
X005365Y002240D03*
X005360Y002240D03*
X005492Y007812D03*
X005817Y008492D03*
X005417Y009377D03*
X005562Y009522D03*
X005352Y009772D03*
X005562Y010027D03*
X005607Y010027D03*
X005877Y010297D03*
X006572Y009772D03*
X004597Y009772D03*
X005372Y012367D03*
X005372Y014377D03*
X005797Y015402D03*
D38*
X006640Y002595D03*
X006645Y002595D03*
X006650Y002595D03*
X006655Y002595D03*
X006660Y002595D03*
X006665Y002595D03*
X006670Y002595D03*
X006675Y002595D03*
X006680Y002595D03*
X006685Y002595D03*
X006690Y002595D03*
X006695Y002595D03*
X006700Y002595D03*
X006705Y002595D03*
X006710Y002595D03*
X006715Y002595D03*
X006720Y002595D03*
X006725Y002595D03*
X006730Y002595D03*
X006735Y002595D03*
X006740Y002595D03*
X006745Y002595D03*
X006750Y002595D03*
X006755Y002595D03*
X006760Y002595D03*
X006765Y002595D03*
X006770Y002595D03*
X006775Y002595D03*
X006780Y002595D03*
X006785Y002595D03*
X006790Y002595D03*
X006795Y002595D03*
X006800Y002595D03*
X006805Y002595D03*
X006810Y002595D03*
X006815Y002595D03*
D39*
X006635Y001690D03*
X006630Y001690D03*
X006285Y003430D03*
X006280Y003430D03*
D40*
X006630Y002890D03*
X006635Y002890D03*
X006635Y002300D03*
X006630Y002300D03*
X006375Y002010D03*
X006370Y002010D03*
X005475Y002240D03*
X005470Y002240D03*
D41*
X006270Y003425D03*
X006275Y003425D03*
X006630Y003505D03*
X006635Y003505D03*
D42*
X006255Y003335D03*
X006250Y003335D03*
X006620Y002305D03*
X006625Y002305D03*
X005435Y002235D03*
X005430Y002235D03*
X005772Y008487D03*
X005427Y009772D03*
D43*
X005402Y009772D03*
X005797Y008497D03*
X005687Y013282D03*
X005682Y013282D03*
X006610Y002890D03*
X006615Y002890D03*
D44*
X006405Y003180D03*
X006400Y003180D03*
X005405Y002240D03*
X005400Y002240D03*
X006400Y002010D03*
X006405Y002010D03*
X006600Y001710D03*
X006605Y001710D03*
X006532Y009772D03*
X005392Y009772D03*
X004637Y009772D03*
X005662Y013282D03*
D45*
X005907Y010297D03*
X005652Y010042D03*
X005517Y010042D03*
X005382Y009772D03*
X005517Y009507D03*
X005387Y009377D03*
X004627Y009772D03*
X006542Y009772D03*
X006600Y002890D03*
X006605Y002890D03*
X006605Y002300D03*
X006600Y002300D03*
X005395Y002240D03*
X005390Y002240D03*
D46*
X006400Y002595D03*
X006405Y002595D03*
X006045Y003335D03*
X006040Y003335D03*
X006060Y003445D03*
X006065Y003445D03*
X006600Y003485D03*
X006605Y003485D03*
X005397Y009772D03*
X005667Y013282D03*
X005672Y013282D03*
D47*
X005897Y010297D03*
X005637Y010037D03*
X005532Y010037D03*
X005372Y009772D03*
X005637Y009507D03*
X005397Y009377D03*
X004617Y009772D03*
X006552Y009772D03*
X006590Y003490D03*
X006595Y003490D03*
X006075Y003490D03*
X006070Y003490D03*
X006410Y002600D03*
X006415Y002600D03*
X006415Y002010D03*
X006410Y002010D03*
X006590Y001710D03*
X006595Y001710D03*
X005495Y002630D03*
X005490Y002630D03*
X005485Y002630D03*
X005480Y002630D03*
X005475Y002630D03*
X005470Y002630D03*
X005465Y002630D03*
X005460Y002630D03*
X005455Y002630D03*
X005450Y002630D03*
X005445Y002630D03*
X005440Y002630D03*
X005435Y002630D03*
X005430Y002630D03*
X005425Y002630D03*
X005420Y002630D03*
X005415Y002630D03*
X005410Y002630D03*
X005405Y002630D03*
X005400Y002630D03*
X005395Y002630D03*
X005390Y002630D03*
X005385Y002630D03*
X005380Y002630D03*
X005375Y002630D03*
X005370Y002630D03*
X005365Y002630D03*
X005360Y002630D03*
X005355Y002630D03*
X005350Y002630D03*
X005380Y002240D03*
X005385Y002240D03*
D48*
X006210Y003155D03*
X006215Y003155D03*
X006420Y002595D03*
X006425Y002595D03*
X006580Y001705D03*
X006585Y001705D03*
X005482Y007807D03*
X005477Y007807D03*
X005692Y008032D03*
X005422Y009377D03*
X005567Y009522D03*
X005597Y009522D03*
X005347Y009772D03*
X005572Y010022D03*
X005597Y010022D03*
X005872Y010297D03*
X006577Y009772D03*
X004592Y009772D03*
X005812Y012367D03*
X005812Y014377D03*
X005802Y015402D03*
X005382Y015417D03*
D49*
X005372Y015417D03*
X005812Y015402D03*
X005817Y014377D03*
X005817Y012367D03*
X005857Y010297D03*
X005332Y009772D03*
X005437Y009377D03*
X005552Y008582D03*
X005557Y008582D03*
X005562Y008582D03*
X005567Y008582D03*
X005572Y008582D03*
X005577Y008582D03*
X005582Y008582D03*
X005587Y008582D03*
X005592Y008582D03*
X005597Y008582D03*
X005602Y008582D03*
X005607Y008582D03*
X005612Y008582D03*
X005617Y008582D03*
X005622Y008582D03*
X005627Y008582D03*
X005632Y008582D03*
X005637Y008582D03*
X005442Y008367D03*
X005737Y008047D03*
X005742Y008047D03*
X005432Y007792D03*
X005427Y007792D03*
X004577Y009772D03*
X006592Y009772D03*
X006585Y002890D03*
X006580Y002890D03*
X006580Y002300D03*
X006585Y002300D03*
D50*
X006565Y001705D03*
X006560Y001705D03*
X006345Y003055D03*
X006340Y003055D03*
X006195Y003115D03*
X006190Y003115D03*
X006330Y003685D03*
X006335Y003685D03*
X006637Y009772D03*
X006342Y009817D03*
X006087Y009817D03*
X005287Y009772D03*
X005082Y009727D03*
X004832Y009727D03*
X004532Y009772D03*
X005412Y011122D03*
X005417Y011122D03*
X005772Y011412D03*
X005412Y011662D03*
X005767Y011952D03*
X005772Y011952D03*
X005392Y012267D03*
X005352Y012367D03*
X005392Y014277D03*
X005352Y014377D03*
X005412Y014792D03*
X005772Y015082D03*
X005792Y015327D03*
X005567Y015357D03*
X005617Y015472D03*
X005387Y015482D03*
X005387Y015352D03*
D51*
X005417Y015512D03*
X005752Y015292D03*
X006142Y009792D03*
X006397Y009792D03*
X005022Y009757D03*
X004772Y009757D03*
X006560Y002295D03*
X006565Y002295D03*
X005285Y002235D03*
X005280Y002235D03*
D52*
X005275Y002240D03*
X005270Y002240D03*
X006560Y002890D03*
X006565Y002890D03*
X006667Y009772D03*
X006407Y009787D03*
X006152Y009787D03*
X005017Y009757D03*
X004502Y009772D03*
X005747Y015297D03*
X005422Y015512D03*
D53*
X005442Y015297D03*
X005457Y015292D03*
X005462Y015292D03*
X005467Y015292D03*
X005472Y015292D03*
X005477Y015292D03*
X005482Y015292D03*
X005487Y015292D03*
X005492Y015292D03*
X005507Y015297D03*
X005507Y015107D03*
X005512Y015107D03*
X005517Y015107D03*
X005522Y015107D03*
X005527Y015107D03*
X005532Y015107D03*
X005537Y015107D03*
X005542Y015107D03*
X005547Y015107D03*
X005552Y015107D03*
X005557Y015107D03*
X005562Y015107D03*
X005567Y015107D03*
X005572Y015107D03*
X005577Y015107D03*
X005582Y015107D03*
X005587Y015107D03*
X005592Y015107D03*
X005597Y015107D03*
X005602Y015107D03*
X005607Y015107D03*
X005612Y015107D03*
X005617Y015107D03*
X005622Y015107D03*
X005627Y015107D03*
X005632Y015107D03*
X005637Y015107D03*
X005642Y015107D03*
X005647Y015107D03*
X005652Y015107D03*
X005657Y015107D03*
X005662Y015107D03*
X005667Y015107D03*
X005672Y015107D03*
X005677Y015107D03*
X005682Y015107D03*
X005687Y015107D03*
X005692Y015107D03*
X005697Y015107D03*
X005702Y015107D03*
X005707Y015107D03*
X005712Y015107D03*
X005717Y015107D03*
X005722Y015107D03*
X005727Y015107D03*
X005732Y015107D03*
X005737Y015107D03*
X005742Y015107D03*
X005747Y015107D03*
X005752Y015107D03*
X005757Y015107D03*
X005762Y015107D03*
X005757Y015292D03*
X005832Y015407D03*
X005732Y015527D03*
X005727Y015527D03*
X005712Y015532D03*
X005707Y015532D03*
X005702Y015532D03*
X005697Y015532D03*
X005692Y015532D03*
X005677Y015527D03*
X005502Y015107D03*
X005497Y015107D03*
X005492Y015107D03*
X005487Y015107D03*
X005482Y015107D03*
X005477Y015107D03*
X005472Y015107D03*
X005467Y015107D03*
X005462Y015107D03*
X005457Y015107D03*
X005452Y015107D03*
X005447Y015107D03*
X005442Y015107D03*
X005437Y015107D03*
X005432Y015107D03*
X005427Y015107D03*
X005422Y015107D03*
X005417Y015107D03*
X005412Y015107D03*
X005407Y015107D03*
X005402Y015107D03*
X005397Y015107D03*
X005392Y015107D03*
X005387Y015107D03*
X005382Y015107D03*
X005377Y015107D03*
X005372Y015107D03*
X005367Y015107D03*
X005362Y015107D03*
X005422Y014767D03*
X005427Y014767D03*
X005432Y014767D03*
X005437Y014767D03*
X005442Y014767D03*
X005447Y014767D03*
X005452Y014767D03*
X005457Y014767D03*
X005462Y014767D03*
X005467Y014767D03*
X005472Y014767D03*
X005477Y014767D03*
X005482Y014767D03*
X005487Y014767D03*
X005492Y014767D03*
X005497Y014767D03*
X005502Y014767D03*
X005507Y014767D03*
X005512Y014767D03*
X005517Y014767D03*
X005522Y014767D03*
X005527Y014767D03*
X005532Y014767D03*
X005537Y014767D03*
X005542Y014767D03*
X005547Y014767D03*
X005552Y014767D03*
X005557Y014767D03*
X005562Y014767D03*
X005567Y014767D03*
X005572Y014767D03*
X005577Y014767D03*
X005582Y014767D03*
X005587Y014767D03*
X005592Y014767D03*
X005597Y014767D03*
X005602Y014767D03*
X005607Y014767D03*
X005612Y014767D03*
X005617Y014767D03*
X005622Y014767D03*
X005627Y014767D03*
X005632Y014767D03*
X005637Y014767D03*
X005642Y014767D03*
X005647Y014767D03*
X005652Y014767D03*
X005657Y014767D03*
X005662Y014767D03*
X005667Y014767D03*
X005672Y014767D03*
X005677Y014767D03*
X005682Y014767D03*
X005687Y014767D03*
X005692Y014767D03*
X005697Y014767D03*
X005702Y014767D03*
X005707Y014767D03*
X005712Y014767D03*
X005717Y014767D03*
X005722Y014767D03*
X005727Y014767D03*
X005732Y014767D03*
X005737Y014767D03*
X005742Y014767D03*
X005747Y014767D03*
X005752Y014767D03*
X005757Y014767D03*
X005762Y014767D03*
X005767Y014767D03*
X005772Y014767D03*
X005777Y014767D03*
X005782Y014767D03*
X005787Y014767D03*
X005792Y014767D03*
X005797Y014767D03*
X005802Y014767D03*
X005807Y014767D03*
X005812Y014767D03*
X005817Y014767D03*
X005672Y014582D03*
X005667Y014582D03*
X005657Y014587D03*
X005652Y014587D03*
X005647Y014587D03*
X005632Y014592D03*
X005627Y014592D03*
X005622Y014592D03*
X005617Y014592D03*
X005612Y014592D03*
X005607Y014592D03*
X005577Y014592D03*
X005572Y014592D03*
X005567Y014592D03*
X005562Y014592D03*
X005557Y014592D03*
X005552Y014592D03*
X005547Y014592D03*
X005532Y014587D03*
X005527Y014587D03*
X005512Y014582D03*
X005507Y014172D03*
X005522Y014167D03*
X005527Y014167D03*
X005542Y014162D03*
X005547Y014162D03*
X005552Y014162D03*
X005557Y014162D03*
X005562Y014162D03*
X005587Y014157D03*
X005592Y014157D03*
X005597Y014157D03*
X005622Y014162D03*
X005627Y014162D03*
X005632Y014162D03*
X005637Y014162D03*
X005652Y014167D03*
X005657Y014167D03*
X005672Y014172D03*
X005672Y013987D03*
X005677Y013987D03*
X005682Y013987D03*
X005687Y013987D03*
X005692Y013987D03*
X005697Y013987D03*
X005702Y013987D03*
X005707Y013987D03*
X005712Y013987D03*
X005717Y013987D03*
X005722Y013987D03*
X005727Y013987D03*
X005732Y013987D03*
X005737Y013987D03*
X005742Y013987D03*
X005747Y013987D03*
X005752Y013987D03*
X005757Y013987D03*
X005762Y013987D03*
X005767Y013987D03*
X005772Y013987D03*
X005777Y013987D03*
X005782Y013987D03*
X005787Y013987D03*
X005792Y013987D03*
X005797Y013987D03*
X005802Y013987D03*
X005807Y013987D03*
X005812Y013987D03*
X005817Y013987D03*
X005667Y013987D03*
X005662Y013987D03*
X005657Y013987D03*
X005652Y013987D03*
X005647Y013987D03*
X005642Y013987D03*
X005637Y013987D03*
X005632Y013987D03*
X005627Y013987D03*
X005622Y013987D03*
X005617Y013987D03*
X005612Y013987D03*
X005607Y013987D03*
X005602Y013987D03*
X005597Y013987D03*
X005592Y013987D03*
X005587Y013987D03*
X005582Y013987D03*
X005577Y013987D03*
X005572Y013987D03*
X005567Y013987D03*
X005562Y013987D03*
X005557Y013987D03*
X005552Y013987D03*
X005547Y013987D03*
X005542Y013987D03*
X005537Y013987D03*
X005532Y013987D03*
X005527Y013987D03*
X005522Y013987D03*
X005517Y013987D03*
X005512Y013987D03*
X005507Y013987D03*
X005502Y013987D03*
X005497Y013987D03*
X005492Y013987D03*
X005487Y013987D03*
X005482Y013987D03*
X005477Y013987D03*
X005472Y013987D03*
X005467Y013987D03*
X005462Y013987D03*
X005457Y013987D03*
X005452Y013987D03*
X005447Y013987D03*
X005442Y013987D03*
X005437Y013987D03*
X005432Y013987D03*
X005427Y013987D03*
X005422Y013987D03*
X005417Y013987D03*
X005412Y013987D03*
X005407Y013987D03*
X005402Y013987D03*
X005397Y013987D03*
X005392Y013987D03*
X005387Y013987D03*
X005382Y013987D03*
X005377Y013987D03*
X005372Y013987D03*
X005367Y013987D03*
X005362Y013987D03*
X005402Y013682D03*
X005407Y013682D03*
X005412Y013682D03*
X005417Y013682D03*
X005422Y013682D03*
X005427Y013682D03*
X005432Y013682D03*
X005437Y013682D03*
X005442Y013682D03*
X005447Y013682D03*
X005452Y013682D03*
X005457Y013682D03*
X005462Y013682D03*
X005467Y013682D03*
X005472Y013682D03*
X005477Y013682D03*
X005482Y013682D03*
X005487Y013682D03*
X005492Y013682D03*
X005497Y013682D03*
X005502Y013682D03*
X005507Y013682D03*
X005512Y013682D03*
X005517Y013682D03*
X005522Y013682D03*
X005527Y013682D03*
X005532Y013682D03*
X005537Y013682D03*
X005542Y013682D03*
X005547Y013682D03*
X005552Y013682D03*
X005557Y013682D03*
X005562Y013682D03*
X005567Y013682D03*
X005572Y013682D03*
X005577Y013682D03*
X005582Y013682D03*
X005587Y013682D03*
X005592Y013682D03*
X005597Y013682D03*
X005602Y013682D03*
X005607Y013682D03*
X005612Y013682D03*
X005617Y013682D03*
X005622Y013682D03*
X005627Y013682D03*
X005632Y013682D03*
X005637Y013682D03*
X005642Y013682D03*
X005647Y013682D03*
X005652Y013682D03*
X005657Y013682D03*
X005662Y013682D03*
X005667Y013682D03*
X005672Y013682D03*
X005677Y013682D03*
X005682Y013682D03*
X005687Y013682D03*
X005692Y013682D03*
X005697Y013682D03*
X005702Y013682D03*
X005707Y013682D03*
X005712Y013682D03*
X005717Y013682D03*
X005722Y013682D03*
X005727Y013682D03*
X005732Y013682D03*
X005737Y013682D03*
X005742Y013682D03*
X005747Y013682D03*
X005752Y013682D03*
X005757Y013682D03*
X005762Y013682D03*
X005767Y013682D03*
X005772Y013682D03*
X005777Y013682D03*
X005782Y013682D03*
X005787Y013682D03*
X005792Y013682D03*
X005797Y013682D03*
X005802Y013682D03*
X005807Y013682D03*
X005812Y013682D03*
X005817Y013682D03*
X005652Y013407D03*
X005642Y013402D03*
X005617Y013392D03*
X005592Y013382D03*
X005582Y013377D03*
X005567Y013372D03*
X005557Y013367D03*
X005547Y013362D03*
X005532Y013357D03*
X005522Y013352D03*
X005507Y013347D03*
X005497Y013342D03*
X005487Y013337D03*
X005472Y013332D03*
X005462Y013327D03*
X005447Y013322D03*
X005437Y013317D03*
X005427Y013312D03*
X005422Y013312D03*
X005412Y013307D03*
X005417Y013257D03*
X005427Y013252D03*
X005432Y013252D03*
X005437Y013247D03*
X005442Y013247D03*
X005452Y013242D03*
X005457Y013242D03*
X005462Y013237D03*
X005467Y013237D03*
X005472Y013232D03*
X005477Y013232D03*
X005482Y013227D03*
X005487Y013227D03*
X005492Y013227D03*
X005497Y013222D03*
X005502Y013222D03*
X005507Y013217D03*
X005512Y013217D03*
X005517Y013212D03*
X005522Y013212D03*
X005527Y013212D03*
X005532Y013207D03*
X005537Y013207D03*
X005542Y013202D03*
X005547Y013202D03*
X005552Y013197D03*
X005557Y013197D03*
X005567Y013192D03*
X005572Y013192D03*
X005577Y013187D03*
X005582Y013187D03*
X005587Y013182D03*
X005592Y013182D03*
X005602Y013177D03*
X005607Y013177D03*
X005612Y013172D03*
X005617Y013172D03*
X005622Y013167D03*
X005627Y013167D03*
X005637Y013162D03*
X005647Y013157D03*
X005652Y013157D03*
X005707Y013132D03*
X005717Y013127D03*
X005722Y013127D03*
X005727Y013122D03*
X005732Y013122D03*
X005742Y013117D03*
X005752Y013112D03*
X005767Y013107D03*
X005777Y013102D03*
X005787Y013097D03*
X005802Y013092D03*
X005812Y013087D03*
X005742Y012897D03*
X005737Y012897D03*
X005732Y012897D03*
X005727Y012902D03*
X005722Y012902D03*
X005717Y012907D03*
X005712Y012907D03*
X005707Y012907D03*
X005702Y012912D03*
X005697Y012912D03*
X005692Y012912D03*
X005687Y012917D03*
X005682Y012917D03*
X005672Y012922D03*
X005667Y012922D03*
X005662Y012927D03*
X005657Y012927D03*
X005652Y012927D03*
X005647Y012932D03*
X005642Y012932D03*
X005632Y012937D03*
X005627Y012937D03*
X005622Y012942D03*
X005617Y012942D03*
X005607Y012947D03*
X005602Y012947D03*
X005592Y012952D03*
X005587Y012952D03*
X005582Y012957D03*
X005577Y012957D03*
X005567Y012962D03*
X005562Y012962D03*
X005552Y012967D03*
X005547Y012967D03*
X005537Y012972D03*
X005527Y012977D03*
X005522Y012977D03*
X005512Y012982D03*
X005497Y012987D03*
X005487Y012992D03*
X005482Y012992D03*
X005472Y012997D03*
X005457Y013002D03*
X005447Y013007D03*
X005442Y013007D03*
X005432Y013012D03*
X005417Y013017D03*
X005402Y013022D03*
X005392Y013027D03*
X005377Y013032D03*
X005572Y012772D03*
X005587Y012777D03*
X005597Y012782D03*
X005612Y012787D03*
X005627Y012792D03*
X005637Y012797D03*
X005642Y012797D03*
X005652Y012802D03*
X005667Y012807D03*
X005677Y012812D03*
X005682Y012812D03*
X005692Y012817D03*
X005707Y012822D03*
X005722Y012827D03*
X005732Y012832D03*
X005737Y012832D03*
X005747Y012837D03*
X005762Y012842D03*
X005762Y012887D03*
X005757Y012892D03*
X005752Y012892D03*
X005747Y012892D03*
X005557Y012767D03*
X005547Y012762D03*
X005532Y012757D03*
X005517Y012752D03*
X005492Y012742D03*
X005477Y012737D03*
X005437Y012722D03*
X005397Y012707D03*
X005382Y012702D03*
X005497Y012567D03*
X005512Y012572D03*
X005527Y012577D03*
X005532Y012577D03*
X005547Y012582D03*
X005552Y012582D03*
X005557Y012582D03*
X005562Y012582D03*
X005567Y012582D03*
X005572Y012582D03*
X005607Y012582D03*
X005612Y012582D03*
X005617Y012582D03*
X005622Y012582D03*
X005627Y012582D03*
X005632Y012582D03*
X005647Y012577D03*
X005652Y012577D03*
X005657Y012577D03*
X005672Y012572D03*
X005672Y012162D03*
X005657Y012157D03*
X005652Y012157D03*
X005637Y012152D03*
X005632Y012152D03*
X005627Y012152D03*
X005622Y012152D03*
X005592Y012147D03*
X005587Y012147D03*
X005562Y012152D03*
X005557Y012152D03*
X005552Y012152D03*
X005547Y012152D03*
X005542Y012152D03*
X005527Y012157D03*
X005522Y012157D03*
X005507Y012162D03*
X005507Y011977D03*
X005512Y011977D03*
X005517Y011977D03*
X005522Y011977D03*
X005527Y011977D03*
X005532Y011977D03*
X005537Y011977D03*
X005542Y011977D03*
X005547Y011977D03*
X005552Y011977D03*
X005557Y011977D03*
X005562Y011977D03*
X005567Y011977D03*
X005572Y011977D03*
X005577Y011977D03*
X005582Y011977D03*
X005587Y011977D03*
X005592Y011977D03*
X005597Y011977D03*
X005602Y011977D03*
X005607Y011977D03*
X005612Y011977D03*
X005617Y011977D03*
X005622Y011977D03*
X005627Y011977D03*
X005632Y011977D03*
X005637Y011977D03*
X005642Y011977D03*
X005647Y011977D03*
X005652Y011977D03*
X005657Y011977D03*
X005662Y011977D03*
X005667Y011977D03*
X005672Y011977D03*
X005677Y011977D03*
X005682Y011977D03*
X005687Y011977D03*
X005692Y011977D03*
X005697Y011977D03*
X005702Y011977D03*
X005707Y011977D03*
X005712Y011977D03*
X005717Y011977D03*
X005722Y011977D03*
X005727Y011977D03*
X005732Y011977D03*
X005737Y011977D03*
X005742Y011977D03*
X005747Y011977D03*
X005752Y011977D03*
X005757Y011977D03*
X005762Y011977D03*
X005502Y011977D03*
X005497Y011977D03*
X005492Y011977D03*
X005487Y011977D03*
X005482Y011977D03*
X005477Y011977D03*
X005472Y011977D03*
X005467Y011977D03*
X005462Y011977D03*
X005457Y011977D03*
X005452Y011977D03*
X005447Y011977D03*
X005442Y011977D03*
X005437Y011977D03*
X005432Y011977D03*
X005427Y011977D03*
X005422Y011977D03*
X005417Y011977D03*
X005412Y011977D03*
X005407Y011977D03*
X005402Y011977D03*
X005397Y011977D03*
X005392Y011977D03*
X005387Y011977D03*
X005382Y011977D03*
X005377Y011977D03*
X005372Y011977D03*
X005367Y011977D03*
X005362Y011977D03*
X005422Y011637D03*
X005427Y011637D03*
X005432Y011637D03*
X005437Y011637D03*
X005442Y011637D03*
X005447Y011637D03*
X005452Y011637D03*
X005457Y011637D03*
X005462Y011637D03*
X005467Y011637D03*
X005472Y011637D03*
X005477Y011637D03*
X005482Y011637D03*
X005487Y011637D03*
X005492Y011637D03*
X005497Y011637D03*
X005502Y011637D03*
X005507Y011637D03*
X005512Y011637D03*
X005517Y011637D03*
X005522Y011637D03*
X005527Y011637D03*
X005532Y011637D03*
X005537Y011637D03*
X005542Y011637D03*
X005547Y011637D03*
X005552Y011637D03*
X005557Y011637D03*
X005562Y011637D03*
X005567Y011637D03*
X005572Y011637D03*
X005577Y011637D03*
X005582Y011637D03*
X005587Y011637D03*
X005592Y011637D03*
X005597Y011637D03*
X005602Y011637D03*
X005607Y011637D03*
X005612Y011637D03*
X005617Y011637D03*
X005622Y011637D03*
X005627Y011637D03*
X005632Y011637D03*
X005637Y011637D03*
X005642Y011637D03*
X005647Y011637D03*
X005652Y011637D03*
X005657Y011637D03*
X005662Y011637D03*
X005667Y011637D03*
X005672Y011637D03*
X005677Y011637D03*
X005682Y011637D03*
X005687Y011637D03*
X005692Y011637D03*
X005697Y011637D03*
X005702Y011637D03*
X005707Y011637D03*
X005712Y011637D03*
X005717Y011637D03*
X005722Y011637D03*
X005727Y011637D03*
X005732Y011637D03*
X005737Y011637D03*
X005742Y011637D03*
X005747Y011637D03*
X005752Y011637D03*
X005757Y011637D03*
X005762Y011637D03*
X005767Y011637D03*
X005772Y011637D03*
X005777Y011637D03*
X005782Y011637D03*
X005787Y011637D03*
X005792Y011637D03*
X005797Y011637D03*
X005802Y011637D03*
X005807Y011637D03*
X005812Y011637D03*
X005817Y011637D03*
X005817Y011097D03*
X005812Y011097D03*
X005807Y011097D03*
X005802Y011097D03*
X005797Y011097D03*
X005792Y011097D03*
X005787Y011097D03*
X005782Y011097D03*
X005777Y011097D03*
X005772Y011097D03*
X005767Y011097D03*
X005762Y011097D03*
X005757Y011097D03*
X005752Y011097D03*
X005747Y011097D03*
X005742Y011097D03*
X005737Y011097D03*
X005732Y011097D03*
X005727Y011097D03*
X005722Y011097D03*
X005717Y011097D03*
X005712Y011097D03*
X005707Y011097D03*
X005702Y011097D03*
X005697Y011097D03*
X005692Y011097D03*
X005687Y011097D03*
X005682Y011097D03*
X005677Y011097D03*
X005672Y011097D03*
X005667Y011097D03*
X005662Y011097D03*
X005657Y011097D03*
X005652Y011097D03*
X005647Y011097D03*
X005642Y011097D03*
X005637Y011097D03*
X005632Y011097D03*
X005627Y011097D03*
X005622Y011097D03*
X005617Y011097D03*
X005612Y011097D03*
X005607Y011097D03*
X005602Y011097D03*
X005597Y011097D03*
X005592Y011097D03*
X005587Y011097D03*
X005582Y011097D03*
X005577Y011097D03*
X005572Y011097D03*
X005567Y011097D03*
X005562Y011097D03*
X005557Y011097D03*
X005552Y011097D03*
X005547Y011097D03*
X005542Y011097D03*
X005537Y011097D03*
X005532Y011097D03*
X005527Y011097D03*
X005522Y011097D03*
X005517Y011097D03*
X005512Y011097D03*
X005507Y011097D03*
X005502Y011097D03*
X005497Y011097D03*
X005492Y011097D03*
X005487Y011097D03*
X005482Y011097D03*
X005477Y011097D03*
X005472Y011097D03*
X005467Y011097D03*
X005462Y011097D03*
X005457Y011097D03*
X005452Y011097D03*
X005447Y011097D03*
X005442Y011097D03*
X005437Y011097D03*
X005432Y011097D03*
X005427Y011097D03*
X005422Y011097D03*
X005422Y010892D03*
X005427Y010892D03*
X005432Y010892D03*
X005437Y010892D03*
X005442Y010892D03*
X005447Y010892D03*
X005452Y010892D03*
X005457Y010892D03*
X005462Y010892D03*
X005467Y010892D03*
X005472Y010892D03*
X005477Y010892D03*
X005482Y010892D03*
X005487Y010892D03*
X005492Y010892D03*
X005497Y010892D03*
X005502Y010892D03*
X005507Y010892D03*
X005512Y010892D03*
X005517Y010892D03*
X005522Y010892D03*
X005527Y010892D03*
X005532Y010892D03*
X005537Y010892D03*
X005542Y010892D03*
X005547Y010892D03*
X005552Y010892D03*
X005557Y010892D03*
X005562Y010892D03*
X005567Y010892D03*
X005572Y010892D03*
X005577Y010892D03*
X005582Y010892D03*
X005587Y010892D03*
X005592Y010892D03*
X005597Y010892D03*
X005602Y010892D03*
X005607Y010892D03*
X005612Y010892D03*
X005617Y010892D03*
X005622Y010892D03*
X005627Y010892D03*
X005632Y010892D03*
X005637Y010892D03*
X005642Y010892D03*
X005647Y010892D03*
X005652Y010892D03*
X005657Y010892D03*
X005662Y010892D03*
X005667Y010892D03*
X005672Y010892D03*
X005677Y010892D03*
X005682Y010892D03*
X005687Y010892D03*
X005692Y010892D03*
X005697Y010892D03*
X005702Y010892D03*
X005707Y010892D03*
X005712Y010892D03*
X005717Y010892D03*
X005722Y010892D03*
X005727Y010892D03*
X005732Y010892D03*
X005737Y010892D03*
X005742Y010892D03*
X005747Y010892D03*
X005752Y010892D03*
X005757Y010892D03*
X005762Y010892D03*
X005767Y010892D03*
X005772Y010892D03*
X005777Y010892D03*
X005782Y010892D03*
X005787Y010892D03*
X005792Y010892D03*
X005797Y010892D03*
X005802Y010892D03*
X005807Y010892D03*
X005812Y010892D03*
X005817Y010892D03*
X005417Y010892D03*
X005412Y010892D03*
X005407Y010892D03*
X005402Y010892D03*
X005397Y010892D03*
X005392Y010892D03*
X005387Y010892D03*
X005382Y010892D03*
X005377Y010892D03*
X005372Y010892D03*
X005367Y010892D03*
X005362Y010892D03*
X005032Y009752D03*
X004782Y009752D03*
X004507Y009772D03*
X006392Y009792D03*
X006662Y009772D03*
X006425Y003700D03*
X006420Y003700D03*
X006365Y003540D03*
X006360Y003540D03*
D54*
X006410Y003185D03*
X006415Y003185D03*
X005392Y009377D03*
X005522Y009507D03*
X005642Y009507D03*
X005377Y009772D03*
X005902Y010297D03*
X006547Y009772D03*
X004622Y009772D03*
D55*
X004517Y009772D03*
X004802Y009742D03*
X005052Y009742D03*
X005272Y009772D03*
X005512Y009772D03*
X006117Y009802D03*
X006372Y009802D03*
X006652Y009772D03*
X005457Y008587D03*
X005372Y011107D03*
X005817Y011427D03*
X005372Y011647D03*
X005367Y011647D03*
X005812Y011967D03*
X005817Y011967D03*
X005757Y012217D03*
X005762Y012222D03*
X005762Y012512D03*
X005757Y012517D03*
X005752Y012522D03*
X005422Y012512D03*
X005417Y012507D03*
X005412Y012232D03*
X005417Y012227D03*
X005797Y012862D03*
X005757Y014227D03*
X005762Y014232D03*
X005762Y014522D03*
X005757Y014527D03*
X005752Y014532D03*
X005422Y014522D03*
X005417Y014517D03*
X005372Y014777D03*
X005367Y014777D03*
X005812Y015097D03*
X005817Y015097D03*
X005767Y015292D03*
X005772Y015297D03*
X005547Y015322D03*
X005542Y015317D03*
X005637Y015502D03*
X005642Y015507D03*
X006380Y003690D03*
X006385Y003690D03*
X006390Y003690D03*
X006395Y003690D03*
X006400Y003690D03*
X006405Y003690D03*
X006410Y003690D03*
X006415Y003690D03*
X006235Y003640D03*
X006230Y003640D03*
X006195Y003630D03*
X006190Y003630D03*
X006185Y003630D03*
X006180Y003630D03*
X006145Y003620D03*
X006140Y003620D03*
X006115Y003610D03*
X006110Y003610D03*
X006075Y003200D03*
X006070Y003200D03*
X006080Y003190D03*
X006085Y003190D03*
X006100Y003180D03*
X006105Y003180D03*
X006110Y003170D03*
X006115Y003170D03*
X006120Y003170D03*
X006125Y003170D03*
X006130Y003160D03*
X006135Y003160D03*
X006140Y003160D03*
X006145Y003160D03*
X006150Y003150D03*
X006155Y003150D03*
X006170Y003140D03*
X006175Y003140D03*
X006180Y003130D03*
X006185Y003130D03*
X006280Y003050D03*
X006285Y003050D03*
X006290Y003050D03*
X006295Y003050D03*
X006300Y003050D03*
X006305Y003050D03*
X006310Y003050D03*
X006315Y003050D03*
X006320Y003050D03*
X006325Y003050D03*
X005295Y002240D03*
X005290Y002240D03*
D56*
X005420Y002235D03*
X005425Y002235D03*
X006390Y002595D03*
X006395Y002595D03*
X006395Y003185D03*
X006390Y003185D03*
X005787Y008497D03*
X005417Y009772D03*
D57*
X005537Y007147D03*
X005542Y007147D03*
X005547Y007147D03*
X005552Y007147D03*
X005557Y007147D03*
X005562Y007147D03*
X005567Y007147D03*
X005572Y007147D03*
X005577Y007147D03*
X005582Y007147D03*
X005587Y007147D03*
X005592Y007147D03*
X005597Y007147D03*
X005602Y007147D03*
X005607Y007147D03*
X005612Y007147D03*
X005617Y007147D03*
X006370Y003210D03*
X006375Y003210D03*
X005445Y002240D03*
X005440Y002240D03*
X006380Y002010D03*
X006385Y002010D03*
D58*
X006385Y002595D03*
X006380Y002595D03*
X006345Y003365D03*
X006340Y003365D03*
X006335Y003375D03*
X006330Y003375D03*
D59*
X006370Y002600D03*
X006375Y002600D03*
X005485Y002240D03*
X005480Y002240D03*
D60*
X006270Y003055D03*
X006275Y003055D03*
X006065Y003205D03*
X006060Y003205D03*
X006350Y003695D03*
X006355Y003695D03*
X006360Y003695D03*
X006365Y003695D03*
X006370Y003695D03*
X006375Y003695D03*
X006647Y009772D03*
X006362Y009807D03*
X006107Y009807D03*
X005277Y009772D03*
X005062Y009737D03*
X004812Y009737D03*
X004522Y009772D03*
X005382Y011112D03*
X005387Y011112D03*
X005802Y011422D03*
X005382Y011652D03*
X005797Y011962D03*
X005802Y011962D03*
X005777Y012242D03*
X005777Y012492D03*
X005772Y012497D03*
X005402Y012247D03*
X005392Y013282D03*
X005402Y014257D03*
X005777Y014252D03*
X005777Y014502D03*
X005772Y014507D03*
X005387Y014782D03*
X005382Y014782D03*
X005797Y015092D03*
X005802Y015092D03*
X005557Y015337D03*
X005632Y015497D03*
X005787Y015487D03*
X005397Y015502D03*
D61*
X005412Y015312D03*
X005422Y015307D03*
X005522Y015302D03*
X005527Y015307D03*
X005652Y015517D03*
X005662Y015522D03*
X005747Y015522D03*
X005757Y015517D03*
X005762Y015512D03*
X005762Y015057D03*
X005757Y015052D03*
X005752Y015047D03*
X005747Y015047D03*
X005742Y015042D03*
X005737Y015037D03*
X005727Y015032D03*
X005722Y015027D03*
X005712Y015022D03*
X005707Y015017D03*
X005702Y015012D03*
X005697Y015012D03*
X005692Y015007D03*
X005687Y015002D03*
X005677Y014997D03*
X005672Y014992D03*
X005662Y014987D03*
X005657Y014982D03*
X005652Y014977D03*
X005647Y014977D03*
X005642Y014972D03*
X005637Y014967D03*
X005632Y014967D03*
X005627Y014962D03*
X005622Y014957D03*
X005612Y014952D03*
X005607Y014947D03*
X005597Y014942D03*
X005592Y014937D03*
X005587Y014932D03*
X005582Y014932D03*
X005577Y014927D03*
X005572Y014922D03*
X005562Y014917D03*
X005557Y014912D03*
X005547Y014907D03*
X005542Y014902D03*
X005537Y014897D03*
X005532Y014897D03*
X005527Y014892D03*
X005522Y014887D03*
X005517Y014887D03*
X005512Y014882D03*
X005507Y014877D03*
X005497Y014872D03*
X005492Y014867D03*
X005482Y014862D03*
X005477Y014857D03*
X005472Y014852D03*
X005467Y014852D03*
X005462Y014847D03*
X005457Y014842D03*
X005447Y014837D03*
X005442Y014832D03*
X005432Y014827D03*
X005427Y014822D03*
X005422Y014817D03*
X005477Y014567D03*
X005467Y014562D03*
X005462Y014557D03*
X005452Y014552D03*
X005447Y014547D03*
X005442Y014542D03*
X005712Y014562D03*
X005722Y014557D03*
X005727Y014552D03*
X005737Y014547D03*
X005742Y014542D03*
X005742Y014212D03*
X005737Y014207D03*
X005732Y014202D03*
X005722Y014197D03*
X005717Y014192D03*
X005707Y014187D03*
X005697Y014182D03*
X005467Y014192D03*
X005457Y014197D03*
X005452Y014202D03*
X005447Y014207D03*
X005797Y013467D03*
X005762Y013452D03*
X005722Y012547D03*
X005727Y012542D03*
X005737Y012537D03*
X005742Y012532D03*
X005747Y012527D03*
X005832Y012367D03*
X005742Y012202D03*
X005737Y012197D03*
X005732Y012192D03*
X005727Y012192D03*
X005722Y012187D03*
X005717Y012182D03*
X005707Y012177D03*
X005697Y012172D03*
X005467Y012182D03*
X005457Y012187D03*
X005452Y012192D03*
X005447Y012197D03*
X005447Y012537D03*
X005452Y012542D03*
X005462Y012547D03*
X005467Y012552D03*
X005477Y012557D03*
X005762Y011927D03*
X005757Y011922D03*
X005752Y011917D03*
X005747Y011917D03*
X005742Y011912D03*
X005737Y011907D03*
X005732Y011907D03*
X005727Y011902D03*
X005722Y011897D03*
X005712Y011892D03*
X005707Y011887D03*
X005697Y011882D03*
X005692Y011877D03*
X005687Y011872D03*
X005682Y011872D03*
X005677Y011867D03*
X005672Y011862D03*
X005662Y011857D03*
X005657Y011852D03*
X005647Y011847D03*
X005642Y011842D03*
X005637Y011837D03*
X005632Y011837D03*
X005627Y011832D03*
X005622Y011827D03*
X005617Y011827D03*
X005612Y011822D03*
X005607Y011817D03*
X005597Y011812D03*
X005592Y011807D03*
X005582Y011802D03*
X005577Y011797D03*
X005572Y011792D03*
X005567Y011792D03*
X005562Y011787D03*
X005557Y011782D03*
X005547Y011777D03*
X005542Y011772D03*
X005532Y011767D03*
X005527Y011762D03*
X005522Y011757D03*
X005517Y011757D03*
X005512Y011752D03*
X005507Y011747D03*
X005502Y011747D03*
X005497Y011742D03*
X005492Y011737D03*
X005482Y011732D03*
X005477Y011727D03*
X005467Y011722D03*
X005462Y011717D03*
X005457Y011712D03*
X005452Y011712D03*
X005447Y011707D03*
X005442Y011702D03*
X005432Y011697D03*
X005427Y011692D03*
X005677Y011327D03*
X005682Y011327D03*
X005687Y011332D03*
X005692Y011337D03*
X005702Y011342D03*
X005707Y011347D03*
X005717Y011352D03*
X005722Y011357D03*
X005732Y011362D03*
X005737Y011367D03*
X005742Y011372D03*
X005747Y011372D03*
X005752Y011377D03*
X005757Y011382D03*
X005672Y011322D03*
X005667Y011317D03*
X005657Y011312D03*
X005652Y011307D03*
X005642Y011302D03*
X005637Y011297D03*
X005632Y011292D03*
X005627Y011292D03*
X005622Y011287D03*
X005617Y011282D03*
X005612Y011282D03*
X005607Y011277D03*
X005602Y011272D03*
X005592Y011267D03*
X005587Y011262D03*
X005577Y011257D03*
X005572Y011252D03*
X005567Y011247D03*
X005562Y011247D03*
X005557Y011242D03*
X005552Y011237D03*
X005542Y011232D03*
X005537Y011227D03*
X005527Y011222D03*
X005522Y011217D03*
X005517Y011212D03*
X005512Y011212D03*
X005507Y011207D03*
X005502Y011202D03*
X005497Y011202D03*
X005492Y011197D03*
X005487Y011192D03*
X005477Y011187D03*
X005472Y011182D03*
X005462Y011177D03*
X005457Y011172D03*
X005452Y011167D03*
X005447Y011167D03*
X005442Y011162D03*
X005437Y011157D03*
X005427Y011152D03*
X005422Y011147D03*
X005267Y009772D03*
X005042Y009747D03*
X004792Y009747D03*
X004512Y009772D03*
X005462Y008587D03*
X006127Y009797D03*
X006382Y009797D03*
X006657Y009772D03*
X006265Y003645D03*
X006260Y003645D03*
X006255Y003645D03*
X006250Y003645D03*
X006245Y003645D03*
X006240Y003645D03*
X006225Y003635D03*
X006220Y003635D03*
X006215Y003635D03*
X006210Y003635D03*
X006205Y003635D03*
X006200Y003635D03*
X006175Y003625D03*
X006170Y003625D03*
X006165Y003625D03*
X006160Y003625D03*
X006155Y003625D03*
X006150Y003625D03*
X006135Y003615D03*
X006130Y003615D03*
X006125Y003615D03*
X006120Y003615D03*
X006095Y003185D03*
X006090Y003185D03*
X006160Y003145D03*
X006165Y003145D03*
X006360Y001645D03*
X006365Y001645D03*
D62*
X006365Y002295D03*
X006360Y002295D03*
D63*
X006355Y002240D03*
X006350Y002240D03*
X006345Y002240D03*
X006340Y002240D03*
X006335Y002240D03*
X006330Y002240D03*
X006325Y002240D03*
X006320Y002240D03*
X006315Y002240D03*
X006310Y002240D03*
X006305Y002240D03*
X006300Y002240D03*
X006295Y002240D03*
X006290Y002240D03*
X006285Y002240D03*
X006280Y002240D03*
X006275Y002240D03*
X006270Y002240D03*
X006265Y002240D03*
X006260Y002240D03*
X006255Y002240D03*
X006250Y002240D03*
X006245Y002240D03*
X006240Y002240D03*
X006235Y002240D03*
X006230Y002240D03*
X006225Y002240D03*
X006220Y002240D03*
X006215Y002240D03*
X006210Y002240D03*
X006205Y002240D03*
X006200Y002240D03*
X006195Y002240D03*
X006190Y002240D03*
X006185Y002240D03*
X006180Y002240D03*
X006175Y002240D03*
X006170Y002240D03*
X006165Y002240D03*
X006160Y002240D03*
X006155Y002240D03*
X006150Y002240D03*
X006145Y002240D03*
X006140Y002240D03*
X006135Y002240D03*
X006130Y002240D03*
X006125Y002240D03*
X006120Y002240D03*
X006115Y002240D03*
X006110Y002240D03*
X006105Y002240D03*
X006100Y002240D03*
X006095Y002240D03*
X006090Y002240D03*
X006085Y002240D03*
X006080Y002240D03*
X006075Y002240D03*
X006070Y002240D03*
X006065Y002240D03*
X006060Y002240D03*
X006055Y002240D03*
X006050Y002240D03*
X006045Y002240D03*
X006040Y002240D03*
X006035Y002240D03*
X006030Y002240D03*
X006025Y002240D03*
X006020Y002240D03*
X006015Y002240D03*
X006010Y002240D03*
X006005Y002240D03*
X006000Y002240D03*
X005995Y002240D03*
X005990Y002240D03*
X005985Y002240D03*
X005980Y002240D03*
X005975Y002240D03*
X005970Y002240D03*
X005965Y002240D03*
X005960Y002240D03*
X005955Y002240D03*
X005950Y002240D03*
X005945Y002240D03*
X005940Y002240D03*
X005935Y002240D03*
X005930Y002240D03*
X005815Y002240D03*
X005810Y002240D03*
D64*
X006350Y003290D03*
X006355Y003290D03*
D65*
X006325Y003450D03*
X006320Y003450D03*
D66*
X006265Y003380D03*
X006260Y003380D03*
X005455Y002240D03*
X005450Y002240D03*
D67*
X006230Y003210D03*
X006235Y003210D03*
X005777Y008492D03*
X005422Y009772D03*
D68*
X005292Y009772D03*
X005092Y009722D03*
X004842Y009722D03*
X004537Y009772D03*
X005352Y008482D03*
X005572Y008282D03*
X005577Y008282D03*
X005582Y008282D03*
X005587Y008282D03*
X005592Y008282D03*
X005597Y008282D03*
X005602Y008282D03*
X005607Y008282D03*
X005607Y008087D03*
X005612Y008087D03*
X005617Y008087D03*
X005622Y008087D03*
X005627Y008087D03*
X005632Y008087D03*
X005637Y008087D03*
X005642Y008087D03*
X005647Y008087D03*
X005652Y008087D03*
X005657Y008087D03*
X005662Y008087D03*
X005667Y008087D03*
X005672Y008087D03*
X005677Y008087D03*
X005602Y008087D03*
X005597Y008087D03*
X005592Y008087D03*
X005587Y008087D03*
X005582Y008087D03*
X005577Y008087D03*
X005572Y008087D03*
X005567Y008087D03*
X005562Y008087D03*
X005557Y008087D03*
X005552Y008087D03*
X005547Y008087D03*
X005542Y008087D03*
X005537Y008087D03*
X005532Y008087D03*
X005527Y008087D03*
X005522Y008087D03*
X005517Y008087D03*
X005512Y008087D03*
X005507Y008087D03*
X005502Y008087D03*
X005497Y008087D03*
X005492Y008087D03*
X005487Y008087D03*
X005482Y008087D03*
X005477Y008087D03*
X005472Y008087D03*
X005467Y008087D03*
X005462Y008087D03*
X005457Y008087D03*
X005452Y008087D03*
X005447Y008087D03*
X005442Y008087D03*
X005437Y008087D03*
X005432Y008087D03*
X005427Y008087D03*
X005422Y008087D03*
X005417Y008087D03*
X005412Y008087D03*
X005407Y008087D03*
X005402Y008087D03*
X005397Y008087D03*
X005392Y008087D03*
X005387Y008087D03*
X005382Y008087D03*
X005377Y008087D03*
X005372Y008087D03*
X005367Y008087D03*
X005362Y008087D03*
X005497Y007752D03*
X005502Y007752D03*
X005507Y007752D03*
X005512Y007752D03*
X005517Y007752D03*
X005522Y007752D03*
X005527Y007752D03*
X005532Y007752D03*
X005537Y007752D03*
X005542Y007752D03*
X005547Y007752D03*
X005552Y007752D03*
X005557Y007752D03*
X005562Y007752D03*
X005567Y007752D03*
X005572Y007752D03*
X005577Y007752D03*
X005582Y007752D03*
X005587Y007752D03*
X005592Y007752D03*
X005597Y007752D03*
X005602Y007752D03*
X005607Y007752D03*
X005612Y007752D03*
X005617Y007752D03*
X005622Y007752D03*
X005627Y007752D03*
X005632Y007752D03*
X005637Y007752D03*
X005642Y007752D03*
X005647Y007752D03*
X005652Y007752D03*
X005657Y007752D03*
X005662Y007752D03*
X005667Y007752D03*
X005672Y007752D03*
X005677Y007752D03*
X005682Y007752D03*
X005687Y007752D03*
X005692Y007752D03*
X005697Y007752D03*
X005702Y007752D03*
X005707Y007752D03*
X005712Y007752D03*
X005717Y007752D03*
X005722Y007752D03*
X005727Y007752D03*
X005732Y007752D03*
X005737Y007752D03*
X005742Y007752D03*
X005747Y007752D03*
X005752Y007752D03*
X005757Y007752D03*
X005762Y007752D03*
X005767Y007752D03*
X005772Y007752D03*
X005777Y007752D03*
X005782Y007752D03*
X005787Y007752D03*
X005792Y007752D03*
X005797Y007752D03*
X005802Y007752D03*
X005807Y007752D03*
X005812Y007752D03*
X005817Y007752D03*
X005817Y007522D03*
X005812Y007522D03*
X005807Y007522D03*
X005802Y007522D03*
X005797Y007522D03*
X005792Y007522D03*
X005787Y007522D03*
X005782Y007522D03*
X005777Y007522D03*
X005772Y007522D03*
X005767Y007522D03*
X005762Y007522D03*
X005757Y007522D03*
X005752Y007522D03*
X005747Y007522D03*
X005742Y007522D03*
X005737Y007522D03*
X005732Y007522D03*
X005727Y007522D03*
X005722Y007522D03*
X005717Y007522D03*
X005712Y007522D03*
X005707Y007522D03*
X005702Y007522D03*
X005697Y007522D03*
X005692Y007522D03*
X005687Y007522D03*
X005682Y007522D03*
X005677Y007522D03*
X005672Y007522D03*
X005667Y007522D03*
X005662Y007522D03*
X005657Y007522D03*
X005652Y007522D03*
X005647Y007522D03*
X005642Y007522D03*
X005637Y007522D03*
X005632Y007522D03*
X005627Y007522D03*
X005622Y007522D03*
X005617Y007522D03*
X005612Y007522D03*
X005607Y007522D03*
X005602Y007522D03*
X005597Y007522D03*
X005592Y007522D03*
X005587Y007522D03*
X005582Y007522D03*
X005577Y007522D03*
X005572Y007522D03*
X005567Y007522D03*
X005562Y007522D03*
X005557Y007522D03*
X005552Y007522D03*
X005547Y007522D03*
X005542Y007522D03*
X005537Y007522D03*
X005532Y007522D03*
X005527Y007522D03*
X005522Y007522D03*
X005517Y007522D03*
X005512Y007522D03*
X005507Y007522D03*
X005502Y007522D03*
X005497Y007522D03*
X005492Y007522D03*
X005487Y007522D03*
X005482Y007522D03*
X005477Y007522D03*
X005472Y007522D03*
X005467Y007522D03*
X005462Y007522D03*
X005457Y007522D03*
X005452Y007522D03*
X005447Y007522D03*
X005442Y007522D03*
X005437Y007522D03*
X005432Y007522D03*
X005427Y007522D03*
X005422Y007522D03*
X005417Y007522D03*
X005412Y007522D03*
X005407Y007522D03*
X005402Y007522D03*
X005397Y007522D03*
X005392Y007522D03*
X005387Y007522D03*
X005382Y007522D03*
X005377Y007522D03*
X005372Y007522D03*
X005367Y007522D03*
X005362Y007522D03*
X005362Y007297D03*
X005367Y007297D03*
X005372Y007297D03*
X005377Y007297D03*
X005382Y007297D03*
X005387Y007297D03*
X005392Y007297D03*
X005397Y007297D03*
X005402Y007297D03*
X005407Y007297D03*
X005412Y007297D03*
X005417Y007297D03*
X005422Y007297D03*
X005427Y007297D03*
X005432Y007297D03*
X005437Y007297D03*
X005442Y007297D03*
X005447Y007297D03*
X005452Y007297D03*
X005457Y007297D03*
X005462Y007297D03*
X005467Y007297D03*
X005472Y007297D03*
X005477Y007297D03*
X005482Y007297D03*
X005487Y007297D03*
X005492Y007297D03*
X005497Y007297D03*
X005502Y007297D03*
X005507Y007297D03*
X005512Y007297D03*
X005517Y007297D03*
X005522Y007297D03*
X005527Y007297D03*
X005532Y007297D03*
X005622Y007297D03*
X005627Y007297D03*
X005632Y007297D03*
X005637Y007297D03*
X005642Y007297D03*
X005647Y007297D03*
X005652Y007297D03*
X005657Y007297D03*
X005662Y007297D03*
X005667Y007297D03*
X005672Y007297D03*
X005677Y007297D03*
X005682Y007297D03*
X005687Y007297D03*
X005692Y007297D03*
X005697Y007297D03*
X005702Y007297D03*
X005707Y007297D03*
X005712Y007297D03*
X005717Y007297D03*
X005722Y007297D03*
X005727Y007297D03*
X005732Y007297D03*
X005737Y007297D03*
X005742Y007297D03*
X005747Y007297D03*
X005752Y007297D03*
X005757Y007297D03*
X005762Y007297D03*
X005767Y007297D03*
X005772Y007297D03*
X005777Y007297D03*
X005782Y007297D03*
X005787Y007297D03*
X005792Y007297D03*
X005797Y007297D03*
X005802Y007297D03*
X005807Y007297D03*
X005812Y007297D03*
X005817Y007297D03*
X005817Y006997D03*
X005812Y006997D03*
X005807Y006997D03*
X005802Y006997D03*
X005797Y006997D03*
X005792Y006997D03*
X005787Y006997D03*
X005782Y006997D03*
X005777Y006997D03*
X005772Y006997D03*
X005767Y006997D03*
X005762Y006997D03*
X005757Y006997D03*
X005752Y006997D03*
X005747Y006997D03*
X005742Y006997D03*
X005737Y006997D03*
X005732Y006997D03*
X005727Y006997D03*
X005722Y006997D03*
X005717Y006997D03*
X005712Y006997D03*
X005707Y006997D03*
X005702Y006997D03*
X005697Y006997D03*
X005692Y006997D03*
X005687Y006997D03*
X005682Y006997D03*
X005677Y006997D03*
X005672Y006997D03*
X005667Y006997D03*
X005662Y006997D03*
X005657Y006997D03*
X005652Y006997D03*
X005647Y006997D03*
X005642Y006997D03*
X005637Y006997D03*
X005632Y006997D03*
X005627Y006997D03*
X005622Y006997D03*
X005532Y006997D03*
X005527Y006997D03*
X005522Y006997D03*
X005517Y006997D03*
X005512Y006997D03*
X005507Y006997D03*
X005502Y006997D03*
X005497Y006997D03*
X005492Y006997D03*
X005487Y006997D03*
X005482Y006997D03*
X005477Y006997D03*
X005472Y006997D03*
X005467Y006997D03*
X005462Y006997D03*
X005457Y006997D03*
X005452Y006997D03*
X005447Y006997D03*
X005442Y006997D03*
X005437Y006997D03*
X005432Y006997D03*
X005427Y006997D03*
X005422Y006997D03*
X005417Y006997D03*
X005412Y006997D03*
X005407Y006997D03*
X005402Y006997D03*
X005397Y006997D03*
X005392Y006997D03*
X005387Y006997D03*
X005382Y006997D03*
X005377Y006997D03*
X005372Y006997D03*
X005367Y006997D03*
X005362Y006997D03*
X005452Y006677D03*
X005457Y006677D03*
X005462Y006677D03*
X005467Y006677D03*
X005472Y006677D03*
X005477Y006677D03*
X005482Y006677D03*
X005487Y006677D03*
X005492Y006677D03*
X005497Y006677D03*
X005502Y006677D03*
X005507Y006677D03*
X005512Y006677D03*
X005517Y006677D03*
X005522Y006677D03*
X005527Y006677D03*
X005532Y006677D03*
X005537Y006677D03*
X005542Y006677D03*
X005547Y006677D03*
X005552Y006677D03*
X005557Y006677D03*
X005562Y006677D03*
X005567Y006677D03*
X005572Y006677D03*
X005577Y006677D03*
X005582Y006677D03*
X005587Y006677D03*
X005592Y006677D03*
X005597Y006677D03*
X005602Y006677D03*
X005607Y006677D03*
X005612Y006677D03*
X005617Y006677D03*
X005622Y006677D03*
X005627Y006677D03*
X005632Y006677D03*
X005637Y006677D03*
X005642Y006677D03*
X005647Y006677D03*
X005652Y006677D03*
X005657Y006677D03*
X005662Y006677D03*
X005667Y006677D03*
X005672Y006677D03*
X005677Y006677D03*
X005682Y006677D03*
X005687Y006677D03*
X005692Y006677D03*
X005697Y006677D03*
X005702Y006677D03*
X005707Y006677D03*
X005712Y006677D03*
X005717Y006677D03*
X005722Y006677D03*
X005727Y006677D03*
X005732Y006677D03*
X005737Y006677D03*
X005742Y006677D03*
X005747Y006677D03*
X005752Y006677D03*
X005757Y006677D03*
X005762Y006677D03*
X005767Y006677D03*
X005772Y006677D03*
X005777Y006677D03*
X005782Y006677D03*
X005787Y006677D03*
X005792Y006677D03*
X005797Y006677D03*
X005802Y006677D03*
X005807Y006677D03*
X005812Y006677D03*
X005817Y006677D03*
X005642Y008622D03*
X006632Y009772D03*
X006332Y009822D03*
X006327Y009827D03*
X006072Y009827D03*
X005792Y012457D03*
X005792Y014467D03*
X005572Y015367D03*
X005612Y015462D03*
X006100Y003590D03*
X006105Y003590D03*
X005315Y002240D03*
X005310Y002240D03*
D69*
X006080Y003520D03*
X006085Y003520D03*
X005467Y007802D03*
X005462Y007802D03*
X005707Y008037D03*
X005427Y009377D03*
X005577Y009527D03*
X005587Y009527D03*
X005342Y009772D03*
X005582Y010017D03*
X005587Y010017D03*
X005867Y010297D03*
X006582Y009772D03*
X004587Y009772D03*
D70*
X005920Y002240D03*
X005925Y002240D03*
D71*
X005915Y002240D03*
X005910Y002240D03*
D72*
X005905Y002240D03*
X005900Y002240D03*
D73*
X005895Y002240D03*
X005890Y002240D03*
D74*
X005885Y002235D03*
X005880Y002235D03*
D75*
X005875Y002235D03*
X005870Y002235D03*
D76*
X005865Y002235D03*
X005860Y002235D03*
D77*
X005855Y002240D03*
X005850Y002240D03*
D78*
X005845Y002240D03*
X005840Y002240D03*
D79*
X005835Y002240D03*
X005830Y002240D03*
D80*
X005825Y002240D03*
X005820Y002240D03*
D81*
X005805Y002235D03*
X005800Y002235D03*
D82*
X005795Y002235D03*
X005790Y002235D03*
D83*
X005785Y002240D03*
X005780Y002240D03*
D84*
X005775Y002240D03*
X005770Y002240D03*
D85*
X005765Y002240D03*
X005760Y002240D03*
D86*
X005755Y002240D03*
X005750Y002240D03*
D87*
X005745Y002235D03*
X005740Y002235D03*
D88*
X005735Y002235D03*
X005730Y002235D03*
D89*
X005725Y002240D03*
X005720Y002240D03*
D90*
X005715Y002245D03*
X005710Y002245D03*
D91*
X005705Y002255D03*
X005700Y002255D03*
D92*
X005695Y002260D03*
X005690Y002260D03*
D93*
X005685Y002265D03*
X005680Y002265D03*
D94*
X005675Y002270D03*
X005670Y002270D03*
D95*
X005665Y002275D03*
X005660Y002275D03*
D96*
X005655Y002280D03*
X005650Y002280D03*
D97*
X005645Y002290D03*
X005640Y002290D03*
D98*
X005635Y002295D03*
X005630Y002295D03*
D99*
X005625Y002300D03*
X005620Y002300D03*
D100*
X005615Y002305D03*
X005610Y002305D03*
D101*
X005605Y002310D03*
X005600Y002310D03*
D102*
X005595Y002315D03*
X005590Y002315D03*
D103*
X005585Y002320D03*
X005580Y002320D03*
D104*
X005575Y002325D03*
X005570Y002325D03*
D105*
X005565Y002330D03*
X005560Y002330D03*
D106*
X005555Y002340D03*
X005550Y002340D03*
D107*
X005545Y002345D03*
X005540Y002345D03*
D108*
X005535Y002350D03*
X005530Y002350D03*
D109*
X005525Y002355D03*
X005520Y002355D03*
D110*
X005515Y002360D03*
X005510Y002360D03*
D111*
X005505Y002365D03*
X005500Y002365D03*
D112*
X005495Y002235D03*
X005490Y002235D03*
D113*
X007021Y002189D02*
X007312Y002189D01*
X007312Y002044D01*
X007263Y001996D01*
X007166Y001996D01*
X007118Y002044D01*
X007118Y002189D01*
X007166Y001895D02*
X007118Y001846D01*
X007118Y001750D01*
X007166Y001701D01*
X007263Y001701D01*
X007312Y001750D01*
X007312Y001846D01*
X007263Y001895D01*
X007166Y001895D01*
X007166Y001600D02*
X007118Y001552D01*
X007118Y001455D01*
X007166Y001407D01*
X007263Y001407D01*
X007312Y001455D01*
X007312Y001552D01*
X007263Y001600D01*
X007166Y001600D01*
X007312Y001307D02*
X007312Y001210D01*
X007312Y001258D02*
X007021Y001258D01*
X007021Y001210D01*
X007021Y001109D02*
X007021Y000915D01*
X007312Y000915D01*
X007166Y000915D02*
X007166Y001012D01*
X007021Y002585D02*
X007312Y002779D01*
X007021Y002779D01*
X007166Y002880D02*
X007118Y002928D01*
X007118Y003025D01*
X007166Y003073D01*
X007215Y003073D01*
X007215Y002880D01*
X007263Y002880D02*
X007166Y002880D01*
X007263Y002880D02*
X007312Y002928D01*
X007312Y003025D01*
X007263Y003223D02*
X007070Y003223D01*
X007118Y003271D02*
X007118Y003174D01*
X007263Y003223D02*
X007312Y003271D01*
X007263Y003371D02*
X007312Y003419D01*
X007263Y003468D01*
X007312Y003516D01*
X007263Y003564D01*
X007118Y003564D01*
X007166Y003666D02*
X007263Y003666D01*
X007312Y003714D01*
X007312Y003811D01*
X007263Y003859D01*
X007166Y003859D01*
X007118Y003811D01*
X007118Y003714D01*
X007166Y003666D01*
X007118Y003960D02*
X007312Y003960D01*
X007215Y003960D02*
X007118Y004057D01*
X007118Y004105D01*
X007021Y004206D02*
X007312Y004206D01*
X007215Y004206D02*
X007118Y004351D01*
X007215Y004206D02*
X007312Y004351D01*
X007263Y003371D02*
X007118Y003371D01*
X007021Y002585D02*
X007312Y002585D01*
X002153Y003856D02*
X002091Y003918D01*
X002091Y004165D01*
X002029Y004103D02*
X002153Y004103D01*
X001908Y004103D02*
X001723Y004103D01*
X001661Y004042D01*
X001723Y003980D01*
X001846Y003980D01*
X001908Y003918D01*
X001846Y003856D01*
X001661Y003856D01*
X001539Y003980D02*
X001293Y003980D01*
X001293Y004042D02*
X001354Y004103D01*
X001478Y004103D01*
X001539Y004042D01*
X001539Y003980D01*
X001478Y003856D02*
X001354Y003856D01*
X001293Y003918D01*
X001293Y004042D01*
X001171Y004227D02*
X000924Y004227D01*
X001048Y004227D02*
X001048Y003856D01*
D114*
X002390Y003788D02*
X002390Y004288D01*
X002640Y004538D01*
X003140Y004538D01*
X003390Y004288D01*
X003640Y004538D01*
X004140Y004538D01*
X004390Y004288D01*
X004390Y003788D01*
X004140Y003538D01*
X003640Y003538D01*
X003390Y003788D01*
X003140Y003538D01*
X002640Y003538D01*
X002390Y003788D01*
X003390Y003788D02*
X003390Y004288D01*
X004153Y005242D02*
X004303Y005242D01*
X004320Y005244D01*
X004337Y005248D01*
X004353Y005255D01*
X004367Y005265D01*
X004380Y005278D01*
X004390Y005292D01*
X004397Y005308D01*
X004401Y005325D01*
X004403Y005342D01*
X004403Y006042D01*
X004401Y006059D01*
X004397Y006076D01*
X004390Y006092D01*
X004380Y006106D01*
X004367Y006119D01*
X004353Y006129D01*
X004337Y006136D01*
X004320Y006140D01*
X004303Y006142D01*
X004153Y006142D01*
X004103Y006092D01*
X002203Y006092D01*
X002153Y006142D01*
X002003Y006142D01*
X001986Y006140D01*
X001969Y006136D01*
X001953Y006129D01*
X001939Y006119D01*
X001926Y006106D01*
X001916Y006092D01*
X001909Y006076D01*
X001905Y006059D01*
X001903Y006042D01*
X001903Y005342D01*
X001905Y005325D01*
X001909Y005308D01*
X001916Y005292D01*
X001926Y005278D01*
X001939Y005265D01*
X001953Y005255D01*
X001969Y005248D01*
X001986Y005244D01*
X002003Y005242D01*
X002153Y005242D01*
X002203Y005292D01*
X004103Y005292D01*
X004153Y005242D01*
X004153Y006817D02*
X004303Y006817D01*
X004320Y006819D01*
X004337Y006823D01*
X004353Y006830D01*
X004367Y006840D01*
X004380Y006853D01*
X004390Y006867D01*
X004397Y006883D01*
X004401Y006900D01*
X004403Y006917D01*
X004403Y007617D01*
X004401Y007634D01*
X004397Y007651D01*
X004390Y007667D01*
X004380Y007681D01*
X004367Y007694D01*
X004353Y007704D01*
X004337Y007711D01*
X004320Y007715D01*
X004303Y007717D01*
X004153Y007717D01*
X004103Y007667D01*
X002203Y007667D01*
X002153Y007717D01*
X002003Y007717D01*
X001986Y007715D01*
X001969Y007711D01*
X001953Y007704D01*
X001939Y007694D01*
X001926Y007681D01*
X001916Y007667D01*
X001909Y007651D01*
X001905Y007634D01*
X001903Y007617D01*
X001903Y006917D01*
X001905Y006900D01*
X001909Y006883D01*
X001916Y006867D01*
X001926Y006853D01*
X001939Y006840D01*
X001953Y006830D01*
X001969Y006823D01*
X001986Y006819D01*
X002003Y006817D01*
X002153Y006817D01*
X002203Y006867D01*
X004103Y006867D01*
X004153Y006817D01*
X007168Y007409D02*
X007168Y005549D01*
X008588Y005549D01*
X008588Y007409D01*
X007168Y007409D01*
X007921Y004186D02*
X008621Y004186D01*
X008638Y004184D01*
X008655Y004180D01*
X008671Y004173D01*
X008685Y004163D01*
X008698Y004150D01*
X008708Y004136D01*
X008715Y004120D01*
X008719Y004103D01*
X008721Y004086D01*
X008721Y003936D01*
X008671Y003886D01*
X008671Y001986D01*
X008721Y001936D01*
X008721Y001786D01*
X008719Y001769D01*
X008715Y001752D01*
X008708Y001736D01*
X008698Y001722D01*
X008685Y001709D01*
X008671Y001699D01*
X008655Y001692D01*
X008638Y001688D01*
X008621Y001686D01*
X007921Y001686D01*
X007904Y001688D01*
X007887Y001692D01*
X007871Y001699D01*
X007857Y001709D01*
X007844Y001722D01*
X007834Y001736D01*
X007827Y001752D01*
X007823Y001769D01*
X007821Y001786D01*
X007821Y001936D01*
X007871Y001986D01*
X007871Y003886D01*
X007821Y003936D01*
X007821Y004086D01*
X007823Y004103D01*
X007827Y004120D01*
X007834Y004136D01*
X007844Y004150D01*
X007857Y004163D01*
X007871Y004173D01*
X007887Y004180D01*
X007904Y004184D01*
X007921Y004186D01*
X009284Y003920D02*
X009286Y003993D01*
X009292Y004066D01*
X009302Y004138D01*
X009316Y004210D01*
X009333Y004281D01*
X009355Y004351D01*
X009380Y004420D01*
X009409Y004487D01*
X009441Y004552D01*
X009477Y004616D01*
X009517Y004678D01*
X009559Y004737D01*
X009605Y004794D01*
X009654Y004848D01*
X009706Y004900D01*
X009760Y004949D01*
X009817Y004995D01*
X009876Y005037D01*
X009938Y005077D01*
X010002Y005113D01*
X010067Y005145D01*
X010134Y005174D01*
X010203Y005199D01*
X010273Y005221D01*
X010344Y005238D01*
X010416Y005252D01*
X010488Y005262D01*
X010561Y005268D01*
X010634Y005270D01*
X010707Y005268D01*
X010780Y005262D01*
X010852Y005252D01*
X010924Y005238D01*
X010995Y005221D01*
X011065Y005199D01*
X011134Y005174D01*
X011201Y005145D01*
X011266Y005113D01*
X011330Y005077D01*
X011392Y005037D01*
X011451Y004995D01*
X011508Y004949D01*
X011562Y004900D01*
X011614Y004848D01*
X011663Y004794D01*
X011709Y004737D01*
X011751Y004678D01*
X011791Y004616D01*
X011827Y004552D01*
X011859Y004487D01*
X011888Y004420D01*
X011913Y004351D01*
X011935Y004281D01*
X011952Y004210D01*
X011966Y004138D01*
X011976Y004066D01*
X011982Y003993D01*
X011984Y003920D01*
X011982Y003847D01*
X011976Y003774D01*
X011966Y003702D01*
X011952Y003630D01*
X011935Y003559D01*
X011913Y003489D01*
X011888Y003420D01*
X011859Y003353D01*
X011827Y003288D01*
X011791Y003224D01*
X011751Y003162D01*
X011709Y003103D01*
X011663Y003046D01*
X011614Y002992D01*
X011562Y002940D01*
X011508Y002891D01*
X011451Y002845D01*
X011392Y002803D01*
X011330Y002763D01*
X011266Y002727D01*
X011201Y002695D01*
X011134Y002666D01*
X011065Y002641D01*
X010995Y002619D01*
X010924Y002602D01*
X010852Y002588D01*
X010780Y002578D01*
X010707Y002572D01*
X010634Y002570D01*
X010561Y002572D01*
X010488Y002578D01*
X010416Y002588D01*
X010344Y002602D01*
X010273Y002619D01*
X010203Y002641D01*
X010134Y002666D01*
X010067Y002695D01*
X010002Y002727D01*
X009938Y002763D01*
X009876Y002803D01*
X009817Y002845D01*
X009760Y002891D01*
X009706Y002940D01*
X009654Y002992D01*
X009605Y003046D01*
X009559Y003103D01*
X009517Y003162D01*
X009477Y003224D01*
X009441Y003288D01*
X009409Y003353D01*
X009380Y003420D01*
X009355Y003489D01*
X009333Y003559D01*
X009316Y003630D01*
X009302Y003702D01*
X009292Y003774D01*
X009286Y003847D01*
X009284Y003920D01*
X009628Y000741D02*
X009786Y000741D01*
X010560Y000741D01*
X010786Y000741D01*
X011560Y000741D01*
X011718Y000741D01*
X011498Y000191D02*
X009848Y000191D01*
X009811Y000242D01*
X009776Y000295D01*
X009744Y000351D01*
X009716Y000408D01*
X009692Y000467D01*
X009671Y000527D01*
X009654Y000588D01*
X009640Y000650D01*
X009631Y000713D01*
X009625Y000776D01*
X009623Y000840D01*
X009625Y000904D01*
X009631Y000967D01*
X009640Y001030D01*
X009653Y001092D01*
X009671Y001153D01*
X009691Y001213D01*
X009716Y001272D01*
X009743Y001329D01*
X009775Y001385D01*
X009809Y001438D01*
X009847Y001489D01*
X009888Y001538D01*
X009932Y001584D01*
X009978Y001628D01*
X010027Y001669D01*
X010078Y001706D01*
X010132Y001741D01*
X010187Y001772D01*
X010244Y001800D01*
X010303Y001824D01*
X010363Y001844D01*
X010424Y001861D01*
X010485Y001874D01*
X010548Y001883D01*
X010610Y001889D01*
X010673Y001891D01*
X010736Y001889D01*
X010798Y001883D01*
X010861Y001874D01*
X010922Y001861D01*
X010983Y001844D01*
X011043Y001824D01*
X011102Y001800D01*
X011159Y001772D01*
X011214Y001741D01*
X011268Y001706D01*
X011319Y001669D01*
X011368Y001628D01*
X011414Y001584D01*
X011458Y001538D01*
X011499Y001489D01*
X011537Y001438D01*
X011571Y001385D01*
X011603Y001329D01*
X011630Y001272D01*
X011655Y001213D01*
X011675Y001153D01*
X011693Y001092D01*
X011706Y001030D01*
X011715Y000967D01*
X011721Y000904D01*
X011723Y000840D01*
X011721Y000776D01*
X011715Y000713D01*
X011706Y000650D01*
X011692Y000588D01*
X011675Y000527D01*
X011654Y000467D01*
X011630Y000408D01*
X011602Y000351D01*
X011570Y000295D01*
X011535Y000242D01*
X011498Y000191D01*
X018489Y006487D02*
X018689Y006487D01*
X018589Y006387D02*
X018589Y006587D01*
X018889Y006487D02*
X019239Y006487D01*
X019239Y006987D01*
X019439Y006987D01*
X019439Y005987D01*
X019239Y005987D01*
X019239Y006487D01*
X018439Y006487D02*
X018441Y006553D01*
X018447Y006618D01*
X018457Y006683D01*
X018470Y006748D01*
X018488Y006811D01*
X018509Y006874D01*
X018534Y006934D01*
X018563Y006994D01*
X018595Y007051D01*
X018630Y007107D01*
X018669Y007160D01*
X018711Y007211D01*
X018755Y007259D01*
X018803Y007304D01*
X018853Y007347D01*
X018906Y007386D01*
X018961Y007423D01*
X019018Y007456D01*
X019077Y007485D01*
X019137Y007511D01*
X019199Y007533D01*
X019262Y007552D01*
X019326Y007566D01*
X019391Y007577D01*
X019457Y007584D01*
X019523Y007587D01*
X019588Y007586D01*
X019654Y007581D01*
X019719Y007572D01*
X019784Y007559D01*
X019847Y007543D01*
X019910Y007523D01*
X019971Y007498D01*
X020031Y007471D01*
X020089Y007440D01*
X020145Y007405D01*
X020199Y007367D01*
X020250Y007326D01*
X020299Y007282D01*
X020345Y007235D01*
X020389Y007186D01*
X020429Y007134D01*
X020466Y007079D01*
X020500Y007023D01*
X020530Y006964D01*
X020557Y006904D01*
X020580Y006843D01*
X020599Y006780D01*
X020615Y006716D01*
X020627Y006651D01*
X020635Y006586D01*
X020639Y006520D01*
X020639Y006454D01*
X020635Y006388D01*
X020627Y006323D01*
X020615Y006258D01*
X020599Y006194D01*
X020580Y006131D01*
X020557Y006070D01*
X020530Y006010D01*
X020500Y005951D01*
X020466Y005895D01*
X020429Y005840D01*
X020389Y005788D01*
X020345Y005739D01*
X020299Y005692D01*
X020250Y005648D01*
X020199Y005607D01*
X020145Y005569D01*
X020089Y005534D01*
X020031Y005503D01*
X019971Y005476D01*
X019910Y005451D01*
X019847Y005431D01*
X019784Y005415D01*
X019719Y005402D01*
X019654Y005393D01*
X019588Y005388D01*
X019523Y005387D01*
X019457Y005390D01*
X019391Y005397D01*
X019326Y005408D01*
X019262Y005422D01*
X019199Y005441D01*
X019137Y005463D01*
X019077Y005489D01*
X019018Y005518D01*
X018961Y005551D01*
X018906Y005588D01*
X018853Y005627D01*
X018803Y005670D01*
X018755Y005715D01*
X018711Y005763D01*
X018669Y005814D01*
X018630Y005867D01*
X018595Y005923D01*
X018563Y005980D01*
X018534Y006040D01*
X018509Y006100D01*
X018488Y006163D01*
X018470Y006226D01*
X018457Y006291D01*
X018447Y006356D01*
X018441Y006421D01*
X018439Y006487D01*
X019789Y006487D02*
X020189Y006487D01*
X011527Y008150D02*
X011527Y008650D01*
X011277Y008900D01*
X011527Y009150D01*
X011527Y009650D01*
X011277Y009900D01*
X010777Y009900D01*
X010527Y009650D01*
X010527Y009150D01*
X010777Y008900D01*
X011277Y008900D01*
X010777Y008900D02*
X010527Y008650D01*
X010527Y008150D01*
X010777Y007900D01*
X011277Y007900D01*
X011527Y008150D01*
X011277Y009900D02*
X011527Y010150D01*
X011527Y010650D01*
X011277Y010900D01*
X011527Y011150D01*
X011527Y011650D01*
X011277Y011900D01*
X011527Y012150D01*
X011527Y012650D01*
X011277Y012900D01*
X010777Y012900D01*
X010527Y012650D01*
X010527Y012150D01*
X010777Y011900D01*
X011277Y011900D01*
X010777Y011900D02*
X010527Y011650D01*
X010527Y011150D01*
X010777Y010900D01*
X011277Y010900D01*
X010777Y010900D02*
X010527Y010650D01*
X010527Y010150D01*
X010777Y009900D01*
X010777Y012900D02*
X010527Y013150D01*
X010527Y013650D01*
X010777Y013900D01*
X010527Y014150D01*
X010527Y014650D01*
X010777Y014900D01*
X011277Y014900D01*
X011527Y014650D01*
X011527Y014150D01*
X011277Y013900D01*
X011527Y013650D01*
X011527Y013150D01*
X011277Y012900D01*
X011277Y013900D02*
X010777Y013900D01*
X009284Y018881D02*
X009286Y018954D01*
X009292Y019027D01*
X009302Y019099D01*
X009316Y019171D01*
X009333Y019242D01*
X009355Y019312D01*
X009380Y019381D01*
X009409Y019448D01*
X009441Y019513D01*
X009477Y019577D01*
X009517Y019639D01*
X009559Y019698D01*
X009605Y019755D01*
X009654Y019809D01*
X009706Y019861D01*
X009760Y019910D01*
X009817Y019956D01*
X009876Y019998D01*
X009938Y020038D01*
X010002Y020074D01*
X010067Y020106D01*
X010134Y020135D01*
X010203Y020160D01*
X010273Y020182D01*
X010344Y020199D01*
X010416Y020213D01*
X010488Y020223D01*
X010561Y020229D01*
X010634Y020231D01*
X010707Y020229D01*
X010780Y020223D01*
X010852Y020213D01*
X010924Y020199D01*
X010995Y020182D01*
X011065Y020160D01*
X011134Y020135D01*
X011201Y020106D01*
X011266Y020074D01*
X011330Y020038D01*
X011392Y019998D01*
X011451Y019956D01*
X011508Y019910D01*
X011562Y019861D01*
X011614Y019809D01*
X011663Y019755D01*
X011709Y019698D01*
X011751Y019639D01*
X011791Y019577D01*
X011827Y019513D01*
X011859Y019448D01*
X011888Y019381D01*
X011913Y019312D01*
X011935Y019242D01*
X011952Y019171D01*
X011966Y019099D01*
X011976Y019027D01*
X011982Y018954D01*
X011984Y018881D01*
X011982Y018808D01*
X011976Y018735D01*
X011966Y018663D01*
X011952Y018591D01*
X011935Y018520D01*
X011913Y018450D01*
X011888Y018381D01*
X011859Y018314D01*
X011827Y018249D01*
X011791Y018185D01*
X011751Y018123D01*
X011709Y018064D01*
X011663Y018007D01*
X011614Y017953D01*
X011562Y017901D01*
X011508Y017852D01*
X011451Y017806D01*
X011392Y017764D01*
X011330Y017724D01*
X011266Y017688D01*
X011201Y017656D01*
X011134Y017627D01*
X011065Y017602D01*
X010995Y017580D01*
X010924Y017563D01*
X010852Y017549D01*
X010780Y017539D01*
X010707Y017533D01*
X010634Y017531D01*
X010561Y017533D01*
X010488Y017539D01*
X010416Y017549D01*
X010344Y017563D01*
X010273Y017580D01*
X010203Y017602D01*
X010134Y017627D01*
X010067Y017656D01*
X010002Y017688D01*
X009938Y017724D01*
X009876Y017764D01*
X009817Y017806D01*
X009760Y017852D01*
X009706Y017901D01*
X009654Y017953D01*
X009605Y018007D01*
X009559Y018064D01*
X009517Y018123D01*
X009477Y018185D01*
X009441Y018249D01*
X009409Y018314D01*
X009380Y018381D01*
X009355Y018450D01*
X009333Y018520D01*
X009316Y018591D01*
X009302Y018663D01*
X009292Y018735D01*
X009286Y018808D01*
X009284Y018881D01*
X007791Y019024D02*
X007541Y018774D01*
X007041Y018774D01*
X006791Y019024D01*
X006541Y018774D01*
X006041Y018774D01*
X005791Y019024D01*
X005541Y018774D01*
X005041Y018774D01*
X004791Y019024D01*
X004541Y018774D01*
X004041Y018774D01*
X003791Y019024D01*
X003791Y019524D01*
X004041Y019774D01*
X004541Y019774D01*
X004791Y019524D01*
X005041Y019774D01*
X005541Y019774D01*
X005791Y019524D01*
X005791Y019024D01*
X005791Y019524D02*
X006041Y019774D01*
X006541Y019774D01*
X006791Y019524D01*
X007041Y019774D01*
X007541Y019774D01*
X007791Y019524D01*
X007791Y019024D01*
X006791Y019024D02*
X006791Y019524D01*
X004791Y019524D02*
X004791Y019024D01*
X002444Y016914D02*
X002444Y016414D01*
X002442Y016388D01*
X002437Y016362D01*
X002429Y016337D01*
X002417Y016314D01*
X002403Y016292D01*
X002385Y016273D01*
X002366Y016255D01*
X002344Y016241D01*
X002321Y016229D01*
X002296Y016221D01*
X002270Y016216D01*
X002244Y016214D01*
X000944Y016214D01*
X000918Y016216D01*
X000892Y016221D01*
X000867Y016229D01*
X000844Y016241D01*
X000822Y016255D01*
X000803Y016273D01*
X000785Y016292D01*
X000771Y016314D01*
X000759Y016337D01*
X000751Y016362D01*
X000746Y016388D01*
X000744Y016414D01*
X000744Y016914D01*
X000746Y016940D01*
X000751Y016966D01*
X000759Y016991D01*
X000771Y017014D01*
X000785Y017036D01*
X000803Y017055D01*
X000822Y017073D01*
X000844Y017087D01*
X000867Y017099D01*
X000892Y017107D01*
X000918Y017112D01*
X000944Y017114D01*
X002244Y017114D01*
X002270Y017112D01*
X002296Y017107D01*
X002321Y017099D01*
X002344Y017087D01*
X002366Y017073D01*
X002385Y017055D01*
X002403Y017036D01*
X002417Y017014D01*
X002429Y016991D01*
X002437Y016966D01*
X002442Y016940D01*
X002444Y016914D01*
X002094Y016664D02*
X001714Y016664D01*
X001464Y016664D02*
X001094Y016664D01*
X005152Y016475D02*
X005152Y016262D01*
X005259Y016155D01*
X005472Y016155D01*
X005579Y016262D01*
X005579Y016475D01*
X005472Y016582D01*
X005259Y016582D01*
X005152Y016475D01*
X018492Y016517D02*
X018492Y017017D01*
X018742Y017267D01*
X020242Y017267D01*
X020492Y017017D01*
X020492Y016517D01*
X020242Y016267D01*
X018742Y016267D01*
X018492Y016517D01*
X018742Y017267D02*
X018492Y017517D01*
X018492Y018017D01*
X018742Y018267D01*
X020242Y018267D01*
X020492Y018017D01*
X020492Y017517D01*
X020242Y017267D01*
D115*
X020299Y012973D02*
X020299Y008627D01*
X020297Y008579D01*
X020291Y008532D01*
X020282Y008485D01*
X020269Y008438D01*
X020253Y008394D01*
X020233Y008350D01*
X020209Y008308D01*
X020183Y008268D01*
X020153Y008231D01*
X020120Y008196D01*
X020085Y008163D01*
X020048Y008133D01*
X020008Y008107D01*
X019966Y008083D01*
X019922Y008063D01*
X019878Y008047D01*
X019831Y008034D01*
X019784Y008025D01*
X019737Y008019D01*
X019689Y008017D01*
X019641Y008019D01*
X019594Y008025D01*
X019547Y008034D01*
X019500Y008047D01*
X019456Y008063D01*
X019412Y008083D01*
X019370Y008107D01*
X019330Y008133D01*
X019293Y008163D01*
X019258Y008196D01*
X019225Y008231D01*
X019195Y008268D01*
X019169Y008308D01*
X019145Y008350D01*
X019125Y008394D01*
X019109Y008438D01*
X019096Y008485D01*
X019087Y008532D01*
X019081Y008579D01*
X019079Y008627D01*
X019079Y012973D01*
X019081Y013021D01*
X019087Y013068D01*
X019096Y013115D01*
X019109Y013162D01*
X019125Y013206D01*
X019145Y013250D01*
X019169Y013292D01*
X019195Y013332D01*
X019225Y013369D01*
X019258Y013404D01*
X019293Y013437D01*
X019330Y013467D01*
X019370Y013493D01*
X019412Y013517D01*
X019456Y013537D01*
X019500Y013553D01*
X019547Y013566D01*
X019594Y013575D01*
X019641Y013581D01*
X019689Y013583D01*
X019737Y013581D01*
X019784Y013575D01*
X019831Y013566D01*
X019878Y013553D01*
X019922Y013537D01*
X019966Y013517D01*
X020008Y013493D01*
X020048Y013467D01*
X020085Y013437D01*
X020120Y013404D01*
X020153Y013369D01*
X020183Y013332D01*
X020209Y013292D01*
X020233Y013250D01*
X020253Y013206D01*
X020269Y013162D01*
X020282Y013115D01*
X020291Y013068D01*
X020297Y013021D01*
X020299Y012973D01*
X009886Y018881D02*
X009888Y018936D01*
X009894Y018990D01*
X009904Y019044D01*
X009918Y019096D01*
X009935Y019148D01*
X009957Y019198D01*
X009982Y019247D01*
X010010Y019294D01*
X010042Y019338D01*
X010077Y019380D01*
X010115Y019419D01*
X010156Y019456D01*
X010199Y019489D01*
X010244Y019519D01*
X010292Y019546D01*
X010341Y019569D01*
X010392Y019589D01*
X010445Y019605D01*
X010498Y019617D01*
X010552Y019625D01*
X010607Y019629D01*
X010661Y019629D01*
X010716Y019625D01*
X010770Y019617D01*
X010823Y019605D01*
X010876Y019589D01*
X010927Y019569D01*
X010976Y019546D01*
X011024Y019519D01*
X011069Y019489D01*
X011112Y019456D01*
X011153Y019419D01*
X011191Y019380D01*
X011226Y019338D01*
X011258Y019294D01*
X011286Y019247D01*
X011311Y019198D01*
X011333Y019148D01*
X011350Y019096D01*
X011364Y019044D01*
X011374Y018990D01*
X011380Y018936D01*
X011382Y018881D01*
X011380Y018826D01*
X011374Y018772D01*
X011364Y018718D01*
X011350Y018666D01*
X011333Y018614D01*
X011311Y018564D01*
X011286Y018515D01*
X011258Y018468D01*
X011226Y018424D01*
X011191Y018382D01*
X011153Y018343D01*
X011112Y018306D01*
X011069Y018273D01*
X011024Y018243D01*
X010976Y018216D01*
X010927Y018193D01*
X010876Y018173D01*
X010823Y018157D01*
X010770Y018145D01*
X010716Y018137D01*
X010661Y018133D01*
X010607Y018133D01*
X010552Y018137D01*
X010498Y018145D01*
X010445Y018157D01*
X010392Y018173D01*
X010341Y018193D01*
X010292Y018216D01*
X010244Y018243D01*
X010199Y018273D01*
X010156Y018306D01*
X010115Y018343D01*
X010077Y018382D01*
X010042Y018424D01*
X010010Y018468D01*
X009982Y018515D01*
X009957Y018564D01*
X009935Y018614D01*
X009918Y018666D01*
X009904Y018718D01*
X009894Y018772D01*
X009888Y018826D01*
X009886Y018881D01*
X008626Y020310D02*
X006976Y020310D01*
X006914Y020860D02*
X006756Y020860D01*
X007688Y020860D02*
X007914Y020860D01*
X008626Y020310D02*
X008663Y020361D01*
X008698Y020414D01*
X008730Y020470D01*
X008758Y020527D01*
X008782Y020586D01*
X008803Y020646D01*
X008820Y020707D01*
X008834Y020769D01*
X008843Y020832D01*
X008849Y020895D01*
X008851Y020959D01*
X008849Y021023D01*
X008843Y021086D01*
X008834Y021149D01*
X008821Y021211D01*
X008803Y021272D01*
X008783Y021332D01*
X008758Y021391D01*
X008731Y021448D01*
X008699Y021504D01*
X008665Y021557D01*
X008627Y021608D01*
X008586Y021657D01*
X008542Y021703D01*
X008496Y021747D01*
X008447Y021788D01*
X008396Y021825D01*
X008342Y021860D01*
X008287Y021891D01*
X008230Y021919D01*
X008171Y021943D01*
X008111Y021963D01*
X007491Y021963D02*
X007431Y021943D01*
X007372Y021919D01*
X007315Y021891D01*
X007260Y021860D01*
X007206Y021825D01*
X007155Y021788D01*
X007106Y021747D01*
X007060Y021703D01*
X007016Y021657D01*
X006975Y021608D01*
X006937Y021557D01*
X006903Y021504D01*
X006872Y021448D01*
X006844Y021391D01*
X006819Y021332D01*
X006799Y021272D01*
X006781Y021211D01*
X006768Y021149D01*
X006759Y021086D01*
X006753Y021023D01*
X006751Y020959D01*
X006753Y020895D01*
X006759Y020832D01*
X006768Y020769D01*
X006782Y020707D01*
X006799Y020646D01*
X006820Y020586D01*
X006844Y020527D01*
X006872Y020470D01*
X006904Y020414D01*
X006939Y020361D01*
X006976Y020310D01*
X008688Y020860D02*
X008846Y020860D01*
X008211Y005769D02*
X008213Y005784D01*
X008219Y005797D01*
X008228Y005809D01*
X008239Y005818D01*
X008253Y005824D01*
X008268Y005826D01*
X008283Y005824D01*
X008296Y005818D01*
X008308Y005809D01*
X008317Y005798D01*
X008323Y005784D01*
X008325Y005769D01*
X008323Y005754D01*
X008317Y005741D01*
X008308Y005729D01*
X008297Y005720D01*
X008283Y005714D01*
X008268Y005712D01*
X008253Y005714D01*
X008240Y005720D01*
X008228Y005729D01*
X008219Y005740D01*
X008213Y005754D01*
X008211Y005769D01*
X009886Y003920D02*
X009888Y003975D01*
X009894Y004029D01*
X009904Y004083D01*
X009918Y004135D01*
X009935Y004187D01*
X009957Y004237D01*
X009982Y004286D01*
X010010Y004333D01*
X010042Y004377D01*
X010077Y004419D01*
X010115Y004458D01*
X010156Y004495D01*
X010199Y004528D01*
X010244Y004558D01*
X010292Y004585D01*
X010341Y004608D01*
X010392Y004628D01*
X010445Y004644D01*
X010498Y004656D01*
X010552Y004664D01*
X010607Y004668D01*
X010661Y004668D01*
X010716Y004664D01*
X010770Y004656D01*
X010823Y004644D01*
X010876Y004628D01*
X010927Y004608D01*
X010976Y004585D01*
X011024Y004558D01*
X011069Y004528D01*
X011112Y004495D01*
X011153Y004458D01*
X011191Y004419D01*
X011226Y004377D01*
X011258Y004333D01*
X011286Y004286D01*
X011311Y004237D01*
X011333Y004187D01*
X011350Y004135D01*
X011364Y004083D01*
X011374Y004029D01*
X011380Y003975D01*
X011382Y003920D01*
X011380Y003865D01*
X011374Y003811D01*
X011364Y003757D01*
X011350Y003705D01*
X011333Y003653D01*
X011311Y003603D01*
X011286Y003554D01*
X011258Y003507D01*
X011226Y003463D01*
X011191Y003421D01*
X011153Y003382D01*
X011112Y003345D01*
X011069Y003312D01*
X011024Y003282D01*
X010976Y003255D01*
X010927Y003232D01*
X010876Y003212D01*
X010823Y003196D01*
X010770Y003184D01*
X010716Y003176D01*
X010661Y003172D01*
X010607Y003172D01*
X010552Y003176D01*
X010498Y003184D01*
X010445Y003196D01*
X010392Y003212D01*
X010341Y003232D01*
X010292Y003255D01*
X010244Y003282D01*
X010199Y003312D01*
X010156Y003345D01*
X010115Y003382D01*
X010077Y003421D01*
X010042Y003463D01*
X010010Y003507D01*
X009982Y003554D01*
X009957Y003603D01*
X009935Y003653D01*
X009918Y003705D01*
X009904Y003757D01*
X009894Y003811D01*
X009888Y003865D01*
X009886Y003920D01*
D116*
X009834Y004696D02*
X000976Y004696D01*
X000976Y004695D02*
X000937Y004697D01*
X000899Y004703D01*
X000862Y004712D01*
X000825Y004725D01*
X000790Y004742D01*
X000757Y004761D01*
X000726Y004784D01*
X000697Y004810D01*
X000671Y004839D01*
X000648Y004870D01*
X000629Y004903D01*
X000612Y004938D01*
X000599Y004975D01*
X000590Y005012D01*
X000584Y005050D01*
X000582Y005089D01*
X000583Y005089D02*
X000583Y007944D01*
X001567Y007944D01*
X001567Y016015D01*
X000583Y016015D01*
X000583Y016093D01*
X003102Y018593D01*
X007708Y018593D01*
X010228Y016093D01*
X010228Y016015D01*
X010228Y007944D01*
X010228Y005089D01*
X010226Y005050D01*
X010220Y005012D01*
X010211Y004975D01*
X010198Y004938D01*
X010181Y004903D01*
X010162Y004870D01*
X010139Y004839D01*
X010113Y004810D01*
X010084Y004784D01*
X010053Y004761D01*
X010020Y004742D01*
X009985Y004725D01*
X009948Y004712D01*
X009911Y004703D01*
X009873Y004697D01*
X009834Y004695D01*
X008509Y003171D02*
X008509Y002871D01*
X008509Y003021D02*
X008059Y003021D01*
X008209Y002871D01*
X008134Y002710D02*
X008284Y002710D01*
X008359Y002635D01*
X008359Y002410D01*
X008509Y002410D02*
X008059Y002410D01*
X008059Y002635D01*
X008134Y002710D01*
X008359Y002560D02*
X008509Y002710D01*
X008926Y001443D02*
X009376Y001443D01*
X009376Y001593D02*
X009376Y001292D01*
X009301Y001132D02*
X009376Y001057D01*
X009376Y000907D01*
X009301Y000832D01*
X009001Y000832D01*
X008926Y000907D01*
X008926Y001057D01*
X009001Y001132D01*
X009076Y001292D02*
X008926Y001443D01*
X008926Y000675D02*
X008926Y000525D01*
X008926Y000600D02*
X009376Y000600D01*
X009376Y000525D02*
X009376Y000675D01*
X012149Y001101D02*
X012149Y022101D01*
X006508Y021430D02*
X006508Y021130D01*
X006508Y021280D02*
X006058Y021280D01*
X006208Y021130D01*
X006133Y020970D02*
X006433Y020970D01*
X006508Y020895D01*
X006508Y020745D01*
X006433Y020670D01*
X006133Y020670D01*
X006058Y020745D01*
X006058Y020895D01*
X006133Y020970D01*
X006358Y020820D02*
X006508Y020970D01*
X001867Y018083D02*
X001867Y017783D01*
X001867Y017933D02*
X001417Y017933D01*
X001567Y017783D01*
X001492Y017623D02*
X001417Y017548D01*
X001417Y017398D01*
X001492Y017323D01*
X001792Y017323D01*
X001867Y017398D01*
X001867Y017548D01*
X001792Y017623D01*
X000583Y016015D02*
X000583Y007944D01*
X002730Y005930D02*
X002955Y005930D01*
X003030Y005855D01*
X003030Y005705D01*
X002955Y005630D01*
X002730Y005630D01*
X002880Y005630D02*
X003030Y005479D01*
X003190Y005554D02*
X003265Y005479D01*
X003415Y005479D01*
X003490Y005554D01*
X003490Y005630D01*
X003415Y005705D01*
X003340Y005705D01*
X003415Y005705D02*
X003490Y005780D01*
X003490Y005855D01*
X003415Y005930D01*
X003265Y005930D01*
X003190Y005855D01*
X002730Y005930D02*
X002730Y005479D01*
X002769Y007054D02*
X002769Y007505D01*
X002994Y007505D01*
X003069Y007430D01*
X003069Y007279D01*
X002994Y007204D01*
X002769Y007204D01*
X002919Y007204D02*
X003069Y007054D01*
X003229Y007054D02*
X003530Y007354D01*
X003530Y007430D01*
X003455Y007505D01*
X003304Y007505D01*
X003229Y007430D01*
X003229Y007054D02*
X003530Y007054D01*
X009244Y007944D02*
X009244Y016015D01*
X010228Y016015D01*
X018149Y022101D02*
X018149Y001101D01*
X018681Y004649D02*
X018981Y004649D01*
X019056Y004724D01*
X019056Y004874D01*
X018981Y004949D01*
X019056Y005109D02*
X018756Y005409D01*
X018681Y005409D01*
X018606Y005334D01*
X018606Y005184D01*
X018681Y005109D01*
X018681Y004949D02*
X018606Y004874D01*
X018606Y004724D01*
X018681Y004649D01*
X019056Y005109D02*
X019056Y005409D01*
X011463Y006789D02*
X011463Y006864D01*
X011388Y006940D01*
X011013Y006940D01*
X011013Y007015D02*
X011013Y006864D01*
X011013Y007175D02*
X011013Y007400D01*
X011088Y007475D01*
X011238Y007475D01*
X011313Y007400D01*
X011313Y007175D01*
X011463Y007175D02*
X011013Y007175D01*
X011163Y007635D02*
X011013Y007785D01*
X011463Y007785D01*
X011463Y007635D02*
X011463Y007935D01*
X011463Y006789D02*
X011388Y006714D01*
X010228Y007944D02*
X009244Y007944D01*
D117*
X018756Y014243D02*
X018925Y014074D01*
X019173Y014275D01*
X019272Y014224D01*
X019379Y014190D01*
X019411Y013872D01*
X019651Y013872D01*
X019684Y014190D01*
X019790Y014224D01*
X019890Y014275D01*
X020137Y014074D01*
X020307Y014243D01*
X020105Y014491D01*
X020157Y014590D01*
X019815Y014732D01*
X019787Y014678D01*
X019749Y014632D01*
X019702Y014594D01*
X019649Y014565D01*
X019591Y014548D01*
X019531Y014542D01*
X019468Y014548D01*
X019408Y014567D01*
X019353Y014598D01*
X019306Y014640D01*
X019268Y014691D01*
X019241Y014748D01*
X019226Y014809D01*
X019225Y014872D01*
X019236Y014934D01*
X019259Y014993D01*
X019294Y015046D01*
X019340Y015090D01*
X019393Y015124D01*
X019452Y015146D01*
X019514Y015156D01*
X019577Y015153D01*
X019638Y015138D01*
X019695Y015110D01*
X019745Y015071D01*
X019785Y015023D01*
X019815Y014967D01*
X020157Y015108D01*
X020105Y015208D01*
X020307Y015455D01*
X020137Y015625D01*
X019890Y015423D01*
X019790Y015474D01*
X019684Y015509D01*
X019651Y015826D01*
X019411Y015826D01*
X019379Y015509D01*
X019272Y015474D01*
X019173Y015423D01*
X018925Y015625D01*
X018756Y015455D01*
X018957Y015208D01*
X018906Y015108D01*
X018872Y015001D01*
X018554Y014969D01*
X018554Y014729D01*
X018872Y014697D01*
X018906Y014590D01*
X018957Y014491D01*
X018756Y014243D01*
X018776Y014224D02*
X019109Y014224D01*
X019038Y014166D02*
X018833Y014166D01*
X018891Y014108D02*
X018968Y014108D01*
X018787Y014281D02*
X020276Y014281D01*
X020287Y014224D02*
X019954Y014224D01*
X020024Y014166D02*
X020230Y014166D01*
X020172Y014108D02*
X020095Y014108D01*
X020229Y014339D02*
X018833Y014339D01*
X018880Y014396D02*
X020182Y014396D01*
X020135Y014454D02*
X018927Y014454D01*
X018947Y014511D02*
X020116Y014511D01*
X020145Y014569D02*
X019656Y014569D01*
X019742Y014626D02*
X020069Y014626D01*
X019930Y014684D02*
X019790Y014684D01*
X019813Y014972D02*
X019827Y014972D01*
X019780Y015029D02*
X019966Y015029D01*
X020105Y015087D02*
X019724Y015087D01*
X019612Y015144D02*
X020138Y015144D01*
X020108Y015202D02*
X018954Y015202D01*
X018925Y015144D02*
X019446Y015144D01*
X019337Y015087D02*
X018899Y015087D01*
X018881Y015029D02*
X019284Y015029D01*
X019251Y014972D02*
X018579Y014972D01*
X018554Y014914D02*
X019232Y014914D01*
X019225Y014857D02*
X018554Y014857D01*
X018554Y014799D02*
X019229Y014799D01*
X019244Y014742D02*
X018554Y014742D01*
X018876Y014684D02*
X019273Y014684D01*
X019321Y014626D02*
X018895Y014626D01*
X018917Y014569D02*
X019406Y014569D01*
X019274Y014224D02*
X019788Y014224D01*
X019681Y014166D02*
X019382Y014166D01*
X019387Y014108D02*
X019675Y014108D01*
X019669Y014051D02*
X019393Y014051D01*
X019399Y013993D02*
X019664Y013993D01*
X019658Y013936D02*
X019405Y013936D01*
X019411Y013878D02*
X019652Y013878D01*
X020147Y015260D02*
X018915Y015260D01*
X018868Y015317D02*
X020194Y015317D01*
X020241Y015375D02*
X018822Y015375D01*
X018775Y015432D02*
X019162Y015432D01*
X019190Y015432D02*
X019872Y015432D01*
X019901Y015432D02*
X020288Y015432D01*
X020272Y015490D02*
X019972Y015490D01*
X020042Y015547D02*
X020215Y015547D01*
X020157Y015605D02*
X020113Y015605D01*
X019743Y015490D02*
X019320Y015490D01*
X019383Y015547D02*
X019680Y015547D01*
X019674Y015605D02*
X019389Y015605D01*
X019395Y015662D02*
X019668Y015662D01*
X019662Y015720D02*
X019401Y015720D01*
X019406Y015778D02*
X019656Y015778D01*
X019091Y015490D02*
X018790Y015490D01*
X018848Y015547D02*
X019021Y015547D01*
X018950Y015605D02*
X018905Y015605D01*
D118*
X017049Y018501D02*
X015999Y018501D01*
X017049Y018501D02*
X017049Y022251D01*
X013249Y022251D01*
X013249Y018501D01*
X014299Y018501D01*
X014299Y004701D02*
X013249Y004701D01*
X013249Y000951D01*
X017049Y000951D01*
X017049Y004701D01*
X015999Y004701D01*
D119*
X015149Y005861D02*
X015149Y006448D01*
X014855Y006155D02*
X015443Y006155D01*
X015149Y016661D02*
X015149Y017248D01*
X001714Y016964D02*
X001714Y016364D01*
X001464Y016364D02*
X001464Y016964D01*
D120*
X019739Y006487D03*
D121*
X011027Y008400D03*
X011027Y009400D03*
X011027Y010400D03*
X011027Y011400D03*
X011027Y012400D03*
X011027Y013400D03*
X011027Y014400D03*
X007291Y019274D03*
X006291Y019274D03*
X005291Y019274D03*
X004291Y019274D03*
X018992Y017767D03*
X018992Y016767D03*
X019992Y016767D03*
X019992Y017767D03*
X003890Y004038D03*
X002890Y004038D03*
D122*
X011924Y003968D02*
X011040Y003968D01*
X011040Y003969D02*
X011034Y004007D01*
X011024Y004045D01*
X011010Y004081D01*
X010993Y004116D01*
X010973Y004149D01*
X010949Y004180D01*
X010923Y004209D01*
X010894Y004235D01*
X010863Y004259D01*
X010830Y004279D01*
X010795Y004296D01*
X010759Y004310D01*
X010721Y004320D01*
X010683Y004326D01*
X010682Y005210D01*
X010683Y005210D01*
X010754Y005205D01*
X010825Y005197D01*
X010896Y005184D01*
X010965Y005168D01*
X011034Y005148D01*
X011101Y005124D01*
X011167Y005096D01*
X011231Y005065D01*
X011294Y005030D01*
X011354Y004992D01*
X011412Y004950D01*
X011468Y004905D01*
X011521Y004858D01*
X011572Y004807D01*
X011619Y004754D01*
X011664Y004698D01*
X011706Y004640D01*
X011744Y004580D01*
X011779Y004517D01*
X011810Y004453D01*
X011838Y004387D01*
X011862Y004320D01*
X011882Y004251D01*
X011898Y004182D01*
X011911Y004111D01*
X011919Y004040D01*
X011924Y003969D01*
X011832Y003969D01*
X011827Y004037D01*
X011819Y004106D01*
X011806Y004173D01*
X011790Y004240D01*
X011769Y004305D01*
X011745Y004370D01*
X011718Y004433D01*
X011687Y004494D01*
X011652Y004553D01*
X011614Y004610D01*
X011573Y004665D01*
X011529Y004718D01*
X011482Y004768D01*
X011432Y004815D01*
X011379Y004859D01*
X011324Y004900D01*
X011267Y004938D01*
X011208Y004973D01*
X011147Y005004D01*
X011084Y005031D01*
X011019Y005055D01*
X010954Y005076D01*
X010887Y005092D01*
X010820Y005105D01*
X010751Y005113D01*
X010683Y005118D01*
X010683Y005026D01*
X010748Y005021D01*
X010813Y005012D01*
X010878Y005000D01*
X010941Y004983D01*
X011004Y004963D01*
X011065Y004940D01*
X011125Y004912D01*
X011183Y004881D01*
X011239Y004847D01*
X011293Y004810D01*
X011344Y004769D01*
X011393Y004726D01*
X011440Y004679D01*
X011483Y004630D01*
X011524Y004579D01*
X011561Y004525D01*
X011595Y004469D01*
X011626Y004411D01*
X011654Y004351D01*
X011677Y004290D01*
X011697Y004227D01*
X011714Y004164D01*
X011726Y004099D01*
X011735Y004034D01*
X011740Y003969D01*
X011648Y003969D01*
X011643Y004031D01*
X011634Y004093D01*
X011622Y004154D01*
X011605Y004214D01*
X011586Y004273D01*
X011562Y004331D01*
X011535Y004387D01*
X011505Y004442D01*
X011471Y004494D01*
X011434Y004544D01*
X011394Y004592D01*
X011352Y004638D01*
X011306Y004680D01*
X011258Y004720D01*
X011208Y004757D01*
X011156Y004791D01*
X011101Y004821D01*
X011045Y004848D01*
X010987Y004872D01*
X010928Y004891D01*
X010868Y004908D01*
X010807Y004920D01*
X010745Y004929D01*
X010683Y004934D01*
X010683Y004842D01*
X010742Y004837D01*
X010800Y004828D01*
X010857Y004816D01*
X010914Y004800D01*
X010969Y004780D01*
X011023Y004757D01*
X011076Y004731D01*
X011126Y004701D01*
X011175Y004668D01*
X011221Y004632D01*
X011266Y004593D01*
X011307Y004552D01*
X011346Y004507D01*
X011382Y004461D01*
X011415Y004412D01*
X011445Y004362D01*
X011471Y004309D01*
X011494Y004255D01*
X011514Y004200D01*
X011530Y004143D01*
X011542Y004086D01*
X011551Y004028D01*
X011556Y003969D01*
X011464Y003969D01*
X011459Y004024D01*
X011450Y004078D01*
X011438Y004131D01*
X011422Y004184D01*
X011403Y004235D01*
X011380Y004285D01*
X011355Y004334D01*
X011326Y004380D01*
X011294Y004425D01*
X011259Y004468D01*
X011222Y004508D01*
X011182Y004545D01*
X011139Y004580D01*
X011094Y004612D01*
X011048Y004641D01*
X010999Y004666D01*
X010949Y004689D01*
X010898Y004708D01*
X010845Y004724D01*
X010792Y004736D01*
X010738Y004745D01*
X010683Y004750D01*
X010683Y004657D01*
X010736Y004652D01*
X010788Y004643D01*
X010840Y004630D01*
X010890Y004613D01*
X010939Y004593D01*
X010987Y004569D01*
X011033Y004542D01*
X011076Y004512D01*
X011118Y004479D01*
X011157Y004443D01*
X011193Y004404D01*
X011226Y004362D01*
X011256Y004319D01*
X011283Y004273D01*
X011307Y004225D01*
X011327Y004176D01*
X011344Y004126D01*
X011357Y004074D01*
X011366Y004022D01*
X011371Y003969D01*
X011279Y003969D01*
X011274Y004017D01*
X011265Y004064D01*
X011252Y004111D01*
X011236Y004157D01*
X011217Y004201D01*
X011194Y004244D01*
X011168Y004285D01*
X011140Y004323D01*
X011108Y004360D01*
X011074Y004394D01*
X011037Y004426D01*
X010999Y004454D01*
X010958Y004480D01*
X010915Y004503D01*
X010871Y004522D01*
X010825Y004538D01*
X010778Y004551D01*
X010731Y004560D01*
X010683Y004565D01*
X010683Y004473D01*
X010728Y004467D01*
X010773Y004457D01*
X010816Y004444D01*
X010858Y004428D01*
X010899Y004407D01*
X010938Y004384D01*
X010975Y004358D01*
X011010Y004328D01*
X011042Y004296D01*
X011072Y004261D01*
X011098Y004224D01*
X011121Y004185D01*
X011142Y004144D01*
X011158Y004102D01*
X011171Y004059D01*
X011181Y004014D01*
X011187Y003969D01*
X011094Y003969D01*
X011088Y004010D01*
X011078Y004051D01*
X011064Y004091D01*
X011047Y004129D01*
X011027Y004165D01*
X011003Y004200D01*
X010976Y004232D01*
X010946Y004262D01*
X010914Y004289D01*
X010879Y004313D01*
X010843Y004333D01*
X010805Y004350D01*
X010765Y004364D01*
X010724Y004374D01*
X010683Y004380D01*
X009344Y003872D02*
X010228Y003872D01*
X010228Y003871D02*
X010234Y003833D01*
X010244Y003795D01*
X010258Y003759D01*
X010275Y003724D01*
X010295Y003691D01*
X010319Y003660D01*
X010345Y003631D01*
X010374Y003605D01*
X010405Y003581D01*
X010438Y003561D01*
X010473Y003544D01*
X010509Y003530D01*
X010547Y003520D01*
X010585Y003514D01*
X010586Y002630D01*
X010585Y002630D01*
X010514Y002635D01*
X010443Y002643D01*
X010372Y002656D01*
X010303Y002672D01*
X010234Y002692D01*
X010167Y002716D01*
X010101Y002744D01*
X010037Y002775D01*
X009974Y002810D01*
X009914Y002848D01*
X009856Y002890D01*
X009800Y002935D01*
X009747Y002982D01*
X009696Y003033D01*
X009649Y003086D01*
X009604Y003142D01*
X009562Y003200D01*
X009524Y003260D01*
X009489Y003323D01*
X009458Y003387D01*
X009430Y003453D01*
X009406Y003520D01*
X009386Y003589D01*
X009370Y003658D01*
X009357Y003729D01*
X009349Y003800D01*
X009344Y003871D01*
X009436Y003871D01*
X009441Y003803D01*
X009449Y003734D01*
X009462Y003667D01*
X009478Y003600D01*
X009499Y003535D01*
X009523Y003470D01*
X009550Y003407D01*
X009581Y003346D01*
X009616Y003287D01*
X009654Y003230D01*
X009695Y003175D01*
X009739Y003122D01*
X009786Y003072D01*
X009836Y003025D01*
X009889Y002981D01*
X009944Y002940D01*
X010001Y002902D01*
X010060Y002867D01*
X010121Y002836D01*
X010184Y002809D01*
X010249Y002785D01*
X010314Y002764D01*
X010381Y002748D01*
X010448Y002735D01*
X010517Y002727D01*
X010585Y002722D01*
X010585Y002814D01*
X010520Y002819D01*
X010455Y002828D01*
X010390Y002840D01*
X010327Y002857D01*
X010264Y002877D01*
X010203Y002900D01*
X010143Y002928D01*
X010085Y002959D01*
X010029Y002993D01*
X009975Y003030D01*
X009924Y003071D01*
X009875Y003114D01*
X009828Y003161D01*
X009785Y003210D01*
X009744Y003261D01*
X009707Y003315D01*
X009673Y003371D01*
X009642Y003429D01*
X009614Y003489D01*
X009591Y003550D01*
X009571Y003613D01*
X009554Y003676D01*
X009542Y003741D01*
X009533Y003806D01*
X009528Y003871D01*
X009620Y003871D01*
X009625Y003809D01*
X009634Y003747D01*
X009646Y003686D01*
X009663Y003626D01*
X009682Y003567D01*
X009706Y003509D01*
X009733Y003453D01*
X009763Y003398D01*
X009797Y003346D01*
X009834Y003296D01*
X009874Y003248D01*
X009916Y003202D01*
X009962Y003160D01*
X010010Y003120D01*
X010060Y003083D01*
X010112Y003049D01*
X010167Y003019D01*
X010223Y002992D01*
X010281Y002968D01*
X010340Y002949D01*
X010400Y002932D01*
X010461Y002920D01*
X010523Y002911D01*
X010585Y002906D01*
X010585Y002998D01*
X010526Y003003D01*
X010468Y003012D01*
X010411Y003024D01*
X010354Y003040D01*
X010299Y003060D01*
X010245Y003083D01*
X010192Y003109D01*
X010142Y003139D01*
X010093Y003172D01*
X010047Y003208D01*
X010002Y003247D01*
X009961Y003288D01*
X009922Y003333D01*
X009886Y003379D01*
X009853Y003428D01*
X009823Y003478D01*
X009797Y003531D01*
X009774Y003585D01*
X009754Y003640D01*
X009738Y003697D01*
X009726Y003754D01*
X009717Y003812D01*
X009712Y003871D01*
X009804Y003871D01*
X009809Y003816D01*
X009818Y003762D01*
X009830Y003709D01*
X009846Y003656D01*
X009865Y003605D01*
X009888Y003555D01*
X009913Y003506D01*
X009942Y003460D01*
X009974Y003415D01*
X010009Y003372D01*
X010046Y003332D01*
X010086Y003295D01*
X010129Y003260D01*
X010174Y003228D01*
X010220Y003199D01*
X010269Y003174D01*
X010319Y003151D01*
X010370Y003132D01*
X010423Y003116D01*
X010476Y003104D01*
X010530Y003095D01*
X010585Y003090D01*
X010585Y003183D01*
X010532Y003188D01*
X010480Y003197D01*
X010428Y003210D01*
X010378Y003227D01*
X010329Y003247D01*
X010281Y003271D01*
X010235Y003298D01*
X010192Y003328D01*
X010150Y003361D01*
X010111Y003397D01*
X010075Y003436D01*
X010042Y003478D01*
X010012Y003521D01*
X009985Y003567D01*
X009961Y003615D01*
X009941Y003664D01*
X009924Y003714D01*
X009911Y003766D01*
X009902Y003818D01*
X009897Y003871D01*
X009989Y003871D01*
X009994Y003823D01*
X010003Y003776D01*
X010016Y003729D01*
X010032Y003683D01*
X010051Y003639D01*
X010074Y003596D01*
X010100Y003555D01*
X010128Y003517D01*
X010160Y003480D01*
X010194Y003446D01*
X010231Y003414D01*
X010269Y003386D01*
X010310Y003360D01*
X010353Y003337D01*
X010397Y003318D01*
X010443Y003302D01*
X010490Y003289D01*
X010537Y003280D01*
X010585Y003275D01*
X010585Y003367D01*
X010540Y003373D01*
X010495Y003383D01*
X010452Y003396D01*
X010410Y003412D01*
X010369Y003433D01*
X010330Y003456D01*
X010293Y003482D01*
X010258Y003512D01*
X010226Y003544D01*
X010196Y003579D01*
X010170Y003616D01*
X010147Y003655D01*
X010126Y003696D01*
X010110Y003738D01*
X010097Y003781D01*
X010087Y003826D01*
X010081Y003871D01*
X010174Y003871D01*
X010180Y003830D01*
X010190Y003789D01*
X010204Y003749D01*
X010221Y003711D01*
X010241Y003675D01*
X010265Y003640D01*
X010292Y003608D01*
X010322Y003578D01*
X010354Y003551D01*
X010389Y003527D01*
X010425Y003507D01*
X010463Y003490D01*
X010503Y003476D01*
X010544Y003466D01*
X010585Y003460D01*
X011924Y018929D02*
X011040Y018929D01*
X011040Y018930D02*
X011034Y018968D01*
X011024Y019006D01*
X011010Y019042D01*
X010993Y019077D01*
X010973Y019110D01*
X010949Y019141D01*
X010923Y019170D01*
X010894Y019196D01*
X010863Y019220D01*
X010830Y019240D01*
X010795Y019257D01*
X010759Y019271D01*
X010721Y019281D01*
X010683Y019287D01*
X010682Y020171D01*
X010683Y020171D01*
X010754Y020166D01*
X010825Y020158D01*
X010896Y020145D01*
X010965Y020129D01*
X011034Y020109D01*
X011101Y020085D01*
X011167Y020057D01*
X011231Y020026D01*
X011294Y019991D01*
X011354Y019953D01*
X011412Y019911D01*
X011468Y019866D01*
X011521Y019819D01*
X011572Y019768D01*
X011619Y019715D01*
X011664Y019659D01*
X011706Y019601D01*
X011744Y019541D01*
X011779Y019478D01*
X011810Y019414D01*
X011838Y019348D01*
X011862Y019281D01*
X011882Y019212D01*
X011898Y019143D01*
X011911Y019072D01*
X011919Y019001D01*
X011924Y018930D01*
X011832Y018930D01*
X011827Y018998D01*
X011819Y019067D01*
X011806Y019134D01*
X011790Y019201D01*
X011769Y019266D01*
X011745Y019331D01*
X011718Y019394D01*
X011687Y019455D01*
X011652Y019514D01*
X011614Y019571D01*
X011573Y019626D01*
X011529Y019679D01*
X011482Y019729D01*
X011432Y019776D01*
X011379Y019820D01*
X011324Y019861D01*
X011267Y019899D01*
X011208Y019934D01*
X011147Y019965D01*
X011084Y019992D01*
X011019Y020016D01*
X010954Y020037D01*
X010887Y020053D01*
X010820Y020066D01*
X010751Y020074D01*
X010683Y020079D01*
X010683Y019987D01*
X010748Y019982D01*
X010813Y019973D01*
X010878Y019961D01*
X010941Y019944D01*
X011004Y019924D01*
X011065Y019901D01*
X011125Y019873D01*
X011183Y019842D01*
X011239Y019808D01*
X011293Y019771D01*
X011344Y019730D01*
X011393Y019687D01*
X011440Y019640D01*
X011483Y019591D01*
X011524Y019540D01*
X011561Y019486D01*
X011595Y019430D01*
X011626Y019372D01*
X011654Y019312D01*
X011677Y019251D01*
X011697Y019188D01*
X011714Y019125D01*
X011726Y019060D01*
X011735Y018995D01*
X011740Y018930D01*
X011648Y018930D01*
X011643Y018992D01*
X011634Y019054D01*
X011622Y019115D01*
X011605Y019175D01*
X011586Y019234D01*
X011562Y019292D01*
X011535Y019348D01*
X011505Y019403D01*
X011471Y019455D01*
X011434Y019505D01*
X011394Y019553D01*
X011352Y019599D01*
X011306Y019641D01*
X011258Y019681D01*
X011208Y019718D01*
X011156Y019752D01*
X011101Y019782D01*
X011045Y019809D01*
X010987Y019833D01*
X010928Y019852D01*
X010868Y019869D01*
X010807Y019881D01*
X010745Y019890D01*
X010683Y019895D01*
X010683Y019803D01*
X010742Y019798D01*
X010800Y019789D01*
X010857Y019777D01*
X010914Y019761D01*
X010969Y019741D01*
X011023Y019718D01*
X011076Y019692D01*
X011126Y019662D01*
X011175Y019629D01*
X011221Y019593D01*
X011266Y019554D01*
X011307Y019513D01*
X011346Y019468D01*
X011382Y019422D01*
X011415Y019373D01*
X011445Y019323D01*
X011471Y019270D01*
X011494Y019216D01*
X011514Y019161D01*
X011530Y019104D01*
X011542Y019047D01*
X011551Y018989D01*
X011556Y018930D01*
X011464Y018930D01*
X011459Y018985D01*
X011450Y019039D01*
X011438Y019092D01*
X011422Y019145D01*
X011403Y019196D01*
X011380Y019246D01*
X011355Y019295D01*
X011326Y019341D01*
X011294Y019386D01*
X011259Y019429D01*
X011222Y019469D01*
X011182Y019506D01*
X011139Y019541D01*
X011094Y019573D01*
X011048Y019602D01*
X010999Y019627D01*
X010949Y019650D01*
X010898Y019669D01*
X010845Y019685D01*
X010792Y019697D01*
X010738Y019706D01*
X010683Y019711D01*
X010683Y019618D01*
X010736Y019613D01*
X010788Y019604D01*
X010840Y019591D01*
X010890Y019574D01*
X010939Y019554D01*
X010987Y019530D01*
X011033Y019503D01*
X011076Y019473D01*
X011118Y019440D01*
X011157Y019404D01*
X011193Y019365D01*
X011226Y019323D01*
X011256Y019280D01*
X011283Y019234D01*
X011307Y019186D01*
X011327Y019137D01*
X011344Y019087D01*
X011357Y019035D01*
X011366Y018983D01*
X011371Y018930D01*
X011279Y018930D01*
X011274Y018978D01*
X011265Y019025D01*
X011252Y019072D01*
X011236Y019118D01*
X011217Y019162D01*
X011194Y019205D01*
X011168Y019246D01*
X011140Y019284D01*
X011108Y019321D01*
X011074Y019355D01*
X011037Y019387D01*
X010999Y019415D01*
X010958Y019441D01*
X010915Y019464D01*
X010871Y019483D01*
X010825Y019499D01*
X010778Y019512D01*
X010731Y019521D01*
X010683Y019526D01*
X010683Y019434D01*
X010728Y019428D01*
X010773Y019418D01*
X010816Y019405D01*
X010858Y019389D01*
X010899Y019368D01*
X010938Y019345D01*
X010975Y019319D01*
X011010Y019289D01*
X011042Y019257D01*
X011072Y019222D01*
X011098Y019185D01*
X011121Y019146D01*
X011142Y019105D01*
X011158Y019063D01*
X011171Y019020D01*
X011181Y018975D01*
X011187Y018930D01*
X011094Y018930D01*
X011088Y018971D01*
X011078Y019012D01*
X011064Y019052D01*
X011047Y019090D01*
X011027Y019126D01*
X011003Y019161D01*
X010976Y019193D01*
X010946Y019223D01*
X010914Y019250D01*
X010879Y019274D01*
X010843Y019294D01*
X010805Y019311D01*
X010765Y019325D01*
X010724Y019335D01*
X010683Y019341D01*
X009344Y018833D02*
X010228Y018833D01*
X010228Y018832D02*
X010234Y018794D01*
X010244Y018756D01*
X010258Y018720D01*
X010275Y018685D01*
X010295Y018652D01*
X010319Y018621D01*
X010345Y018592D01*
X010374Y018566D01*
X010405Y018542D01*
X010438Y018522D01*
X010473Y018505D01*
X010509Y018491D01*
X010547Y018481D01*
X010585Y018475D01*
X010586Y017591D01*
X010585Y017591D01*
X010514Y017596D01*
X010443Y017604D01*
X010372Y017617D01*
X010303Y017633D01*
X010234Y017653D01*
X010167Y017677D01*
X010101Y017705D01*
X010037Y017736D01*
X009974Y017771D01*
X009914Y017809D01*
X009856Y017851D01*
X009800Y017896D01*
X009747Y017943D01*
X009696Y017994D01*
X009649Y018047D01*
X009604Y018103D01*
X009562Y018161D01*
X009524Y018221D01*
X009489Y018284D01*
X009458Y018348D01*
X009430Y018414D01*
X009406Y018481D01*
X009386Y018550D01*
X009370Y018619D01*
X009357Y018690D01*
X009349Y018761D01*
X009344Y018832D01*
X009436Y018832D01*
X009441Y018764D01*
X009449Y018695D01*
X009462Y018628D01*
X009478Y018561D01*
X009499Y018496D01*
X009523Y018431D01*
X009550Y018368D01*
X009581Y018307D01*
X009616Y018248D01*
X009654Y018191D01*
X009695Y018136D01*
X009739Y018083D01*
X009786Y018033D01*
X009836Y017986D01*
X009889Y017942D01*
X009944Y017901D01*
X010001Y017863D01*
X010060Y017828D01*
X010121Y017797D01*
X010184Y017770D01*
X010249Y017746D01*
X010314Y017725D01*
X010381Y017709D01*
X010448Y017696D01*
X010517Y017688D01*
X010585Y017683D01*
X010585Y017775D01*
X010520Y017780D01*
X010455Y017789D01*
X010390Y017801D01*
X010327Y017818D01*
X010264Y017838D01*
X010203Y017861D01*
X010143Y017889D01*
X010085Y017920D01*
X010029Y017954D01*
X009975Y017991D01*
X009924Y018032D01*
X009875Y018075D01*
X009828Y018122D01*
X009785Y018171D01*
X009744Y018222D01*
X009707Y018276D01*
X009673Y018332D01*
X009642Y018390D01*
X009614Y018450D01*
X009591Y018511D01*
X009571Y018574D01*
X009554Y018637D01*
X009542Y018702D01*
X009533Y018767D01*
X009528Y018832D01*
X009620Y018832D01*
X009625Y018770D01*
X009634Y018708D01*
X009646Y018647D01*
X009663Y018587D01*
X009682Y018528D01*
X009706Y018470D01*
X009733Y018414D01*
X009763Y018359D01*
X009797Y018307D01*
X009834Y018257D01*
X009874Y018209D01*
X009916Y018163D01*
X009962Y018121D01*
X010010Y018081D01*
X010060Y018044D01*
X010112Y018010D01*
X010167Y017980D01*
X010223Y017953D01*
X010281Y017929D01*
X010340Y017910D01*
X010400Y017893D01*
X010461Y017881D01*
X010523Y017872D01*
X010585Y017867D01*
X010585Y017959D01*
X010526Y017964D01*
X010468Y017973D01*
X010411Y017985D01*
X010354Y018001D01*
X010299Y018021D01*
X010245Y018044D01*
X010192Y018070D01*
X010142Y018100D01*
X010093Y018133D01*
X010047Y018169D01*
X010002Y018208D01*
X009961Y018249D01*
X009922Y018294D01*
X009886Y018340D01*
X009853Y018389D01*
X009823Y018439D01*
X009797Y018492D01*
X009774Y018546D01*
X009754Y018601D01*
X009738Y018658D01*
X009726Y018715D01*
X009717Y018773D01*
X009712Y018832D01*
X009804Y018832D01*
X009809Y018777D01*
X009818Y018723D01*
X009830Y018670D01*
X009846Y018617D01*
X009865Y018566D01*
X009888Y018516D01*
X009913Y018467D01*
X009942Y018421D01*
X009974Y018376D01*
X010009Y018333D01*
X010046Y018293D01*
X010086Y018256D01*
X010129Y018221D01*
X010174Y018189D01*
X010220Y018160D01*
X010269Y018135D01*
X010319Y018112D01*
X010370Y018093D01*
X010423Y018077D01*
X010476Y018065D01*
X010530Y018056D01*
X010585Y018051D01*
X010585Y018144D01*
X010532Y018149D01*
X010480Y018158D01*
X010428Y018171D01*
X010378Y018188D01*
X010329Y018208D01*
X010281Y018232D01*
X010235Y018259D01*
X010192Y018289D01*
X010150Y018322D01*
X010111Y018358D01*
X010075Y018397D01*
X010042Y018439D01*
X010012Y018482D01*
X009985Y018528D01*
X009961Y018576D01*
X009941Y018625D01*
X009924Y018675D01*
X009911Y018727D01*
X009902Y018779D01*
X009897Y018832D01*
X009989Y018832D01*
X009994Y018784D01*
X010003Y018737D01*
X010016Y018690D01*
X010032Y018644D01*
X010051Y018600D01*
X010074Y018557D01*
X010100Y018516D01*
X010128Y018478D01*
X010160Y018441D01*
X010194Y018407D01*
X010231Y018375D01*
X010269Y018347D01*
X010310Y018321D01*
X010353Y018298D01*
X010397Y018279D01*
X010443Y018263D01*
X010490Y018250D01*
X010537Y018241D01*
X010585Y018236D01*
X010585Y018328D01*
X010540Y018334D01*
X010495Y018344D01*
X010452Y018357D01*
X010410Y018373D01*
X010369Y018394D01*
X010330Y018417D01*
X010293Y018443D01*
X010258Y018473D01*
X010226Y018505D01*
X010196Y018540D01*
X010170Y018577D01*
X010147Y018616D01*
X010126Y018657D01*
X010110Y018699D01*
X010097Y018742D01*
X010087Y018787D01*
X010081Y018832D01*
X010174Y018832D01*
X010180Y018791D01*
X010190Y018750D01*
X010204Y018710D01*
X010221Y018672D01*
X010241Y018636D01*
X010265Y018601D01*
X010292Y018569D01*
X010322Y018539D01*
X010354Y018512D01*
X010389Y018488D01*
X010425Y018468D01*
X010463Y018451D01*
X010503Y018437D01*
X010544Y018427D01*
X010585Y018421D01*
D123*
X010334Y018881D02*
X010336Y018915D01*
X010342Y018949D01*
X010351Y018982D01*
X010365Y019013D01*
X010382Y019043D01*
X010402Y019071D01*
X010425Y019096D01*
X010451Y019119D01*
X010479Y019138D01*
X010509Y019154D01*
X010541Y019166D01*
X010574Y019175D01*
X010608Y019180D01*
X010643Y019181D01*
X010677Y019178D01*
X010710Y019171D01*
X010743Y019161D01*
X010774Y019146D01*
X010803Y019129D01*
X010830Y019108D01*
X010855Y019084D01*
X010877Y019057D01*
X010895Y019029D01*
X010910Y018998D01*
X010922Y018966D01*
X010930Y018932D01*
X010934Y018898D01*
X010934Y018864D01*
X010930Y018830D01*
X010922Y018796D01*
X010910Y018764D01*
X010895Y018733D01*
X010877Y018705D01*
X010855Y018678D01*
X010830Y018654D01*
X010803Y018633D01*
X010774Y018616D01*
X010743Y018601D01*
X010710Y018591D01*
X010677Y018584D01*
X010643Y018581D01*
X010608Y018582D01*
X010574Y018587D01*
X010541Y018596D01*
X010509Y018608D01*
X010479Y018624D01*
X010451Y018643D01*
X010425Y018666D01*
X010402Y018691D01*
X010382Y018719D01*
X010365Y018749D01*
X010351Y018780D01*
X010342Y018813D01*
X010336Y018847D01*
X010334Y018881D01*
X010334Y003920D02*
X010336Y003954D01*
X010342Y003988D01*
X010351Y004021D01*
X010365Y004052D01*
X010382Y004082D01*
X010402Y004110D01*
X010425Y004135D01*
X010451Y004158D01*
X010479Y004177D01*
X010509Y004193D01*
X010541Y004205D01*
X010574Y004214D01*
X010608Y004219D01*
X010643Y004220D01*
X010677Y004217D01*
X010710Y004210D01*
X010743Y004200D01*
X010774Y004185D01*
X010803Y004168D01*
X010830Y004147D01*
X010855Y004123D01*
X010877Y004096D01*
X010895Y004068D01*
X010910Y004037D01*
X010922Y004005D01*
X010930Y003971D01*
X010934Y003937D01*
X010934Y003903D01*
X010930Y003869D01*
X010922Y003835D01*
X010910Y003803D01*
X010895Y003772D01*
X010877Y003744D01*
X010855Y003717D01*
X010830Y003693D01*
X010803Y003672D01*
X010774Y003655D01*
X010743Y003640D01*
X010710Y003630D01*
X010677Y003623D01*
X010643Y003620D01*
X010608Y003621D01*
X010574Y003626D01*
X010541Y003635D01*
X010509Y003647D01*
X010479Y003663D01*
X010451Y003682D01*
X010425Y003705D01*
X010402Y003730D01*
X010382Y003758D01*
X010365Y003788D01*
X010351Y003819D01*
X010342Y003852D01*
X010336Y003886D01*
X010334Y003920D01*
D124*
X005797Y008064D03*
X005727Y008339D03*
X005377Y007774D03*
X005372Y007774D03*
X005327Y009249D03*
X005507Y009579D03*
X005462Y009624D03*
X005457Y009629D03*
X005552Y009774D03*
X005557Y009774D03*
X005612Y009774D03*
X005712Y009634D03*
X005852Y009774D03*
X005712Y009914D03*
X005657Y009969D03*
X005512Y009969D03*
X005457Y009914D03*
X005712Y010169D03*
X006522Y009684D03*
X005362Y015419D03*
D125*
X005507Y009774D03*
X006147Y009789D03*
X006402Y009789D03*
X005472Y008589D03*
X004767Y009759D03*
D126*
X004787Y009749D03*
X005037Y009749D03*
X005902Y009774D03*
X006132Y009794D03*
X006387Y009794D03*
X005432Y011154D03*
X005467Y011179D03*
X005482Y011189D03*
X005532Y011224D03*
X005547Y011234D03*
X005582Y011259D03*
X005597Y011269D03*
X005647Y011304D03*
X005662Y011314D03*
X005697Y011339D03*
X005712Y011349D03*
X005727Y011359D03*
X005762Y011384D03*
X005762Y011434D03*
X005757Y011434D03*
X005752Y011434D03*
X005747Y011434D03*
X005742Y011434D03*
X005737Y011434D03*
X005732Y011434D03*
X005727Y011434D03*
X005722Y011434D03*
X005717Y011434D03*
X005712Y011434D03*
X005707Y011434D03*
X005702Y011434D03*
X005697Y011434D03*
X005692Y011434D03*
X005687Y011434D03*
X005682Y011434D03*
X005677Y011434D03*
X005672Y011434D03*
X005667Y011434D03*
X005662Y011434D03*
X005657Y011434D03*
X005652Y011434D03*
X005647Y011434D03*
X005642Y011434D03*
X005637Y011434D03*
X005632Y011434D03*
X005627Y011434D03*
X005622Y011434D03*
X005617Y011434D03*
X005612Y011434D03*
X005607Y011434D03*
X005602Y011434D03*
X005597Y011434D03*
X005592Y011434D03*
X005587Y011434D03*
X005582Y011434D03*
X005577Y011434D03*
X005572Y011434D03*
X005567Y011434D03*
X005562Y011434D03*
X005557Y011434D03*
X005552Y011434D03*
X005547Y011434D03*
X005542Y011434D03*
X005537Y011434D03*
X005532Y011434D03*
X005527Y011434D03*
X005522Y011434D03*
X005517Y011434D03*
X005512Y011434D03*
X005507Y011434D03*
X005502Y011434D03*
X005497Y011434D03*
X005492Y011434D03*
X005487Y011434D03*
X005482Y011434D03*
X005477Y011434D03*
X005472Y011434D03*
X005467Y011434D03*
X005462Y011434D03*
X005457Y011434D03*
X005452Y011434D03*
X005447Y011434D03*
X005442Y011434D03*
X005437Y011434D03*
X005432Y011434D03*
X005427Y011434D03*
X005422Y011434D03*
X005417Y011434D03*
X005412Y011434D03*
X005407Y011434D03*
X005402Y011434D03*
X005397Y011434D03*
X005392Y011434D03*
X005387Y011434D03*
X005382Y011434D03*
X005377Y011434D03*
X005372Y011434D03*
X005367Y011434D03*
X005362Y011434D03*
X005422Y011689D03*
X005437Y011699D03*
X005472Y011724D03*
X005487Y011734D03*
X005537Y011769D03*
X005552Y011779D03*
X005587Y011804D03*
X005602Y011814D03*
X005652Y011849D03*
X005667Y011859D03*
X005702Y011884D03*
X005717Y011894D03*
X005647Y012154D03*
X005642Y012154D03*
X005662Y012159D03*
X005667Y012159D03*
X005677Y012164D03*
X005682Y012164D03*
X005687Y012169D03*
X005692Y012169D03*
X005702Y012174D03*
X005712Y012179D03*
X005617Y012149D03*
X005612Y012149D03*
X005607Y012149D03*
X005602Y012149D03*
X005597Y012149D03*
X005582Y012149D03*
X005577Y012149D03*
X005572Y012149D03*
X005567Y012149D03*
X005537Y012154D03*
X005532Y012154D03*
X005517Y012159D03*
X005512Y012159D03*
X005502Y012164D03*
X005497Y012164D03*
X005492Y012169D03*
X005487Y012169D03*
X005482Y012174D03*
X005477Y012174D03*
X005472Y012179D03*
X005462Y012184D03*
X005457Y012544D03*
X005472Y012554D03*
X005482Y012559D03*
X005487Y012564D03*
X005492Y012564D03*
X005502Y012569D03*
X005507Y012569D03*
X005517Y012574D03*
X005522Y012574D03*
X005537Y012579D03*
X005542Y012579D03*
X005577Y012584D03*
X005582Y012584D03*
X005587Y012584D03*
X005592Y012584D03*
X005597Y012584D03*
X005602Y012584D03*
X005637Y012579D03*
X005642Y012579D03*
X005662Y012574D03*
X005667Y012574D03*
X005677Y012569D03*
X005682Y012569D03*
X005687Y012564D03*
X005692Y012564D03*
X005697Y012559D03*
X005702Y012559D03*
X005707Y012554D03*
X005712Y012554D03*
X005717Y012549D03*
X005622Y012789D03*
X005617Y012789D03*
X005607Y012784D03*
X005602Y012784D03*
X005592Y012779D03*
X005582Y012774D03*
X005577Y012774D03*
X005567Y012769D03*
X005562Y012769D03*
X005552Y012764D03*
X005542Y012759D03*
X005537Y012759D03*
X005527Y012754D03*
X005522Y012754D03*
X005512Y012749D03*
X005507Y012749D03*
X005502Y012744D03*
X005497Y012744D03*
X005487Y012739D03*
X005482Y012739D03*
X005472Y012734D03*
X005467Y012734D03*
X005462Y012729D03*
X005457Y012729D03*
X005452Y012729D03*
X005447Y012724D03*
X005442Y012724D03*
X005432Y012719D03*
X005427Y012719D03*
X005422Y012714D03*
X005417Y012714D03*
X005412Y012714D03*
X005407Y012709D03*
X005402Y012709D03*
X005392Y012704D03*
X005387Y012704D03*
X005377Y012699D03*
X005372Y012699D03*
X005367Y012694D03*
X005362Y012694D03*
X005632Y012794D03*
X005647Y012799D03*
X005657Y012804D03*
X005662Y012804D03*
X005672Y012809D03*
X005687Y012814D03*
X005697Y012819D03*
X005702Y012819D03*
X005712Y012824D03*
X005717Y012824D03*
X005727Y012829D03*
X005742Y012834D03*
X005752Y012839D03*
X005757Y012839D03*
X005812Y012864D03*
X005817Y012864D03*
X005677Y012919D03*
X005637Y012934D03*
X005612Y012944D03*
X005597Y012949D03*
X005572Y012959D03*
X005557Y012964D03*
X005542Y012969D03*
X005532Y012974D03*
X005517Y012979D03*
X005507Y012984D03*
X005502Y012984D03*
X005492Y012989D03*
X005477Y012994D03*
X005467Y012999D03*
X005462Y012999D03*
X005452Y013004D03*
X005437Y013009D03*
X005427Y013014D03*
X005422Y013014D03*
X005412Y013019D03*
X005407Y013019D03*
X005397Y013024D03*
X005387Y013029D03*
X005382Y013029D03*
X005372Y013034D03*
X005367Y013034D03*
X005362Y013039D03*
X005362Y013284D03*
X005367Y013284D03*
X005417Y013309D03*
X005432Y013314D03*
X005442Y013319D03*
X005452Y013324D03*
X005457Y013324D03*
X005467Y013329D03*
X005477Y013334D03*
X005482Y013334D03*
X005492Y013339D03*
X005502Y013344D03*
X005512Y013349D03*
X005517Y013349D03*
X005527Y013354D03*
X005537Y013359D03*
X005542Y013359D03*
X005552Y013364D03*
X005562Y013369D03*
X005572Y013374D03*
X005577Y013374D03*
X005587Y013379D03*
X005597Y013384D03*
X005602Y013384D03*
X005607Y013389D03*
X005612Y013389D03*
X005622Y013394D03*
X005627Y013394D03*
X005632Y013399D03*
X005637Y013399D03*
X005647Y013404D03*
X005657Y013409D03*
X005702Y013429D03*
X005707Y013429D03*
X005712Y013429D03*
X005717Y013434D03*
X005722Y013434D03*
X005727Y013439D03*
X005732Y013439D03*
X005737Y013439D03*
X005742Y013444D03*
X005747Y013444D03*
X005752Y013449D03*
X005757Y013449D03*
X005767Y013454D03*
X005772Y013454D03*
X005777Y013459D03*
X005782Y013459D03*
X005787Y013464D03*
X005792Y013464D03*
X005802Y013469D03*
X005807Y013469D03*
X005812Y013474D03*
X005817Y013474D03*
X005657Y013154D03*
X005642Y013159D03*
X005632Y013164D03*
X005597Y013179D03*
X005562Y013194D03*
X005702Y013134D03*
X005712Y013129D03*
X005737Y013119D03*
X005747Y013114D03*
X005757Y013109D03*
X005762Y013109D03*
X005772Y013104D03*
X005782Y013099D03*
X005792Y013094D03*
X005797Y013094D03*
X005807Y013089D03*
X005817Y013084D03*
X005647Y014164D03*
X005642Y014164D03*
X005662Y014169D03*
X005667Y014169D03*
X005677Y014174D03*
X005682Y014174D03*
X005687Y014179D03*
X005692Y014179D03*
X005702Y014184D03*
X005712Y014189D03*
X005727Y014199D03*
X005617Y014159D03*
X005612Y014159D03*
X005607Y014159D03*
X005602Y014159D03*
X005582Y014159D03*
X005577Y014159D03*
X005572Y014159D03*
X005567Y014159D03*
X005537Y014164D03*
X005532Y014164D03*
X005517Y014169D03*
X005512Y014169D03*
X005502Y014174D03*
X005497Y014174D03*
X005492Y014179D03*
X005487Y014179D03*
X005482Y014184D03*
X005477Y014184D03*
X005472Y014189D03*
X005462Y014194D03*
X005457Y014554D03*
X005472Y014564D03*
X005482Y014569D03*
X005487Y014574D03*
X005492Y014574D03*
X005497Y014574D03*
X005502Y014579D03*
X005507Y014579D03*
X005517Y014584D03*
X005522Y014584D03*
X005537Y014589D03*
X005542Y014589D03*
X005582Y014594D03*
X005587Y014594D03*
X005592Y014594D03*
X005597Y014594D03*
X005602Y014594D03*
X005637Y014589D03*
X005642Y014589D03*
X005662Y014584D03*
X005677Y014579D03*
X005682Y014579D03*
X005687Y014574D03*
X005692Y014574D03*
X005697Y014569D03*
X005702Y014569D03*
X005707Y014564D03*
X005717Y014559D03*
X005832Y014374D03*
X005502Y014874D03*
X005487Y014864D03*
X005452Y014839D03*
X005437Y014829D03*
X005552Y014909D03*
X005567Y014919D03*
X005602Y014944D03*
X005617Y014954D03*
X005667Y014989D03*
X005682Y014999D03*
X005717Y015024D03*
X005732Y015034D03*
X005517Y015299D03*
X005512Y015299D03*
X005502Y015294D03*
X005497Y015294D03*
X005452Y015294D03*
X005447Y015294D03*
X005437Y015299D03*
X005432Y015299D03*
X005427Y015304D03*
X005417Y015309D03*
X005412Y015514D03*
X005657Y015519D03*
X005667Y015524D03*
X005672Y015524D03*
X005682Y015529D03*
X005687Y015529D03*
X005717Y015529D03*
X005722Y015529D03*
X005737Y015524D03*
X005742Y015524D03*
X005752Y015519D03*
D127*
X005767Y015509D03*
X005772Y015504D03*
X005777Y015499D03*
X005647Y015514D03*
X005537Y015314D03*
X005532Y015309D03*
X005407Y015319D03*
X005402Y015324D03*
X005407Y015514D03*
X005762Y015289D03*
X005362Y014774D03*
X005437Y014539D03*
X005432Y014534D03*
X005427Y014529D03*
X005422Y014229D03*
X005427Y014224D03*
X005432Y014219D03*
X005437Y014214D03*
X005442Y014209D03*
X005747Y014214D03*
X005752Y014219D03*
X005747Y014534D03*
X005732Y014549D03*
X005377Y013284D03*
X005372Y013284D03*
X005802Y012864D03*
X005807Y012864D03*
X005732Y012539D03*
X005752Y012209D03*
X005747Y012204D03*
X005442Y012199D03*
X005437Y012204D03*
X005432Y012209D03*
X005427Y012214D03*
X005422Y012219D03*
X005427Y012519D03*
X005432Y012524D03*
X005437Y012529D03*
X005442Y012534D03*
X005362Y011644D03*
X005362Y011104D03*
X005367Y011104D03*
X005657Y009774D03*
X005897Y009774D03*
X006122Y009799D03*
X006377Y009799D03*
X005047Y009744D03*
X004797Y009744D03*
X005832Y008479D03*
D128*
X005892Y009774D03*
X006112Y009804D03*
X006367Y009804D03*
X005057Y009739D03*
X004807Y009739D03*
X005377Y011109D03*
X005807Y011424D03*
X005812Y011424D03*
X005377Y011649D03*
X005807Y011964D03*
X005767Y012229D03*
X005772Y012234D03*
X005767Y012504D03*
X005412Y012499D03*
X005407Y012494D03*
X005407Y012239D03*
X005787Y012864D03*
X005792Y012864D03*
X005387Y013284D03*
X005382Y013284D03*
X005417Y014234D03*
X005412Y014239D03*
X005407Y014249D03*
X005407Y014504D03*
X005412Y014509D03*
X005377Y014779D03*
X005767Y014514D03*
X005772Y014244D03*
X005767Y014239D03*
X005807Y015094D03*
X005777Y015304D03*
X005782Y015494D03*
X005552Y015329D03*
X005397Y015329D03*
X005402Y015509D03*
D129*
X005392Y015494D03*
X005352Y015419D03*
X005392Y015339D03*
X005627Y015489D03*
X005782Y015309D03*
X005792Y015089D03*
X005392Y014784D03*
X005402Y014494D03*
X005397Y013284D03*
X005772Y012864D03*
X005777Y012864D03*
X005782Y012864D03*
X005402Y012484D03*
X005792Y011959D03*
X005392Y011654D03*
X005387Y011654D03*
X005792Y011419D03*
X005797Y011419D03*
X005392Y011114D03*
X006102Y009809D03*
X005887Y009774D03*
X005652Y009774D03*
X005067Y009734D03*
X004817Y009734D03*
X006357Y009809D03*
D130*
X006347Y009814D03*
X006092Y009814D03*
X005882Y009774D03*
X005077Y009729D03*
X004827Y009729D03*
X005407Y011119D03*
X005777Y011414D03*
X005782Y011414D03*
X005407Y011659D03*
X005402Y011659D03*
X005777Y011954D03*
X005787Y012259D03*
X005787Y012469D03*
X005392Y012464D03*
X005767Y012864D03*
X005407Y013284D03*
X005787Y014269D03*
X005787Y014479D03*
X005392Y014474D03*
X005402Y014789D03*
X005407Y014789D03*
X005777Y015084D03*
D131*
X005767Y015079D03*
X005827Y015404D03*
X005417Y014794D03*
X005792Y014284D03*
X005792Y012274D03*
X005417Y011664D03*
X005767Y011409D03*
X006077Y009824D03*
X006082Y009819D03*
X005877Y009774D03*
X005647Y009774D03*
X005522Y009774D03*
X005087Y009724D03*
X004837Y009724D03*
X005447Y008579D03*
X005647Y008624D03*
X005652Y008624D03*
X005657Y008624D03*
X005662Y008624D03*
X005667Y008624D03*
X005672Y008624D03*
X005677Y008624D03*
X005682Y008624D03*
X005687Y008624D03*
X005692Y008624D03*
X005697Y008624D03*
X005702Y008624D03*
X005707Y008624D03*
X005712Y008624D03*
X005717Y008624D03*
X006337Y009819D03*
D132*
X006322Y009829D03*
X006067Y009829D03*
X005872Y009774D03*
X005642Y009774D03*
X005527Y009774D03*
X005097Y009719D03*
X004847Y009719D03*
X005722Y008619D03*
X005652Y008289D03*
X005647Y008289D03*
X005637Y008284D03*
X005632Y008284D03*
X005627Y008284D03*
X005622Y008284D03*
X005617Y008284D03*
X005612Y008284D03*
X005567Y008284D03*
X005562Y008284D03*
X005557Y008284D03*
X005552Y008284D03*
X005547Y008284D03*
X005532Y008289D03*
X005607Y015449D03*
D133*
X005602Y015439D03*
X005357Y015419D03*
X005827Y014374D03*
X005827Y012364D03*
X006057Y009834D03*
X005867Y009774D03*
X005637Y009774D03*
X005532Y009774D03*
X005112Y009709D03*
X004862Y009709D03*
X006312Y009834D03*
X005687Y008304D03*
X005682Y008304D03*
X005677Y008299D03*
X005517Y008294D03*
X005507Y008299D03*
X005502Y008299D03*
X005497Y008304D03*
X005672Y007974D03*
X005677Y007974D03*
X005667Y007969D03*
X005662Y007964D03*
X005657Y007964D03*
X005652Y007959D03*
X005642Y007954D03*
X005637Y007949D03*
X005632Y007949D03*
X005627Y007944D03*
X005622Y007939D03*
X005617Y007939D03*
X005612Y007934D03*
X005607Y007934D03*
X005602Y007929D03*
X005597Y007924D03*
X005592Y007924D03*
X005587Y007919D03*
X005582Y007919D03*
X005577Y007914D03*
X005572Y007909D03*
X005567Y007909D03*
X005562Y007904D03*
X005552Y007899D03*
X005547Y007894D03*
X005542Y007894D03*
X005537Y007889D03*
X005532Y007884D03*
X005527Y007884D03*
X005522Y007879D03*
X005517Y007879D03*
X005512Y007874D03*
X005507Y007869D03*
X005502Y007869D03*
X005497Y007864D03*
D134*
X005487Y008309D03*
X005702Y008314D03*
X005707Y008319D03*
X005632Y009774D03*
X005537Y009774D03*
X005862Y009774D03*
X006042Y009844D03*
X006297Y009844D03*
X006302Y009839D03*
X005127Y009699D03*
X005122Y009704D03*
X004877Y009699D03*
X005592Y015414D03*
D135*
X005357Y014374D03*
X005182Y010399D03*
X005177Y010394D03*
X005172Y010389D03*
X005167Y010384D03*
X005162Y010379D03*
X005157Y010374D03*
X005152Y010369D03*
X005147Y010364D03*
X005142Y010359D03*
X005137Y010354D03*
X005132Y010349D03*
X005127Y010344D03*
X005122Y010339D03*
X005117Y010334D03*
X005112Y010329D03*
X005107Y010324D03*
X005102Y010319D03*
X005097Y010314D03*
X005092Y010309D03*
X005087Y010304D03*
X005082Y010299D03*
X005077Y010294D03*
X005072Y010289D03*
X005067Y010284D03*
X005062Y010279D03*
X005057Y010274D03*
X005052Y010269D03*
X005047Y010264D03*
X005042Y010259D03*
X005037Y010254D03*
X005032Y010249D03*
X005027Y010244D03*
X005022Y010239D03*
X005017Y010234D03*
X005012Y010229D03*
X005007Y010224D03*
X005002Y010219D03*
X004997Y010214D03*
X004992Y010209D03*
X004987Y010204D03*
X004982Y010199D03*
X004977Y010194D03*
X004972Y010189D03*
X004967Y010184D03*
X004962Y010179D03*
X004957Y010174D03*
X004952Y010169D03*
X004947Y010164D03*
X004942Y010159D03*
X004937Y010154D03*
X004932Y010149D03*
X004927Y010144D03*
X004922Y010139D03*
X004917Y010134D03*
X004912Y010129D03*
X004907Y010124D03*
X004902Y010119D03*
X004897Y010114D03*
X004892Y010109D03*
X004887Y010104D03*
X004882Y010099D03*
X004877Y010094D03*
X004872Y010089D03*
X004867Y010084D03*
X004862Y010079D03*
X004857Y010074D03*
X004852Y010069D03*
X004847Y010064D03*
X004842Y010059D03*
X004837Y010054D03*
X004832Y010049D03*
X004827Y010044D03*
X004822Y010039D03*
X004817Y010034D03*
X004812Y010029D03*
X004807Y010024D03*
X004802Y010019D03*
X004797Y010014D03*
X004792Y010009D03*
X004787Y010004D03*
X004782Y009999D03*
X004777Y009994D03*
X004772Y009989D03*
X004767Y009984D03*
X004762Y009979D03*
X004757Y009974D03*
X004752Y009969D03*
X004747Y009964D03*
X004742Y009959D03*
X004737Y009954D03*
X004732Y009949D03*
X004727Y009944D03*
X004722Y009939D03*
X004717Y009934D03*
X004712Y009929D03*
X004707Y009924D03*
X004702Y009919D03*
X004697Y009914D03*
X004692Y009909D03*
X004687Y009904D03*
X004682Y009899D03*
X004677Y009894D03*
X004672Y009889D03*
X004667Y009884D03*
X004662Y009879D03*
X004657Y009874D03*
X004652Y009869D03*
X004647Y009864D03*
X004892Y009689D03*
X004897Y009684D03*
X004902Y009679D03*
X004907Y009674D03*
X004912Y009669D03*
X004917Y009664D03*
X004922Y009659D03*
X004927Y009654D03*
X004932Y009649D03*
X004937Y009644D03*
X004942Y009639D03*
X004947Y009634D03*
X004952Y009629D03*
X004957Y009624D03*
X004962Y009619D03*
X004967Y009614D03*
X004972Y009609D03*
X004977Y009604D03*
X004982Y009599D03*
X004987Y009594D03*
X004992Y009589D03*
X004997Y009584D03*
X005002Y009579D03*
X005007Y009574D03*
X005012Y009569D03*
X005017Y009564D03*
X005022Y009559D03*
X005027Y009554D03*
X005032Y009549D03*
X005037Y009544D03*
X005042Y009539D03*
X005047Y009534D03*
X005052Y009529D03*
X005057Y009524D03*
X005062Y009519D03*
X005067Y009514D03*
X005072Y009509D03*
X005077Y009504D03*
X005082Y009499D03*
X005087Y009494D03*
X005092Y009489D03*
X005097Y009484D03*
X005102Y009479D03*
X005107Y009474D03*
X005112Y009469D03*
X005117Y009464D03*
X005122Y009459D03*
X005127Y009454D03*
X005132Y009449D03*
X005137Y009444D03*
X005142Y009439D03*
X005147Y009434D03*
X005152Y009429D03*
X005157Y009424D03*
X005162Y009419D03*
X005167Y009414D03*
X005172Y009409D03*
X005177Y009404D03*
X005182Y009399D03*
X005187Y009394D03*
X005192Y009389D03*
X005197Y009384D03*
X005202Y009379D03*
X005207Y009374D03*
X005212Y009369D03*
X005217Y009364D03*
X005222Y009359D03*
X005227Y009354D03*
X005232Y009349D03*
X005237Y009344D03*
X005242Y009339D03*
X005247Y009334D03*
X005252Y009329D03*
X005257Y009324D03*
X005352Y009269D03*
X005357Y009274D03*
X005362Y009279D03*
X005367Y009284D03*
X005372Y009289D03*
X005377Y009294D03*
X005382Y009299D03*
X005462Y009379D03*
X005467Y009384D03*
X005472Y009389D03*
X005477Y009394D03*
X005482Y009399D03*
X005487Y009404D03*
X005492Y009409D03*
X005497Y009414D03*
X005502Y009419D03*
X005507Y009424D03*
X005672Y009589D03*
X005677Y009594D03*
X005682Y009599D03*
X005687Y009604D03*
X005692Y009609D03*
X005697Y009614D03*
X005702Y009619D03*
X005622Y009774D03*
X005547Y009774D03*
X005472Y009934D03*
X005477Y009939D03*
X005482Y009944D03*
X005487Y009949D03*
X005492Y009954D03*
X005682Y009949D03*
X005687Y009944D03*
X005857Y009774D03*
X006017Y009864D03*
X006022Y009859D03*
X006027Y009854D03*
X006277Y009859D03*
X006282Y009854D03*
X005147Y009684D03*
X005142Y009689D03*
X005827Y008484D03*
X005717Y008329D03*
X005467Y008324D03*
X005462Y008329D03*
X005812Y008069D03*
X005817Y008069D03*
D136*
X005482Y008589D03*
X006157Y009784D03*
X005427Y015509D03*
D137*
X005412Y013259D03*
X005422Y013254D03*
X005447Y013244D03*
X005262Y009774D03*
X005027Y009754D03*
X004777Y009754D03*
X005907Y009774D03*
X006137Y009794D03*
X005467Y008589D03*
D138*
X005357Y008484D03*
X005732Y008349D03*
X005782Y008059D03*
X005392Y007779D03*
X005387Y007779D03*
X005322Y009249D03*
X005722Y009649D03*
X005847Y009774D03*
X005597Y009774D03*
X005592Y009774D03*
X005587Y009774D03*
X005582Y009774D03*
X005577Y009774D03*
X005572Y009774D03*
X005567Y009774D03*
X005447Y009899D03*
X005717Y010169D03*
X005822Y012364D03*
X005822Y014374D03*
D139*
X005367Y015419D03*
X005722Y010169D03*
X005842Y009774D03*
X005317Y009249D03*
X005762Y008054D03*
X005767Y008054D03*
X005407Y007784D03*
X005402Y007784D03*
D140*
X005422Y007789D03*
X005747Y008049D03*
X005752Y008049D03*
X005312Y009249D03*
X005727Y009664D03*
X005837Y009774D03*
X005727Y009884D03*
X005727Y010169D03*
D141*
X005732Y010169D03*
X005832Y009774D03*
X005307Y009249D03*
X005822Y008489D03*
X005732Y008044D03*
X005442Y007794D03*
X005437Y007794D03*
D142*
X005452Y007799D03*
X005457Y007799D03*
X005712Y008039D03*
X005717Y008039D03*
X005362Y008484D03*
X005302Y009249D03*
X005582Y009529D03*
X005827Y009774D03*
X005737Y010169D03*
X005367Y012364D03*
X005367Y014374D03*
X005377Y015419D03*
D143*
X005742Y010169D03*
X005592Y010019D03*
X005577Y010019D03*
X005822Y009774D03*
X005592Y009524D03*
X005572Y009524D03*
X005297Y009249D03*
X005697Y008034D03*
X005702Y008034D03*
X005472Y007804D03*
D144*
X005487Y007809D03*
X005682Y008029D03*
X005687Y008029D03*
X005292Y009249D03*
X005602Y009519D03*
X005817Y009774D03*
X005602Y010024D03*
X005567Y010024D03*
X005747Y010169D03*
D145*
X005752Y010169D03*
X005612Y010029D03*
X005557Y010029D03*
X005812Y009774D03*
X005607Y009519D03*
X005557Y009519D03*
X005287Y009249D03*
X005367Y008484D03*
D146*
X005807Y008494D03*
X005262Y009249D03*
X005647Y009504D03*
X005787Y009774D03*
X005647Y010039D03*
X005522Y010039D03*
X005777Y010169D03*
D147*
X005757Y010169D03*
X005617Y010029D03*
X005807Y009774D03*
X005617Y009514D03*
X005547Y009514D03*
X005282Y009249D03*
D148*
X005777Y009774D03*
X005802Y008494D03*
D149*
X005372Y008484D03*
X005277Y009249D03*
X005802Y009774D03*
X005627Y010034D03*
X005542Y010034D03*
X005762Y010169D03*
D150*
X005767Y010169D03*
X005797Y009774D03*
X005632Y009509D03*
X005532Y009509D03*
X005272Y009249D03*
X005382Y012364D03*
X005382Y014374D03*
D151*
X005797Y014374D03*
X005797Y012364D03*
X005772Y010169D03*
X005642Y010039D03*
X005527Y010039D03*
X005792Y009774D03*
X005527Y009509D03*
X005267Y009249D03*
X005377Y008484D03*
D152*
X005792Y008499D03*
X005757Y009774D03*
D153*
X005747Y009774D03*
X005782Y008494D03*
X005437Y008454D03*
X005432Y008459D03*
X005427Y008464D03*
X005422Y008469D03*
X005417Y008474D03*
X005412Y008479D03*
X005407Y008484D03*
X005397Y013679D03*
X005392Y013679D03*
X005387Y013679D03*
X005382Y013679D03*
X005377Y013679D03*
X005372Y013679D03*
X005367Y013679D03*
X005362Y013679D03*
D154*
X005782Y009774D03*
X005652Y009504D03*
X005512Y009504D03*
X005382Y008484D03*
D155*
X005387Y008484D03*
X005772Y009774D03*
D156*
X005737Y009774D03*
X005767Y008484D03*
D157*
X005392Y008484D03*
X005767Y009774D03*
X005677Y013279D03*
D158*
X005762Y009774D03*
D159*
X005732Y009774D03*
X005752Y008479D03*
X005757Y008479D03*
D160*
X005402Y008484D03*
X005752Y009774D03*
D161*
X005742Y008474D03*
D162*
X005742Y009774D03*
X005447Y006679D03*
X005442Y006679D03*
X005437Y006679D03*
X005432Y006679D03*
X005427Y006679D03*
X005422Y006679D03*
X005417Y006679D03*
X005412Y006679D03*
X005407Y006679D03*
X005402Y006679D03*
X005397Y006679D03*
X005392Y006679D03*
X005387Y006679D03*
X005382Y006679D03*
X005377Y006679D03*
X005372Y006679D03*
X005367Y006679D03*
X005362Y006679D03*
D163*
X005477Y008589D03*
X005257Y009774D03*
X004762Y009759D03*
D164*
X006948Y007229D03*
X006948Y006729D03*
X006948Y006229D03*
X006948Y005729D03*
X008808Y005729D03*
X008808Y006229D03*
X008808Y006729D03*
X008808Y007229D03*
D165*
X008271Y004436D02*
X008271Y004286D01*
X008271Y001586D02*
X008271Y001436D01*
X004653Y005692D02*
X004503Y005692D01*
X004503Y007267D02*
X004653Y007267D01*
X001803Y007267D02*
X001653Y007267D01*
X001653Y005692D02*
X001803Y005692D01*
D166*
X001853Y005692D03*
X001853Y007267D03*
X004453Y007267D03*
X004453Y005692D03*
D167*
X008271Y004236D03*
X008271Y001636D03*
M02*
