G75*
%MOIN*%
%OFA0B0*%
%FSLAX24Y24*%
%IPPOS*%
%LPD*%
%AMOC8*
5,1,8,0,0,1.08239X$1,22.5*
%
%ADD10C,0.0000*%
%ADD11C,0.0740*%
%ADD12OC8,0.0520*%
%ADD13C,0.1095*%
%ADD14OC8,0.0620*%
%ADD15C,0.0620*%
%ADD16C,0.0600*%
%ADD17C,0.0436*%
%ADD18OC8,0.0600*%
%ADD19C,0.0600*%
%ADD20R,0.0870X0.0240*%
%ADD21C,0.0160*%
%ADD22R,0.0356X0.0356*%
%ADD23C,0.0157*%
%ADD24C,0.0079*%
D10*
X003547Y002773D02*
X003545Y002819D01*
X003539Y002865D01*
X003530Y002910D01*
X003517Y002954D01*
X003500Y002997D01*
X003480Y003038D01*
X003456Y003078D01*
X003430Y003115D01*
X003400Y003150D01*
X003367Y003183D01*
X003332Y003213D01*
X003295Y003239D01*
X003255Y003263D01*
X003214Y003283D01*
X003171Y003300D01*
X003127Y003313D01*
X003082Y003322D01*
X003036Y003328D01*
X002990Y003330D01*
X000954Y003330D01*
X000954Y003329D02*
X000908Y003331D01*
X000862Y003337D01*
X000817Y003346D01*
X000773Y003359D01*
X000730Y003376D01*
X000689Y003396D01*
X000649Y003420D01*
X000612Y003446D01*
X000577Y003476D01*
X000544Y003509D01*
X000514Y003544D01*
X000488Y003581D01*
X000464Y003621D01*
X000444Y003662D01*
X000427Y003705D01*
X000414Y003749D01*
X000405Y003794D01*
X000399Y003840D01*
X000397Y003886D01*
X000397Y018907D01*
X000398Y018907D02*
X000400Y018952D01*
X000405Y018996D01*
X000415Y019040D01*
X000427Y019082D01*
X000443Y019124D01*
X000463Y019164D01*
X000486Y019202D01*
X000512Y019239D01*
X000541Y019273D01*
X000572Y019304D01*
X000606Y019333D01*
X000643Y019359D01*
X000681Y019382D01*
X000721Y019402D01*
X000763Y019418D01*
X000805Y019430D01*
X000849Y019440D01*
X000893Y019445D01*
X000938Y019447D01*
X000938Y019448D02*
X002973Y019448D01*
X002973Y019447D02*
X003018Y019449D01*
X003063Y019454D01*
X003107Y019463D01*
X003150Y019475D01*
X003193Y019491D01*
X003234Y019510D01*
X003273Y019532D01*
X003310Y019557D01*
X003346Y019585D01*
X003379Y019615D01*
X003409Y019648D01*
X003437Y019684D01*
X003462Y019721D01*
X003484Y019760D01*
X003503Y019801D01*
X003519Y019844D01*
X003531Y019887D01*
X003540Y019931D01*
X003545Y019976D01*
X003547Y020021D01*
X003547Y022064D01*
X003549Y022110D01*
X003555Y022156D01*
X003564Y022201D01*
X003577Y022245D01*
X003594Y022288D01*
X003614Y022329D01*
X003638Y022369D01*
X003664Y022406D01*
X003694Y022441D01*
X003727Y022474D01*
X003762Y022504D01*
X003799Y022530D01*
X003839Y022554D01*
X003880Y022574D01*
X003923Y022591D01*
X003967Y022604D01*
X004012Y022613D01*
X004058Y022619D01*
X004104Y022621D01*
X017164Y022621D01*
X017210Y022619D01*
X017256Y022613D01*
X017301Y022604D01*
X017345Y022591D01*
X017388Y022574D01*
X017429Y022554D01*
X017469Y022530D01*
X017506Y022504D01*
X017541Y022474D01*
X017574Y022441D01*
X017604Y022406D01*
X017630Y022369D01*
X017654Y022329D01*
X017674Y022288D01*
X017691Y022245D01*
X017704Y022201D01*
X017713Y022156D01*
X017719Y022110D01*
X017721Y022064D01*
X017720Y022064D02*
X017720Y020033D01*
X017722Y019988D01*
X017727Y019943D01*
X017737Y019899D01*
X017750Y019856D01*
X017766Y019814D01*
X017786Y019773D01*
X017809Y019734D01*
X017835Y019698D01*
X017864Y019663D01*
X017896Y019631D01*
X017931Y019602D01*
X017967Y019576D01*
X018006Y019553D01*
X018047Y019533D01*
X018089Y019517D01*
X018132Y019504D01*
X018176Y019494D01*
X018221Y019489D01*
X018266Y019487D01*
X020300Y019487D01*
X020299Y019487D02*
X020346Y019485D01*
X020392Y019479D01*
X020437Y019470D01*
X020482Y019456D01*
X020525Y019439D01*
X020567Y019419D01*
X020607Y019395D01*
X020645Y019368D01*
X020680Y019338D01*
X020713Y019305D01*
X020743Y019270D01*
X020770Y019232D01*
X020794Y019192D01*
X020815Y019150D01*
X020832Y019107D01*
X020845Y019062D01*
X020854Y019017D01*
X020860Y018970D01*
X020862Y018924D01*
X020870Y003888D01*
X020870Y003887D02*
X020868Y003841D01*
X020863Y003795D01*
X020853Y003750D01*
X020840Y003706D01*
X020823Y003663D01*
X020803Y003622D01*
X020780Y003582D01*
X020753Y003544D01*
X020723Y003509D01*
X020691Y003477D01*
X020656Y003447D01*
X020618Y003420D01*
X020578Y003396D01*
X020537Y003376D01*
X020494Y003359D01*
X020450Y003346D01*
X020405Y003337D01*
X020359Y003331D01*
X020313Y003329D01*
X020313Y003330D02*
X018277Y003330D01*
X018231Y003328D01*
X018185Y003322D01*
X018140Y003313D01*
X018096Y003300D01*
X018053Y003283D01*
X018012Y003263D01*
X017972Y003239D01*
X017935Y003213D01*
X017900Y003183D01*
X017867Y003150D01*
X017837Y003115D01*
X017811Y003078D01*
X017787Y003038D01*
X017767Y002997D01*
X017750Y002954D01*
X017737Y002910D01*
X017728Y002865D01*
X017722Y002819D01*
X017720Y002773D01*
X017720Y000737D01*
X017721Y000737D02*
X017719Y000691D01*
X017713Y000645D01*
X017704Y000600D01*
X017691Y000556D01*
X017674Y000513D01*
X017654Y000472D01*
X017630Y000432D01*
X017604Y000395D01*
X017574Y000360D01*
X017541Y000327D01*
X017506Y000297D01*
X017469Y000271D01*
X017429Y000247D01*
X017388Y000227D01*
X017345Y000210D01*
X017301Y000197D01*
X017256Y000188D01*
X017210Y000182D01*
X017164Y000180D01*
X004104Y000180D01*
X004058Y000182D01*
X004012Y000188D01*
X003967Y000197D01*
X003923Y000210D01*
X003880Y000227D01*
X003839Y000247D01*
X003799Y000271D01*
X003762Y000297D01*
X003727Y000327D01*
X003694Y000360D01*
X003664Y000395D01*
X003638Y000432D01*
X003614Y000472D01*
X003594Y000513D01*
X003577Y000556D01*
X003564Y000600D01*
X003555Y000645D01*
X003549Y000691D01*
X003547Y000737D01*
X003547Y002773D01*
X009925Y003920D02*
X009927Y003973D01*
X009933Y004026D01*
X009943Y004078D01*
X009956Y004129D01*
X009974Y004179D01*
X009995Y004228D01*
X010020Y004275D01*
X010048Y004319D01*
X010080Y004362D01*
X010114Y004402D01*
X010152Y004440D01*
X010192Y004474D01*
X010235Y004506D01*
X010280Y004534D01*
X010326Y004559D01*
X010375Y004580D01*
X010425Y004598D01*
X010476Y004611D01*
X010528Y004621D01*
X010581Y004627D01*
X010634Y004629D01*
X010687Y004627D01*
X010740Y004621D01*
X010792Y004611D01*
X010843Y004598D01*
X010893Y004580D01*
X010942Y004559D01*
X010989Y004534D01*
X011033Y004506D01*
X011076Y004474D01*
X011116Y004440D01*
X011154Y004402D01*
X011188Y004362D01*
X011220Y004319D01*
X011248Y004274D01*
X011273Y004228D01*
X011294Y004179D01*
X011312Y004129D01*
X011325Y004078D01*
X011335Y004026D01*
X011341Y003973D01*
X011343Y003920D01*
X011341Y003867D01*
X011335Y003814D01*
X011325Y003762D01*
X011312Y003711D01*
X011294Y003661D01*
X011273Y003612D01*
X011248Y003565D01*
X011220Y003521D01*
X011188Y003478D01*
X011154Y003438D01*
X011116Y003400D01*
X011076Y003366D01*
X011033Y003334D01*
X010988Y003306D01*
X010942Y003281D01*
X010893Y003260D01*
X010843Y003242D01*
X010792Y003229D01*
X010740Y003219D01*
X010687Y003213D01*
X010634Y003211D01*
X010581Y003213D01*
X010528Y003219D01*
X010476Y003229D01*
X010425Y003242D01*
X010375Y003260D01*
X010326Y003281D01*
X010279Y003306D01*
X010235Y003334D01*
X010192Y003366D01*
X010152Y003400D01*
X010114Y003438D01*
X010080Y003478D01*
X010048Y003521D01*
X010020Y003566D01*
X009995Y003612D01*
X009974Y003661D01*
X009956Y003711D01*
X009943Y003762D01*
X009933Y003814D01*
X009927Y003867D01*
X009925Y003920D01*
X009925Y018881D02*
X009927Y018934D01*
X009933Y018987D01*
X009943Y019039D01*
X009956Y019090D01*
X009974Y019140D01*
X009995Y019189D01*
X010020Y019236D01*
X010048Y019280D01*
X010080Y019323D01*
X010114Y019363D01*
X010152Y019401D01*
X010192Y019435D01*
X010235Y019467D01*
X010280Y019495D01*
X010326Y019520D01*
X010375Y019541D01*
X010425Y019559D01*
X010476Y019572D01*
X010528Y019582D01*
X010581Y019588D01*
X010634Y019590D01*
X010687Y019588D01*
X010740Y019582D01*
X010792Y019572D01*
X010843Y019559D01*
X010893Y019541D01*
X010942Y019520D01*
X010989Y019495D01*
X011033Y019467D01*
X011076Y019435D01*
X011116Y019401D01*
X011154Y019363D01*
X011188Y019323D01*
X011220Y019280D01*
X011248Y019235D01*
X011273Y019189D01*
X011294Y019140D01*
X011312Y019090D01*
X011325Y019039D01*
X011335Y018987D01*
X011341Y018934D01*
X011343Y018881D01*
X011341Y018828D01*
X011335Y018775D01*
X011325Y018723D01*
X011312Y018672D01*
X011294Y018622D01*
X011273Y018573D01*
X011248Y018526D01*
X011220Y018482D01*
X011188Y018439D01*
X011154Y018399D01*
X011116Y018361D01*
X011076Y018327D01*
X011033Y018295D01*
X010988Y018267D01*
X010942Y018242D01*
X010893Y018221D01*
X010843Y018203D01*
X010792Y018190D01*
X010740Y018180D01*
X010687Y018174D01*
X010634Y018172D01*
X010581Y018174D01*
X010528Y018180D01*
X010476Y018190D01*
X010425Y018203D01*
X010375Y018221D01*
X010326Y018242D01*
X010279Y018267D01*
X010235Y018295D01*
X010192Y018327D01*
X010152Y018361D01*
X010114Y018399D01*
X010080Y018439D01*
X010048Y018482D01*
X010020Y018527D01*
X009995Y018573D01*
X009974Y018622D01*
X009956Y018672D01*
X009943Y018723D01*
X009933Y018775D01*
X009927Y018828D01*
X009925Y018881D01*
D11*
X008301Y020960D03*
X007801Y021710D03*
X007301Y020960D03*
D12*
X002094Y016664D03*
X001094Y016664D03*
X001653Y007267D03*
X001653Y005692D03*
X004653Y005692D03*
X004653Y007267D03*
X008271Y004436D03*
X008271Y001436D03*
X010173Y000841D03*
X010673Y001591D03*
X011173Y000841D03*
D13*
X015149Y001701D03*
X015149Y004601D03*
X015149Y018601D03*
X015149Y021501D03*
D14*
X020039Y006487D03*
D15*
X019039Y006487D03*
D16*
X009736Y008436D03*
X009736Y009223D03*
X009736Y010011D03*
X009736Y010798D03*
X009736Y011586D03*
X009736Y012373D03*
X009736Y013160D03*
X009736Y013948D03*
X009736Y014735D03*
X009736Y015523D03*
X001075Y015523D03*
X001075Y014735D03*
X001075Y013948D03*
X001075Y013160D03*
X001075Y012373D03*
X001075Y011586D03*
X001075Y010798D03*
X001075Y010011D03*
X001075Y009223D03*
X001075Y008436D03*
D17*
X019689Y008310D03*
X019689Y013310D03*
D18*
X019992Y016767D03*
X019992Y017767D03*
X018992Y017767D03*
X018992Y016767D03*
D19*
X011327Y014400D02*
X010727Y014400D01*
X010727Y013400D02*
X011327Y013400D01*
X011327Y012400D02*
X010727Y012400D01*
X010727Y011400D02*
X011327Y011400D01*
X011327Y010400D02*
X010727Y010400D01*
X010727Y009400D02*
X011327Y009400D01*
X011327Y008400D02*
X010727Y008400D01*
X003890Y004338D02*
X003890Y003738D01*
X002890Y003738D02*
X002890Y004338D01*
X004291Y018974D02*
X004291Y019574D01*
X005291Y019574D02*
X005291Y018974D01*
X006291Y018974D02*
X006291Y019574D01*
X007291Y019574D02*
X007291Y018974D01*
D20*
X006848Y007229D03*
X006848Y006729D03*
X006848Y006229D03*
X006848Y005729D03*
X008908Y005729D03*
X008908Y006229D03*
X008908Y006729D03*
X008908Y007229D03*
D21*
X008908Y007229D01*
X009523Y007229D01*
X009523Y007086D01*
X009511Y007040D01*
X009487Y006999D01*
X009454Y006966D01*
X009503Y006916D01*
X009503Y006543D01*
X009440Y006479D01*
X009503Y006416D01*
X009503Y006043D01*
X009440Y005979D01*
X009503Y005916D01*
X009503Y005863D01*
X011581Y007940D01*
X011581Y008007D01*
X011419Y007940D01*
X010636Y007940D01*
X010466Y008010D01*
X010337Y008140D01*
X010267Y008309D01*
X010267Y008492D01*
X010337Y008661D01*
X010466Y008791D01*
X010636Y008861D01*
X011419Y008861D01*
X011581Y008794D01*
X011581Y009007D01*
X011419Y008940D01*
X010636Y008940D01*
X010466Y009010D01*
X010337Y009140D01*
X010267Y009309D01*
X010267Y009492D01*
X010337Y009661D01*
X010411Y009735D01*
X010197Y009949D01*
X010197Y009919D01*
X010127Y009750D01*
X009997Y009620D01*
X009989Y009617D01*
X009997Y009614D01*
X010127Y009484D01*
X010197Y009315D01*
X010197Y009132D01*
X010127Y008962D01*
X009997Y008833D01*
X009989Y008830D01*
X009997Y008826D01*
X010127Y008697D01*
X010197Y008528D01*
X010197Y008344D01*
X010127Y008175D01*
X009997Y008045D01*
X009828Y007975D01*
X009644Y007975D01*
X009475Y008045D01*
X009345Y008175D01*
X009322Y008231D01*
X008891Y008231D01*
X007443Y006784D01*
X007443Y006543D01*
X007380Y006479D01*
X007443Y006416D01*
X007443Y006043D01*
X007393Y005992D01*
X007461Y005923D01*
X007461Y005598D01*
X008185Y004874D01*
X008453Y004874D01*
X008484Y004843D01*
X009089Y005449D01*
X008406Y005449D01*
X008312Y005543D01*
X008312Y005916D01*
X008376Y005979D01*
X008312Y006043D01*
X008312Y006416D01*
X008376Y006479D01*
X008312Y006543D01*
X008312Y006916D01*
X008362Y006966D01*
X008329Y006999D01*
X008305Y007040D01*
X008293Y007086D01*
X008293Y007229D01*
X008908Y007229D01*
X009523Y007229D01*
X009523Y007373D01*
X009511Y007419D01*
X009487Y007460D01*
X009453Y007493D01*
X009412Y007517D01*
X009366Y007529D01*
X008908Y007529D01*
X008908Y007229D01*
X008908Y007229D01*
X008908Y007229D01*
X008293Y007229D01*
X008293Y007373D01*
X008305Y007419D01*
X008329Y007460D01*
X008362Y007493D01*
X008403Y007517D01*
X008449Y007529D01*
X008908Y007529D01*
X008908Y007229D01*
X008908Y007313D02*
X008908Y007313D01*
X008908Y007471D02*
X008908Y007471D01*
X008448Y007788D02*
X011429Y007788D01*
X011435Y007947D02*
X011581Y007947D01*
X011270Y007630D02*
X008289Y007630D01*
X008340Y007471D02*
X008131Y007471D01*
X007972Y007313D02*
X008293Y007313D01*
X008293Y007154D02*
X007814Y007154D01*
X007655Y006996D02*
X008332Y006996D01*
X008312Y006837D02*
X007497Y006837D01*
X007443Y006679D02*
X008312Y006679D01*
X008335Y006520D02*
X007421Y006520D01*
X007443Y006362D02*
X008312Y006362D01*
X008312Y006203D02*
X007443Y006203D01*
X007443Y006045D02*
X008312Y006045D01*
X008312Y005886D02*
X007461Y005886D01*
X007461Y005728D02*
X008312Y005728D01*
X008312Y005569D02*
X007490Y005569D01*
X007649Y005411D02*
X009051Y005411D01*
X008893Y005252D02*
X007807Y005252D01*
X007966Y005094D02*
X008734Y005094D01*
X008576Y004935D02*
X008124Y004935D01*
X007714Y004618D02*
X004280Y004618D01*
X004300Y004590D02*
X004256Y004651D01*
X004202Y004704D01*
X004141Y004749D01*
X004074Y004783D01*
X004002Y004806D01*
X003927Y004818D01*
X003910Y004818D01*
X003910Y004058D01*
X004370Y004058D01*
X004370Y004376D01*
X004358Y004451D01*
X004334Y004523D01*
X004300Y004590D01*
X004355Y004460D02*
X007833Y004460D01*
X007833Y004499D02*
X007833Y004254D01*
X008090Y003997D01*
X008453Y003997D01*
X008710Y004254D01*
X008710Y004342D01*
X009341Y004973D01*
X009120Y004649D01*
X008972Y004171D01*
X008972Y003670D01*
X009120Y003191D01*
X009402Y002777D01*
X009402Y002777D01*
X009402Y002777D01*
X009794Y002465D01*
X010260Y002282D01*
X010759Y002245D01*
X011247Y002356D01*
X011247Y002356D01*
X011681Y002607D01*
X012022Y002974D01*
X012239Y003425D01*
X012314Y003920D01*
X012239Y004415D01*
X012239Y004415D01*
X012022Y004867D01*
X011681Y005234D01*
X011247Y005484D01*
X010759Y005595D01*
X010260Y005558D01*
X010260Y005558D01*
X009794Y005375D01*
X009544Y005176D01*
X011838Y007470D01*
X013008Y006300D01*
X013102Y006261D01*
X018604Y006261D01*
X018625Y006210D01*
X018763Y006073D01*
X018942Y005999D01*
X019136Y005999D01*
X019316Y006073D01*
X019453Y006210D01*
X019528Y006390D01*
X019528Y006584D01*
X019453Y006764D01*
X019316Y006901D01*
X019136Y006976D01*
X018942Y006976D01*
X018763Y006901D01*
X018637Y006775D01*
X013260Y006775D01*
X012095Y007940D01*
X012095Y012628D01*
X012056Y012723D01*
X011984Y012795D01*
X011691Y013088D01*
X011733Y013129D01*
X011806Y013305D01*
X011806Y013496D01*
X011733Y013671D01*
X011598Y013806D01*
X011423Y013879D01*
X010632Y013879D01*
X010483Y013817D01*
X010483Y014003D01*
X010636Y013940D01*
X011419Y013940D01*
X011588Y014010D01*
X011718Y014140D01*
X011788Y014309D01*
X011788Y014492D01*
X011718Y014661D01*
X011588Y014791D01*
X011419Y014861D01*
X011201Y014861D01*
X011201Y016248D01*
X010171Y017278D01*
X010260Y017243D01*
X010759Y017205D01*
X011247Y017317D01*
X011247Y017317D01*
X011681Y017567D01*
X011681Y017567D01*
X011681Y017567D01*
X012022Y017934D01*
X012022Y017934D01*
X012239Y018386D01*
X012314Y018881D01*
X012294Y019014D01*
X019451Y011856D01*
X019451Y008608D01*
X019368Y008525D01*
X019310Y008385D01*
X019310Y008235D01*
X019368Y008095D01*
X019474Y007989D01*
X019613Y007931D01*
X019764Y007931D01*
X019903Y007989D01*
X020010Y008095D01*
X020068Y008235D01*
X020068Y008385D01*
X020010Y008525D01*
X019903Y008631D01*
X019851Y008653D01*
X019851Y012022D01*
X013502Y018371D01*
X014478Y018371D01*
X014549Y018200D01*
X014748Y018001D01*
X015009Y017893D01*
X015290Y017893D01*
X015551Y018001D01*
X015750Y018200D01*
X015821Y018371D01*
X017103Y018371D01*
X017179Y018447D01*
X017179Y022305D01*
X017103Y022381D01*
X013196Y022381D01*
X013119Y022305D01*
X013119Y018754D01*
X012397Y019476D01*
X012397Y019755D01*
X009846Y022307D01*
X009728Y022424D01*
X007530Y022424D01*
X006214Y021108D01*
X006097Y020991D01*
X006097Y019993D01*
X006030Y019965D01*
X005901Y019835D01*
X005830Y019666D01*
X005830Y018883D01*
X005752Y018883D01*
X005752Y019666D01*
X005682Y019835D01*
X005552Y019965D01*
X005383Y020035D01*
X005200Y020035D01*
X005030Y019965D01*
X004901Y019835D01*
X004830Y019666D01*
X004830Y018883D01*
X004752Y018883D01*
X004752Y019666D01*
X004682Y019835D01*
X004552Y019965D01*
X004383Y020035D01*
X004200Y020035D01*
X004030Y019965D01*
X003901Y019835D01*
X003830Y019666D01*
X003830Y018883D01*
X000577Y018883D01*
X000577Y018907D02*
X000584Y018978D01*
X000638Y019108D01*
X000738Y019207D01*
X000867Y019261D01*
X000938Y019268D01*
X003123Y019268D01*
X003400Y019382D01*
X003400Y019382D01*
X003489Y019471D01*
X003547Y019471D01*
X003547Y019529D01*
X003612Y019594D01*
X003612Y019594D01*
X003727Y019872D01*
X003727Y022064D01*
X003734Y022138D01*
X003791Y022273D01*
X003895Y022377D01*
X004030Y022434D01*
X004104Y022441D01*
X017164Y022441D01*
X017237Y022434D01*
X017373Y022377D01*
X017477Y022273D01*
X017533Y022138D01*
X017540Y022064D01*
X017540Y019888D01*
X017651Y019622D01*
X017720Y019552D01*
X017720Y019471D01*
X017801Y019471D01*
X017855Y019418D01*
X018122Y019307D01*
X020300Y019307D01*
X020374Y019300D01*
X020512Y019242D01*
X020618Y019137D01*
X020675Y018999D01*
X020682Y018924D01*
X020682Y018923D01*
X020682Y018850D01*
X020682Y018850D01*
X020690Y003962D01*
X020689Y003962D01*
X020690Y003887D01*
X020683Y003814D01*
X020626Y003677D01*
X020522Y003573D01*
X020386Y003517D01*
X020313Y003510D01*
X018131Y003510D01*
X017860Y003397D01*
X017792Y003330D01*
X017720Y003330D01*
X017720Y003258D01*
X017652Y003190D01*
X017540Y002919D01*
X017540Y000737D01*
X017533Y000663D01*
X017477Y000527D01*
X017373Y000423D01*
X017237Y000367D01*
X017164Y000360D01*
X004104Y000360D01*
X004030Y000367D01*
X003895Y000423D01*
X003791Y000527D01*
X003734Y000663D01*
X003727Y000737D01*
X003727Y002919D01*
X003615Y003190D01*
X003615Y003190D01*
X003547Y003258D01*
X003547Y003330D01*
X003475Y003330D01*
X003408Y003397D01*
X003408Y003397D01*
X003261Y003458D01*
X003280Y003477D01*
X003350Y003647D01*
X003350Y004430D01*
X003280Y004599D01*
X003151Y004729D01*
X002981Y004799D01*
X002798Y004799D01*
X002631Y004730D01*
X002631Y008554D01*
X002513Y008671D01*
X001450Y009735D01*
X001465Y009750D01*
X001535Y009919D01*
X001535Y010102D01*
X001465Y010272D01*
X001336Y010401D01*
X001328Y010404D01*
X001336Y010408D01*
X001465Y010537D01*
X001501Y010623D01*
X003111Y010623D01*
X007775Y015287D01*
X009335Y015287D01*
X009345Y015262D01*
X009475Y015132D01*
X009483Y015129D01*
X009475Y015126D01*
X009345Y014996D01*
X009275Y014827D01*
X009275Y014643D01*
X009345Y014474D01*
X009475Y014345D01*
X009483Y014341D01*
X009475Y014338D01*
X009345Y014209D01*
X009275Y014039D01*
X009275Y013856D01*
X009345Y013687D01*
X009475Y013557D01*
X009483Y013554D01*
X009475Y013551D01*
X009345Y013421D01*
X009275Y013252D01*
X009275Y013069D01*
X009345Y012899D01*
X009475Y012770D01*
X009483Y012767D01*
X009475Y012763D01*
X009345Y012634D01*
X009275Y012465D01*
X009275Y012281D01*
X009345Y012112D01*
X009475Y011982D01*
X009483Y011979D01*
X009475Y011976D01*
X009345Y011846D01*
X009275Y011677D01*
X009275Y011494D01*
X009345Y011325D01*
X009475Y011195D01*
X009483Y011192D01*
X009475Y011189D01*
X009345Y011059D01*
X009275Y010890D01*
X009275Y010706D01*
X009345Y010537D01*
X009475Y010408D01*
X009483Y010404D01*
X009475Y010401D01*
X009345Y010272D01*
X009275Y010102D01*
X009275Y009919D01*
X009345Y009750D01*
X009475Y009620D01*
X009483Y009617D01*
X009475Y009614D01*
X009345Y009484D01*
X009306Y009389D01*
X008726Y009389D01*
X006846Y007510D01*
X006346Y007510D01*
X006272Y007436D01*
X005074Y007436D01*
X005074Y007441D01*
X004828Y007687D01*
X004479Y007687D01*
X004233Y007441D01*
X004233Y007092D01*
X004479Y006846D01*
X004828Y006846D01*
X005017Y007036D01*
X006259Y007036D01*
X006316Y006979D01*
X006254Y006917D01*
X005576Y006917D01*
X004771Y006113D01*
X004479Y006113D01*
X004233Y005866D01*
X004233Y005518D01*
X004479Y005271D01*
X004828Y005271D01*
X005074Y005518D01*
X005074Y005849D01*
X005742Y006517D01*
X006277Y006517D01*
X006316Y006479D01*
X006252Y006416D01*
X006252Y006043D01*
X006303Y005992D01*
X006234Y005923D01*
X006234Y005535D01*
X006339Y005431D01*
X006901Y005431D01*
X007833Y004499D01*
X007833Y004301D02*
X004370Y004301D01*
X004370Y004143D02*
X007945Y004143D01*
X007555Y004777D02*
X004087Y004777D01*
X003910Y004777D02*
X003870Y004777D01*
X003870Y004818D02*
X003852Y004818D01*
X003777Y004806D01*
X003705Y004783D01*
X003638Y004749D01*
X003577Y004704D01*
X003523Y004651D01*
X003479Y004590D01*
X003445Y004523D01*
X003421Y004451D01*
X003410Y004376D01*
X003410Y004058D01*
X003870Y004058D01*
X003870Y004818D01*
X003692Y004777D02*
X003035Y004777D01*
X003261Y004618D02*
X003500Y004618D01*
X003424Y004460D02*
X003338Y004460D01*
X003350Y004301D02*
X003410Y004301D01*
X003410Y004143D02*
X003350Y004143D01*
X003410Y004018D02*
X003410Y003700D01*
X003421Y003626D01*
X003445Y003554D01*
X003479Y003487D01*
X003523Y003426D01*
X003577Y003372D01*
X003638Y003328D01*
X003705Y003293D01*
X003777Y003270D01*
X003852Y003258D01*
X003870Y003258D01*
X003870Y004018D01*
X003910Y004018D01*
X003910Y004058D01*
X003870Y004058D01*
X003870Y004018D01*
X003410Y004018D01*
X003410Y003984D02*
X003350Y003984D01*
X003350Y003826D02*
X003410Y003826D01*
X003415Y003667D02*
X003350Y003667D01*
X003293Y003509D02*
X003468Y003509D01*
X003455Y003350D02*
X003607Y003350D01*
X003614Y003192D02*
X009120Y003192D01*
X009120Y003191D02*
X009120Y003191D01*
X009071Y003350D02*
X004172Y003350D01*
X004202Y003372D02*
X004256Y003426D01*
X004300Y003487D01*
X004334Y003554D01*
X004358Y003626D01*
X004370Y003700D01*
X004370Y004018D01*
X003910Y004018D01*
X003910Y003258D01*
X003927Y003258D01*
X004002Y003270D01*
X004074Y003293D01*
X004141Y003328D01*
X004202Y003372D01*
X004311Y003509D02*
X009022Y003509D01*
X008973Y003667D02*
X004364Y003667D01*
X004370Y003826D02*
X008972Y003826D01*
X008972Y003984D02*
X004370Y003984D01*
X003910Y003984D02*
X003870Y003984D01*
X003870Y003826D02*
X003910Y003826D01*
X003910Y003667D02*
X003870Y003667D01*
X003870Y003509D02*
X003910Y003509D01*
X003910Y003350D02*
X003870Y003350D01*
X003680Y003033D02*
X009228Y003033D01*
X009336Y002875D02*
X003727Y002875D01*
X003727Y002716D02*
X009479Y002716D01*
X009678Y002558D02*
X003727Y002558D01*
X003727Y002399D02*
X009962Y002399D01*
X009794Y002465D02*
X009794Y002465D01*
X010260Y002282D02*
X010260Y002282D01*
X010499Y002012D02*
X010252Y001766D01*
X010252Y001656D01*
X008647Y001656D01*
X008446Y001857D01*
X008097Y001857D01*
X007851Y001610D01*
X007851Y001262D01*
X008097Y001015D01*
X008446Y001015D01*
X008686Y001256D01*
X009965Y001256D01*
X009733Y001024D01*
X009733Y000841D01*
X009733Y000659D01*
X009991Y000401D01*
X010173Y000401D01*
X010173Y000841D01*
X010173Y000841D01*
X010173Y000401D01*
X010355Y000401D01*
X010613Y000659D01*
X010613Y000841D01*
X010173Y000841D01*
X009733Y000841D01*
X010173Y000841D01*
X010173Y000841D01*
X010173Y000841D01*
X010613Y000841D01*
X010613Y001024D01*
X010381Y001256D01*
X010414Y001256D01*
X010499Y001171D01*
X010847Y001171D01*
X011094Y001417D01*
X011094Y001766D01*
X010847Y002012D01*
X010499Y002012D01*
X010410Y001924D02*
X003727Y001924D01*
X003727Y002082D02*
X013119Y002082D01*
X013119Y001924D02*
X010936Y001924D01*
X011094Y001765D02*
X013119Y001765D01*
X013119Y001607D02*
X011094Y001607D01*
X011094Y001448D02*
X013119Y001448D01*
X013119Y001290D02*
X010966Y001290D01*
X010991Y001281D02*
X010733Y001024D01*
X010733Y000841D01*
X010733Y000659D01*
X010991Y000401D01*
X011173Y000401D01*
X011173Y000841D01*
X011173Y000841D01*
X011173Y000401D01*
X011355Y000401D01*
X011613Y000659D01*
X011613Y000841D01*
X011173Y000841D01*
X010733Y000841D01*
X011173Y000841D01*
X011173Y000841D01*
X011173Y000841D01*
X011613Y000841D01*
X011613Y001024D01*
X011355Y001281D01*
X011173Y001281D01*
X010991Y001281D01*
X011173Y001281D02*
X011173Y000841D01*
X011173Y000841D01*
X011173Y001281D01*
X011173Y001131D02*
X011173Y001131D01*
X011173Y000973D02*
X011173Y000973D01*
X011173Y000814D02*
X011173Y000814D01*
X011173Y000656D02*
X011173Y000656D01*
X011173Y000497D02*
X011173Y000497D01*
X010895Y000497D02*
X010451Y000497D01*
X010609Y000656D02*
X010737Y000656D01*
X010733Y000814D02*
X010613Y000814D01*
X010613Y000973D02*
X010733Y000973D01*
X010840Y001131D02*
X010506Y001131D01*
X010173Y001131D02*
X010173Y001131D01*
X010173Y001256D02*
X010173Y000841D01*
X010173Y001256D01*
X010173Y001256D01*
X010173Y000973D02*
X010173Y000973D01*
X010173Y000841D02*
X010173Y000841D01*
X010173Y000814D02*
X010173Y000814D01*
X010173Y000656D02*
X010173Y000656D01*
X010173Y000497D02*
X010173Y000497D01*
X009895Y000497D02*
X003821Y000497D01*
X003738Y000656D02*
X009737Y000656D01*
X009733Y000814D02*
X003727Y000814D01*
X003727Y000973D02*
X009733Y000973D01*
X009840Y001131D02*
X008562Y001131D01*
X007981Y001131D02*
X003727Y001131D01*
X003727Y001290D02*
X007851Y001290D01*
X007851Y001448D02*
X003727Y001448D01*
X003727Y001607D02*
X007851Y001607D01*
X008006Y001765D02*
X003727Y001765D01*
X003727Y002241D02*
X013119Y002241D01*
X013119Y002399D02*
X011321Y002399D01*
X011596Y002558D02*
X013119Y002558D01*
X013119Y002716D02*
X011783Y002716D01*
X011681Y002607D02*
X011681Y002607D01*
X011930Y002875D02*
X013119Y002875D01*
X013119Y003033D02*
X012050Y003033D01*
X012022Y002974D02*
X012022Y002974D01*
X012127Y003192D02*
X013119Y003192D01*
X013119Y003350D02*
X012203Y003350D01*
X012239Y003425D02*
X012239Y003425D01*
X012252Y003509D02*
X013119Y003509D01*
X013119Y003667D02*
X012276Y003667D01*
X012299Y003826D02*
X013119Y003826D01*
X013119Y003984D02*
X012304Y003984D01*
X012280Y004143D02*
X013119Y004143D01*
X013119Y004301D02*
X012256Y004301D01*
X012218Y004460D02*
X013119Y004460D01*
X013119Y004618D02*
X012141Y004618D01*
X012065Y004777D02*
X013141Y004777D01*
X013119Y004755D02*
X013119Y004647D01*
X013119Y000897D01*
X013196Y000821D01*
X017103Y000821D01*
X017179Y000897D01*
X017179Y004755D01*
X017103Y004831D01*
X015821Y004831D01*
X015750Y005002D01*
X015551Y005202D01*
X015290Y005309D01*
X015009Y005309D01*
X014748Y005202D01*
X014549Y005002D01*
X014478Y004831D01*
X013196Y004831D01*
X013119Y004755D01*
X012022Y004867D02*
X012022Y004867D01*
X011958Y004935D02*
X014521Y004935D01*
X014640Y005094D02*
X011811Y005094D01*
X011681Y005234D02*
X011681Y005234D01*
X011649Y005252D02*
X014870Y005252D01*
X015429Y005252D02*
X020689Y005252D01*
X020689Y005094D02*
X015659Y005094D01*
X015778Y004935D02*
X020689Y004935D01*
X020689Y004777D02*
X017158Y004777D01*
X017179Y004618D02*
X020689Y004618D01*
X020689Y004460D02*
X017179Y004460D01*
X017179Y004301D02*
X020689Y004301D01*
X020690Y004143D02*
X017179Y004143D01*
X017179Y003984D02*
X020690Y003984D01*
X020684Y003826D02*
X017179Y003826D01*
X017179Y003667D02*
X020616Y003667D01*
X020689Y005411D02*
X011375Y005411D01*
X011247Y005484D02*
X011247Y005484D01*
X010875Y005569D02*
X020689Y005569D01*
X020689Y005728D02*
X010096Y005728D01*
X010254Y005886D02*
X020689Y005886D01*
X020689Y006045D02*
X020290Y006045D01*
X020242Y005997D02*
X020529Y006284D01*
X020529Y006487D01*
X020039Y006487D01*
X019549Y006487D01*
X019549Y006284D01*
X019836Y005997D01*
X020039Y005997D01*
X020039Y006487D01*
X020039Y006487D01*
X020039Y006487D01*
X019549Y006487D01*
X019549Y006690D01*
X019836Y006977D01*
X020039Y006977D01*
X020039Y006487D01*
X020039Y006487D01*
X020039Y005997D01*
X020242Y005997D01*
X020039Y006045D02*
X020039Y006045D01*
X020039Y006203D02*
X020039Y006203D01*
X020039Y006362D02*
X020039Y006362D01*
X020039Y006487D02*
X020039Y006487D01*
X020039Y006977D01*
X020242Y006977D01*
X020529Y006690D01*
X020529Y006487D01*
X020039Y006487D01*
X020039Y006520D02*
X020039Y006520D01*
X020039Y006679D02*
X020039Y006679D01*
X020039Y006837D02*
X020039Y006837D01*
X019696Y006837D02*
X019380Y006837D01*
X019489Y006679D02*
X019549Y006679D01*
X019549Y006520D02*
X019528Y006520D01*
X019516Y006362D02*
X019549Y006362D01*
X019630Y006203D02*
X019446Y006203D01*
X019247Y006045D02*
X019789Y006045D01*
X020448Y006203D02*
X020689Y006203D01*
X020688Y006362D02*
X020529Y006362D01*
X020529Y006520D02*
X020688Y006520D01*
X020688Y006679D02*
X020529Y006679D01*
X020382Y006837D02*
X020688Y006837D01*
X020688Y006996D02*
X013040Y006996D01*
X012881Y007154D02*
X020688Y007154D01*
X020688Y007313D02*
X012723Y007313D01*
X012564Y007471D02*
X020688Y007471D01*
X020688Y007630D02*
X012406Y007630D01*
X012247Y007788D02*
X020688Y007788D01*
X020688Y007947D02*
X019801Y007947D01*
X019576Y007947D02*
X012095Y007947D01*
X012095Y008105D02*
X019364Y008105D01*
X019310Y008264D02*
X012095Y008264D01*
X012095Y008422D02*
X019325Y008422D01*
X019424Y008581D02*
X012095Y008581D01*
X012095Y008739D02*
X019451Y008739D01*
X019451Y008898D02*
X012095Y008898D01*
X012095Y009056D02*
X019451Y009056D01*
X019451Y009215D02*
X012095Y009215D01*
X012095Y009373D02*
X019451Y009373D01*
X019451Y009532D02*
X012095Y009532D01*
X012095Y009690D02*
X019451Y009690D01*
X019451Y009849D02*
X012095Y009849D01*
X012095Y010007D02*
X019451Y010007D01*
X019451Y010166D02*
X012095Y010166D01*
X012095Y010324D02*
X019451Y010324D01*
X019451Y010483D02*
X012095Y010483D01*
X012095Y010641D02*
X019451Y010641D01*
X019451Y010800D02*
X012095Y010800D01*
X012095Y010958D02*
X019451Y010958D01*
X019451Y011117D02*
X012095Y011117D01*
X012095Y011275D02*
X019451Y011275D01*
X019451Y011434D02*
X012095Y011434D01*
X012095Y011592D02*
X019451Y011592D01*
X019451Y011751D02*
X012095Y011751D01*
X012095Y011909D02*
X019398Y011909D01*
X019240Y012068D02*
X012095Y012068D01*
X012095Y012226D02*
X019081Y012226D01*
X018923Y012385D02*
X012095Y012385D01*
X012095Y012543D02*
X018764Y012543D01*
X018606Y012702D02*
X012065Y012702D01*
X011919Y012860D02*
X018447Y012860D01*
X018289Y013019D02*
X011760Y013019D01*
X011753Y013177D02*
X018130Y013177D01*
X017972Y013336D02*
X011806Y013336D01*
X011806Y013494D02*
X017813Y013494D01*
X017655Y013653D02*
X011741Y013653D01*
X011586Y013811D02*
X017496Y013811D01*
X017338Y013970D02*
X011491Y013970D01*
X011706Y014128D02*
X017179Y014128D01*
X017021Y014287D02*
X011779Y014287D01*
X011788Y014445D02*
X016862Y014445D01*
X016704Y014604D02*
X011742Y014604D01*
X011617Y014762D02*
X016545Y014762D01*
X016387Y014921D02*
X011201Y014921D01*
X011201Y015079D02*
X016228Y015079D01*
X016070Y015238D02*
X011201Y015238D01*
X011201Y015396D02*
X015911Y015396D01*
X015753Y015555D02*
X011201Y015555D01*
X011201Y015713D02*
X015594Y015713D01*
X015436Y015872D02*
X011201Y015872D01*
X011201Y016030D02*
X015277Y016030D01*
X015119Y016189D02*
X011201Y016189D01*
X011101Y016347D02*
X014960Y016347D01*
X014802Y016506D02*
X010943Y016506D01*
X010784Y016664D02*
X014643Y016664D01*
X014485Y016823D02*
X010626Y016823D01*
X010467Y016981D02*
X014326Y016981D01*
X014168Y017140D02*
X010309Y017140D01*
X010260Y017243D02*
X010260Y017243D01*
X009902Y016981D02*
X005802Y016981D01*
X005960Y017140D02*
X009743Y017140D01*
X009585Y017298D02*
X006119Y017298D01*
X006277Y017457D02*
X009426Y017457D01*
X009268Y017615D02*
X006436Y017615D01*
X006380Y017559D02*
X006497Y017676D01*
X006497Y018561D01*
X006552Y018584D01*
X006682Y018714D01*
X006752Y018883D01*
X006820Y018883D01*
X006823Y018862D02*
X006846Y018790D01*
X006881Y018723D01*
X006925Y018662D01*
X006978Y018608D01*
X007040Y018564D01*
X007107Y018530D01*
X007179Y018506D01*
X007253Y018494D01*
X007271Y018494D01*
X007271Y019254D01*
X007311Y019254D01*
X007311Y018494D01*
X007329Y018494D01*
X007404Y018506D01*
X007475Y018530D01*
X007543Y018564D01*
X007604Y018608D01*
X007657Y018662D01*
X007702Y018723D01*
X007736Y018790D01*
X007759Y018862D01*
X007771Y018937D01*
X007771Y019254D01*
X007311Y019254D01*
X007311Y019294D01*
X007771Y019294D01*
X007771Y019612D01*
X007759Y019687D01*
X007736Y019759D01*
X007702Y019826D01*
X007657Y019887D01*
X007604Y019941D01*
X007543Y019985D01*
X007475Y020019D01*
X007404Y020043D01*
X007329Y020054D01*
X007311Y020054D01*
X007311Y019294D01*
X007271Y019294D01*
X007271Y019254D01*
X006811Y019254D01*
X006811Y018937D01*
X006823Y018862D01*
X006752Y018883D02*
X006752Y019666D01*
X006682Y019835D01*
X006552Y019965D01*
X006497Y019988D01*
X006497Y020825D01*
X006767Y021095D01*
X006765Y021088D01*
X006751Y021003D01*
X006751Y020960D01*
X007301Y020960D01*
X007301Y021510D01*
X007309Y021510D01*
X007272Y021600D01*
X007165Y021494D01*
X007172Y021496D01*
X007258Y021510D01*
X007301Y021510D01*
X007301Y020960D01*
X007301Y020960D01*
X007301Y020960D01*
X006751Y020960D01*
X006751Y020916D01*
X006765Y020831D01*
X006791Y020748D01*
X006831Y020671D01*
X006881Y020601D01*
X006943Y020540D01*
X007013Y020489D01*
X007090Y020450D01*
X007172Y020423D01*
X007258Y020410D01*
X007301Y020410D01*
X007344Y020410D01*
X007430Y020423D01*
X007512Y020450D01*
X007589Y020489D01*
X007659Y020540D01*
X007721Y020601D01*
X007771Y020671D01*
X007811Y020748D01*
X007812Y020753D01*
X007851Y020659D01*
X008000Y020510D01*
X008130Y020456D01*
X008130Y018753D01*
X008247Y018635D01*
X010801Y016082D01*
X010801Y014861D01*
X010636Y014861D01*
X010466Y014791D01*
X010337Y014661D01*
X010267Y014492D01*
X010267Y014312D01*
X010115Y014463D01*
X010127Y014474D01*
X010197Y014643D01*
X010197Y014827D01*
X010127Y014996D01*
X009997Y015126D01*
X009989Y015129D01*
X009997Y015132D01*
X010127Y015262D01*
X010197Y015431D01*
X010197Y015614D01*
X010127Y015783D01*
X009997Y015913D01*
X009828Y015983D01*
X009644Y015983D01*
X009475Y015913D01*
X009345Y015783D01*
X009306Y015687D01*
X007609Y015687D01*
X007492Y015570D01*
X002945Y011023D01*
X001480Y011023D01*
X001465Y011059D01*
X001336Y011189D01*
X001328Y011192D01*
X001336Y011195D01*
X001465Y011325D01*
X001535Y011494D01*
X001535Y011677D01*
X001465Y011846D01*
X001336Y011976D01*
X001328Y011979D01*
X001336Y011982D01*
X001465Y012112D01*
X001535Y012281D01*
X001535Y012465D01*
X001465Y012634D01*
X001460Y012639D01*
X006380Y017559D01*
X006497Y017774D02*
X009109Y017774D01*
X008951Y017932D02*
X006497Y017932D01*
X006497Y018091D02*
X008792Y018091D01*
X008634Y018249D02*
X006497Y018249D01*
X006497Y018408D02*
X008475Y018408D01*
X008317Y018566D02*
X007546Y018566D01*
X007703Y018725D02*
X008158Y018725D01*
X008130Y018883D02*
X007763Y018883D01*
X007771Y019042D02*
X008130Y019042D01*
X008130Y019200D02*
X007771Y019200D01*
X007771Y019359D02*
X008130Y019359D01*
X008130Y019517D02*
X007771Y019517D01*
X007761Y019676D02*
X008130Y019676D01*
X008130Y019834D02*
X007696Y019834D01*
X007528Y019993D02*
X008130Y019993D01*
X008130Y020151D02*
X006497Y020151D01*
X006497Y019993D02*
X007054Y019993D01*
X007040Y019985D02*
X006978Y019941D01*
X006925Y019887D01*
X006881Y019826D01*
X006846Y019759D01*
X006823Y019687D01*
X006811Y019612D01*
X006811Y019294D01*
X007271Y019294D01*
X007271Y020054D01*
X007253Y020054D01*
X007179Y020043D01*
X007107Y020019D01*
X007040Y019985D01*
X006886Y019834D02*
X006682Y019834D01*
X006748Y019676D02*
X006821Y019676D01*
X006811Y019517D02*
X006752Y019517D01*
X006752Y019359D02*
X006811Y019359D01*
X006811Y019200D02*
X006752Y019200D01*
X006752Y019042D02*
X006811Y019042D01*
X006880Y018725D02*
X006686Y018725D01*
X006509Y018566D02*
X007037Y018566D01*
X007271Y018566D02*
X007311Y018566D01*
X007311Y018725D02*
X007271Y018725D01*
X007271Y018883D02*
X007311Y018883D01*
X007311Y019042D02*
X007271Y019042D01*
X007271Y019200D02*
X007311Y019200D01*
X007311Y019359D02*
X007271Y019359D01*
X007271Y019517D02*
X007311Y019517D01*
X007311Y019676D02*
X007271Y019676D01*
X007271Y019834D02*
X007311Y019834D01*
X007311Y019993D02*
X007271Y019993D01*
X007301Y020410D02*
X007301Y020960D01*
X007301Y020410D01*
X007301Y020468D02*
X007301Y020468D01*
X007301Y020627D02*
X007301Y020627D01*
X007301Y020785D02*
X007301Y020785D01*
X007301Y020944D02*
X007301Y020944D01*
X007301Y020960D02*
X007301Y020960D01*
X007301Y021102D02*
X007301Y021102D01*
X007301Y021261D02*
X007301Y021261D01*
X007301Y021419D02*
X007301Y021419D01*
X007281Y021578D02*
X007249Y021578D01*
X007000Y021895D02*
X003727Y021895D01*
X003727Y022053D02*
X007159Y022053D01*
X007317Y022212D02*
X003765Y022212D01*
X003887Y022370D02*
X007476Y022370D01*
X008237Y022024D02*
X009563Y022024D01*
X011110Y020476D01*
X010759Y020556D01*
X010260Y020519D01*
X009794Y020336D01*
X009794Y020336D01*
X009402Y020023D01*
X009120Y019610D01*
X009120Y019610D01*
X008972Y019131D01*
X008972Y018630D01*
X009041Y018407D01*
X008530Y018918D01*
X008530Y020480D01*
X008602Y020510D01*
X008751Y020659D01*
X008832Y020854D01*
X008832Y021065D01*
X008751Y021260D01*
X008602Y021409D01*
X008407Y021490D01*
X008285Y021490D01*
X008332Y021604D01*
X008332Y021815D01*
X008251Y022010D01*
X008237Y022024D01*
X008299Y021895D02*
X009692Y021895D01*
X009850Y021736D02*
X008332Y021736D01*
X008321Y021578D02*
X010009Y021578D01*
X010167Y021419D02*
X008578Y021419D01*
X008751Y021261D02*
X010326Y021261D01*
X010484Y021102D02*
X008816Y021102D01*
X008832Y020944D02*
X010643Y020944D01*
X010801Y020785D02*
X008803Y020785D01*
X008719Y020627D02*
X010960Y020627D01*
X010759Y020556D02*
X010759Y020556D01*
X011209Y020944D02*
X013119Y020944D01*
X013119Y021102D02*
X011050Y021102D01*
X010892Y021261D02*
X013119Y021261D01*
X013119Y021419D02*
X010733Y021419D01*
X010575Y021578D02*
X013119Y021578D01*
X013119Y021736D02*
X010416Y021736D01*
X010258Y021895D02*
X013119Y021895D01*
X013119Y022053D02*
X010099Y022053D01*
X009941Y022212D02*
X013119Y022212D01*
X013184Y022370D02*
X009782Y022370D01*
X011367Y020785D02*
X013119Y020785D01*
X013119Y020627D02*
X011526Y020627D01*
X011684Y020468D02*
X013119Y020468D01*
X013119Y020310D02*
X011843Y020310D01*
X012001Y020151D02*
X013119Y020151D01*
X013119Y019993D02*
X012160Y019993D01*
X012318Y019834D02*
X013119Y019834D01*
X013119Y019676D02*
X012397Y019676D01*
X012397Y019517D02*
X013119Y019517D01*
X013119Y019359D02*
X012515Y019359D01*
X012673Y019200D02*
X013119Y019200D01*
X013119Y019042D02*
X012832Y019042D01*
X012990Y018883D02*
X013119Y018883D01*
X013379Y018883D02*
X014500Y018883D01*
X014549Y019002D02*
X014441Y018742D01*
X014441Y018631D01*
X013379Y018631D01*
X013379Y022121D01*
X014768Y022121D01*
X014744Y022107D01*
X014669Y022049D01*
X014601Y021982D01*
X014543Y021906D01*
X014496Y021824D01*
X014459Y021736D01*
X013379Y021736D01*
X013379Y021578D02*
X015069Y021578D01*
X015069Y021581D02*
X015069Y021421D01*
X014426Y021421D01*
X014434Y021359D01*
X014459Y021267D01*
X014496Y021179D01*
X014543Y021096D01*
X014601Y021021D01*
X014669Y020953D01*
X014744Y020895D01*
X014827Y020847D01*
X014915Y020811D01*
X015007Y020786D01*
X015069Y020778D01*
X015069Y021421D01*
X015229Y021421D01*
X015229Y020778D01*
X015292Y020786D01*
X015384Y020811D01*
X015472Y020847D01*
X015554Y020895D01*
X015630Y020953D01*
X015698Y021021D01*
X015756Y021096D01*
X015803Y021179D01*
X015840Y021267D01*
X015864Y021359D01*
X015873Y021421D01*
X015229Y021421D01*
X015229Y021581D01*
X015873Y021581D01*
X015864Y021643D01*
X015840Y021736D01*
X016919Y021736D01*
X016919Y021578D02*
X015229Y021578D01*
X015229Y021419D02*
X015069Y021419D01*
X015069Y021261D02*
X015229Y021261D01*
X015229Y021102D02*
X015069Y021102D01*
X015069Y020944D02*
X015229Y020944D01*
X015229Y020785D02*
X015069Y020785D01*
X015016Y020785D02*
X013379Y020785D01*
X013379Y020627D02*
X016919Y020627D01*
X016919Y020785D02*
X015283Y020785D01*
X015618Y020944D02*
X016919Y020944D01*
X016919Y021102D02*
X015759Y021102D01*
X015837Y021261D02*
X016919Y021261D01*
X016919Y021419D02*
X015872Y021419D01*
X015840Y021736D02*
X015803Y021824D01*
X015756Y021906D01*
X015698Y021982D01*
X015630Y022049D01*
X015554Y022107D01*
X015531Y022121D01*
X016919Y022121D01*
X016919Y018631D01*
X015858Y018631D01*
X015858Y018742D01*
X015750Y019002D01*
X015551Y019202D01*
X015290Y019309D01*
X015009Y019309D01*
X014748Y019202D01*
X014549Y019002D01*
X014588Y019042D02*
X013379Y019042D01*
X013379Y019200D02*
X014747Y019200D01*
X014441Y018725D02*
X013379Y018725D01*
X013624Y018249D02*
X014529Y018249D01*
X014659Y018091D02*
X013783Y018091D01*
X013941Y017932D02*
X014914Y017932D01*
X015384Y017932D02*
X018531Y017932D01*
X018531Y017957D02*
X018531Y017576D01*
X018801Y017306D01*
X019183Y017306D01*
X019453Y017576D01*
X019453Y017957D01*
X019183Y018227D01*
X018801Y018227D01*
X018531Y017957D01*
X018531Y017774D02*
X014100Y017774D01*
X014258Y017615D02*
X018531Y017615D01*
X018650Y017457D02*
X014417Y017457D01*
X014575Y017298D02*
X019782Y017298D01*
X019793Y017287D02*
X019512Y017568D01*
X019512Y017747D01*
X019972Y017747D01*
X019972Y017787D01*
X019972Y018247D01*
X019793Y018247D01*
X019512Y017965D01*
X019512Y017787D01*
X019972Y017787D01*
X020012Y017787D01*
X020012Y018247D01*
X020191Y018247D01*
X020472Y017965D01*
X020472Y017787D01*
X020012Y017787D01*
X020012Y017747D01*
X020472Y017747D01*
X020472Y017568D01*
X020191Y017287D01*
X020012Y017287D01*
X020012Y017747D01*
X019972Y017747D01*
X019972Y017287D01*
X019793Y017287D01*
X019793Y017247D02*
X019512Y016965D01*
X019512Y016787D01*
X019972Y016787D01*
X019972Y017247D01*
X019793Y017247D01*
X019686Y017140D02*
X019271Y017140D01*
X019183Y017227D02*
X019453Y016957D01*
X019453Y016576D01*
X019183Y016306D01*
X018801Y016306D01*
X018531Y016576D01*
X018531Y016957D01*
X018801Y017227D01*
X019183Y017227D01*
X019333Y017457D02*
X019623Y017457D01*
X019512Y017615D02*
X019453Y017615D01*
X019453Y017774D02*
X019972Y017774D01*
X020012Y017774D02*
X020683Y017774D01*
X020683Y017932D02*
X020472Y017932D01*
X020347Y018091D02*
X020683Y018091D01*
X020683Y018249D02*
X015770Y018249D01*
X015640Y018091D02*
X018664Y018091D01*
X019320Y018091D02*
X019637Y018091D01*
X019512Y017932D02*
X019453Y017932D01*
X019972Y017932D02*
X020012Y017932D01*
X020012Y018091D02*
X019972Y018091D01*
X019972Y017615D02*
X020012Y017615D01*
X020012Y017457D02*
X019972Y017457D01*
X019972Y017298D02*
X020012Y017298D01*
X020012Y017247D02*
X020012Y016787D01*
X019972Y016787D01*
X019972Y016747D01*
X019512Y016747D01*
X019512Y016568D01*
X019793Y016287D01*
X019972Y016287D01*
X019972Y016747D01*
X020012Y016747D01*
X020012Y016787D01*
X020472Y016787D01*
X020472Y016965D01*
X020191Y017247D01*
X020012Y017247D01*
X020012Y017140D02*
X019972Y017140D01*
X019972Y016981D02*
X020012Y016981D01*
X020012Y016823D02*
X019972Y016823D01*
X020012Y016747D02*
X020472Y016747D01*
X020472Y016568D01*
X020191Y016287D01*
X020012Y016287D01*
X020012Y016747D01*
X020012Y016664D02*
X019972Y016664D01*
X019972Y016506D02*
X020012Y016506D01*
X020012Y016347D02*
X019972Y016347D01*
X019733Y016347D02*
X019224Y016347D01*
X019382Y016506D02*
X019574Y016506D01*
X019512Y016664D02*
X019453Y016664D01*
X019453Y016823D02*
X019512Y016823D01*
X019528Y016981D02*
X019429Y016981D01*
X018713Y017140D02*
X014734Y017140D01*
X014892Y016981D02*
X018555Y016981D01*
X018531Y016823D02*
X015051Y016823D01*
X015209Y016664D02*
X018531Y016664D01*
X018602Y016506D02*
X015368Y016506D01*
X015526Y016347D02*
X018760Y016347D01*
X020251Y016347D02*
X020684Y016347D01*
X020684Y016189D02*
X015685Y016189D01*
X015843Y016030D02*
X020684Y016030D01*
X020684Y015872D02*
X016002Y015872D01*
X016160Y015713D02*
X020684Y015713D01*
X020684Y015555D02*
X016319Y015555D01*
X016477Y015396D02*
X020684Y015396D01*
X020684Y015238D02*
X016636Y015238D01*
X016794Y015079D02*
X020684Y015079D01*
X020684Y014921D02*
X016953Y014921D01*
X017111Y014762D02*
X020684Y014762D01*
X020684Y014604D02*
X017270Y014604D01*
X017428Y014445D02*
X020684Y014445D01*
X020685Y014287D02*
X017587Y014287D01*
X017745Y014128D02*
X020685Y014128D01*
X020685Y013970D02*
X017904Y013970D01*
X018062Y013811D02*
X020685Y013811D01*
X020685Y013653D02*
X019893Y013653D01*
X019877Y013663D02*
X019805Y013693D01*
X019728Y013708D01*
X019689Y013708D01*
X019689Y013310D01*
X020087Y013310D01*
X020087Y013349D01*
X020072Y013426D01*
X020042Y013498D01*
X019998Y013564D01*
X019943Y013619D01*
X019877Y013663D01*
X019689Y013653D02*
X019689Y013653D01*
X019689Y013708D02*
X019650Y013708D01*
X019573Y013693D01*
X019500Y013663D01*
X019435Y013619D01*
X019380Y013564D01*
X019336Y013498D01*
X019306Y013426D01*
X019291Y013349D01*
X019291Y013310D01*
X019689Y013310D01*
X019689Y013310D01*
X019689Y013310D01*
X020087Y013310D01*
X020087Y013271D01*
X020072Y013194D01*
X020042Y013121D01*
X019998Y013056D01*
X019943Y013001D01*
X019877Y012957D01*
X019805Y012927D01*
X019728Y012912D01*
X019689Y012912D01*
X019689Y013310D01*
X019689Y013310D01*
X019689Y013708D01*
X019485Y013653D02*
X018221Y013653D01*
X018379Y013494D02*
X019334Y013494D01*
X019291Y013336D02*
X018538Y013336D01*
X018696Y013177D02*
X019313Y013177D01*
X019306Y013194D02*
X019336Y013121D01*
X019380Y013056D01*
X019435Y013001D01*
X019500Y012957D01*
X019573Y012927D01*
X019650Y012912D01*
X019689Y012912D01*
X019689Y013310D01*
X019689Y013310D01*
X019291Y013310D01*
X019291Y013271D01*
X019306Y013194D01*
X019417Y013019D02*
X018855Y013019D01*
X019013Y012860D02*
X020685Y012860D01*
X020685Y012702D02*
X019172Y012702D01*
X019330Y012543D02*
X020685Y012543D01*
X020685Y012385D02*
X019489Y012385D01*
X019647Y012226D02*
X020686Y012226D01*
X020686Y012068D02*
X019806Y012068D01*
X019851Y011909D02*
X020686Y011909D01*
X020686Y011751D02*
X019851Y011751D01*
X019851Y011592D02*
X020686Y011592D01*
X020686Y011434D02*
X019851Y011434D01*
X019851Y011275D02*
X020686Y011275D01*
X020686Y011117D02*
X019851Y011117D01*
X019851Y010958D02*
X020686Y010958D01*
X020686Y010800D02*
X019851Y010800D01*
X019851Y010641D02*
X020686Y010641D01*
X020686Y010483D02*
X019851Y010483D01*
X019851Y010324D02*
X020686Y010324D01*
X020687Y010166D02*
X019851Y010166D01*
X019851Y010007D02*
X020687Y010007D01*
X020687Y009849D02*
X019851Y009849D01*
X019851Y009690D02*
X020687Y009690D01*
X020687Y009532D02*
X019851Y009532D01*
X019851Y009373D02*
X020687Y009373D01*
X020687Y009215D02*
X019851Y009215D01*
X019851Y009056D02*
X020687Y009056D01*
X020687Y008898D02*
X019851Y008898D01*
X019851Y008739D02*
X020687Y008739D01*
X020687Y008581D02*
X019954Y008581D01*
X020052Y008422D02*
X020687Y008422D01*
X020688Y008264D02*
X020068Y008264D01*
X020014Y008105D02*
X020688Y008105D01*
X018698Y006837D02*
X013198Y006837D01*
X012788Y006520D02*
X010888Y006520D01*
X010730Y006362D02*
X012946Y006362D01*
X012629Y006679D02*
X011047Y006679D01*
X011205Y006837D02*
X012471Y006837D01*
X012312Y006996D02*
X011364Y006996D01*
X011522Y007154D02*
X012154Y007154D01*
X011995Y007313D02*
X011681Y007313D01*
X011112Y007471D02*
X009476Y007471D01*
X009523Y007313D02*
X010953Y007313D01*
X010795Y007154D02*
X009523Y007154D01*
X009484Y006996D02*
X010636Y006996D01*
X010478Y006837D02*
X009503Y006837D01*
X009503Y006679D02*
X010319Y006679D01*
X010161Y006520D02*
X009481Y006520D01*
X009503Y006362D02*
X010002Y006362D01*
X009844Y006203D02*
X009503Y006203D01*
X009503Y006045D02*
X009685Y006045D01*
X009527Y005886D02*
X009503Y005886D01*
X009937Y005569D02*
X010406Y005569D01*
X010759Y005595D02*
X010759Y005595D01*
X010413Y006045D02*
X018831Y006045D01*
X018633Y006203D02*
X010571Y006203D01*
X009884Y005411D02*
X009779Y005411D01*
X009639Y005252D02*
X009620Y005252D01*
X009315Y004935D02*
X009303Y004935D01*
X009207Y004777D02*
X009145Y004777D01*
X009110Y004618D02*
X008986Y004618D01*
X009062Y004460D02*
X008828Y004460D01*
X008710Y004301D02*
X009013Y004301D01*
X008972Y004171D02*
X008972Y004171D01*
X008972Y004143D02*
X008598Y004143D01*
X007397Y004935D02*
X002631Y004935D01*
X002631Y004777D02*
X002744Y004777D01*
X002631Y005094D02*
X007238Y005094D01*
X007080Y005252D02*
X002631Y005252D01*
X002631Y005411D02*
X004340Y005411D01*
X004233Y005569D02*
X002631Y005569D01*
X002631Y005728D02*
X004233Y005728D01*
X004253Y005886D02*
X002631Y005886D01*
X002631Y006045D02*
X004411Y006045D01*
X004862Y006203D02*
X002631Y006203D01*
X002631Y006362D02*
X005020Y006362D01*
X005179Y006520D02*
X002631Y006520D01*
X002631Y006679D02*
X005337Y006679D01*
X005496Y006837D02*
X002631Y006837D01*
X002631Y006996D02*
X004330Y006996D01*
X004233Y007154D02*
X002631Y007154D01*
X002631Y007313D02*
X004233Y007313D01*
X004263Y007471D02*
X002631Y007471D01*
X002631Y007630D02*
X004421Y007630D01*
X004885Y007630D02*
X006966Y007630D01*
X007125Y007788D02*
X002631Y007788D01*
X002631Y007947D02*
X007283Y007947D01*
X007442Y008105D02*
X002631Y008105D01*
X002631Y008264D02*
X007600Y008264D01*
X007759Y008422D02*
X002631Y008422D01*
X002604Y008581D02*
X007917Y008581D01*
X008076Y008739D02*
X002446Y008739D01*
X002287Y008898D02*
X008234Y008898D01*
X008393Y009056D02*
X002129Y009056D01*
X001970Y009215D02*
X008551Y009215D01*
X008710Y009373D02*
X001812Y009373D01*
X001653Y009532D02*
X009393Y009532D01*
X009405Y009690D02*
X001495Y009690D01*
X001506Y009849D02*
X009305Y009849D01*
X009275Y010007D02*
X001535Y010007D01*
X001509Y010166D02*
X009302Y010166D01*
X009398Y010324D02*
X001413Y010324D01*
X001411Y010483D02*
X009400Y010483D01*
X009302Y010641D02*
X003129Y010641D01*
X003288Y010800D02*
X009275Y010800D01*
X009304Y010958D02*
X003446Y010958D01*
X003605Y011117D02*
X009403Y011117D01*
X009395Y011275D02*
X003763Y011275D01*
X003922Y011434D02*
X009300Y011434D01*
X009275Y011592D02*
X004080Y011592D01*
X004239Y011751D02*
X009306Y011751D01*
X009408Y011909D02*
X004397Y011909D01*
X004556Y012068D02*
X009390Y012068D01*
X009298Y012226D02*
X004714Y012226D01*
X004873Y012385D02*
X009275Y012385D01*
X009308Y012543D02*
X005031Y012543D01*
X005190Y012702D02*
X009413Y012702D01*
X009385Y012860D02*
X005348Y012860D01*
X005507Y013019D02*
X009296Y013019D01*
X009275Y013177D02*
X005665Y013177D01*
X005824Y013336D02*
X009310Y013336D01*
X009418Y013494D02*
X005982Y013494D01*
X006141Y013653D02*
X009380Y013653D01*
X009294Y013811D02*
X006299Y013811D01*
X006458Y013970D02*
X009275Y013970D01*
X009312Y014128D02*
X006616Y014128D01*
X006775Y014287D02*
X009423Y014287D01*
X009375Y014445D02*
X006933Y014445D01*
X007092Y014604D02*
X009292Y014604D01*
X009275Y014762D02*
X007250Y014762D01*
X007409Y014921D02*
X009314Y014921D01*
X009428Y015079D02*
X007567Y015079D01*
X007726Y015238D02*
X009370Y015238D01*
X009316Y015713D02*
X004534Y015713D01*
X004692Y015872D02*
X009434Y015872D01*
X010039Y015872D02*
X010801Y015872D01*
X010801Y016030D02*
X004851Y016030D01*
X005009Y016189D02*
X010694Y016189D01*
X010536Y016347D02*
X005168Y016347D01*
X005326Y016506D02*
X010377Y016506D01*
X010219Y016664D02*
X005485Y016664D01*
X005643Y016823D02*
X010060Y016823D01*
X010759Y017205D02*
X010759Y017205D01*
X011165Y017298D02*
X014009Y017298D01*
X013851Y017457D02*
X011489Y017457D01*
X011725Y017615D02*
X013692Y017615D01*
X013534Y017774D02*
X011872Y017774D01*
X012020Y017932D02*
X013375Y017932D01*
X013217Y018091D02*
X012097Y018091D01*
X012173Y018249D02*
X013058Y018249D01*
X012900Y018408D02*
X012242Y018408D01*
X012239Y018386D02*
X012239Y018386D01*
X012266Y018566D02*
X012741Y018566D01*
X012583Y018725D02*
X012290Y018725D01*
X012313Y018883D02*
X012424Y018883D01*
X013379Y019359D02*
X016919Y019359D01*
X016919Y019517D02*
X013379Y019517D01*
X013379Y019676D02*
X016919Y019676D01*
X016919Y019834D02*
X013379Y019834D01*
X013379Y019993D02*
X016919Y019993D01*
X016919Y020151D02*
X013379Y020151D01*
X013379Y020310D02*
X016919Y020310D01*
X016919Y020468D02*
X013379Y020468D01*
X013379Y020944D02*
X014681Y020944D01*
X014540Y021102D02*
X013379Y021102D01*
X013379Y021261D02*
X014462Y021261D01*
X014426Y021419D02*
X013379Y021419D01*
X013379Y021895D02*
X014536Y021895D01*
X014459Y021736D02*
X014434Y021643D01*
X014426Y021581D01*
X015069Y021581D01*
X014673Y022053D02*
X013379Y022053D01*
X015625Y022053D02*
X016919Y022053D01*
X016919Y021895D02*
X015762Y021895D01*
X017115Y022370D02*
X017380Y022370D01*
X017502Y022212D02*
X017179Y022212D01*
X017179Y022053D02*
X017540Y022053D01*
X017540Y021895D02*
X017179Y021895D01*
X017179Y021736D02*
X017540Y021736D01*
X017540Y021578D02*
X017179Y021578D01*
X017179Y021419D02*
X017540Y021419D01*
X017540Y021261D02*
X017179Y021261D01*
X017179Y021102D02*
X017540Y021102D01*
X017540Y020944D02*
X017179Y020944D01*
X017179Y020785D02*
X017540Y020785D01*
X017540Y020627D02*
X017179Y020627D01*
X017179Y020468D02*
X017540Y020468D01*
X017540Y020310D02*
X017179Y020310D01*
X017179Y020151D02*
X017540Y020151D01*
X017540Y019993D02*
X017179Y019993D01*
X017179Y019834D02*
X017563Y019834D01*
X017629Y019676D02*
X017179Y019676D01*
X017179Y019517D02*
X017720Y019517D01*
X017651Y019622D02*
X017651Y019622D01*
X017997Y019359D02*
X017179Y019359D01*
X017179Y019200D02*
X020555Y019200D01*
X020657Y019042D02*
X017179Y019042D01*
X017179Y018883D02*
X020682Y018883D01*
X020682Y018725D02*
X017179Y018725D01*
X017179Y018566D02*
X020682Y018566D01*
X020683Y018408D02*
X017140Y018408D01*
X016919Y018725D02*
X015858Y018725D01*
X015799Y018883D02*
X016919Y018883D01*
X016919Y019042D02*
X015711Y019042D01*
X015552Y019200D02*
X016919Y019200D01*
X020202Y017298D02*
X020683Y017298D01*
X020683Y017140D02*
X020298Y017140D01*
X020456Y016981D02*
X020683Y016981D01*
X020683Y016823D02*
X020472Y016823D01*
X020472Y016664D02*
X020683Y016664D01*
X020683Y016506D02*
X020410Y016506D01*
X020361Y017457D02*
X020683Y017457D01*
X020683Y017615D02*
X020472Y017615D01*
X020685Y013494D02*
X020043Y013494D01*
X020087Y013336D02*
X020685Y013336D01*
X020685Y013177D02*
X020065Y013177D01*
X019960Y013019D02*
X020685Y013019D01*
X019689Y013019D02*
X019689Y013019D01*
X019689Y013177D02*
X019689Y013177D01*
X019689Y013336D02*
X019689Y013336D01*
X019689Y013494D02*
X019689Y013494D01*
X011581Y008898D02*
X010062Y008898D01*
X010084Y008739D02*
X010414Y008739D01*
X010303Y008581D02*
X010175Y008581D01*
X010197Y008422D02*
X010267Y008422D01*
X010285Y008264D02*
X010163Y008264D01*
X010057Y008105D02*
X010371Y008105D01*
X010619Y007947D02*
X008606Y007947D01*
X008765Y008105D02*
X009415Y008105D01*
X010165Y009056D02*
X010420Y009056D01*
X010306Y009215D02*
X010197Y009215D01*
X010173Y009373D02*
X010267Y009373D01*
X010283Y009532D02*
X010079Y009532D01*
X010067Y009690D02*
X010365Y009690D01*
X010297Y009849D02*
X010168Y009849D01*
X006307Y007471D02*
X005044Y007471D01*
X004977Y006996D02*
X006299Y006996D01*
X006252Y006362D02*
X005586Y006362D01*
X005428Y006203D02*
X006252Y006203D01*
X006252Y006045D02*
X005269Y006045D01*
X005111Y005886D02*
X006234Y005886D01*
X006234Y005728D02*
X005074Y005728D01*
X005074Y005569D02*
X006234Y005569D01*
X006921Y005411D02*
X004967Y005411D01*
X003910Y004618D02*
X003870Y004618D01*
X003870Y004460D02*
X003910Y004460D01*
X003910Y004301D02*
X003870Y004301D01*
X003870Y004143D02*
X003910Y004143D01*
X002429Y004143D02*
X000577Y004143D01*
X000577Y004301D02*
X002332Y004301D01*
X002429Y004204D02*
X002429Y003647D01*
X002486Y003510D01*
X000954Y003510D01*
X000881Y003517D01*
X000745Y003573D01*
X000641Y003677D01*
X000585Y003813D01*
X000577Y003886D01*
X000577Y007888D01*
X001215Y007250D01*
X001215Y007085D01*
X001416Y006884D01*
X001416Y006074D01*
X001215Y005873D01*
X001215Y005510D01*
X001472Y005253D01*
X001835Y005253D01*
X002092Y005510D01*
X002092Y005873D01*
X001930Y006035D01*
X001930Y006923D01*
X002092Y007085D01*
X002092Y007448D01*
X001835Y007705D01*
X001488Y007705D01*
X001216Y007977D01*
X001259Y007991D01*
X001326Y008025D01*
X001387Y008070D01*
X001441Y008123D01*
X001485Y008184D01*
X001519Y008252D01*
X001543Y008324D01*
X001555Y008398D01*
X001555Y008436D01*
X001555Y008474D01*
X001543Y008548D01*
X001519Y008620D01*
X001485Y008687D01*
X001441Y008749D01*
X001387Y008802D01*
X001340Y008837D01*
X001465Y008962D01*
X001521Y009098D01*
X002230Y008388D01*
X002230Y004402D01*
X002429Y004204D01*
X002429Y003984D02*
X000577Y003984D01*
X000583Y003826D02*
X002429Y003826D01*
X002429Y003667D02*
X000651Y003667D01*
X000577Y004460D02*
X002230Y004460D01*
X002230Y004618D02*
X000577Y004618D01*
X000577Y004777D02*
X002230Y004777D01*
X002230Y004935D02*
X000577Y004935D01*
X000577Y005094D02*
X002230Y005094D01*
X002230Y005252D02*
X000577Y005252D01*
X000577Y005411D02*
X001315Y005411D01*
X001215Y005569D02*
X000577Y005569D01*
X000577Y005728D02*
X001215Y005728D01*
X001228Y005886D02*
X000577Y005886D01*
X000577Y006045D02*
X001386Y006045D01*
X001416Y006203D02*
X000577Y006203D01*
X000577Y006362D02*
X001416Y006362D01*
X001416Y006520D02*
X000577Y006520D01*
X000577Y006679D02*
X001416Y006679D01*
X001416Y006837D02*
X000577Y006837D01*
X000577Y006996D02*
X001304Y006996D01*
X001215Y007154D02*
X000577Y007154D01*
X000577Y007313D02*
X001153Y007313D01*
X000994Y007471D02*
X000577Y007471D01*
X000577Y007630D02*
X000836Y007630D01*
X000677Y007788D02*
X000577Y007788D01*
X001075Y008118D02*
X001075Y008436D01*
X001555Y008436D01*
X001075Y008436D01*
X001075Y008436D01*
X001075Y008763D01*
X001075Y008763D01*
X001075Y008436D01*
X001075Y008436D01*
X001075Y008118D01*
X001075Y008118D01*
X001075Y008264D02*
X001075Y008264D01*
X001075Y008422D02*
X001075Y008422D01*
X001075Y008436D02*
X001075Y008436D01*
X000854Y008436D01*
X000854Y008436D01*
X001075Y008436D01*
X001075Y008436D01*
X001075Y008581D02*
X001075Y008581D01*
X001075Y008739D02*
X001075Y008739D01*
X001400Y008898D02*
X001721Y008898D01*
X001563Y009056D02*
X001504Y009056D01*
X001448Y008739D02*
X001880Y008739D01*
X002038Y008581D02*
X001532Y008581D01*
X001555Y008422D02*
X002197Y008422D01*
X002230Y008264D02*
X001523Y008264D01*
X001423Y008105D02*
X002230Y008105D01*
X002230Y007947D02*
X001246Y007947D01*
X001405Y007788D02*
X002230Y007788D01*
X002230Y007630D02*
X001910Y007630D01*
X002069Y007471D02*
X002230Y007471D01*
X002230Y007313D02*
X002092Y007313D01*
X002092Y007154D02*
X002230Y007154D01*
X002230Y006996D02*
X002002Y006996D01*
X001930Y006837D02*
X002230Y006837D01*
X002230Y006679D02*
X001930Y006679D01*
X001930Y006520D02*
X002230Y006520D01*
X002230Y006362D02*
X001930Y006362D01*
X001930Y006203D02*
X002230Y006203D01*
X002230Y006045D02*
X001930Y006045D01*
X002079Y005886D02*
X002230Y005886D01*
X002230Y005728D02*
X002092Y005728D01*
X002092Y005569D02*
X002230Y005569D01*
X002230Y005411D02*
X001992Y005411D01*
X001408Y011117D02*
X003039Y011117D01*
X003197Y011275D02*
X001416Y011275D01*
X001510Y011434D02*
X003356Y011434D01*
X003514Y011592D02*
X001535Y011592D01*
X001505Y011751D02*
X003673Y011751D01*
X003831Y011909D02*
X001403Y011909D01*
X001421Y012068D02*
X003990Y012068D01*
X004148Y012226D02*
X001512Y012226D01*
X001535Y012385D02*
X004307Y012385D01*
X004465Y012543D02*
X001503Y012543D01*
X001522Y012702D02*
X004624Y012702D01*
X004782Y012860D02*
X001681Y012860D01*
X001839Y013019D02*
X004941Y013019D01*
X005099Y013177D02*
X001998Y013177D01*
X002156Y013336D02*
X005258Y013336D01*
X005416Y013494D02*
X002315Y013494D01*
X002473Y013653D02*
X005575Y013653D01*
X005733Y013811D02*
X002632Y013811D01*
X002790Y013970D02*
X005892Y013970D01*
X006050Y014128D02*
X002949Y014128D01*
X003107Y014287D02*
X006209Y014287D01*
X006367Y014445D02*
X003266Y014445D01*
X003424Y014604D02*
X006526Y014604D01*
X006684Y014762D02*
X003583Y014762D01*
X003741Y014921D02*
X006843Y014921D01*
X007001Y015079D02*
X003900Y015079D01*
X004058Y015238D02*
X007160Y015238D01*
X007318Y015396D02*
X004217Y015396D01*
X004375Y015555D02*
X007477Y015555D01*
X005711Y017457D02*
X004683Y017457D01*
X004841Y017615D02*
X005870Y017615D01*
X006028Y017774D02*
X005000Y017774D01*
X005158Y017932D02*
X006097Y017932D01*
X006097Y017842D02*
X001527Y013272D01*
X001465Y013421D01*
X001336Y013551D01*
X001328Y013554D01*
X001336Y013557D01*
X001465Y013687D01*
X001535Y013856D01*
X001535Y014039D01*
X001465Y014209D01*
X001450Y014224D01*
X005344Y018117D01*
X005461Y018234D01*
X005461Y018546D01*
X005552Y018584D01*
X005682Y018714D01*
X005752Y018883D01*
X005830Y018883D02*
X005901Y018714D01*
X006030Y018584D01*
X006097Y018556D01*
X006097Y017842D01*
X006097Y018091D02*
X005317Y018091D01*
X005461Y018249D02*
X006097Y018249D01*
X006097Y018408D02*
X005461Y018408D01*
X005509Y018566D02*
X006073Y018566D01*
X005896Y018725D02*
X005686Y018725D01*
X005752Y019042D02*
X005830Y019042D01*
X005830Y019200D02*
X005752Y019200D01*
X005752Y019359D02*
X005830Y019359D01*
X005830Y019517D02*
X005752Y019517D01*
X005748Y019676D02*
X005834Y019676D01*
X005900Y019834D02*
X005682Y019834D01*
X005486Y019993D02*
X006097Y019993D01*
X006097Y020151D02*
X003727Y020151D01*
X003727Y019993D02*
X004097Y019993D01*
X003900Y019834D02*
X003712Y019834D01*
X003646Y019676D02*
X003834Y019676D01*
X003830Y019517D02*
X003547Y019517D01*
X003343Y019359D02*
X003830Y019359D01*
X003830Y019200D02*
X000731Y019200D01*
X000611Y019042D02*
X003830Y019042D01*
X003830Y018883D02*
X003901Y018714D01*
X004030Y018584D01*
X004064Y018570D01*
X004064Y018161D01*
X002533Y016630D01*
X002533Y016846D01*
X002276Y017103D01*
X001913Y017103D01*
X001656Y016846D01*
X001656Y016483D01*
X001662Y016477D01*
X001181Y015996D01*
X001170Y016001D01*
X000979Y016001D01*
X000804Y015928D01*
X000669Y015794D01*
X000596Y015618D01*
X000596Y015427D01*
X000624Y015360D01*
X000577Y015313D01*
X000577Y018907D01*
X000577Y018725D02*
X003896Y018725D01*
X004064Y018566D02*
X000577Y018566D01*
X000577Y018408D02*
X004064Y018408D01*
X004064Y018249D02*
X000577Y018249D01*
X000577Y018091D02*
X003994Y018091D01*
X003835Y017932D02*
X000577Y017932D01*
X000577Y017774D02*
X003677Y017774D01*
X003518Y017615D02*
X000577Y017615D01*
X000577Y017457D02*
X003360Y017457D01*
X003201Y017298D02*
X000577Y017298D01*
X000577Y017140D02*
X003043Y017140D01*
X002884Y016981D02*
X002398Y016981D01*
X002533Y016823D02*
X002726Y016823D01*
X002567Y016664D02*
X002533Y016664D01*
X002974Y016506D02*
X003166Y016506D01*
X003133Y016664D02*
X003324Y016664D01*
X003291Y016823D02*
X003483Y016823D01*
X003450Y016981D02*
X003641Y016981D01*
X003608Y017140D02*
X003800Y017140D01*
X003767Y017298D02*
X003958Y017298D01*
X003925Y017457D02*
X004117Y017457D01*
X004084Y017615D02*
X004275Y017615D01*
X004242Y017774D02*
X004434Y017774D01*
X004347Y017878D02*
X004464Y017995D01*
X004464Y018547D01*
X004552Y018584D01*
X004682Y018714D01*
X004752Y018883D01*
X004830Y018883D02*
X004901Y018714D01*
X005030Y018584D01*
X005061Y018571D01*
X005061Y018400D01*
X001521Y014861D01*
X001465Y014996D01*
X004347Y017878D01*
X004401Y017932D02*
X004592Y017932D01*
X004464Y018091D02*
X004751Y018091D01*
X004909Y018249D02*
X004464Y018249D01*
X004464Y018408D02*
X005061Y018408D01*
X005061Y018566D02*
X004509Y018566D01*
X004686Y018725D02*
X004896Y018725D01*
X004830Y019042D02*
X004752Y019042D01*
X004752Y019200D02*
X004830Y019200D01*
X004830Y019359D02*
X004752Y019359D01*
X004752Y019517D02*
X004830Y019517D01*
X004834Y019676D02*
X004748Y019676D01*
X004682Y019834D02*
X004900Y019834D01*
X005097Y019993D02*
X004486Y019993D01*
X003727Y020310D02*
X006097Y020310D01*
X006097Y020468D02*
X003727Y020468D01*
X003727Y020627D02*
X006097Y020627D01*
X006097Y020785D02*
X003727Y020785D01*
X003727Y020944D02*
X006097Y020944D01*
X006208Y021102D02*
X003727Y021102D01*
X003727Y021261D02*
X006366Y021261D01*
X006525Y021419D02*
X003727Y021419D01*
X003727Y021578D02*
X006683Y021578D01*
X006842Y021736D02*
X003727Y021736D01*
X006497Y020785D02*
X006779Y020785D01*
X006751Y020944D02*
X006615Y020944D01*
X006497Y020627D02*
X006863Y020627D01*
X007054Y020468D02*
X006497Y020468D01*
X006497Y020310D02*
X008130Y020310D01*
X008101Y020468D02*
X007548Y020468D01*
X007739Y020627D02*
X007883Y020627D01*
X008530Y020468D02*
X010131Y020468D01*
X010260Y020519D02*
X010260Y020519D01*
X009761Y020310D02*
X008530Y020310D01*
X008530Y020151D02*
X009562Y020151D01*
X009402Y020023D02*
X009402Y020023D01*
X009402Y020023D01*
X009381Y019993D02*
X008530Y019993D01*
X008530Y019834D02*
X009273Y019834D01*
X009165Y019676D02*
X008530Y019676D01*
X008530Y019517D02*
X009091Y019517D01*
X009043Y019359D02*
X008530Y019359D01*
X008530Y019200D02*
X008994Y019200D01*
X008972Y019042D02*
X008530Y019042D01*
X008565Y018883D02*
X008972Y018883D01*
X008972Y018725D02*
X008724Y018725D01*
X008882Y018566D02*
X008992Y018566D01*
X009041Y018408D02*
X009041Y018408D01*
X010156Y015713D02*
X010801Y015713D01*
X010801Y015555D02*
X010197Y015555D01*
X010182Y015396D02*
X010801Y015396D01*
X010801Y015238D02*
X010103Y015238D01*
X010044Y015079D02*
X010801Y015079D01*
X010801Y014921D02*
X010158Y014921D01*
X010197Y014762D02*
X010437Y014762D01*
X010313Y014604D02*
X010180Y014604D01*
X010133Y014445D02*
X010267Y014445D01*
X010483Y013970D02*
X010564Y013970D01*
X005553Y017298D02*
X004524Y017298D01*
X004366Y017140D02*
X005394Y017140D01*
X005236Y016981D02*
X004207Y016981D01*
X004049Y016823D02*
X005077Y016823D01*
X004919Y016664D02*
X003890Y016664D01*
X003732Y016506D02*
X004760Y016506D01*
X004602Y016347D02*
X003573Y016347D01*
X003415Y016189D02*
X004443Y016189D01*
X004285Y016030D02*
X003256Y016030D01*
X003098Y015872D02*
X004126Y015872D01*
X003968Y015713D02*
X002939Y015713D01*
X002781Y015555D02*
X003809Y015555D01*
X003651Y015396D02*
X002622Y015396D01*
X002464Y015238D02*
X003492Y015238D01*
X003334Y015079D02*
X002305Y015079D01*
X002147Y014921D02*
X003175Y014921D01*
X003017Y014762D02*
X001988Y014762D01*
X001830Y014604D02*
X002858Y014604D01*
X002700Y014445D02*
X001671Y014445D01*
X001513Y014287D02*
X002541Y014287D01*
X002383Y014128D02*
X001499Y014128D01*
X001535Y013970D02*
X002224Y013970D01*
X002066Y013811D02*
X001517Y013811D01*
X001431Y013653D02*
X001907Y013653D01*
X001749Y013494D02*
X001392Y013494D01*
X001501Y013336D02*
X001590Y013336D01*
X001581Y014921D02*
X001496Y014921D01*
X001465Y014996D02*
X001465Y014996D01*
X001548Y015079D02*
X001739Y015079D01*
X001706Y015238D02*
X001898Y015238D01*
X001865Y015396D02*
X002056Y015396D01*
X002023Y015555D02*
X002215Y015555D01*
X002182Y015713D02*
X002373Y015713D01*
X002340Y015872D02*
X002532Y015872D01*
X002499Y016030D02*
X002690Y016030D01*
X002657Y016189D02*
X002849Y016189D01*
X002816Y016347D02*
X003007Y016347D01*
X001656Y016506D02*
X001534Y016506D01*
X001534Y016482D02*
X001534Y016664D01*
X001656Y016664D01*
X001534Y016664D02*
X001534Y016847D01*
X001277Y017104D01*
X001094Y017104D01*
X000912Y017104D01*
X000654Y016847D01*
X000654Y016664D01*
X000577Y016664D01*
X000654Y016664D02*
X001094Y016664D01*
X001094Y016664D01*
X000654Y016664D01*
X000654Y016482D01*
X000912Y016224D01*
X001094Y016224D01*
X001094Y016664D01*
X001094Y016664D01*
X001094Y016664D01*
X001094Y016224D01*
X001277Y016224D01*
X001534Y016482D01*
X001532Y016347D02*
X001399Y016347D01*
X001373Y016189D02*
X000577Y016189D01*
X000577Y016347D02*
X000789Y016347D01*
X000654Y016506D02*
X000577Y016506D01*
X000577Y016823D02*
X000654Y016823D01*
X000577Y016981D02*
X000789Y016981D01*
X001094Y016981D02*
X001094Y016981D01*
X001094Y017104D02*
X001094Y016664D01*
X001094Y016664D01*
X001094Y016664D01*
X001534Y016664D01*
X001094Y016664D01*
X001094Y017104D01*
X001094Y016823D02*
X001094Y016823D01*
X001094Y016506D02*
X001094Y016506D01*
X001094Y016347D02*
X001094Y016347D01*
X001215Y016030D02*
X000577Y016030D01*
X000577Y015872D02*
X000747Y015872D01*
X000636Y015713D02*
X000577Y015713D01*
X000577Y015555D02*
X000596Y015555D01*
X000609Y015396D02*
X000577Y015396D01*
X001534Y016823D02*
X001656Y016823D01*
X001791Y016981D02*
X001400Y016981D01*
X010759Y002245D02*
X010759Y002245D01*
X010252Y001765D02*
X008537Y001765D01*
X011506Y001131D02*
X013119Y001131D01*
X013119Y000973D02*
X011613Y000973D01*
X011613Y000814D02*
X017540Y000814D01*
X017540Y000973D02*
X017179Y000973D01*
X017179Y001131D02*
X017540Y001131D01*
X017540Y001290D02*
X017179Y001290D01*
X017179Y001448D02*
X017540Y001448D01*
X017540Y001607D02*
X017179Y001607D01*
X017179Y001765D02*
X017540Y001765D01*
X017540Y001924D02*
X017179Y001924D01*
X017179Y002082D02*
X017540Y002082D01*
X017540Y002241D02*
X017179Y002241D01*
X017179Y002399D02*
X017540Y002399D01*
X017540Y002558D02*
X017179Y002558D01*
X017179Y002716D02*
X017540Y002716D01*
X017540Y002875D02*
X017179Y002875D01*
X017179Y003033D02*
X017587Y003033D01*
X017652Y003190D02*
X017652Y003190D01*
X017654Y003192D02*
X017179Y003192D01*
X017179Y003350D02*
X017812Y003350D01*
X017860Y003397D02*
X017860Y003397D01*
X018128Y003509D02*
X017179Y003509D01*
X017530Y000656D02*
X011609Y000656D01*
X011451Y000497D02*
X017446Y000497D01*
D22*
X019689Y004511D03*
X017327Y008841D03*
X017327Y011991D03*
X012602Y011991D03*
X012602Y014747D03*
X008271Y014353D03*
X007484Y012385D03*
X007484Y009235D03*
X008271Y007267D03*
X009846Y007267D03*
X012602Y008841D03*
X012602Y005692D03*
X005909Y005298D03*
X004334Y002542D03*
X000988Y006440D03*
X002760Y009629D03*
X002366Y012385D03*
X003547Y013566D03*
X007484Y017503D03*
X008271Y016322D03*
X012602Y020259D03*
X012602Y021440D03*
X009453Y021046D03*
X004728Y021440D03*
X001579Y018684D03*
D23*
X002094Y016664D02*
X002072Y016643D01*
X002072Y016524D01*
X001075Y015527D01*
X001075Y015523D01*
X001075Y015447D01*
X000597Y014969D01*
X000597Y008232D01*
X001593Y007236D01*
X001653Y007267D01*
X001673Y007236D01*
X001673Y005721D01*
X001653Y005692D01*
X006848Y005729D02*
X006855Y005721D01*
X006975Y005721D01*
X008250Y004445D01*
X008271Y004436D01*
X008330Y004485D01*
X008489Y004485D01*
X011838Y007834D01*
X013153Y006518D01*
X019013Y006518D01*
X019039Y006487D01*
X011838Y007834D02*
X011838Y012577D01*
X011041Y013374D01*
X011027Y013400D01*
D24*
X010283Y014012D02*
X010283Y010146D01*
X011001Y009428D01*
X011027Y009400D01*
X009736Y009223D02*
X009725Y009189D01*
X008808Y009189D01*
X006855Y007236D01*
X006848Y007229D01*
X006815Y007236D01*
X004663Y007236D01*
X004653Y007267D01*
X005659Y006717D02*
X004663Y005721D01*
X004653Y005692D01*
X005659Y006717D02*
X006815Y006717D01*
X006848Y006729D01*
X006855Y006757D01*
X007134Y006757D01*
X008808Y008431D01*
X009725Y008431D01*
X009736Y008436D01*
X010283Y014012D02*
X009765Y014530D01*
X009765Y014730D01*
X009736Y014735D01*
X009725Y015487D02*
X009736Y015523D01*
X009725Y015487D02*
X007692Y015487D01*
X003028Y010823D01*
X001075Y010823D01*
X001075Y010798D01*
X001075Y010011D02*
X001075Y009986D01*
X001075Y009827D01*
X002430Y008471D01*
X002430Y004485D01*
X002869Y004047D01*
X002890Y004038D01*
X008271Y001436D02*
X008290Y001456D01*
X010522Y001456D01*
X010642Y001575D01*
X010673Y001591D01*
X019651Y008312D02*
X019689Y008310D01*
X019651Y008312D02*
X019651Y011939D01*
X012197Y019394D01*
X012197Y019673D01*
X009645Y022224D01*
X007613Y022224D01*
X006297Y020908D01*
X006297Y019314D01*
X006291Y019274D01*
X006297Y019234D01*
X006297Y017759D01*
X001075Y012537D01*
X001075Y012378D01*
X001075Y012373D01*
X001075Y013948D02*
X001075Y013972D01*
X001075Y014132D01*
X005261Y018317D01*
X005261Y019274D01*
X005291Y019274D01*
X004291Y019274D02*
X004264Y019274D01*
X004264Y018078D01*
X001075Y014889D01*
X001075Y014770D01*
X001075Y014735D01*
X008330Y018836D02*
X008330Y020948D01*
X008301Y020960D01*
X008330Y018836D02*
X011001Y016165D01*
X011001Y014411D01*
X011027Y014400D01*
M02*
