%
M48
M72
T01C0.0236
T02C0.0315
T03C0.0320
T04C0.0400
T05C0.0730
T06C0.1417
%
T01
X4334Y2542
X5909Y5298
X8271Y7267
X9846Y7267
X7484Y9235
X7484Y12385
X8271Y14353
X8271Y16322
X7484Y17503
X9453Y21046
X12602Y21440
X12602Y20259
X12602Y14747
X12602Y11991
X12602Y8841
X12602Y5692
X2760Y9629
X2366Y12385
X3547Y13566
X1579Y18684
X4728Y21440
X17327Y11991
X19689Y13310
X17327Y8841
X19689Y8310
X19689Y4511
X988Y6440
T02
X1075Y8436
X1075Y9223
X1075Y10011
X1075Y10798
X1075Y11586
X1075Y12373
X1075Y13160
X1075Y13948
X1075Y14735
X1075Y15523
X9736Y15523
X9736Y14735
X9736Y13948
X9736Y13160
X9736Y12373
X9736Y11586
X9736Y10798
X9736Y10011
X9736Y9223
X9736Y8436
T03
X1653Y5692
X1653Y7267
X4653Y7267
X4653Y5692
X8271Y4436
X10673Y1591
X10173Y841
X11173Y841
X8271Y1436
X19039Y6487
X20039Y6487
X8301Y20960
X7801Y21710
X7301Y20960
X2094Y16664
X1094Y16664
T04
X2890Y4038
X3890Y4038
X11027Y8400
X11027Y9400
X11027Y10400
X11027Y11400
X11027Y12400
X11027Y13400
X11027Y14400
X7291Y19274
X6291Y19274
X5291Y19274
X4291Y19274
X18992Y17767
X18992Y16767
X19992Y16767
X19992Y17767
T05
X15149Y4601
X15149Y1701
X15149Y18601
X15149Y21501
T06
X10634Y3920
X10634Y18881
M30
