G75*
%MOIN*%
%OFA0B0*%
%FSLAX24Y24*%
%IPPOS*%
%LPD*%
%AMOC8*
5,1,8,0,0,1.08239X$1,22.5*
%
%ADD10C,0.0000*%
%ADD11C,0.0740*%
%ADD12OC8,0.0520*%
%ADD13C,0.1095*%
%ADD14OC8,0.0620*%
%ADD15C,0.0620*%
%ADD16C,0.0600*%
%ADD17C,0.0436*%
%ADD18OC8,0.0600*%
%ADD19C,0.0600*%
%ADD20C,0.0160*%
%ADD21R,0.0356X0.0356*%
%ADD22C,0.0157*%
%ADD23C,0.0079*%
D10*
X003547Y002773D02*
X003545Y002819D01*
X003539Y002865D01*
X003530Y002910D01*
X003517Y002954D01*
X003500Y002997D01*
X003480Y003038D01*
X003456Y003078D01*
X003430Y003115D01*
X003400Y003150D01*
X003367Y003183D01*
X003332Y003213D01*
X003295Y003239D01*
X003255Y003263D01*
X003214Y003283D01*
X003171Y003300D01*
X003127Y003313D01*
X003082Y003322D01*
X003036Y003328D01*
X002990Y003330D01*
X000954Y003330D01*
X000954Y003329D02*
X000908Y003331D01*
X000862Y003337D01*
X000817Y003346D01*
X000773Y003359D01*
X000730Y003376D01*
X000689Y003396D01*
X000649Y003420D01*
X000612Y003446D01*
X000577Y003476D01*
X000544Y003509D01*
X000514Y003544D01*
X000488Y003581D01*
X000464Y003621D01*
X000444Y003662D01*
X000427Y003705D01*
X000414Y003749D01*
X000405Y003794D01*
X000399Y003840D01*
X000397Y003886D01*
X000397Y018907D01*
X000398Y018907D02*
X000400Y018952D01*
X000405Y018996D01*
X000415Y019040D01*
X000427Y019082D01*
X000443Y019124D01*
X000463Y019164D01*
X000486Y019202D01*
X000512Y019239D01*
X000541Y019273D01*
X000572Y019304D01*
X000606Y019333D01*
X000643Y019359D01*
X000681Y019382D01*
X000721Y019402D01*
X000763Y019418D01*
X000805Y019430D01*
X000849Y019440D01*
X000893Y019445D01*
X000938Y019447D01*
X000938Y019448D02*
X002973Y019448D01*
X002973Y019447D02*
X003018Y019449D01*
X003063Y019454D01*
X003107Y019463D01*
X003150Y019475D01*
X003193Y019491D01*
X003234Y019510D01*
X003273Y019532D01*
X003310Y019557D01*
X003346Y019585D01*
X003379Y019615D01*
X003409Y019648D01*
X003437Y019684D01*
X003462Y019721D01*
X003484Y019760D01*
X003503Y019801D01*
X003519Y019844D01*
X003531Y019887D01*
X003540Y019931D01*
X003545Y019976D01*
X003547Y020021D01*
X003547Y022064D01*
X003549Y022110D01*
X003555Y022156D01*
X003564Y022201D01*
X003577Y022245D01*
X003594Y022288D01*
X003614Y022329D01*
X003638Y022369D01*
X003664Y022406D01*
X003694Y022441D01*
X003727Y022474D01*
X003762Y022504D01*
X003799Y022530D01*
X003839Y022554D01*
X003880Y022574D01*
X003923Y022591D01*
X003967Y022604D01*
X004012Y022613D01*
X004058Y022619D01*
X004104Y022621D01*
X017164Y022621D01*
X017210Y022619D01*
X017256Y022613D01*
X017301Y022604D01*
X017345Y022591D01*
X017388Y022574D01*
X017429Y022554D01*
X017469Y022530D01*
X017506Y022504D01*
X017541Y022474D01*
X017574Y022441D01*
X017604Y022406D01*
X017630Y022369D01*
X017654Y022329D01*
X017674Y022288D01*
X017691Y022245D01*
X017704Y022201D01*
X017713Y022156D01*
X017719Y022110D01*
X017721Y022064D01*
X017720Y022064D02*
X017720Y020033D01*
X017722Y019988D01*
X017727Y019943D01*
X017737Y019899D01*
X017750Y019856D01*
X017766Y019814D01*
X017786Y019773D01*
X017809Y019734D01*
X017835Y019698D01*
X017864Y019663D01*
X017896Y019631D01*
X017931Y019602D01*
X017967Y019576D01*
X018006Y019553D01*
X018047Y019533D01*
X018089Y019517D01*
X018132Y019504D01*
X018176Y019494D01*
X018221Y019489D01*
X018266Y019487D01*
X020300Y019487D01*
X020299Y019487D02*
X020346Y019485D01*
X020392Y019479D01*
X020437Y019470D01*
X020482Y019456D01*
X020525Y019439D01*
X020567Y019419D01*
X020607Y019395D01*
X020645Y019368D01*
X020680Y019338D01*
X020713Y019305D01*
X020743Y019270D01*
X020770Y019232D01*
X020794Y019192D01*
X020815Y019150D01*
X020832Y019107D01*
X020845Y019062D01*
X020854Y019017D01*
X020860Y018970D01*
X020862Y018924D01*
X020870Y003888D01*
X020870Y003887D02*
X020868Y003841D01*
X020863Y003795D01*
X020853Y003750D01*
X020840Y003706D01*
X020823Y003663D01*
X020803Y003622D01*
X020780Y003582D01*
X020753Y003544D01*
X020723Y003509D01*
X020691Y003477D01*
X020656Y003447D01*
X020618Y003420D01*
X020578Y003396D01*
X020537Y003376D01*
X020494Y003359D01*
X020450Y003346D01*
X020405Y003337D01*
X020359Y003331D01*
X020313Y003329D01*
X020313Y003330D02*
X018277Y003330D01*
X018231Y003328D01*
X018185Y003322D01*
X018140Y003313D01*
X018096Y003300D01*
X018053Y003283D01*
X018012Y003263D01*
X017972Y003239D01*
X017935Y003213D01*
X017900Y003183D01*
X017867Y003150D01*
X017837Y003115D01*
X017811Y003078D01*
X017787Y003038D01*
X017767Y002997D01*
X017750Y002954D01*
X017737Y002910D01*
X017728Y002865D01*
X017722Y002819D01*
X017720Y002773D01*
X017720Y000737D01*
X017721Y000737D02*
X017719Y000691D01*
X017713Y000645D01*
X017704Y000600D01*
X017691Y000556D01*
X017674Y000513D01*
X017654Y000472D01*
X017630Y000432D01*
X017604Y000395D01*
X017574Y000360D01*
X017541Y000327D01*
X017506Y000297D01*
X017469Y000271D01*
X017429Y000247D01*
X017388Y000227D01*
X017345Y000210D01*
X017301Y000197D01*
X017256Y000188D01*
X017210Y000182D01*
X017164Y000180D01*
X004104Y000180D01*
X004058Y000182D01*
X004012Y000188D01*
X003967Y000197D01*
X003923Y000210D01*
X003880Y000227D01*
X003839Y000247D01*
X003799Y000271D01*
X003762Y000297D01*
X003727Y000327D01*
X003694Y000360D01*
X003664Y000395D01*
X003638Y000432D01*
X003614Y000472D01*
X003594Y000513D01*
X003577Y000556D01*
X003564Y000600D01*
X003555Y000645D01*
X003549Y000691D01*
X003547Y000737D01*
X003547Y002773D01*
X009925Y003920D02*
X009927Y003973D01*
X009933Y004026D01*
X009943Y004078D01*
X009956Y004129D01*
X009974Y004179D01*
X009995Y004228D01*
X010020Y004275D01*
X010048Y004319D01*
X010080Y004362D01*
X010114Y004402D01*
X010152Y004440D01*
X010192Y004474D01*
X010235Y004506D01*
X010280Y004534D01*
X010326Y004559D01*
X010375Y004580D01*
X010425Y004598D01*
X010476Y004611D01*
X010528Y004621D01*
X010581Y004627D01*
X010634Y004629D01*
X010687Y004627D01*
X010740Y004621D01*
X010792Y004611D01*
X010843Y004598D01*
X010893Y004580D01*
X010942Y004559D01*
X010989Y004534D01*
X011033Y004506D01*
X011076Y004474D01*
X011116Y004440D01*
X011154Y004402D01*
X011188Y004362D01*
X011220Y004319D01*
X011248Y004274D01*
X011273Y004228D01*
X011294Y004179D01*
X011312Y004129D01*
X011325Y004078D01*
X011335Y004026D01*
X011341Y003973D01*
X011343Y003920D01*
X011341Y003867D01*
X011335Y003814D01*
X011325Y003762D01*
X011312Y003711D01*
X011294Y003661D01*
X011273Y003612D01*
X011248Y003565D01*
X011220Y003521D01*
X011188Y003478D01*
X011154Y003438D01*
X011116Y003400D01*
X011076Y003366D01*
X011033Y003334D01*
X010988Y003306D01*
X010942Y003281D01*
X010893Y003260D01*
X010843Y003242D01*
X010792Y003229D01*
X010740Y003219D01*
X010687Y003213D01*
X010634Y003211D01*
X010581Y003213D01*
X010528Y003219D01*
X010476Y003229D01*
X010425Y003242D01*
X010375Y003260D01*
X010326Y003281D01*
X010279Y003306D01*
X010235Y003334D01*
X010192Y003366D01*
X010152Y003400D01*
X010114Y003438D01*
X010080Y003478D01*
X010048Y003521D01*
X010020Y003566D01*
X009995Y003612D01*
X009974Y003661D01*
X009956Y003711D01*
X009943Y003762D01*
X009933Y003814D01*
X009927Y003867D01*
X009925Y003920D01*
X009925Y018881D02*
X009927Y018934D01*
X009933Y018987D01*
X009943Y019039D01*
X009956Y019090D01*
X009974Y019140D01*
X009995Y019189D01*
X010020Y019236D01*
X010048Y019280D01*
X010080Y019323D01*
X010114Y019363D01*
X010152Y019401D01*
X010192Y019435D01*
X010235Y019467D01*
X010280Y019495D01*
X010326Y019520D01*
X010375Y019541D01*
X010425Y019559D01*
X010476Y019572D01*
X010528Y019582D01*
X010581Y019588D01*
X010634Y019590D01*
X010687Y019588D01*
X010740Y019582D01*
X010792Y019572D01*
X010843Y019559D01*
X010893Y019541D01*
X010942Y019520D01*
X010989Y019495D01*
X011033Y019467D01*
X011076Y019435D01*
X011116Y019401D01*
X011154Y019363D01*
X011188Y019323D01*
X011220Y019280D01*
X011248Y019235D01*
X011273Y019189D01*
X011294Y019140D01*
X011312Y019090D01*
X011325Y019039D01*
X011335Y018987D01*
X011341Y018934D01*
X011343Y018881D01*
X011341Y018828D01*
X011335Y018775D01*
X011325Y018723D01*
X011312Y018672D01*
X011294Y018622D01*
X011273Y018573D01*
X011248Y018526D01*
X011220Y018482D01*
X011188Y018439D01*
X011154Y018399D01*
X011116Y018361D01*
X011076Y018327D01*
X011033Y018295D01*
X010988Y018267D01*
X010942Y018242D01*
X010893Y018221D01*
X010843Y018203D01*
X010792Y018190D01*
X010740Y018180D01*
X010687Y018174D01*
X010634Y018172D01*
X010581Y018174D01*
X010528Y018180D01*
X010476Y018190D01*
X010425Y018203D01*
X010375Y018221D01*
X010326Y018242D01*
X010279Y018267D01*
X010235Y018295D01*
X010192Y018327D01*
X010152Y018361D01*
X010114Y018399D01*
X010080Y018439D01*
X010048Y018482D01*
X010020Y018527D01*
X009995Y018573D01*
X009974Y018622D01*
X009956Y018672D01*
X009943Y018723D01*
X009933Y018775D01*
X009927Y018828D01*
X009925Y018881D01*
D11*
X008301Y020960D03*
X007801Y021710D03*
X007301Y020960D03*
D12*
X002094Y016664D03*
X001094Y016664D03*
X001653Y007267D03*
X001653Y005692D03*
X004653Y005692D03*
X004653Y007267D03*
X008271Y004436D03*
X008271Y001436D03*
X010173Y000841D03*
X010673Y001591D03*
X011173Y000841D03*
D13*
X015149Y001701D03*
X015149Y004601D03*
X015149Y018601D03*
X015149Y021501D03*
D14*
X020039Y006487D03*
D15*
X019039Y006487D03*
D16*
X009736Y008436D03*
X009736Y009223D03*
X009736Y010011D03*
X009736Y010798D03*
X009736Y011586D03*
X009736Y012373D03*
X009736Y013160D03*
X009736Y013948D03*
X009736Y014735D03*
X009736Y015523D03*
X001075Y015523D03*
X001075Y014735D03*
X001075Y013948D03*
X001075Y013160D03*
X001075Y012373D03*
X001075Y011586D03*
X001075Y010798D03*
X001075Y010011D03*
X001075Y009223D03*
X001075Y008436D03*
D17*
X019689Y008310D03*
X019689Y013310D03*
D18*
X019992Y016767D03*
X019992Y017767D03*
X018992Y017767D03*
X018992Y016767D03*
D19*
X011327Y014400D02*
X010727Y014400D01*
X010727Y013400D02*
X011327Y013400D01*
X011327Y012400D02*
X010727Y012400D01*
X010727Y011400D02*
X011327Y011400D01*
X011327Y010400D02*
X010727Y010400D01*
X010727Y009400D02*
X011327Y009400D01*
X011327Y008400D02*
X010727Y008400D01*
X003890Y004338D02*
X003890Y003738D01*
X002890Y003738D02*
X002890Y004338D01*
X004291Y018974D02*
X004291Y019574D01*
X005291Y019574D02*
X005291Y018974D01*
X006291Y018974D02*
X006291Y019574D01*
X007291Y019574D02*
X007291Y018974D01*
D20*
X007271Y019042D02*
X007311Y019042D01*
X007311Y019200D02*
X007271Y019200D01*
X007271Y019254D02*
X007311Y019254D01*
X007311Y018494D01*
X007329Y018494D01*
X007404Y018506D01*
X007475Y018530D01*
X007543Y018564D01*
X007604Y018608D01*
X007657Y018662D01*
X007702Y018723D01*
X007736Y018790D01*
X007759Y018862D01*
X007771Y018937D01*
X007771Y019254D01*
X007311Y019254D01*
X007311Y019294D01*
X007771Y019294D01*
X007771Y019612D01*
X007759Y019687D01*
X007736Y019759D01*
X007702Y019826D01*
X007657Y019887D01*
X007604Y019941D01*
X007543Y019985D01*
X007475Y020019D01*
X007404Y020043D01*
X007329Y020054D01*
X007311Y020054D01*
X007311Y019294D01*
X007271Y019294D01*
X007271Y020054D01*
X007253Y020054D01*
X007179Y020043D01*
X007107Y020019D01*
X007040Y019985D01*
X006978Y019941D01*
X006975Y019938D01*
X006975Y020516D01*
X007013Y020489D01*
X007090Y020450D01*
X007172Y020423D01*
X007258Y020410D01*
X007301Y020410D01*
X007344Y020410D01*
X007430Y020423D01*
X007512Y020450D01*
X007589Y020489D01*
X007659Y020540D01*
X007721Y020601D01*
X007771Y020671D01*
X007811Y020748D01*
X007812Y020753D01*
X007851Y020659D01*
X008000Y020510D01*
X008195Y020429D01*
X008407Y020429D01*
X008602Y020510D01*
X008608Y020516D01*
X008608Y018274D01*
X008726Y018157D01*
X009964Y016919D01*
X009964Y015927D01*
X009828Y015983D01*
X009644Y015983D01*
X009475Y015913D01*
X009345Y015783D01*
X009275Y015614D01*
X009275Y015431D01*
X009345Y015262D01*
X009475Y015132D01*
X009483Y015129D01*
X009475Y015126D01*
X009345Y014996D01*
X009275Y014827D01*
X009275Y014643D01*
X009345Y014474D01*
X009475Y014345D01*
X009483Y014341D01*
X009475Y014338D01*
X009345Y014209D01*
X009275Y014039D01*
X009275Y013856D01*
X009345Y013687D01*
X009351Y013681D01*
X008885Y013216D01*
X008768Y013099D01*
X008768Y002216D01*
X008408Y001857D01*
X008097Y001857D01*
X007851Y001610D01*
X007851Y001262D01*
X008097Y001015D01*
X008446Y001015D01*
X008692Y001262D01*
X008692Y001575D01*
X009168Y002050D01*
X009168Y003121D01*
X009402Y002777D01*
X009402Y002777D01*
X009402Y002777D01*
X009794Y002465D01*
X010260Y002282D01*
X010759Y002245D01*
X011247Y002356D01*
X011247Y002356D01*
X011681Y002607D01*
X012022Y002974D01*
X012239Y003425D01*
X012314Y003920D01*
X012314Y003920D01*
X012239Y004415D01*
X012022Y004867D01*
X011681Y005234D01*
X011247Y005484D01*
X010759Y005595D01*
X010260Y005558D01*
X010260Y005558D01*
X009794Y005375D01*
X009794Y005375D01*
X009402Y005063D01*
X009402Y005063D01*
X009402Y005063D01*
X009168Y004719D01*
X009168Y012933D01*
X009284Y013049D01*
X009345Y012899D01*
X009475Y012770D01*
X009483Y012767D01*
X009475Y012763D01*
X009345Y012634D01*
X009275Y012465D01*
X009275Y012281D01*
X009345Y012112D01*
X009475Y011982D01*
X009483Y011979D01*
X009475Y011976D01*
X009345Y011846D01*
X009275Y011677D01*
X009275Y011494D01*
X009345Y011325D01*
X009475Y011195D01*
X009483Y011192D01*
X009475Y011189D01*
X009345Y011059D01*
X009275Y010890D01*
X009275Y010706D01*
X009345Y010537D01*
X009475Y010408D01*
X009483Y010404D01*
X009475Y010401D01*
X009345Y010272D01*
X009275Y010102D01*
X009275Y009919D01*
X009345Y009750D01*
X009475Y009620D01*
X009483Y009617D01*
X009475Y009614D01*
X009345Y009484D01*
X009275Y009315D01*
X009275Y009132D01*
X009345Y008962D01*
X009475Y008833D01*
X009483Y008830D01*
X009475Y008826D01*
X009345Y008697D01*
X009275Y008528D01*
X009275Y008344D01*
X009345Y008175D01*
X009475Y008045D01*
X009644Y007975D01*
X009828Y007975D01*
X009997Y008045D01*
X010127Y008175D01*
X010197Y008344D01*
X010197Y008528D01*
X010127Y008697D01*
X009997Y008826D01*
X009989Y008830D01*
X009997Y008833D01*
X010127Y008962D01*
X010197Y009132D01*
X010197Y009315D01*
X010127Y009484D01*
X009997Y009614D01*
X009989Y009617D01*
X009997Y009620D01*
X010127Y009750D01*
X010197Y009919D01*
X010197Y010102D01*
X010127Y010272D01*
X009997Y010401D01*
X009989Y010404D01*
X009997Y010408D01*
X010127Y010537D01*
X010197Y010706D01*
X010197Y010890D01*
X010127Y011059D01*
X009997Y011189D01*
X009989Y011192D01*
X009997Y011195D01*
X010127Y011325D01*
X010197Y011494D01*
X010197Y011677D01*
X010127Y011846D01*
X009997Y011976D01*
X009989Y011979D01*
X009997Y011982D01*
X010127Y012112D01*
X010154Y012178D01*
X010167Y012178D01*
X010276Y012287D01*
X010337Y012140D01*
X010466Y012010D01*
X010636Y011940D01*
X011419Y011940D01*
X011588Y012010D01*
X011718Y012140D01*
X011788Y012309D01*
X011788Y012492D01*
X011718Y012661D01*
X011644Y012736D01*
X014233Y012736D01*
X018803Y017306D01*
X019183Y017306D01*
X019252Y017375D01*
X019252Y017324D01*
X019155Y017227D01*
X018801Y017227D01*
X018531Y016957D01*
X018531Y016576D01*
X018801Y016306D01*
X019183Y016306D01*
X019453Y016576D01*
X019453Y016957D01*
X019452Y016958D01*
X019652Y017158D01*
X019652Y017428D01*
X019793Y017287D01*
X019972Y017287D01*
X019972Y017747D01*
X020012Y017747D01*
X020012Y017787D01*
X019972Y017787D01*
X019972Y018247D01*
X019793Y018247D01*
X019600Y018053D01*
X019534Y018119D01*
X019255Y018398D01*
X017581Y018398D01*
X015069Y020910D01*
X015069Y021421D01*
X014558Y021421D01*
X013555Y022424D01*
X007530Y022424D01*
X007412Y022307D01*
X006575Y021470D01*
X006575Y019942D01*
X006552Y019965D01*
X006383Y020035D01*
X006200Y020035D01*
X006030Y019965D01*
X005901Y019835D01*
X005830Y019666D01*
X005830Y018883D01*
X005752Y018883D01*
X005752Y019666D01*
X005682Y019835D01*
X005552Y019965D01*
X005383Y020035D01*
X005200Y020035D01*
X005030Y019965D01*
X004901Y019835D01*
X004830Y019666D01*
X004830Y018883D01*
X004752Y018883D01*
X004752Y019666D01*
X004682Y019835D01*
X004552Y019965D01*
X004383Y020035D01*
X004200Y020035D01*
X004030Y019965D01*
X003901Y019835D01*
X003830Y019666D01*
X003830Y018883D01*
X000577Y018883D01*
X000577Y018907D02*
X000584Y018978D01*
X000638Y019108D01*
X000738Y019207D01*
X000867Y019261D01*
X000938Y019268D01*
X003123Y019268D01*
X003400Y019382D01*
X003400Y019382D01*
X003489Y019471D01*
X003547Y019471D01*
X003547Y019529D01*
X003612Y019594D01*
X003612Y019594D01*
X003727Y019872D01*
X003727Y022064D01*
X003734Y022138D01*
X003791Y022273D01*
X003895Y022377D01*
X004030Y022434D01*
X004104Y022441D01*
X017164Y022441D01*
X017237Y022434D01*
X017373Y022377D01*
X017477Y022273D01*
X017533Y022138D01*
X017540Y022064D01*
X017540Y019888D01*
X017651Y019622D01*
X017720Y019552D01*
X017720Y019471D01*
X017801Y019471D01*
X017855Y019418D01*
X018122Y019307D01*
X020300Y019307D01*
X020374Y019300D01*
X020512Y019242D01*
X020618Y019137D01*
X020675Y018999D01*
X020682Y018924D01*
X020682Y018923D01*
X020682Y018850D01*
X020682Y018850D01*
X020690Y003962D01*
X020689Y003962D01*
X020690Y003887D01*
X020683Y003814D01*
X020626Y003677D01*
X020522Y003573D01*
X020386Y003517D01*
X020313Y003510D01*
X018131Y003510D01*
X017860Y003397D01*
X017792Y003330D01*
X017720Y003330D01*
X017720Y003258D01*
X017652Y003190D01*
X017540Y002919D01*
X017540Y000737D01*
X017533Y000663D01*
X017477Y000527D01*
X017373Y000423D01*
X017237Y000367D01*
X017164Y000360D01*
X004104Y000360D01*
X004030Y000367D01*
X003895Y000423D01*
X003791Y000527D01*
X003734Y000663D01*
X003727Y000737D01*
X003727Y002919D01*
X003615Y003190D01*
X003615Y003190D01*
X003547Y003258D01*
X003547Y003330D01*
X003475Y003330D01*
X003408Y003397D01*
X003408Y003397D01*
X003261Y003458D01*
X003280Y003477D01*
X003350Y003647D01*
X003350Y004430D01*
X003280Y004599D01*
X003151Y004729D01*
X002981Y004799D01*
X002798Y004799D01*
X002629Y004729D01*
X002499Y004599D01*
X002429Y004430D01*
X002429Y003647D01*
X002486Y003510D01*
X000954Y003510D01*
X000881Y003517D01*
X000745Y003573D01*
X000641Y003677D01*
X000585Y003813D01*
X000577Y003886D01*
X000577Y018907D01*
X000611Y019042D02*
X003830Y019042D01*
X003830Y019200D02*
X000731Y019200D01*
X000577Y018725D02*
X003896Y018725D01*
X003901Y018714D02*
X004030Y018584D01*
X004200Y018514D01*
X004383Y018514D01*
X004552Y018584D01*
X004682Y018714D01*
X004752Y018883D01*
X004830Y018883D02*
X004901Y018714D01*
X005030Y018584D01*
X005200Y018514D01*
X005383Y018514D01*
X005552Y018584D01*
X005682Y018714D01*
X005752Y018883D01*
X005830Y018883D02*
X005901Y018714D01*
X006030Y018584D01*
X006200Y018514D01*
X006383Y018514D01*
X006552Y018584D01*
X006575Y018607D01*
X006575Y015171D01*
X001527Y010123D01*
X001465Y010272D01*
X001336Y010401D01*
X001328Y010404D01*
X001336Y010408D01*
X001465Y010537D01*
X001535Y010706D01*
X001535Y010890D01*
X001465Y011059D01*
X001336Y011189D01*
X001328Y011192D01*
X001336Y011195D01*
X001465Y011325D01*
X001535Y011494D01*
X001535Y011677D01*
X001465Y011846D01*
X001336Y011976D01*
X001328Y011979D01*
X001336Y011982D01*
X001465Y012112D01*
X001535Y012281D01*
X001535Y012465D01*
X001465Y012634D01*
X001336Y012763D01*
X001328Y012767D01*
X001336Y012770D01*
X001465Y012899D01*
X001535Y013069D01*
X001535Y013252D01*
X001465Y013421D01*
X001336Y013551D01*
X001328Y013554D01*
X001336Y013557D01*
X001465Y013687D01*
X001535Y013856D01*
X001535Y014039D01*
X001465Y014209D01*
X001336Y014338D01*
X001328Y014341D01*
X001336Y014345D01*
X001465Y014474D01*
X001535Y014643D01*
X001535Y014827D01*
X001465Y014996D01*
X001345Y015117D01*
X001346Y015117D01*
X001480Y015252D01*
X001553Y015427D01*
X001553Y015618D01*
X001480Y015794D01*
X001346Y015928D01*
X001170Y016001D01*
X000979Y016001D01*
X000804Y015928D01*
X000669Y015794D01*
X000596Y015618D01*
X000596Y015427D01*
X000669Y015252D01*
X000804Y015117D01*
X000805Y015117D01*
X000684Y014996D01*
X000614Y014827D01*
X000614Y014643D01*
X000684Y014474D01*
X000814Y014345D01*
X000821Y014341D01*
X000814Y014338D01*
X000684Y014209D01*
X000614Y014039D01*
X000614Y013856D01*
X000684Y013687D01*
X000814Y013557D01*
X000821Y013554D01*
X000814Y013551D01*
X000684Y013421D01*
X000614Y013252D01*
X000614Y013069D01*
X000684Y012899D01*
X000814Y012770D01*
X000821Y012767D01*
X000814Y012763D01*
X000684Y012634D01*
X000614Y012465D01*
X000614Y012281D01*
X000684Y012112D01*
X000814Y011982D01*
X000821Y011979D01*
X000814Y011976D01*
X000684Y011846D01*
X000614Y011677D01*
X000614Y011494D01*
X000684Y011325D01*
X000814Y011195D01*
X000821Y011192D01*
X000814Y011189D01*
X000684Y011059D01*
X000614Y010890D01*
X000614Y010706D01*
X000684Y010537D01*
X000814Y010408D01*
X000821Y010404D01*
X000814Y010401D01*
X000684Y010272D01*
X000614Y010102D01*
X000614Y009919D01*
X000684Y009750D01*
X000814Y009620D01*
X000821Y009617D01*
X000814Y009614D01*
X000684Y009484D01*
X000614Y009315D01*
X000614Y009132D01*
X000684Y008962D01*
X000810Y008837D01*
X000762Y008802D01*
X000709Y008749D01*
X000664Y008687D01*
X000630Y008620D01*
X000606Y008548D01*
X000595Y008474D01*
X000595Y008436D01*
X001075Y008436D01*
X001555Y008436D01*
X001555Y008474D01*
X001543Y008548D01*
X001519Y008620D01*
X001485Y008687D01*
X001441Y008749D01*
X001387Y008802D01*
X001340Y008837D01*
X001465Y008962D01*
X001535Y009132D01*
X001535Y009315D01*
X001465Y009484D01*
X001460Y009490D01*
X006858Y014888D01*
X006975Y015006D01*
X006975Y018611D01*
X006978Y018608D01*
X007040Y018564D01*
X007107Y018530D01*
X007179Y018506D01*
X007253Y018494D01*
X007271Y018494D01*
X007271Y019254D01*
X007271Y019359D02*
X007311Y019359D01*
X007311Y019517D02*
X007271Y019517D01*
X007271Y019676D02*
X007311Y019676D01*
X007311Y019834D02*
X007271Y019834D01*
X007271Y019993D02*
X007311Y019993D01*
X007528Y019993D02*
X008608Y019993D01*
X008608Y020151D02*
X006975Y020151D01*
X006975Y019993D02*
X007054Y019993D01*
X006975Y020310D02*
X008608Y020310D01*
X008608Y020468D02*
X008501Y020468D01*
X008101Y020468D02*
X007548Y020468D01*
X007301Y020468D02*
X007301Y020468D01*
X007301Y020410D02*
X007301Y020960D01*
X007301Y021510D01*
X007258Y021510D01*
X007172Y021496D01*
X007165Y021494D01*
X007272Y021600D01*
X007309Y021510D01*
X007301Y021510D01*
X007301Y020960D01*
X007301Y020960D01*
X007301Y020960D01*
X007301Y020410D01*
X007301Y020627D02*
X007301Y020627D01*
X007301Y020785D02*
X007301Y020785D01*
X007301Y020944D02*
X007301Y020944D01*
X007301Y021102D02*
X007301Y021102D01*
X007301Y021261D02*
X007301Y021261D01*
X007301Y021419D02*
X007301Y021419D01*
X007281Y021578D02*
X007249Y021578D01*
X007000Y021895D02*
X003727Y021895D01*
X003727Y022053D02*
X007159Y022053D01*
X007317Y022212D02*
X003765Y022212D01*
X003887Y022370D02*
X007476Y022370D01*
X008237Y022024D02*
X013389Y022024D01*
X017298Y018115D01*
X017415Y017998D01*
X018571Y017998D01*
X018531Y017957D01*
X018531Y017600D01*
X014067Y013136D01*
X011736Y013136D01*
X011806Y013305D01*
X011806Y013496D01*
X011733Y013671D01*
X011598Y013806D01*
X011423Y013879D01*
X010632Y013879D01*
X010456Y013806D01*
X010364Y013713D01*
X010364Y014113D01*
X010466Y014010D01*
X010636Y013940D01*
X011419Y013940D01*
X011588Y014010D01*
X011718Y014140D01*
X011788Y014309D01*
X011788Y014492D01*
X011718Y014661D01*
X011588Y014791D01*
X011419Y014861D01*
X010636Y014861D01*
X010466Y014791D01*
X010364Y014688D01*
X010364Y017085D01*
X010171Y017278D01*
X010260Y017243D01*
X010759Y017205D01*
X011247Y017317D01*
X011247Y017317D01*
X011681Y017567D01*
X012022Y017934D01*
X012022Y017934D01*
X012239Y018386D01*
X012314Y018881D01*
X012239Y019376D01*
X012022Y019827D01*
X011681Y020194D01*
X011247Y020445D01*
X010759Y020556D01*
X010260Y020519D01*
X009794Y020336D01*
X009794Y020336D01*
X009402Y020023D01*
X009120Y019610D01*
X009120Y019610D01*
X009008Y019248D01*
X009008Y021230D01*
X008450Y021788D01*
X008333Y021906D01*
X008294Y021906D01*
X008251Y022010D01*
X008237Y022024D01*
X008344Y021895D02*
X013519Y021895D01*
X013677Y021736D02*
X008503Y021736D01*
X008661Y021578D02*
X013836Y021578D01*
X013994Y021419D02*
X008820Y021419D01*
X008978Y021261D02*
X014153Y021261D01*
X014311Y021102D02*
X009008Y021102D01*
X009008Y020944D02*
X014470Y020944D01*
X014628Y020785D02*
X009008Y020785D01*
X009008Y020627D02*
X014787Y020627D01*
X014945Y020468D02*
X011145Y020468D01*
X011247Y020445D02*
X011247Y020445D01*
X011481Y020310D02*
X015104Y020310D01*
X015262Y020151D02*
X011721Y020151D01*
X011681Y020194D02*
X011681Y020194D01*
X011868Y019993D02*
X015421Y019993D01*
X015579Y019834D02*
X012015Y019834D01*
X012022Y019827D02*
X012022Y019827D01*
X012095Y019676D02*
X015738Y019676D01*
X015896Y019517D02*
X012171Y019517D01*
X012239Y019376D02*
X012239Y019376D01*
X012242Y019359D02*
X016055Y019359D01*
X016213Y019200D02*
X015552Y019200D01*
X015551Y019202D02*
X015290Y019309D01*
X015009Y019309D01*
X014748Y019202D01*
X014549Y019002D01*
X014441Y018742D01*
X014441Y018460D01*
X014549Y018200D01*
X014748Y018001D01*
X015009Y017893D01*
X015290Y017893D01*
X015551Y018001D01*
X015750Y018200D01*
X015858Y018460D01*
X015858Y018742D01*
X015750Y019002D01*
X015551Y019202D01*
X015711Y019042D02*
X016372Y019042D01*
X016530Y018883D02*
X015799Y018883D01*
X015858Y018725D02*
X016689Y018725D01*
X016847Y018566D02*
X015858Y018566D01*
X015836Y018408D02*
X017006Y018408D01*
X017164Y018249D02*
X015770Y018249D01*
X015640Y018091D02*
X017323Y018091D01*
X017571Y018408D02*
X020683Y018408D01*
X020682Y018566D02*
X017413Y018566D01*
X017254Y018725D02*
X020682Y018725D01*
X020682Y018883D02*
X017096Y018883D01*
X016937Y019042D02*
X020657Y019042D01*
X020555Y019200D02*
X016779Y019200D01*
X016620Y019359D02*
X017997Y019359D01*
X017720Y019517D02*
X016462Y019517D01*
X016303Y019676D02*
X017629Y019676D01*
X017651Y019622D02*
X017651Y019622D01*
X017563Y019834D02*
X016145Y019834D01*
X015986Y019993D02*
X017540Y019993D01*
X017540Y020151D02*
X015828Y020151D01*
X015669Y020310D02*
X017540Y020310D01*
X017540Y020468D02*
X015511Y020468D01*
X015352Y020627D02*
X017540Y020627D01*
X017540Y020785D02*
X015283Y020785D01*
X015292Y020786D02*
X015384Y020811D01*
X015472Y020847D01*
X015554Y020895D01*
X015630Y020953D01*
X015698Y021021D01*
X015756Y021096D01*
X015803Y021179D01*
X015840Y021267D01*
X015864Y021359D01*
X015873Y021421D01*
X015229Y021421D01*
X015229Y020778D01*
X015292Y020786D01*
X015229Y020785D02*
X015194Y020785D01*
X015229Y020944D02*
X015069Y020944D01*
X015069Y021102D02*
X015229Y021102D01*
X015229Y021261D02*
X015069Y021261D01*
X015069Y021419D02*
X015229Y021419D01*
X015229Y021421D02*
X015069Y021421D01*
X015069Y021581D01*
X014426Y021581D01*
X014434Y021643D01*
X014459Y021736D01*
X014243Y021736D01*
X014459Y021736D02*
X014496Y021824D01*
X014543Y021906D01*
X014601Y021982D01*
X014669Y022049D01*
X014744Y022107D01*
X014827Y022155D01*
X014915Y022192D01*
X015007Y022216D01*
X015069Y022225D01*
X015069Y021581D01*
X015229Y021581D01*
X015229Y022225D01*
X015292Y022216D01*
X015384Y022192D01*
X015472Y022155D01*
X015554Y022107D01*
X015630Y022049D01*
X015698Y021982D01*
X015756Y021906D01*
X015803Y021824D01*
X015840Y021736D01*
X017540Y021736D01*
X017540Y021578D02*
X015229Y021578D01*
X015229Y021581D02*
X015873Y021581D01*
X015864Y021643D01*
X015840Y021736D01*
X015762Y021895D02*
X017540Y021895D01*
X017540Y022053D02*
X015625Y022053D01*
X015309Y022212D02*
X017502Y022212D01*
X017380Y022370D02*
X013609Y022370D01*
X013767Y022212D02*
X014989Y022212D01*
X015069Y022212D02*
X015229Y022212D01*
X015229Y022053D02*
X015069Y022053D01*
X015069Y021895D02*
X015229Y021895D01*
X015229Y021736D02*
X015069Y021736D01*
X015069Y021578D02*
X014401Y021578D01*
X014536Y021895D02*
X014084Y021895D01*
X013926Y022053D02*
X014673Y022053D01*
X015229Y021581D02*
X015229Y021421D01*
X015618Y020944D02*
X017540Y020944D01*
X017540Y021102D02*
X015759Y021102D01*
X015837Y021261D02*
X017540Y021261D01*
X017540Y021419D02*
X015872Y021419D01*
X014747Y019200D02*
X012266Y019200D01*
X012289Y019042D02*
X014588Y019042D01*
X014500Y018883D02*
X012313Y018883D01*
X012290Y018725D02*
X014441Y018725D01*
X014441Y018566D02*
X012266Y018566D01*
X012242Y018408D02*
X014463Y018408D01*
X014529Y018249D02*
X012173Y018249D01*
X012239Y018386D02*
X012239Y018386D01*
X012097Y018091D02*
X014659Y018091D01*
X014914Y017932D02*
X012020Y017932D01*
X011872Y017774D02*
X018531Y017774D01*
X018531Y017932D02*
X015384Y017932D01*
X017120Y016189D02*
X010364Y016189D01*
X010364Y016347D02*
X017278Y016347D01*
X017437Y016506D02*
X010364Y016506D01*
X010364Y016664D02*
X017595Y016664D01*
X017754Y016823D02*
X010364Y016823D01*
X010364Y016981D02*
X017912Y016981D01*
X018071Y017140D02*
X010309Y017140D01*
X009902Y016981D02*
X006975Y016981D01*
X006975Y016823D02*
X009964Y016823D01*
X009964Y016664D02*
X006975Y016664D01*
X006975Y016506D02*
X009964Y016506D01*
X009964Y016347D02*
X006975Y016347D01*
X006975Y016189D02*
X009964Y016189D01*
X009964Y016030D02*
X006975Y016030D01*
X006975Y015872D02*
X009434Y015872D01*
X009316Y015713D02*
X006975Y015713D01*
X006975Y015555D02*
X009275Y015555D01*
X009290Y015396D02*
X006975Y015396D01*
X006975Y015238D02*
X009370Y015238D01*
X009428Y015079D02*
X006975Y015079D01*
X006890Y014921D02*
X009314Y014921D01*
X009275Y014762D02*
X006732Y014762D01*
X006573Y014604D02*
X009292Y014604D01*
X009375Y014445D02*
X006415Y014445D01*
X006256Y014287D02*
X009423Y014287D01*
X009312Y014128D02*
X006098Y014128D01*
X005939Y013970D02*
X009275Y013970D01*
X009294Y013811D02*
X005781Y013811D01*
X005622Y013653D02*
X009322Y013653D01*
X009163Y013494D02*
X005464Y013494D01*
X005305Y013336D02*
X009005Y013336D01*
X008846Y013177D02*
X005147Y013177D01*
X004988Y013019D02*
X008768Y013019D01*
X008768Y012860D02*
X004830Y012860D01*
X004671Y012702D02*
X008768Y012702D01*
X008768Y012543D02*
X004513Y012543D01*
X004354Y012385D02*
X008768Y012385D01*
X008768Y012226D02*
X004196Y012226D01*
X004037Y012068D02*
X008768Y012068D01*
X008768Y011909D02*
X003879Y011909D01*
X003720Y011751D02*
X008768Y011751D01*
X008768Y011592D02*
X003562Y011592D01*
X003403Y011434D02*
X008768Y011434D01*
X008768Y011275D02*
X003245Y011275D01*
X003086Y011117D02*
X008768Y011117D01*
X008768Y010958D02*
X002928Y010958D01*
X002769Y010800D02*
X008768Y010800D01*
X008768Y010641D02*
X002611Y010641D01*
X002452Y010483D02*
X008768Y010483D01*
X008768Y010324D02*
X002294Y010324D01*
X002135Y010166D02*
X008768Y010166D01*
X008768Y010007D02*
X001977Y010007D01*
X001818Y009849D02*
X008768Y009849D01*
X008768Y009690D02*
X001660Y009690D01*
X001501Y009532D02*
X008768Y009532D01*
X008768Y009373D02*
X001511Y009373D01*
X001535Y009215D02*
X008768Y009215D01*
X008768Y009056D02*
X001504Y009056D01*
X001400Y008898D02*
X008768Y008898D01*
X008768Y008739D02*
X001448Y008739D01*
X001532Y008581D02*
X008768Y008581D01*
X008768Y008422D02*
X001555Y008422D01*
X001555Y008436D02*
X001075Y008436D01*
X001075Y008436D01*
X001075Y008763D01*
X001075Y008763D01*
X001075Y008436D01*
X001075Y008436D01*
X001075Y007956D01*
X001112Y007956D01*
X001187Y007968D01*
X001259Y007991D01*
X001326Y008025D01*
X001387Y008070D01*
X001441Y008123D01*
X001485Y008184D01*
X001519Y008252D01*
X001543Y008324D01*
X001555Y008398D01*
X001555Y008436D01*
X001523Y008264D02*
X008768Y008264D01*
X008768Y008105D02*
X001423Y008105D01*
X001075Y008105D02*
X001075Y008105D01*
X001075Y007956D02*
X001075Y008436D01*
X001075Y008436D01*
X001075Y008436D01*
X000595Y008436D01*
X000595Y008398D01*
X000606Y008324D01*
X000630Y008252D01*
X000664Y008184D01*
X000709Y008123D01*
X000762Y008070D01*
X000823Y008025D01*
X000890Y007991D01*
X000962Y007968D01*
X001037Y007956D01*
X001075Y007956D01*
X000727Y008105D02*
X000577Y008105D01*
X000577Y007947D02*
X008768Y007947D01*
X008768Y007788D02*
X000577Y007788D01*
X000577Y007630D02*
X001396Y007630D01*
X001472Y007705D02*
X001215Y007448D01*
X001215Y007085D01*
X001472Y006828D01*
X001835Y006828D01*
X002092Y007085D01*
X002092Y007448D01*
X001835Y007705D01*
X001472Y007705D01*
X001238Y007471D02*
X000577Y007471D01*
X000577Y007313D02*
X001215Y007313D01*
X001215Y007154D02*
X000577Y007154D01*
X000577Y006996D02*
X001304Y006996D01*
X001463Y006837D02*
X000577Y006837D01*
X000577Y006679D02*
X008768Y006679D01*
X008768Y006837D02*
X001844Y006837D01*
X002002Y006996D02*
X004330Y006996D01*
X004233Y007092D02*
X004479Y006846D01*
X004828Y006846D01*
X005074Y007092D01*
X005074Y007441D01*
X004828Y007687D01*
X004479Y007687D01*
X004233Y007441D01*
X004233Y007092D01*
X004233Y007154D02*
X002092Y007154D01*
X002092Y007313D02*
X004233Y007313D01*
X004263Y007471D02*
X002069Y007471D01*
X001910Y007630D02*
X004421Y007630D01*
X004885Y007630D02*
X008768Y007630D01*
X008768Y007471D02*
X005044Y007471D01*
X005074Y007313D02*
X008768Y007313D01*
X008768Y007154D02*
X005074Y007154D01*
X004977Y006996D02*
X008768Y006996D01*
X009168Y006996D02*
X020688Y006996D01*
X020688Y007154D02*
X009168Y007154D01*
X009168Y007313D02*
X020688Y007313D01*
X020688Y007471D02*
X009168Y007471D01*
X009168Y007630D02*
X020688Y007630D01*
X020688Y007788D02*
X009168Y007788D01*
X009168Y007947D02*
X010619Y007947D01*
X010636Y007940D02*
X010466Y008010D01*
X010337Y008140D01*
X010267Y008309D01*
X010267Y008492D01*
X010337Y008661D01*
X010466Y008791D01*
X010636Y008861D01*
X011419Y008861D01*
X011588Y008791D01*
X011718Y008661D01*
X011788Y008492D01*
X011788Y008309D01*
X011718Y008140D01*
X011588Y008010D01*
X011419Y007940D01*
X010636Y007940D01*
X010371Y008105D02*
X010057Y008105D01*
X010163Y008264D02*
X010285Y008264D01*
X010267Y008422D02*
X010197Y008422D01*
X010175Y008581D02*
X010303Y008581D01*
X010414Y008739D02*
X010084Y008739D01*
X010062Y008898D02*
X020687Y008898D01*
X020687Y009056D02*
X011634Y009056D01*
X011588Y009010D02*
X011718Y009140D01*
X011788Y009309D01*
X011788Y009492D01*
X011718Y009661D01*
X011588Y009791D01*
X011419Y009861D01*
X010636Y009861D01*
X010466Y009791D01*
X010337Y009661D01*
X010267Y009492D01*
X010267Y009309D01*
X010337Y009140D01*
X010466Y009010D01*
X010636Y008940D01*
X011419Y008940D01*
X011588Y009010D01*
X011749Y009215D02*
X020687Y009215D01*
X020687Y009373D02*
X011788Y009373D01*
X011772Y009532D02*
X020687Y009532D01*
X020687Y009690D02*
X011689Y009690D01*
X011450Y009849D02*
X020687Y009849D01*
X020687Y010007D02*
X011581Y010007D01*
X011588Y010010D02*
X011718Y010140D01*
X011788Y010309D01*
X011788Y010492D01*
X011718Y010661D01*
X011588Y010791D01*
X011419Y010861D01*
X010636Y010861D01*
X010466Y010791D01*
X010337Y010661D01*
X010267Y010492D01*
X010267Y010309D01*
X010337Y010140D01*
X010466Y010010D01*
X010636Y009940D01*
X011419Y009940D01*
X011588Y010010D01*
X011729Y010166D02*
X020687Y010166D01*
X020686Y010324D02*
X011788Y010324D01*
X011788Y010483D02*
X020686Y010483D01*
X020686Y010641D02*
X011726Y010641D01*
X011568Y010800D02*
X020686Y010800D01*
X020686Y010958D02*
X011463Y010958D01*
X011419Y010940D02*
X011588Y011010D01*
X011718Y011140D01*
X011788Y011309D01*
X011788Y011492D01*
X011718Y011661D01*
X011588Y011791D01*
X011419Y011861D01*
X010636Y011861D01*
X010466Y011791D01*
X010337Y011661D01*
X010267Y011492D01*
X010267Y011309D01*
X010337Y011140D01*
X010466Y011010D01*
X010636Y010940D01*
X011419Y010940D01*
X011695Y011117D02*
X020686Y011117D01*
X020686Y011275D02*
X011774Y011275D01*
X011788Y011434D02*
X020686Y011434D01*
X020686Y011592D02*
X011747Y011592D01*
X011629Y011751D02*
X020686Y011751D01*
X020686Y011909D02*
X010064Y011909D01*
X010082Y012068D02*
X010409Y012068D01*
X010301Y012226D02*
X010215Y012226D01*
X010166Y011751D02*
X010426Y011751D01*
X010308Y011592D02*
X010197Y011592D01*
X010172Y011434D02*
X010267Y011434D01*
X010281Y011275D02*
X010077Y011275D01*
X010069Y011117D02*
X010360Y011117D01*
X010168Y010958D02*
X010592Y010958D01*
X010487Y010800D02*
X010197Y010800D01*
X010170Y010641D02*
X010328Y010641D01*
X010267Y010483D02*
X010072Y010483D01*
X010074Y010324D02*
X010267Y010324D01*
X010326Y010166D02*
X010171Y010166D01*
X010197Y010007D02*
X010473Y010007D01*
X010605Y009849D02*
X010168Y009849D01*
X010067Y009690D02*
X010365Y009690D01*
X010283Y009532D02*
X010079Y009532D01*
X010173Y009373D02*
X010267Y009373D01*
X010306Y009215D02*
X010197Y009215D01*
X010165Y009056D02*
X010420Y009056D01*
X009410Y008898D02*
X009168Y008898D01*
X009168Y009056D02*
X009307Y009056D01*
X009275Y009215D02*
X009168Y009215D01*
X009168Y009373D02*
X009299Y009373D01*
X009393Y009532D02*
X009168Y009532D01*
X009168Y009690D02*
X009405Y009690D01*
X009305Y009849D02*
X009168Y009849D01*
X009168Y010007D02*
X009275Y010007D01*
X009302Y010166D02*
X009168Y010166D01*
X009168Y010324D02*
X009398Y010324D01*
X009400Y010483D02*
X009168Y010483D01*
X009168Y010641D02*
X009302Y010641D01*
X009275Y010800D02*
X009168Y010800D01*
X009168Y010958D02*
X009304Y010958D01*
X009403Y011117D02*
X009168Y011117D01*
X009168Y011275D02*
X009395Y011275D01*
X009300Y011434D02*
X009168Y011434D01*
X009168Y011592D02*
X009275Y011592D01*
X009306Y011751D02*
X009168Y011751D01*
X009168Y011909D02*
X009408Y011909D01*
X009390Y012068D02*
X009168Y012068D01*
X009168Y012226D02*
X009298Y012226D01*
X009275Y012385D02*
X009168Y012385D01*
X009168Y012543D02*
X009308Y012543D01*
X009413Y012702D02*
X009168Y012702D01*
X009168Y012860D02*
X009385Y012860D01*
X009296Y013019D02*
X009254Y013019D01*
X010364Y013811D02*
X010468Y013811D01*
X010564Y013970D02*
X010364Y013970D01*
X010364Y014762D02*
X010437Y014762D01*
X010364Y014921D02*
X015852Y014921D01*
X016010Y015079D02*
X010364Y015079D01*
X010364Y015238D02*
X016169Y015238D01*
X016327Y015396D02*
X010364Y015396D01*
X010364Y015555D02*
X016486Y015555D01*
X016644Y015713D02*
X010364Y015713D01*
X010364Y015872D02*
X016803Y015872D01*
X016961Y016030D02*
X010364Y016030D01*
X010759Y017205D02*
X010759Y017205D01*
X011165Y017298D02*
X018229Y017298D01*
X018388Y017457D02*
X011489Y017457D01*
X011681Y017567D02*
X011681Y017567D01*
X011725Y017615D02*
X018531Y017615D01*
X018795Y017298D02*
X019226Y017298D01*
X019475Y016981D02*
X019528Y016981D01*
X019512Y016965D02*
X019512Y016787D01*
X019972Y016787D01*
X019972Y017247D01*
X019793Y017247D01*
X019512Y016965D01*
X019512Y016823D02*
X019453Y016823D01*
X019512Y016747D02*
X019512Y016568D01*
X019793Y016287D01*
X019972Y016287D01*
X019972Y016747D01*
X019512Y016747D01*
X019512Y016664D02*
X019453Y016664D01*
X019382Y016506D02*
X019574Y016506D01*
X019733Y016347D02*
X019224Y016347D01*
X018760Y016347D02*
X017844Y016347D01*
X017685Y016189D02*
X020684Y016189D01*
X020684Y016347D02*
X020251Y016347D01*
X020191Y016287D02*
X020472Y016568D01*
X020472Y016747D01*
X020012Y016747D01*
X020012Y016787D01*
X019972Y016787D01*
X019972Y016747D01*
X020012Y016747D01*
X020012Y016287D01*
X020191Y016287D01*
X020012Y016347D02*
X019972Y016347D01*
X019972Y016506D02*
X020012Y016506D01*
X020012Y016664D02*
X019972Y016664D01*
X020012Y016787D02*
X020472Y016787D01*
X020472Y016965D01*
X020191Y017247D01*
X020012Y017247D01*
X020012Y016787D01*
X020012Y016823D02*
X019972Y016823D01*
X019972Y016981D02*
X020012Y016981D01*
X020012Y017140D02*
X019972Y017140D01*
X020012Y017287D02*
X020191Y017287D01*
X020472Y017568D01*
X020472Y017747D01*
X020012Y017747D01*
X020012Y017287D01*
X020012Y017298D02*
X019972Y017298D01*
X019972Y017457D02*
X020012Y017457D01*
X020012Y017615D02*
X019972Y017615D01*
X020012Y017774D02*
X020683Y017774D01*
X020683Y017932D02*
X020472Y017932D01*
X020472Y017965D02*
X020191Y018247D01*
X020012Y018247D01*
X020012Y017787D01*
X020472Y017787D01*
X020472Y017965D01*
X020347Y018091D02*
X020683Y018091D01*
X020683Y018249D02*
X019404Y018249D01*
X019563Y018091D02*
X019637Y018091D01*
X019972Y018091D02*
X020012Y018091D01*
X020012Y017932D02*
X019972Y017932D01*
X020472Y017615D02*
X020683Y017615D01*
X020683Y017457D02*
X020361Y017457D01*
X020202Y017298D02*
X020683Y017298D01*
X020683Y017140D02*
X020298Y017140D01*
X020456Y016981D02*
X020683Y016981D01*
X020683Y016823D02*
X020472Y016823D01*
X020472Y016664D02*
X020683Y016664D01*
X020683Y016506D02*
X020410Y016506D01*
X020684Y016030D02*
X017527Y016030D01*
X017368Y015872D02*
X020684Y015872D01*
X020684Y015713D02*
X017210Y015713D01*
X017051Y015555D02*
X020684Y015555D01*
X020684Y015396D02*
X016893Y015396D01*
X016734Y015238D02*
X020684Y015238D01*
X020684Y015079D02*
X016576Y015079D01*
X016417Y014921D02*
X020684Y014921D01*
X020684Y014762D02*
X016259Y014762D01*
X016100Y014604D02*
X020684Y014604D01*
X020684Y014445D02*
X015942Y014445D01*
X015783Y014287D02*
X020685Y014287D01*
X020685Y014128D02*
X015625Y014128D01*
X015466Y013970D02*
X020685Y013970D01*
X020685Y013811D02*
X015308Y013811D01*
X015149Y013653D02*
X019485Y013653D01*
X019500Y013663D02*
X019435Y013619D01*
X019380Y013564D01*
X019336Y013498D01*
X019306Y013426D01*
X019291Y013349D01*
X019291Y013310D01*
X019689Y013310D01*
X020087Y013310D01*
X020087Y013349D01*
X020072Y013426D01*
X020042Y013498D01*
X019998Y013564D01*
X019943Y013619D01*
X019877Y013663D01*
X019805Y013693D01*
X019728Y013708D01*
X019689Y013708D01*
X019689Y013310D01*
X019689Y013310D01*
X019689Y013310D01*
X020087Y013310D01*
X020087Y013271D01*
X020072Y013194D01*
X020042Y013121D01*
X019998Y013056D01*
X019943Y013001D01*
X019877Y012957D01*
X019805Y012927D01*
X019728Y012912D01*
X019689Y012912D01*
X019689Y013310D01*
X019689Y013310D01*
X019689Y013708D01*
X019650Y013708D01*
X019573Y013693D01*
X019500Y013663D01*
X019689Y013653D02*
X019689Y013653D01*
X019689Y013494D02*
X019689Y013494D01*
X019689Y013336D02*
X019689Y013336D01*
X019689Y013310D02*
X019689Y013310D01*
X019689Y012912D01*
X019650Y012912D01*
X019573Y012927D01*
X019500Y012957D01*
X019435Y013001D01*
X019380Y013056D01*
X019336Y013121D01*
X019306Y013194D01*
X019291Y013271D01*
X019291Y013310D01*
X019689Y013310D01*
X019689Y013177D02*
X019689Y013177D01*
X019689Y013019D02*
X019689Y013019D01*
X019960Y013019D02*
X020685Y013019D01*
X020685Y013177D02*
X020065Y013177D01*
X020087Y013336D02*
X020685Y013336D01*
X020685Y013494D02*
X020043Y013494D01*
X019893Y013653D02*
X020685Y013653D01*
X020685Y012860D02*
X014357Y012860D01*
X014515Y013019D02*
X019417Y013019D01*
X019313Y013177D02*
X014674Y013177D01*
X014832Y013336D02*
X019291Y013336D01*
X019334Y013494D02*
X014991Y013494D01*
X014742Y013811D02*
X011586Y013811D01*
X011491Y013970D02*
X014901Y013970D01*
X015059Y014128D02*
X011706Y014128D01*
X011779Y014287D02*
X015218Y014287D01*
X015376Y014445D02*
X011788Y014445D01*
X011742Y014604D02*
X015535Y014604D01*
X015693Y014762D02*
X011617Y014762D01*
X011741Y013653D02*
X014584Y013653D01*
X014425Y013494D02*
X011806Y013494D01*
X011806Y013336D02*
X014267Y013336D01*
X014108Y013177D02*
X011753Y013177D01*
X011678Y012702D02*
X020685Y012702D01*
X020685Y012543D02*
X011767Y012543D01*
X011788Y012385D02*
X020685Y012385D01*
X020686Y012226D02*
X011754Y012226D01*
X011646Y012068D02*
X020686Y012068D01*
X020687Y008739D02*
X011640Y008739D01*
X011751Y008581D02*
X019424Y008581D01*
X019474Y008631D02*
X019368Y008525D01*
X019310Y008385D01*
X019310Y008235D01*
X019368Y008095D01*
X019474Y007989D01*
X019613Y007931D01*
X019764Y007931D01*
X019903Y007989D01*
X020010Y008095D01*
X020068Y008235D01*
X020068Y008385D01*
X020010Y008525D01*
X019903Y008631D01*
X019764Y008689D01*
X019613Y008689D01*
X019474Y008631D01*
X019325Y008422D02*
X011788Y008422D01*
X011769Y008264D02*
X019310Y008264D01*
X019364Y008105D02*
X011683Y008105D01*
X011435Y007947D02*
X019576Y007947D01*
X019801Y007947D02*
X020688Y007947D01*
X020688Y008105D02*
X020014Y008105D01*
X020068Y008264D02*
X020688Y008264D01*
X020687Y008422D02*
X020052Y008422D01*
X019954Y008581D02*
X020687Y008581D01*
X020242Y006977D02*
X020039Y006977D01*
X019836Y006977D01*
X019549Y006690D01*
X019549Y006487D01*
X019549Y006284D01*
X019836Y005997D01*
X020039Y005997D01*
X020039Y006487D01*
X019549Y006487D01*
X020039Y006487D01*
X020039Y006487D01*
X020039Y006487D01*
X020039Y006977D01*
X020039Y006487D01*
X020039Y006487D01*
X020039Y005997D01*
X020242Y005997D01*
X020529Y006284D01*
X020529Y006487D01*
X020039Y006487D01*
X020039Y006487D01*
X020529Y006487D01*
X020529Y006690D01*
X020242Y006977D01*
X020382Y006837D02*
X020688Y006837D01*
X020688Y006679D02*
X020529Y006679D01*
X020529Y006520D02*
X020688Y006520D01*
X020688Y006362D02*
X020529Y006362D01*
X020448Y006203D02*
X020689Y006203D01*
X020689Y006045D02*
X020290Y006045D01*
X020039Y006045D02*
X020039Y006045D01*
X020039Y006203D02*
X020039Y006203D01*
X020039Y006362D02*
X020039Y006362D01*
X020039Y006520D02*
X020039Y006520D01*
X020039Y006679D02*
X020039Y006679D01*
X020039Y006837D02*
X020039Y006837D01*
X019696Y006837D02*
X019380Y006837D01*
X019316Y006901D02*
X019136Y006976D01*
X018942Y006976D01*
X018763Y006901D01*
X018625Y006764D01*
X018551Y006584D01*
X018551Y006390D01*
X018625Y006210D01*
X018756Y006080D01*
X018756Y005668D01*
X015450Y002362D01*
X015294Y002427D01*
X015005Y002427D01*
X014738Y002317D01*
X014534Y002112D01*
X014424Y001846D01*
X014424Y001557D01*
X014534Y001290D01*
X014738Y001086D01*
X015005Y000975D01*
X015294Y000975D01*
X015561Y001086D01*
X015765Y001290D01*
X015875Y001557D01*
X015875Y001846D01*
X015813Y001997D01*
X019231Y005416D01*
X019270Y005510D01*
X019270Y006054D01*
X019316Y006073D01*
X019453Y006210D01*
X019528Y006390D01*
X019528Y006584D01*
X019453Y006764D01*
X019316Y006901D01*
X019489Y006679D02*
X019549Y006679D01*
X019549Y006520D02*
X019528Y006520D01*
X019516Y006362D02*
X019549Y006362D01*
X019630Y006203D02*
X019446Y006203D01*
X019270Y006045D02*
X019789Y006045D01*
X019270Y005886D02*
X020689Y005886D01*
X020689Y005728D02*
X019270Y005728D01*
X019270Y005569D02*
X020689Y005569D01*
X020689Y005411D02*
X019226Y005411D01*
X019067Y005252D02*
X020689Y005252D01*
X020689Y005094D02*
X018909Y005094D01*
X018750Y004935D02*
X020689Y004935D01*
X020689Y004777D02*
X018592Y004777D01*
X018433Y004618D02*
X020689Y004618D01*
X020689Y004460D02*
X018275Y004460D01*
X018116Y004301D02*
X020689Y004301D01*
X020690Y004143D02*
X017958Y004143D01*
X017799Y003984D02*
X020690Y003984D01*
X020684Y003826D02*
X017641Y003826D01*
X017482Y003667D02*
X020616Y003667D01*
X018657Y005569D02*
X010875Y005569D01*
X010759Y005595D02*
X010759Y005595D01*
X010406Y005569D02*
X009168Y005569D01*
X009168Y005411D02*
X009884Y005411D01*
X009639Y005252D02*
X009168Y005252D01*
X009168Y005094D02*
X009441Y005094D01*
X009315Y004935D02*
X009168Y004935D01*
X009168Y004777D02*
X009207Y004777D01*
X008768Y004777D02*
X008551Y004777D01*
X008453Y004874D02*
X008090Y004874D01*
X007958Y004742D01*
X005327Y004742D01*
X004798Y005271D01*
X004828Y005271D01*
X005074Y005518D01*
X005074Y005866D01*
X004828Y006113D01*
X004479Y006113D01*
X004233Y005866D01*
X004233Y005837D01*
X004171Y005899D01*
X004076Y005938D01*
X002027Y005938D01*
X001835Y006130D01*
X001472Y006130D01*
X001215Y005873D01*
X001215Y005510D01*
X001472Y005253D01*
X001835Y005253D01*
X002005Y005424D01*
X003918Y005424D01*
X005075Y004267D01*
X005170Y004228D01*
X007859Y004228D01*
X008090Y003997D01*
X008453Y003997D01*
X008710Y004254D01*
X008710Y004618D01*
X008453Y004874D01*
X008768Y004935D02*
X005135Y004935D01*
X005293Y004777D02*
X007992Y004777D01*
X007945Y004143D02*
X004370Y004143D01*
X004370Y004058D02*
X004370Y004376D01*
X004358Y004451D01*
X004334Y004523D01*
X004300Y004590D01*
X004256Y004651D01*
X004202Y004704D01*
X004141Y004749D01*
X004074Y004783D01*
X004002Y004806D01*
X003927Y004818D01*
X003910Y004818D01*
X003910Y004058D01*
X004370Y004058D01*
X004370Y004018D02*
X003910Y004018D01*
X003910Y004058D01*
X003870Y004058D01*
X003870Y004818D01*
X003852Y004818D01*
X003777Y004806D01*
X003705Y004783D01*
X003638Y004749D01*
X003577Y004704D01*
X003523Y004651D01*
X003479Y004590D01*
X003445Y004523D01*
X003421Y004451D01*
X003410Y004376D01*
X003410Y004058D01*
X003870Y004058D01*
X003870Y004018D01*
X003910Y004018D01*
X003910Y003258D01*
X003927Y003258D01*
X004002Y003270D01*
X004074Y003293D01*
X004141Y003328D01*
X004202Y003372D01*
X004256Y003426D01*
X004300Y003487D01*
X004334Y003554D01*
X004358Y003626D01*
X004370Y003700D01*
X004370Y004018D01*
X004370Y003984D02*
X008768Y003984D01*
X008768Y003826D02*
X004370Y003826D01*
X004364Y003667D02*
X008768Y003667D01*
X008768Y003509D02*
X004311Y003509D01*
X004172Y003350D02*
X008768Y003350D01*
X008768Y003192D02*
X003614Y003192D01*
X003705Y003293D02*
X003638Y003328D01*
X003577Y003372D01*
X003523Y003426D01*
X003479Y003487D01*
X003445Y003554D01*
X003421Y003626D01*
X003410Y003700D01*
X003410Y004018D01*
X003870Y004018D01*
X003870Y003258D01*
X003852Y003258D01*
X003777Y003270D01*
X003705Y003293D01*
X003607Y003350D02*
X003455Y003350D01*
X003468Y003509D02*
X003293Y003509D01*
X003350Y003667D02*
X003415Y003667D01*
X003410Y003826D02*
X003350Y003826D01*
X003350Y003984D02*
X003410Y003984D01*
X003410Y004143D02*
X003350Y004143D01*
X003350Y004301D02*
X003410Y004301D01*
X003424Y004460D02*
X003338Y004460D01*
X003261Y004618D02*
X003500Y004618D01*
X003692Y004777D02*
X003035Y004777D01*
X002744Y004777D02*
X000577Y004777D01*
X000577Y004935D02*
X004407Y004935D01*
X004249Y005094D02*
X000577Y005094D01*
X000577Y005252D02*
X004090Y005252D01*
X003932Y005411D02*
X001992Y005411D01*
X001921Y006045D02*
X004411Y006045D01*
X004253Y005886D02*
X004184Y005886D01*
X004896Y006045D02*
X008768Y006045D01*
X008768Y006203D02*
X000577Y006203D01*
X000577Y006045D02*
X001386Y006045D01*
X001228Y005886D02*
X000577Y005886D01*
X000577Y005728D02*
X001215Y005728D01*
X001215Y005569D02*
X000577Y005569D01*
X000577Y005411D02*
X001315Y005411D01*
X000577Y004618D02*
X002518Y004618D01*
X002441Y004460D02*
X000577Y004460D01*
X000577Y004301D02*
X002429Y004301D01*
X002429Y004143D02*
X000577Y004143D01*
X000577Y003984D02*
X002429Y003984D01*
X002429Y003826D02*
X000583Y003826D01*
X000651Y003667D02*
X002429Y003667D01*
X003680Y003033D02*
X008768Y003033D01*
X008768Y002875D02*
X003727Y002875D01*
X003727Y002716D02*
X008768Y002716D01*
X008768Y002558D02*
X003727Y002558D01*
X003727Y002399D02*
X008768Y002399D01*
X008768Y002241D02*
X003727Y002241D01*
X003727Y002082D02*
X008634Y002082D01*
X008475Y001924D02*
X003727Y001924D01*
X003727Y001765D02*
X008006Y001765D01*
X007851Y001607D02*
X003727Y001607D01*
X003727Y001448D02*
X007851Y001448D01*
X007851Y001290D02*
X003727Y001290D01*
X003727Y001131D02*
X007981Y001131D01*
X008562Y001131D02*
X009840Y001131D01*
X009733Y001024D02*
X009733Y000841D01*
X009733Y000659D01*
X009991Y000401D01*
X010173Y000401D01*
X010173Y000841D01*
X010173Y000841D01*
X010173Y000401D01*
X010355Y000401D01*
X010613Y000659D01*
X010613Y000841D01*
X010173Y000841D01*
X009733Y000841D01*
X010173Y000841D01*
X010173Y000841D01*
X010173Y000841D01*
X010613Y000841D01*
X010613Y001024D01*
X010355Y001281D01*
X010173Y001281D01*
X009991Y001281D01*
X009733Y001024D01*
X009733Y000973D02*
X003727Y000973D01*
X003727Y000814D02*
X009733Y000814D01*
X009737Y000656D02*
X003738Y000656D01*
X003821Y000497D02*
X009895Y000497D01*
X010173Y000497D02*
X010173Y000497D01*
X010173Y000656D02*
X010173Y000656D01*
X010173Y000814D02*
X010173Y000814D01*
X010173Y000841D02*
X010173Y001281D01*
X010173Y000841D01*
X010173Y000841D01*
X010173Y000973D02*
X010173Y000973D01*
X010173Y001131D02*
X010173Y001131D01*
X010380Y001290D02*
X008692Y001290D01*
X008692Y001448D02*
X010252Y001448D01*
X010252Y001417D02*
X010499Y001171D01*
X010847Y001171D01*
X011094Y001417D01*
X011094Y001766D01*
X010847Y002012D01*
X010499Y002012D01*
X010252Y001766D01*
X010252Y001417D01*
X010252Y001607D02*
X008724Y001607D01*
X008883Y001765D02*
X010252Y001765D01*
X010410Y001924D02*
X009041Y001924D01*
X009168Y002082D02*
X014521Y002082D01*
X014456Y001924D02*
X010936Y001924D01*
X011094Y001765D02*
X014424Y001765D01*
X014424Y001607D02*
X011094Y001607D01*
X011094Y001448D02*
X014469Y001448D01*
X014535Y001290D02*
X010966Y001290D01*
X010991Y001281D02*
X010733Y001024D01*
X010733Y000841D01*
X010733Y000659D01*
X010991Y000401D01*
X011173Y000401D01*
X011173Y000841D01*
X011173Y000841D01*
X011173Y000401D01*
X011355Y000401D01*
X011613Y000659D01*
X011613Y000841D01*
X011173Y000841D01*
X010733Y000841D01*
X011173Y000841D01*
X011173Y000841D01*
X011173Y000841D01*
X011613Y000841D01*
X011613Y001024D01*
X011355Y001281D01*
X011173Y001281D01*
X010991Y001281D01*
X011173Y001281D02*
X011173Y000841D01*
X011173Y000841D01*
X011173Y001281D01*
X011173Y001131D02*
X011173Y001131D01*
X011173Y000973D02*
X011173Y000973D01*
X011173Y000814D02*
X011173Y000814D01*
X011173Y000656D02*
X011173Y000656D01*
X011173Y000497D02*
X011173Y000497D01*
X010895Y000497D02*
X010451Y000497D01*
X010609Y000656D02*
X010737Y000656D01*
X010733Y000814D02*
X010613Y000814D01*
X010613Y000973D02*
X010733Y000973D01*
X010840Y001131D02*
X010506Y001131D01*
X011506Y001131D02*
X014693Y001131D01*
X015606Y001131D02*
X017540Y001131D01*
X017540Y000973D02*
X011613Y000973D01*
X011613Y000814D02*
X017540Y000814D01*
X017530Y000656D02*
X011609Y000656D01*
X011451Y000497D02*
X017446Y000497D01*
X017540Y001290D02*
X015764Y001290D01*
X015830Y001448D02*
X017540Y001448D01*
X017540Y001607D02*
X015875Y001607D01*
X015875Y001765D02*
X017540Y001765D01*
X017540Y001924D02*
X015843Y001924D01*
X015897Y002082D02*
X017540Y002082D01*
X017540Y002241D02*
X016056Y002241D01*
X016214Y002399D02*
X017540Y002399D01*
X017540Y002558D02*
X016373Y002558D01*
X016531Y002716D02*
X017540Y002716D01*
X017540Y002875D02*
X016690Y002875D01*
X016848Y003033D02*
X017587Y003033D01*
X017652Y003190D02*
X017652Y003190D01*
X017654Y003192D02*
X017007Y003192D01*
X017165Y003350D02*
X017812Y003350D01*
X017860Y003397D02*
X017860Y003397D01*
X018128Y003509D02*
X017324Y003509D01*
X016914Y003826D02*
X012299Y003826D01*
X012304Y003984D02*
X014789Y003984D01*
X014748Y004001D02*
X015009Y003893D01*
X015290Y003893D01*
X015551Y004001D01*
X015750Y004200D01*
X015858Y004460D01*
X015858Y004742D01*
X015750Y005002D01*
X015551Y005202D01*
X015290Y005309D01*
X015009Y005309D01*
X014748Y005202D01*
X014549Y005002D01*
X014441Y004742D01*
X014441Y004460D01*
X014549Y004200D01*
X014748Y004001D01*
X014607Y004143D02*
X012280Y004143D01*
X012256Y004301D02*
X014507Y004301D01*
X014442Y004460D02*
X012218Y004460D01*
X012141Y004618D02*
X014441Y004618D01*
X014455Y004777D02*
X012065Y004777D01*
X011958Y004935D02*
X014521Y004935D01*
X014640Y005094D02*
X011811Y005094D01*
X011681Y005234D02*
X011681Y005234D01*
X011649Y005252D02*
X014870Y005252D01*
X015429Y005252D02*
X018340Y005252D01*
X018182Y005094D02*
X015659Y005094D01*
X015778Y004935D02*
X018023Y004935D01*
X017865Y004777D02*
X015843Y004777D01*
X015858Y004618D02*
X017706Y004618D01*
X017548Y004460D02*
X015857Y004460D01*
X015792Y004301D02*
X017389Y004301D01*
X017231Y004143D02*
X015692Y004143D01*
X015510Y003984D02*
X017072Y003984D01*
X016755Y003667D02*
X012276Y003667D01*
X012252Y003509D02*
X016597Y003509D01*
X016438Y003350D02*
X012203Y003350D01*
X012239Y003425D02*
X012239Y003425D01*
X012127Y003192D02*
X016280Y003192D01*
X016121Y003033D02*
X012050Y003033D01*
X012022Y002974D02*
X012022Y002974D01*
X011930Y002875D02*
X015963Y002875D01*
X015804Y002716D02*
X011783Y002716D01*
X011681Y002607D02*
X011681Y002607D01*
X011596Y002558D02*
X015646Y002558D01*
X015487Y002399D02*
X015362Y002399D01*
X014937Y002399D02*
X011321Y002399D01*
X010759Y002245D02*
X010759Y002245D01*
X010260Y002282D02*
X010260Y002282D01*
X009962Y002399D02*
X009168Y002399D01*
X009168Y002241D02*
X014662Y002241D01*
X011375Y005411D02*
X018499Y005411D01*
X018756Y005728D02*
X009168Y005728D01*
X009168Y005886D02*
X018756Y005886D01*
X018756Y006045D02*
X009168Y006045D01*
X009168Y006203D02*
X018633Y006203D01*
X018563Y006362D02*
X009168Y006362D01*
X009168Y006520D02*
X018551Y006520D01*
X018590Y006679D02*
X009168Y006679D01*
X009168Y006837D02*
X018698Y006837D01*
X011247Y005484D02*
X011247Y005484D01*
X008768Y005411D02*
X004967Y005411D01*
X005074Y005569D02*
X008768Y005569D01*
X008768Y005728D02*
X005074Y005728D01*
X005054Y005886D02*
X008768Y005886D01*
X008768Y006362D02*
X000577Y006362D01*
X000577Y006520D02*
X008768Y006520D01*
X008768Y005252D02*
X004818Y005252D01*
X004976Y005094D02*
X008768Y005094D01*
X008768Y004618D02*
X008709Y004618D01*
X008710Y004460D02*
X008768Y004460D01*
X008768Y004301D02*
X008710Y004301D01*
X008768Y004143D02*
X008598Y004143D01*
X009168Y003033D02*
X009228Y003033D01*
X009168Y002875D02*
X009336Y002875D01*
X009479Y002716D02*
X009168Y002716D01*
X009168Y002558D02*
X009678Y002558D01*
X009794Y002465D02*
X009794Y002465D01*
X005041Y004301D02*
X004370Y004301D01*
X004355Y004460D02*
X004883Y004460D01*
X004724Y004618D02*
X004280Y004618D01*
X004087Y004777D02*
X004566Y004777D01*
X003910Y004777D02*
X003870Y004777D01*
X003870Y004618D02*
X003910Y004618D01*
X003910Y004460D02*
X003870Y004460D01*
X003870Y004301D02*
X003910Y004301D01*
X003910Y004143D02*
X003870Y004143D01*
X003870Y003984D02*
X003910Y003984D01*
X003910Y003826D02*
X003870Y003826D01*
X003870Y003667D02*
X003910Y003667D01*
X003910Y003509D02*
X003870Y003509D01*
X003870Y003350D02*
X003910Y003350D01*
X001075Y008264D02*
X001075Y008264D01*
X001075Y008422D02*
X001075Y008422D01*
X001075Y008581D02*
X001075Y008581D01*
X001075Y008739D02*
X001075Y008739D01*
X000749Y008898D02*
X000577Y008898D01*
X000577Y009056D02*
X000645Y009056D01*
X000614Y009215D02*
X000577Y009215D01*
X000577Y009373D02*
X000638Y009373D01*
X000577Y009532D02*
X000731Y009532D01*
X000744Y009690D02*
X000577Y009690D01*
X000577Y009849D02*
X000643Y009849D01*
X000614Y010007D02*
X000577Y010007D01*
X000577Y010166D02*
X000640Y010166D01*
X000577Y010324D02*
X000736Y010324D01*
X000739Y010483D02*
X000577Y010483D01*
X000577Y010641D02*
X000641Y010641D01*
X000614Y010800D02*
X000577Y010800D01*
X000577Y010958D02*
X000642Y010958D01*
X000577Y011117D02*
X000741Y011117D01*
X000734Y011275D02*
X000577Y011275D01*
X000577Y011434D02*
X000639Y011434D01*
X000614Y011592D02*
X000577Y011592D01*
X000577Y011751D02*
X000644Y011751D01*
X000577Y011909D02*
X000747Y011909D01*
X000728Y012068D02*
X000577Y012068D01*
X000577Y012226D02*
X000637Y012226D01*
X000614Y012385D02*
X000577Y012385D01*
X000577Y012543D02*
X000646Y012543D01*
X000577Y012702D02*
X000752Y012702D01*
X000723Y012860D02*
X000577Y012860D01*
X000577Y013019D02*
X000635Y013019D01*
X000614Y013177D02*
X000577Y013177D01*
X000577Y013336D02*
X000649Y013336D01*
X000577Y013494D02*
X000757Y013494D01*
X000718Y013653D02*
X000577Y013653D01*
X000577Y013811D02*
X000633Y013811D01*
X000614Y013970D02*
X000577Y013970D01*
X000577Y014128D02*
X000651Y014128D01*
X000577Y014287D02*
X000762Y014287D01*
X000713Y014445D02*
X000577Y014445D01*
X000577Y014604D02*
X000630Y014604D01*
X000614Y014762D02*
X000577Y014762D01*
X000577Y014921D02*
X000653Y014921D01*
X000577Y015079D02*
X000767Y015079D01*
X000683Y015238D02*
X000577Y015238D01*
X000577Y015396D02*
X000609Y015396D01*
X000596Y015555D02*
X000577Y015555D01*
X000577Y015713D02*
X000636Y015713D01*
X000577Y015872D02*
X000747Y015872D01*
X000577Y016030D02*
X006575Y016030D01*
X006575Y015872D02*
X001402Y015872D01*
X001514Y015713D02*
X006575Y015713D01*
X006575Y015555D02*
X001553Y015555D01*
X001540Y015396D02*
X006575Y015396D01*
X006575Y015238D02*
X001466Y015238D01*
X001382Y015079D02*
X006483Y015079D01*
X006325Y014921D02*
X001496Y014921D01*
X001535Y014762D02*
X006166Y014762D01*
X006008Y014604D02*
X001519Y014604D01*
X001436Y014445D02*
X005849Y014445D01*
X005691Y014287D02*
X001387Y014287D01*
X001499Y014128D02*
X005532Y014128D01*
X005374Y013970D02*
X001535Y013970D01*
X001517Y013811D02*
X005215Y013811D01*
X005057Y013653D02*
X001431Y013653D01*
X001392Y013494D02*
X004898Y013494D01*
X004740Y013336D02*
X001501Y013336D01*
X001535Y013177D02*
X004581Y013177D01*
X004423Y013019D02*
X001515Y013019D01*
X001426Y012860D02*
X004264Y012860D01*
X004106Y012702D02*
X001398Y012702D01*
X001503Y012543D02*
X003947Y012543D01*
X003789Y012385D02*
X001535Y012385D01*
X001512Y012226D02*
X003630Y012226D01*
X003472Y012068D02*
X001421Y012068D01*
X001403Y011909D02*
X003313Y011909D01*
X003155Y011751D02*
X001505Y011751D01*
X001535Y011592D02*
X002996Y011592D01*
X002838Y011434D02*
X001510Y011434D01*
X001416Y011275D02*
X002679Y011275D01*
X002521Y011117D02*
X001408Y011117D01*
X001507Y010958D02*
X002362Y010958D01*
X002204Y010800D02*
X001535Y010800D01*
X001508Y010641D02*
X002045Y010641D01*
X001887Y010483D02*
X001411Y010483D01*
X001413Y010324D02*
X001728Y010324D01*
X001570Y010166D02*
X001509Y010166D01*
X000702Y008739D02*
X000577Y008739D01*
X000577Y008581D02*
X000617Y008581D01*
X000595Y008422D02*
X000577Y008422D01*
X000577Y008264D02*
X000626Y008264D01*
X000577Y016189D02*
X006575Y016189D01*
X006575Y016347D02*
X002397Y016347D01*
X002276Y016226D02*
X002533Y016483D01*
X002533Y016846D01*
X002276Y017103D01*
X001913Y017103D01*
X001656Y016846D01*
X001656Y016483D01*
X001913Y016226D01*
X002276Y016226D01*
X002533Y016506D02*
X006575Y016506D01*
X006575Y016664D02*
X002533Y016664D01*
X002533Y016823D02*
X006575Y016823D01*
X006575Y016981D02*
X002398Y016981D01*
X001791Y016981D02*
X001400Y016981D01*
X001277Y017104D02*
X001094Y017104D01*
X000912Y017104D01*
X000654Y016847D01*
X000654Y016664D01*
X000577Y016664D01*
X000654Y016664D02*
X001094Y016664D01*
X001094Y016664D01*
X000654Y016664D01*
X000654Y016482D01*
X000912Y016224D01*
X001094Y016224D01*
X001094Y016664D01*
X001094Y016664D01*
X001094Y016664D01*
X001094Y016224D01*
X001277Y016224D01*
X001534Y016482D01*
X001534Y016664D01*
X001656Y016664D01*
X001534Y016664D02*
X001534Y016847D01*
X001277Y017104D01*
X001094Y017104D02*
X001094Y016664D01*
X001094Y017104D01*
X001094Y016981D02*
X001094Y016981D01*
X001094Y016823D02*
X001094Y016823D01*
X001094Y016664D02*
X001094Y016664D01*
X001094Y016664D01*
X001534Y016664D01*
X001094Y016664D01*
X001094Y016506D02*
X001094Y016506D01*
X001094Y016347D02*
X001094Y016347D01*
X000789Y016347D02*
X000577Y016347D01*
X000577Y016506D02*
X000654Y016506D01*
X000654Y016823D02*
X000577Y016823D01*
X000577Y016981D02*
X000789Y016981D01*
X000577Y017140D02*
X006575Y017140D01*
X006575Y017298D02*
X000577Y017298D01*
X000577Y017457D02*
X006575Y017457D01*
X006575Y017615D02*
X000577Y017615D01*
X000577Y017774D02*
X006575Y017774D01*
X006575Y017932D02*
X000577Y017932D01*
X000577Y018091D02*
X006575Y018091D01*
X006575Y018249D02*
X000577Y018249D01*
X000577Y018408D02*
X006575Y018408D01*
X006575Y018566D02*
X006509Y018566D01*
X006073Y018566D02*
X005509Y018566D01*
X005686Y018725D02*
X005896Y018725D01*
X005830Y019042D02*
X005752Y019042D01*
X005752Y019200D02*
X005830Y019200D01*
X005830Y019359D02*
X005752Y019359D01*
X005752Y019517D02*
X005830Y019517D01*
X005834Y019676D02*
X005748Y019676D01*
X005682Y019834D02*
X005900Y019834D01*
X006097Y019993D02*
X005486Y019993D01*
X005097Y019993D02*
X004486Y019993D01*
X004682Y019834D02*
X004900Y019834D01*
X004834Y019676D02*
X004748Y019676D01*
X004752Y019517D02*
X004830Y019517D01*
X004830Y019359D02*
X004752Y019359D01*
X004752Y019200D02*
X004830Y019200D01*
X004830Y019042D02*
X004752Y019042D01*
X004686Y018725D02*
X004896Y018725D01*
X005073Y018566D02*
X004509Y018566D01*
X004073Y018566D02*
X000577Y018566D01*
X001534Y016823D02*
X001656Y016823D01*
X001656Y016506D02*
X001534Y016506D01*
X001399Y016347D02*
X001792Y016347D01*
X003901Y018714D02*
X003830Y018883D01*
X003830Y019359D02*
X003343Y019359D01*
X003547Y019517D02*
X003830Y019517D01*
X003834Y019676D02*
X003646Y019676D01*
X003712Y019834D02*
X003900Y019834D01*
X003727Y019993D02*
X004097Y019993D01*
X003727Y020151D02*
X006575Y020151D01*
X006575Y019993D02*
X006486Y019993D01*
X006575Y020310D02*
X003727Y020310D01*
X003727Y020468D02*
X006575Y020468D01*
X006575Y020627D02*
X003727Y020627D01*
X003727Y020785D02*
X006575Y020785D01*
X006575Y020944D02*
X003727Y020944D01*
X003727Y021102D02*
X006575Y021102D01*
X006575Y021261D02*
X003727Y021261D01*
X003727Y021419D02*
X006575Y021419D01*
X006683Y021578D02*
X003727Y021578D01*
X003727Y021736D02*
X006842Y021736D01*
X007739Y020627D02*
X007883Y020627D01*
X007696Y019834D02*
X008608Y019834D01*
X008608Y019676D02*
X007761Y019676D01*
X007771Y019517D02*
X008608Y019517D01*
X008608Y019359D02*
X007771Y019359D01*
X007771Y019200D02*
X008608Y019200D01*
X008608Y019042D02*
X007771Y019042D01*
X007763Y018883D02*
X008608Y018883D01*
X008608Y018725D02*
X007703Y018725D01*
X007546Y018566D02*
X008608Y018566D01*
X008608Y018408D02*
X006975Y018408D01*
X006975Y018566D02*
X007037Y018566D01*
X007271Y018566D02*
X007311Y018566D01*
X007311Y018725D02*
X007271Y018725D01*
X007271Y018883D02*
X007311Y018883D01*
X006975Y018249D02*
X008634Y018249D01*
X008792Y018091D02*
X006975Y018091D01*
X006975Y017932D02*
X008951Y017932D01*
X009109Y017774D02*
X006975Y017774D01*
X006975Y017615D02*
X009268Y017615D01*
X009426Y017457D02*
X006975Y017457D01*
X006975Y017298D02*
X009585Y017298D01*
X009743Y017140D02*
X006975Y017140D01*
X009008Y019359D02*
X009043Y019359D01*
X009008Y019517D02*
X009091Y019517D01*
X009165Y019676D02*
X009008Y019676D01*
X009008Y019834D02*
X009273Y019834D01*
X009381Y019993D02*
X009008Y019993D01*
X009008Y020151D02*
X009562Y020151D01*
X009402Y020023D02*
X009402Y020023D01*
X009761Y020310D02*
X009008Y020310D01*
X009008Y020468D02*
X010131Y020468D01*
X010260Y020519D02*
X010260Y020519D01*
X010759Y020556D02*
X010759Y020556D01*
X007054Y020468D02*
X006975Y020468D01*
X018002Y016506D02*
X018602Y016506D01*
X018531Y016664D02*
X018161Y016664D01*
X018319Y016823D02*
X018531Y016823D01*
X018555Y016981D02*
X018478Y016981D01*
X018636Y017140D02*
X018713Y017140D01*
X019633Y017140D02*
X019686Y017140D01*
X019652Y017298D02*
X019782Y017298D01*
X009388Y008739D02*
X009168Y008739D01*
X009168Y008581D02*
X009297Y008581D01*
X009275Y008422D02*
X009168Y008422D01*
X009168Y008264D02*
X009309Y008264D01*
X009415Y008105D02*
X009168Y008105D01*
D21*
X009846Y007267D03*
X008271Y007267D03*
X007484Y009235D03*
X007484Y012385D03*
X008271Y014353D03*
X008271Y016322D03*
X007484Y017503D03*
X009453Y021046D03*
X012602Y021440D03*
X012602Y020259D03*
X012602Y014747D03*
X012602Y011991D03*
X012602Y008841D03*
X012602Y005692D03*
X017327Y008841D03*
X017327Y011991D03*
X019689Y004511D03*
X005909Y005298D03*
X004334Y002542D03*
X000988Y006440D03*
X002760Y009629D03*
X002366Y012385D03*
X003547Y013566D03*
X001579Y018684D03*
X004728Y021440D03*
D22*
X019013Y006478D02*
X019039Y006487D01*
X019013Y006478D02*
X019013Y005561D01*
X015186Y001735D01*
X015149Y001701D01*
X008271Y004436D02*
X008250Y004445D01*
X008210Y004485D01*
X005221Y004485D01*
X004025Y005681D01*
X001673Y005681D01*
X001653Y005692D01*
D23*
X001075Y009223D02*
X001075Y009229D01*
X001075Y009388D01*
X006775Y015088D01*
X006775Y021387D01*
X007613Y022224D01*
X013472Y022224D01*
X017498Y018198D01*
X019173Y018198D01*
X019452Y017919D01*
X019452Y017241D01*
X019013Y016803D01*
X018992Y016767D01*
X018973Y017759D02*
X018992Y017767D01*
X018973Y017759D02*
X014150Y012936D01*
X010642Y012936D01*
X010084Y012378D01*
X009765Y012378D01*
X009736Y012373D01*
X009736Y013160D02*
X009765Y013175D01*
X009765Y013374D01*
X010164Y013773D01*
X010164Y017002D01*
X008808Y018357D01*
X008808Y021148D01*
X008250Y021706D01*
X007812Y021706D01*
X007801Y021710D01*
X009736Y013948D02*
X009725Y013932D01*
X009725Y013773D01*
X008968Y013016D01*
X008968Y002133D01*
X008290Y001456D01*
X008271Y001436D01*
M02*
